G04 #@! TF.FileFunction,Soldermask,Bot*
%FSLAX46Y46*%
G04 Gerber Fmt 4.6, Leading zero omitted, Abs format (unit mm)*
G04 Created by KiCad (PCBNEW 4.0.7-e0-6372~58~ubuntu16.04.1) date Tue Jul 24 02:48:08 2018*
%MOMM*%
%LPD*%
G01*
G04 APERTURE LIST*
%ADD10C,0.100000*%
%ADD11R,2.000000X2.000000*%
%ADD12O,2.000000X2.000000*%
%ADD13R,2.200000X2.200000*%
%ADD14C,2.200000*%
%ADD15C,2.899360*%
%ADD16C,6.400000*%
%ADD17C,2.279600*%
%ADD18C,2.581860*%
%ADD19C,2.000000*%
%ADD20R,3.410000X1.910000*%
%ADD21O,3.410000X1.910000*%
%ADD22O,1.650000X1.350000*%
%ADD23O,1.400000X1.950000*%
%ADD24C,2.100000*%
%ADD25O,2.100000X2.100000*%
%ADD26R,2.398980X2.398980*%
%ADD27R,4.900000X3.100000*%
%ADD28R,3.400000X2.600000*%
G04 APERTURE END LIST*
D10*
D11*
X62090000Y-54660000D03*
D12*
X69710000Y-47040000D03*
X64630000Y-54660000D03*
X67170000Y-47040000D03*
X67170000Y-54660000D03*
X64630000Y-47040000D03*
X69710000Y-54660000D03*
X62090000Y-47040000D03*
D13*
X76610000Y-41260000D03*
D14*
X76610000Y-38720000D03*
D15*
X87690000Y-49080000D03*
X87690000Y-38920000D03*
D16*
X105030000Y-39680000D03*
X116150000Y-60400000D03*
X116740000Y-49920000D03*
X112440000Y-42800000D03*
D17*
X65029400Y-72031200D03*
X65029400Y-65528800D03*
X69550600Y-72031200D03*
X69550600Y-65528800D03*
D18*
X41702220Y-65781280D03*
X44300640Y-65781280D03*
X46800000Y-70780000D03*
X51897780Y-65781280D03*
X49299360Y-65781280D03*
D19*
X49230000Y-58890000D03*
X44230000Y-58890000D03*
D20*
X43180000Y-53300000D03*
D21*
X43180000Y-50760000D03*
D16*
X105180000Y-71030000D03*
X112740000Y-67690000D03*
D22*
X90890000Y-70990000D03*
X95890000Y-70990000D03*
D23*
X89890000Y-73690000D03*
X96890000Y-73690000D03*
D24*
X88340000Y-63830000D03*
D25*
X90880000Y-63830000D03*
X93420000Y-63830000D03*
X95960000Y-63830000D03*
X98500000Y-63830000D03*
D10*
G36*
X54781120Y-63158200D02*
X57578880Y-63158200D01*
X57180100Y-67058320D01*
X55179900Y-67058320D01*
X54781120Y-63158200D01*
X54781120Y-63158200D01*
G37*
G36*
X57578880Y-71884320D02*
X54781120Y-71884320D01*
X55179900Y-67984200D01*
X57180100Y-67984200D01*
X57578880Y-71884320D01*
X57578880Y-71884320D01*
G37*
D26*
X56180000Y-62520000D03*
X56180000Y-72522520D03*
D10*
G36*
X76518880Y-72211800D02*
X73721120Y-72211800D01*
X74119900Y-68311680D01*
X76120100Y-68311680D01*
X76518880Y-72211800D01*
X76518880Y-72211800D01*
G37*
G36*
X73721120Y-63485680D02*
X76518880Y-63485680D01*
X76120100Y-67385800D01*
X74119900Y-67385800D01*
X73721120Y-63485680D01*
X73721120Y-63485680D01*
G37*
D26*
X75120000Y-72850000D03*
X75120000Y-62847480D03*
D10*
G36*
X59101120Y-63188200D02*
X61898880Y-63188200D01*
X61500100Y-67088320D01*
X59499900Y-67088320D01*
X59101120Y-63188200D01*
X59101120Y-63188200D01*
G37*
G36*
X61898880Y-71914320D02*
X59101120Y-71914320D01*
X59499900Y-68014200D01*
X61500100Y-68014200D01*
X61898880Y-71914320D01*
X61898880Y-71914320D01*
G37*
D26*
X60500000Y-62550000D03*
X60500000Y-72552520D03*
D10*
G36*
X78638880Y-55473060D02*
X75841120Y-55473060D01*
X76239900Y-51572940D01*
X78240100Y-51572940D01*
X78638880Y-55473060D01*
X78638880Y-55473060D01*
G37*
G36*
X75841120Y-46746940D02*
X78638880Y-46746940D01*
X78240100Y-50647060D01*
X76239900Y-50647060D01*
X75841120Y-46746940D01*
X75841120Y-46746940D01*
G37*
D26*
X77240000Y-56111260D03*
X77240000Y-46108740D03*
D27*
X84050000Y-54890000D03*
X91850000Y-54890000D03*
D10*
G36*
X84928880Y-72203060D02*
X82131120Y-72203060D01*
X82529900Y-68302940D01*
X84530100Y-68302940D01*
X84928880Y-72203060D01*
X84928880Y-72203060D01*
G37*
G36*
X82131120Y-63476940D02*
X84928880Y-63476940D01*
X84530100Y-67377060D01*
X82529900Y-67377060D01*
X82131120Y-63476940D01*
X82131120Y-63476940D01*
G37*
D26*
X83530000Y-72841260D03*
X83530000Y-62838740D03*
D10*
G36*
X80718880Y-72230060D02*
X77921120Y-72230060D01*
X78319900Y-68329940D01*
X80320100Y-68329940D01*
X80718880Y-72230060D01*
X80718880Y-72230060D01*
G37*
G36*
X77921120Y-63503940D02*
X80718880Y-63503940D01*
X80320100Y-67404060D01*
X78319900Y-67404060D01*
X77921120Y-63503940D01*
X77921120Y-63503940D01*
G37*
D26*
X79320000Y-72868260D03*
X79320000Y-62865740D03*
D27*
X84050000Y-59010000D03*
X91850000Y-59010000D03*
D19*
X50710000Y-49700000D03*
X50710000Y-54700000D03*
D10*
G36*
X56771120Y-47919940D02*
X59568880Y-47919940D01*
X59170100Y-51820060D01*
X57169900Y-51820060D01*
X56771120Y-47919940D01*
X56771120Y-47919940D01*
G37*
G36*
X59568880Y-56646060D02*
X56771120Y-56646060D01*
X57169900Y-52745940D01*
X59170100Y-52745940D01*
X59568880Y-56646060D01*
X59568880Y-56646060D01*
G37*
D26*
X58170000Y-47281740D03*
X58170000Y-57284260D03*
D16*
X69870000Y-40080000D03*
X62510000Y-40170000D03*
D28*
X41710000Y-41860000D03*
X54410000Y-41860000D03*
M02*
