G04 #@! TF.FileFunction,Copper,L2,Bot,Signal*
%FSLAX46Y46*%
G04 Gerber Fmt 4.6, Leading zero omitted, Abs format (unit mm)*
G04 Created by KiCad (PCBNEW 4.0.7-e0-6372~58~ubuntu16.04.1) date Tue Jul 24 02:48:08 2018*
%MOMM*%
%LPD*%
G01*
G04 APERTURE LIST*
%ADD10C,0.100000*%
%ADD11R,1.600000X1.600000*%
%ADD12O,1.600000X1.600000*%
%ADD13R,1.800000X1.800000*%
%ADD14C,1.800000*%
%ADD15C,2.499360*%
%ADD16C,6.000000*%
%ADD17C,1.879600*%
%ADD18C,2.181860*%
%ADD19C,1.600000*%
%ADD20R,3.010000X1.510000*%
%ADD21O,3.010000X1.510000*%
%ADD22O,1.250000X0.950000*%
%ADD23O,1.000000X1.550000*%
%ADD24C,1.700000*%
%ADD25O,1.700000X1.700000*%
%ADD26R,1.998980X1.998980*%
%ADD27R,4.500000X2.700000*%
%ADD28R,3.000000X2.200000*%
%ADD29C,0.400000*%
%ADD30C,0.300000*%
%ADD31C,0.254000*%
G04 APERTURE END LIST*
D10*
D11*
X62090000Y-54660000D03*
D12*
X69710000Y-47040000D03*
X64630000Y-54660000D03*
X67170000Y-47040000D03*
X67170000Y-54660000D03*
X64630000Y-47040000D03*
X69710000Y-54660000D03*
X62090000Y-47040000D03*
D13*
X76610000Y-41260000D03*
D14*
X76610000Y-38720000D03*
D15*
X87690000Y-49080000D03*
X87690000Y-38920000D03*
D16*
X105030000Y-39680000D03*
X116150000Y-60400000D03*
X116740000Y-49920000D03*
X112440000Y-42800000D03*
D17*
X65029400Y-72031200D03*
X65029400Y-65528800D03*
X69550600Y-72031200D03*
X69550600Y-65528800D03*
D18*
X41702220Y-65781280D03*
X44300640Y-65781280D03*
X46800000Y-70780000D03*
X51897780Y-65781280D03*
X49299360Y-65781280D03*
D19*
X49230000Y-58890000D03*
X44230000Y-58890000D03*
D20*
X43180000Y-53300000D03*
D21*
X43180000Y-50760000D03*
D16*
X105180000Y-71030000D03*
X112740000Y-67690000D03*
D22*
X90890000Y-70990000D03*
X95890000Y-70990000D03*
D23*
X89890000Y-73690000D03*
X96890000Y-73690000D03*
D24*
X88340000Y-63830000D03*
D25*
X90880000Y-63830000D03*
X93420000Y-63830000D03*
X95960000Y-63830000D03*
X98500000Y-63830000D03*
D10*
G36*
X54981120Y-63358200D02*
X57378880Y-63358200D01*
X56980100Y-66858320D01*
X55379900Y-66858320D01*
X54981120Y-63358200D01*
X54981120Y-63358200D01*
G37*
G36*
X57378880Y-71684320D02*
X54981120Y-71684320D01*
X55379900Y-68184200D01*
X56980100Y-68184200D01*
X57378880Y-71684320D01*
X57378880Y-71684320D01*
G37*
D26*
X56180000Y-62520000D03*
X56180000Y-72522520D03*
D10*
G36*
X76318880Y-72011800D02*
X73921120Y-72011800D01*
X74319900Y-68511680D01*
X75920100Y-68511680D01*
X76318880Y-72011800D01*
X76318880Y-72011800D01*
G37*
G36*
X73921120Y-63685680D02*
X76318880Y-63685680D01*
X75920100Y-67185800D01*
X74319900Y-67185800D01*
X73921120Y-63685680D01*
X73921120Y-63685680D01*
G37*
D26*
X75120000Y-72850000D03*
X75120000Y-62847480D03*
D10*
G36*
X59301120Y-63388200D02*
X61698880Y-63388200D01*
X61300100Y-66888320D01*
X59699900Y-66888320D01*
X59301120Y-63388200D01*
X59301120Y-63388200D01*
G37*
G36*
X61698880Y-71714320D02*
X59301120Y-71714320D01*
X59699900Y-68214200D01*
X61300100Y-68214200D01*
X61698880Y-71714320D01*
X61698880Y-71714320D01*
G37*
D26*
X60500000Y-62550000D03*
X60500000Y-72552520D03*
D10*
G36*
X78438880Y-55273060D02*
X76041120Y-55273060D01*
X76439900Y-51772940D01*
X78040100Y-51772940D01*
X78438880Y-55273060D01*
X78438880Y-55273060D01*
G37*
G36*
X76041120Y-46946940D02*
X78438880Y-46946940D01*
X78040100Y-50447060D01*
X76439900Y-50447060D01*
X76041120Y-46946940D01*
X76041120Y-46946940D01*
G37*
D26*
X77240000Y-56111260D03*
X77240000Y-46108740D03*
D27*
X84050000Y-54890000D03*
X91850000Y-54890000D03*
D10*
G36*
X84728880Y-72003060D02*
X82331120Y-72003060D01*
X82729900Y-68502940D01*
X84330100Y-68502940D01*
X84728880Y-72003060D01*
X84728880Y-72003060D01*
G37*
G36*
X82331120Y-63676940D02*
X84728880Y-63676940D01*
X84330100Y-67177060D01*
X82729900Y-67177060D01*
X82331120Y-63676940D01*
X82331120Y-63676940D01*
G37*
D26*
X83530000Y-72841260D03*
X83530000Y-62838740D03*
D10*
G36*
X80518880Y-72030060D02*
X78121120Y-72030060D01*
X78519900Y-68529940D01*
X80120100Y-68529940D01*
X80518880Y-72030060D01*
X80518880Y-72030060D01*
G37*
G36*
X78121120Y-63703940D02*
X80518880Y-63703940D01*
X80120100Y-67204060D01*
X78519900Y-67204060D01*
X78121120Y-63703940D01*
X78121120Y-63703940D01*
G37*
D26*
X79320000Y-72868260D03*
X79320000Y-62865740D03*
D27*
X84050000Y-59010000D03*
X91850000Y-59010000D03*
D19*
X50710000Y-49700000D03*
X50710000Y-54700000D03*
D10*
G36*
X56971120Y-48119940D02*
X59368880Y-48119940D01*
X58970100Y-51620060D01*
X57369900Y-51620060D01*
X56971120Y-48119940D01*
X56971120Y-48119940D01*
G37*
G36*
X59368880Y-56446060D02*
X56971120Y-56446060D01*
X57369900Y-52945940D01*
X58970100Y-52945940D01*
X59368880Y-56446060D01*
X59368880Y-56446060D01*
G37*
D26*
X58170000Y-47281740D03*
X58170000Y-57284260D03*
D16*
X69870000Y-40080000D03*
X62510000Y-40170000D03*
D28*
X41710000Y-41860000D03*
X54410000Y-41860000D03*
D29*
X83530000Y-72841260D02*
X83530000Y-70253000D01*
X77240000Y-56111260D02*
X77240000Y-53523000D01*
X56180000Y-72522520D02*
X56180000Y-69934260D01*
X60500000Y-72552520D02*
X60500000Y-69964260D01*
X58170000Y-54696000D02*
X58170000Y-57284260D01*
X56180000Y-62520000D02*
X56180000Y-65108260D01*
X58170000Y-47281740D02*
X58170000Y-49870000D01*
X77240000Y-46108740D02*
X77240000Y-48697000D01*
X75120000Y-62847480D02*
X75120000Y-65435740D01*
D30*
X90520000Y-60930000D02*
X79390000Y-60930000D01*
X79390000Y-60930000D02*
X75737990Y-60930000D01*
D29*
X82950000Y-59010000D02*
X81310000Y-59010000D01*
X81310000Y-59010000D02*
X79390000Y-60930000D01*
D30*
X93420000Y-63830000D02*
X90520000Y-60930000D01*
X75737990Y-60930000D02*
X75120000Y-61547990D01*
X75120000Y-61547990D02*
X75120000Y-62847480D01*
D29*
X83530000Y-62838740D02*
X83530000Y-65427000D01*
X79320000Y-62865740D02*
X79320000Y-65454000D01*
D30*
X88580000Y-67620000D02*
X86680000Y-67620000D01*
X86680000Y-67620000D02*
X85723000Y-67620000D01*
D29*
X82950000Y-54890000D02*
X85060000Y-57000000D01*
X100400000Y-66390000D02*
X99170000Y-67620000D01*
X85060000Y-57000000D02*
X95310000Y-57000000D01*
X95310000Y-57000000D02*
X100400000Y-62090000D01*
X100400000Y-62090000D02*
X100400000Y-66390000D01*
X99170000Y-67620000D02*
X86680000Y-67620000D01*
D30*
X79320000Y-62865740D02*
X83503000Y-62865740D01*
X83503000Y-62865740D02*
X83530000Y-62838740D01*
X85723000Y-67620000D02*
X83530000Y-65427000D01*
X90030001Y-66169999D02*
X88580000Y-67620000D01*
X90880000Y-63830000D02*
X90030001Y-64679999D01*
X90030001Y-64679999D02*
X90030001Y-66169999D01*
D29*
X112750000Y-58010000D02*
X115140000Y-60400000D01*
X115140000Y-60400000D02*
X116150000Y-60400000D01*
X112750000Y-52040000D02*
X112750000Y-58010000D01*
X81470000Y-52040000D02*
X112750000Y-52040000D01*
X80410000Y-53100000D02*
X81470000Y-52040000D01*
X80410000Y-53949998D02*
X80410000Y-53100000D01*
X80450000Y-57790000D02*
X80450000Y-53989998D01*
X80450000Y-53989998D02*
X80410000Y-53949998D01*
X79400000Y-58840000D02*
X80450000Y-57790000D01*
X75170000Y-58840000D02*
X79400000Y-58840000D01*
X74580000Y-58250000D02*
X75170000Y-58840000D01*
X74580000Y-56930242D02*
X74580000Y-58250000D01*
X74870000Y-53300000D02*
X74870000Y-56640242D01*
X74870000Y-56640242D02*
X74580000Y-56930242D01*
X72130000Y-50560000D02*
X74870000Y-53300000D01*
X68150000Y-50560000D02*
X72130000Y-50560000D01*
X64630000Y-47040000D02*
X68150000Y-50560000D01*
X99700000Y-43490000D02*
X106130000Y-49920000D01*
X106130000Y-49920000D02*
X116740000Y-49920000D01*
X74391370Y-43490000D02*
X99700000Y-43490000D01*
X69710000Y-47040000D02*
X70841370Y-47040000D01*
X70841370Y-47040000D02*
X74391370Y-43490000D01*
X60500000Y-62550000D02*
X60500000Y-65138260D01*
X75120000Y-72850000D02*
X75120000Y-70261740D01*
D30*
X72880000Y-62260000D02*
X67170000Y-56550000D01*
X67170000Y-56550000D02*
X67170000Y-54660000D01*
X75120000Y-70261740D02*
X72880000Y-68021740D01*
X72880000Y-68021740D02*
X72880000Y-62260000D01*
X77220000Y-74110000D02*
X76490000Y-74840000D01*
X76490000Y-74840000D02*
X74481018Y-74840000D01*
D29*
X79320000Y-72868260D02*
X79320000Y-70280000D01*
D30*
X65530000Y-57180000D02*
X63510000Y-57180000D01*
X63510000Y-57180000D02*
X62090000Y-55760000D01*
X62090000Y-55760000D02*
X62090000Y-54660000D01*
X71570000Y-63220000D02*
X65530000Y-57180000D01*
X71570000Y-71928982D02*
X71570000Y-63220000D01*
X74481018Y-74840000D02*
X71570000Y-71928982D01*
X77220000Y-73438982D02*
X77220000Y-74110000D01*
X77190000Y-71310510D02*
X77190000Y-73408982D01*
X77190000Y-73408982D02*
X77220000Y-73438982D01*
X79320000Y-70280000D02*
X78220510Y-70280000D01*
X78220510Y-70280000D02*
X77190000Y-71310510D01*
D31*
G36*
X105378588Y-33862402D02*
X105591136Y-33874834D01*
X105806826Y-33893685D01*
X106025526Y-33918976D01*
X106247206Y-33950734D01*
X106471861Y-33988991D01*
X106699293Y-34033743D01*
X106929545Y-34085026D01*
X107162501Y-34142845D01*
X107398112Y-34207217D01*
X107636304Y-34278152D01*
X107877007Y-34355657D01*
X108120101Y-34439722D01*
X108365564Y-34530366D01*
X108613286Y-34627578D01*
X108863191Y-34731354D01*
X109115194Y-34841685D01*
X109369300Y-34958601D01*
X109625283Y-35082025D01*
X109883273Y-35212050D01*
X110142929Y-35348527D01*
X110404411Y-35491568D01*
X110667536Y-35641103D01*
X110932208Y-35797102D01*
X111198457Y-35959612D01*
X111466127Y-36128568D01*
X111735174Y-36303972D01*
X112005521Y-36485800D01*
X112277036Y-36673995D01*
X112549782Y-36868630D01*
X112823589Y-37069618D01*
X113098378Y-37276929D01*
X113374174Y-37490614D01*
X113650802Y-37710577D01*
X113928335Y-37936903D01*
X114206529Y-38169430D01*
X114485397Y-38408204D01*
X114764881Y-38653211D01*
X115044948Y-38904462D01*
X115325529Y-39161929D01*
X115606401Y-39425449D01*
X115887684Y-39695171D01*
X116169306Y-39971068D01*
X116451100Y-40253022D01*
X116732978Y-40540983D01*
X117089354Y-40912883D01*
X117425905Y-41272704D01*
X117744086Y-41622307D01*
X118045176Y-41963358D01*
X118330644Y-42297726D01*
X118601810Y-42627123D01*
X118860203Y-42953490D01*
X119107327Y-43278801D01*
X119344521Y-43604794D01*
X119573345Y-43933558D01*
X119795219Y-44267009D01*
X120011609Y-44607175D01*
X120223937Y-44956047D01*
X120433538Y-45315506D01*
X120641827Y-45687567D01*
X120846681Y-46067740D01*
X121054272Y-46487982D01*
X121253625Y-46921995D01*
X121443529Y-47366981D01*
X121623734Y-47822065D01*
X121793991Y-48286328D01*
X121954060Y-48758894D01*
X122103663Y-49238720D01*
X122242626Y-49725053D01*
X122370687Y-50216880D01*
X122487651Y-50713324D01*
X122593293Y-51213444D01*
X122687421Y-51716350D01*
X122769820Y-52221056D01*
X122840307Y-52726710D01*
X122898702Y-53232431D01*
X122944813Y-53737216D01*
X122978464Y-54240171D01*
X122999499Y-54740357D01*
X123007729Y-55236859D01*
X123003021Y-55728781D01*
X122985224Y-56215131D01*
X122954216Y-56695053D01*
X122909870Y-57167501D01*
X122852077Y-57631613D01*
X122780737Y-58086486D01*
X122695786Y-58531114D01*
X122596445Y-58967739D01*
X122542763Y-59177020D01*
X122484868Y-59386212D01*
X122423545Y-59592152D01*
X122358816Y-59794655D01*
X122290624Y-59993805D01*
X122219027Y-60189314D01*
X122144000Y-60381166D01*
X122065557Y-60569237D01*
X121983705Y-60753425D01*
X121894870Y-60941195D01*
X121874678Y-61021768D01*
X121842652Y-61098407D01*
X121814100Y-61239639D01*
X121778248Y-61385405D01*
X121731731Y-61550711D01*
X121675023Y-61733164D01*
X121608641Y-61930860D01*
X121533999Y-62139741D01*
X121356630Y-62600574D01*
X121150187Y-63097433D01*
X120917554Y-63624451D01*
X120662778Y-64173078D01*
X120389858Y-64735067D01*
X120102726Y-65302407D01*
X119805288Y-65867207D01*
X119501593Y-66421366D01*
X119195584Y-66957048D01*
X118891492Y-67466003D01*
X118593548Y-67940117D01*
X118304673Y-68373426D01*
X118168234Y-68567624D01*
X118035428Y-68749146D01*
X117787601Y-69071358D01*
X117517714Y-69405408D01*
X117227959Y-69749092D01*
X116921437Y-70099143D01*
X116601054Y-70452564D01*
X116269768Y-70806366D01*
X115930466Y-71157641D01*
X115586128Y-71503428D01*
X115239601Y-71840911D01*
X114893871Y-72167158D01*
X114551945Y-72479245D01*
X114216895Y-72774225D01*
X113891815Y-73049173D01*
X113580095Y-73300990D01*
X113285334Y-73526523D01*
X113010692Y-73723120D01*
X112766301Y-73884882D01*
X112492052Y-74054360D01*
X112190275Y-74230093D01*
X111863344Y-74410719D01*
X111513691Y-74594936D01*
X111143439Y-74781671D01*
X110754773Y-74969848D01*
X110349786Y-75158460D01*
X109930539Y-75346539D01*
X109499167Y-75533087D01*
X109057530Y-75717245D01*
X108607756Y-75898036D01*
X108151810Y-76074568D01*
X107691781Y-76245896D01*
X107229559Y-76411168D01*
X106767900Y-76569224D01*
X106282963Y-76726614D01*
X105831352Y-76862758D01*
X105410817Y-76977929D01*
X105019539Y-77072352D01*
X104651808Y-77147162D01*
X104482795Y-77176125D01*
X104316525Y-77200750D01*
X104155935Y-77220587D01*
X104000930Y-77235694D01*
X103851025Y-77246154D01*
X103706032Y-77252096D01*
X103565447Y-77253568D01*
X103428725Y-77250720D01*
X103295755Y-77243607D01*
X103165850Y-77232273D01*
X103038648Y-77216784D01*
X102913588Y-77197116D01*
X102790135Y-77173283D01*
X102667866Y-77145242D01*
X102546249Y-77112916D01*
X102424771Y-77076209D01*
X102303070Y-77035040D01*
X102180655Y-76989268D01*
X102057124Y-76938769D01*
X101936157Y-76885206D01*
X101669154Y-76753994D01*
X100596644Y-76193710D01*
X100482069Y-76160135D01*
X100369022Y-76121734D01*
X98838676Y-75919932D01*
X98421553Y-75861970D01*
X98062424Y-75806796D01*
X97457286Y-75701967D01*
X96950688Y-75607108D01*
X96948348Y-75607134D01*
X96946171Y-75606278D01*
X96706830Y-75563121D01*
X96701612Y-75563215D01*
X96696726Y-75561377D01*
X96455920Y-75521668D01*
X96448561Y-75521910D01*
X96441613Y-75519463D01*
X96190116Y-75483432D01*
X96181593Y-75483893D01*
X96173480Y-75481257D01*
X95902063Y-75449134D01*
X95893375Y-75449818D01*
X95885018Y-75447332D01*
X95584452Y-75419364D01*
X95576410Y-75420200D01*
X95568609Y-75418075D01*
X95229660Y-75394453D01*
X95222579Y-75395356D01*
X95215654Y-75393621D01*
X94829098Y-75374627D01*
X94823181Y-75375505D01*
X94817355Y-75374151D01*
X94373961Y-75359984D01*
X94369108Y-75360789D01*
X94364303Y-75359744D01*
X93854839Y-75350656D01*
X93850952Y-75351357D01*
X93847085Y-75350562D01*
X93263594Y-75346760D01*
X92442916Y-75339036D01*
X91703084Y-75325016D01*
X91702164Y-75325181D01*
X91701252Y-75324984D01*
X91019827Y-75313893D01*
X91015737Y-75314638D01*
X91011664Y-75313809D01*
X90687916Y-75312398D01*
X90683367Y-75313282D01*
X90678809Y-75312418D01*
X90363078Y-75315240D01*
X90357186Y-75316467D01*
X90351256Y-75315448D01*
X90041072Y-75323576D01*
X90033715Y-75325241D01*
X90026256Y-75324125D01*
X89719145Y-75338829D01*
X89710618Y-75340954D01*
X89701897Y-75339873D01*
X89395387Y-75362309D01*
X89385927Y-75364921D01*
X89376156Y-75363989D01*
X89067781Y-75395319D01*
X89057678Y-75398418D01*
X89047134Y-75397734D01*
X88734422Y-75439125D01*
X88724006Y-75442669D01*
X88713009Y-75442304D01*
X88393485Y-75494918D01*
X88383067Y-75498834D01*
X88371938Y-75498821D01*
X88043135Y-75563820D01*
X88032993Y-75568007D01*
X88022021Y-75568340D01*
X87681466Y-75646891D01*
X87631877Y-75669217D01*
X87578460Y-75679390D01*
X87316770Y-75785291D01*
X87310000Y-75789735D01*
X87302080Y-75791435D01*
X87043793Y-75903014D01*
X87038083Y-75906955D01*
X87031330Y-75908546D01*
X86775976Y-76024943D01*
X86771315Y-76028299D01*
X86765746Y-76029708D01*
X86512853Y-76150052D01*
X86507881Y-76153758D01*
X86501903Y-76155384D01*
X86001602Y-76404467D01*
X85998278Y-76407037D01*
X85994241Y-76408188D01*
X85498827Y-76662328D01*
X85008589Y-76912530D01*
X84520920Y-77151509D01*
X84281240Y-77262762D01*
X84039764Y-77369391D01*
X83797911Y-77469815D01*
X83555178Y-77563363D01*
X83311008Y-77649411D01*
X83065019Y-77727270D01*
X82816519Y-77796368D01*
X82564950Y-77856088D01*
X82309648Y-77905814D01*
X82049873Y-77944932D01*
X81784855Y-77972787D01*
X81513737Y-77988697D01*
X81235750Y-77991881D01*
X80950002Y-77981547D01*
X80655574Y-77956808D01*
X80351724Y-77916751D01*
X80037645Y-77860386D01*
X79712619Y-77786699D01*
X79375921Y-77694639D01*
X79013775Y-77578941D01*
X78951719Y-77571906D01*
X78892517Y-77552024D01*
X78549527Y-77508001D01*
X78540453Y-77508625D01*
X78531755Y-77505955D01*
X78187726Y-77470903D01*
X78179652Y-77471671D01*
X78171844Y-77469471D01*
X77827059Y-77442434D01*
X77819954Y-77443277D01*
X77813030Y-77441479D01*
X77467776Y-77421526D01*
X77461660Y-77422379D01*
X77455655Y-77420933D01*
X77110218Y-77407104D01*
X77105048Y-77407919D01*
X77099942Y-77406770D01*
X76754604Y-77398134D01*
X76748786Y-77399141D01*
X76743004Y-77397942D01*
X76053773Y-77392382D01*
X76049119Y-77393269D01*
X76044467Y-77392370D01*
X75359059Y-77396152D01*
X75358176Y-77396333D01*
X75357290Y-77396164D01*
X74680860Y-77401644D01*
X74017666Y-77401365D01*
X73695369Y-77396756D01*
X73376881Y-77387977D01*
X73063814Y-77374211D01*
X72756586Y-77354628D01*
X72455515Y-77328422D01*
X72160920Y-77294846D01*
X71873195Y-77253172D01*
X71592545Y-77202694D01*
X71319259Y-77142752D01*
X71053468Y-77072687D01*
X70795308Y-76991865D01*
X70544716Y-76899606D01*
X70297103Y-76793272D01*
X70182546Y-76738324D01*
X70065555Y-76678019D01*
X69950336Y-76614276D01*
X69836802Y-76546954D01*
X69724935Y-76475930D01*
X69614718Y-76401089D01*
X69506085Y-76322268D01*
X69398977Y-76239298D01*
X69293378Y-76152032D01*
X69181157Y-76053161D01*
X69180302Y-76052665D01*
X69179700Y-76051881D01*
X69115640Y-75995764D01*
X69086453Y-75978934D01*
X69063427Y-75954335D01*
X68992871Y-75903744D01*
X68964438Y-75890851D01*
X68941138Y-75870072D01*
X68864284Y-75824843D01*
X68837328Y-75815442D01*
X68814528Y-75798256D01*
X68731580Y-75758234D01*
X68706592Y-75751769D01*
X68684884Y-75737809D01*
X68596040Y-75702825D01*
X68573215Y-75698700D01*
X68552909Y-75687485D01*
X68458368Y-75657380D01*
X68437787Y-75655067D01*
X68419096Y-75646153D01*
X68319056Y-75620753D01*
X68300520Y-75619783D01*
X68283363Y-75612699D01*
X68178031Y-75591871D01*
X68161581Y-75591890D01*
X68146097Y-75586338D01*
X68035667Y-75569885D01*
X68020963Y-75570598D01*
X68006903Y-75566219D01*
X67891577Y-75553999D01*
X67872566Y-75555730D01*
X67854061Y-75551064D01*
X67609524Y-75538674D01*
X67588799Y-75541716D01*
X67568213Y-75537828D01*
X67306494Y-75540368D01*
X67289873Y-75543842D01*
X67273055Y-75541510D01*
X66995752Y-75557766D01*
X66982490Y-75561222D01*
X66968850Y-75559875D01*
X66677568Y-75588498D01*
X66666890Y-75591735D01*
X66655758Y-75590995D01*
X66352098Y-75630695D01*
X66343501Y-75633605D01*
X66334431Y-75633239D01*
X66019987Y-75682713D01*
X66013067Y-75685258D01*
X66005698Y-75685117D01*
X65682080Y-75743074D01*
X65676570Y-75745234D01*
X65670649Y-75745221D01*
X65339450Y-75810358D01*
X65335125Y-75812138D01*
X65330450Y-75812191D01*
X64993275Y-75883212D01*
X64988799Y-75885125D01*
X64983933Y-75885248D01*
X64298054Y-76039748D01*
X64295141Y-76041042D01*
X64291959Y-76041151D01*
X62922831Y-76362721D01*
X62270617Y-76507864D01*
X61962367Y-76571231D01*
X61665519Y-76627413D01*
X61383742Y-76674877D01*
X61119390Y-76712457D01*
X60875254Y-76739110D01*
X60654535Y-76754044D01*
X60461009Y-76756952D01*
X60290953Y-76747961D01*
X60230154Y-76740835D01*
X60172611Y-76731128D01*
X60125701Y-76720384D01*
X60064920Y-76702143D01*
X59990406Y-76695027D01*
X59918265Y-76675080D01*
X59592856Y-76651148D01*
X59581438Y-76652559D01*
X59570254Y-76649861D01*
X59231997Y-76636201D01*
X59224905Y-76637316D01*
X59217894Y-76635777D01*
X58869514Y-76628891D01*
X58866241Y-76629475D01*
X58862987Y-76628793D01*
X58507582Y-76625156D01*
X58150664Y-76621300D01*
X57798814Y-76613847D01*
X57454493Y-76599578D01*
X57116990Y-76575268D01*
X56958346Y-76559070D01*
X56800591Y-76539175D01*
X56647226Y-76515601D01*
X56498596Y-76488128D01*
X56355195Y-76456581D01*
X56217314Y-76420778D01*
X56085291Y-76380608D01*
X55959417Y-76335981D01*
X55839838Y-76286812D01*
X55726603Y-76233003D01*
X55619673Y-76174436D01*
X55518882Y-76110919D01*
X55423920Y-76042114D01*
X55334414Y-75967549D01*
X55249945Y-75886556D01*
X55157057Y-75783827D01*
X55055751Y-75668383D01*
X54969706Y-75565019D01*
X54815994Y-75365293D01*
X54694464Y-75190200D01*
X54595162Y-75033346D01*
X54430019Y-74753053D01*
X54423656Y-74745925D01*
X54420259Y-74736996D01*
X54350272Y-74625329D01*
X54329403Y-74603205D01*
X54316139Y-74575837D01*
X54248268Y-74486122D01*
X54218544Y-74459693D01*
X54197202Y-74426129D01*
X54162157Y-74389457D01*
X54132610Y-74368731D01*
X54110182Y-74340462D01*
X54073379Y-74309226D01*
X54036352Y-74288641D01*
X54006159Y-74258924D01*
X53966838Y-74233100D01*
X53924006Y-74215756D01*
X53887042Y-74188029D01*
X53844440Y-74167595D01*
X53799220Y-74156007D01*
X53758443Y-74133289D01*
X53711798Y-74118247D01*
X53668407Y-74113209D01*
X53627870Y-74096933D01*
X53576421Y-74087281D01*
X53538437Y-74087695D01*
X53501844Y-74077491D01*
X53444829Y-74073173D01*
X53412720Y-74077069D01*
X53380892Y-74071326D01*
X53317549Y-74072455D01*
X53293247Y-74077741D01*
X53268517Y-74075089D01*
X53198084Y-74081411D01*
X53178784Y-74087084D01*
X53158690Y-74086100D01*
X53080405Y-74097727D01*
X53059919Y-74105061D01*
X53038162Y-74105361D01*
X52854989Y-74144426D01*
X52838363Y-74151583D01*
X52820300Y-74152774D01*
X52596576Y-74212820D01*
X52587684Y-74217210D01*
X52577811Y-74218144D01*
X52318379Y-74295757D01*
X52178033Y-74333483D01*
X52013169Y-74368111D01*
X51811487Y-74402155D01*
X51578020Y-74434390D01*
X51316549Y-74464255D01*
X51030199Y-74491459D01*
X50721960Y-74515838D01*
X50395923Y-74537231D01*
X49689382Y-74571665D01*
X48934984Y-74594457D01*
X48148481Y-74605906D01*
X47346803Y-74606184D01*
X46547395Y-74595889D01*
X45767360Y-74575231D01*
X45024139Y-74544638D01*
X44335208Y-74504565D01*
X43716238Y-74455422D01*
X43443476Y-74428145D01*
X43194413Y-74398894D01*
X42974486Y-74368253D01*
X42787594Y-74336874D01*
X42639356Y-74306143D01*
X42516668Y-74273549D01*
X42391293Y-74237464D01*
X42379102Y-74236439D01*
X42368043Y-74231213D01*
X42237835Y-74198645D01*
X42225629Y-74198050D01*
X42214407Y-74193221D01*
X42086089Y-74165873D01*
X42073979Y-74165708D01*
X42062694Y-74161311D01*
X41936254Y-74138931D01*
X41924318Y-74139184D01*
X41913048Y-74135232D01*
X41788472Y-74117565D01*
X41776691Y-74118219D01*
X41765435Y-74114696D01*
X41642712Y-74101516D01*
X41625646Y-74103045D01*
X41609061Y-74098739D01*
X41369123Y-74084882D01*
X41347621Y-74087883D01*
X41326305Y-74083750D01*
X41093621Y-74084879D01*
X41073796Y-74088923D01*
X41053744Y-74086235D01*
X40828215Y-74100487D01*
X40810540Y-74105179D01*
X40792312Y-74103706D01*
X40573833Y-74129106D01*
X40558473Y-74134062D01*
X40542343Y-74133510D01*
X40330812Y-74168116D01*
X40317908Y-74172951D01*
X40304124Y-74173026D01*
X40099438Y-74214897D01*
X40089082Y-74219253D01*
X40077856Y-74219676D01*
X39879914Y-74266869D01*
X39869716Y-74271551D01*
X39858523Y-74272335D01*
X39482455Y-74374911D01*
X39478318Y-74376974D01*
X39473713Y-74377358D01*
X39128750Y-74476380D01*
X38977489Y-74517140D01*
X38841120Y-74549894D01*
X38721776Y-74573257D01*
X38621325Y-74586771D01*
X38541238Y-74591119D01*
X38470508Y-74587806D01*
X38457864Y-74586065D01*
X38439650Y-74582299D01*
X38424671Y-74578072D01*
X38411848Y-74573390D01*
X38399990Y-74567990D01*
X38387896Y-74561289D01*
X38374397Y-74552360D01*
X38358635Y-74540101D01*
X38340073Y-74523323D01*
X38318481Y-74500859D01*
X38293859Y-74471612D01*
X38266455Y-74434698D01*
X38236651Y-74389436D01*
X38204830Y-74335224D01*
X38171421Y-74271655D01*
X38139474Y-74204020D01*
X38065544Y-74021441D01*
X37993359Y-73804708D01*
X37921921Y-73546295D01*
X37852684Y-73246712D01*
X37790888Y-72921141D01*
X37773696Y-72808270D01*
X54545510Y-72808270D01*
X54545510Y-73648319D01*
X54642183Y-73881708D01*
X54820811Y-74060337D01*
X55054200Y-74157010D01*
X55894250Y-74157010D01*
X56053000Y-73998260D01*
X56053000Y-72649520D01*
X56307000Y-72649520D01*
X56307000Y-73998260D01*
X56465750Y-74157010D01*
X57305800Y-74157010D01*
X57539189Y-74060337D01*
X57717817Y-73881708D01*
X57814490Y-73648319D01*
X57814490Y-72838270D01*
X58865510Y-72838270D01*
X58865510Y-73678319D01*
X58962183Y-73911708D01*
X59140811Y-74090337D01*
X59374200Y-74187010D01*
X60214250Y-74187010D01*
X60373000Y-74028260D01*
X60373000Y-72679520D01*
X60627000Y-72679520D01*
X60627000Y-74028260D01*
X60785750Y-74187010D01*
X61625800Y-74187010D01*
X61859189Y-74090337D01*
X62037817Y-73911708D01*
X62134490Y-73678319D01*
X62134490Y-72838270D01*
X61975740Y-72679520D01*
X60627000Y-72679520D01*
X60373000Y-72679520D01*
X59024260Y-72679520D01*
X58865510Y-72838270D01*
X57814490Y-72838270D01*
X57814490Y-72808270D01*
X57655740Y-72649520D01*
X56307000Y-72649520D01*
X56053000Y-72649520D01*
X54704260Y-72649520D01*
X54545510Y-72808270D01*
X37773696Y-72808270D01*
X37736359Y-72563142D01*
X37689411Y-72176279D01*
X37672524Y-71998308D01*
X45761297Y-71998308D01*
X45871091Y-72274598D01*
X46513758Y-72516307D01*
X47200003Y-72493679D01*
X47728909Y-72274598D01*
X47838703Y-71998308D01*
X46800000Y-70959605D01*
X45761297Y-71998308D01*
X37672524Y-71998308D01*
X37650420Y-71765363D01*
X37619630Y-71335150D01*
X37597178Y-70890022D01*
X37584990Y-70493758D01*
X45063693Y-70493758D01*
X45086321Y-71180003D01*
X45305402Y-71708909D01*
X45581692Y-71818703D01*
X46620395Y-70780000D01*
X46979605Y-70780000D01*
X48018308Y-71818703D01*
X48294598Y-71708909D01*
X48331410Y-71611029D01*
X54337842Y-71611029D01*
X54377958Y-71919637D01*
X54517030Y-72135761D01*
X54545510Y-72155221D01*
X54545510Y-72236770D01*
X54704260Y-72395520D01*
X56053000Y-72395520D01*
X56053000Y-70061260D01*
X56307000Y-70061260D01*
X56307000Y-72395520D01*
X57655740Y-72395520D01*
X57814490Y-72236770D01*
X57814490Y-72147830D01*
X57879955Y-72094323D01*
X57999991Y-71867075D01*
X58019560Y-71641029D01*
X58657842Y-71641029D01*
X58697958Y-71949637D01*
X58837030Y-72165761D01*
X58865510Y-72185221D01*
X58865510Y-72266770D01*
X59024260Y-72425520D01*
X60373000Y-72425520D01*
X60373000Y-70091260D01*
X60627000Y-70091260D01*
X60627000Y-72425520D01*
X61975740Y-72425520D01*
X62058187Y-72343073D01*
X63454327Y-72343073D01*
X63693571Y-72922087D01*
X64136183Y-73365472D01*
X64714779Y-73605726D01*
X65341273Y-73606273D01*
X65920287Y-73367029D01*
X66363672Y-72924417D01*
X66603926Y-72345821D01*
X66604473Y-71719327D01*
X66365229Y-71140313D01*
X65922617Y-70696928D01*
X65344021Y-70456674D01*
X64717527Y-70456127D01*
X64138513Y-70695371D01*
X63695128Y-71137983D01*
X63454874Y-71716579D01*
X63454327Y-72343073D01*
X62058187Y-72343073D01*
X62134490Y-72266770D01*
X62134490Y-72177830D01*
X62199955Y-72124323D01*
X62319991Y-71897075D01*
X62342158Y-71641029D01*
X62165588Y-70091260D01*
X60627000Y-70091260D01*
X60373000Y-70091260D01*
X58834412Y-70091260D01*
X58657842Y-71641029D01*
X58019560Y-71641029D01*
X58022158Y-71611029D01*
X57845588Y-70061260D01*
X56307000Y-70061260D01*
X56053000Y-70061260D01*
X54514412Y-70061260D01*
X54337842Y-71611029D01*
X48331410Y-71611029D01*
X48536307Y-71066242D01*
X48513679Y-70379997D01*
X48294598Y-69851091D01*
X48259794Y-69837260D01*
X58863351Y-69837260D01*
X60373000Y-69837260D01*
X60373000Y-67566760D01*
X60627000Y-67566760D01*
X60627000Y-69837260D01*
X62136649Y-69837260D01*
X61943378Y-68140909D01*
X61903262Y-67978883D01*
X61764190Y-67762759D01*
X61551990Y-67617769D01*
X61300100Y-67566760D01*
X60627000Y-67566760D01*
X60373000Y-67566760D01*
X59699900Y-67566760D01*
X59534374Y-67588277D01*
X59303896Y-67701990D01*
X59135817Y-67896412D01*
X59056622Y-68140909D01*
X58863351Y-69837260D01*
X48259794Y-69837260D01*
X48184300Y-69807260D01*
X54543351Y-69807260D01*
X56053000Y-69807260D01*
X56053000Y-67536760D01*
X56307000Y-67536760D01*
X56307000Y-69807260D01*
X57816649Y-69807260D01*
X57623378Y-68110909D01*
X57583262Y-67948883D01*
X57444190Y-67732759D01*
X57231990Y-67587769D01*
X56980100Y-67536760D01*
X56307000Y-67536760D01*
X56053000Y-67536760D01*
X55379900Y-67536760D01*
X55214374Y-67558277D01*
X54983896Y-67671990D01*
X54815817Y-67866412D01*
X54736622Y-68110909D01*
X54543351Y-69807260D01*
X48184300Y-69807260D01*
X48018308Y-69741297D01*
X46979605Y-70780000D01*
X46620395Y-70780000D01*
X45581692Y-69741297D01*
X45305402Y-69851091D01*
X45063693Y-70493758D01*
X37584990Y-70493758D01*
X37583162Y-70434352D01*
X37577636Y-69972426D01*
X37580287Y-69561692D01*
X45761297Y-69561692D01*
X46800000Y-70600395D01*
X47838703Y-69561692D01*
X47728909Y-69285402D01*
X47086242Y-69043693D01*
X46399997Y-69066321D01*
X45871091Y-69285402D01*
X45761297Y-69561692D01*
X37580287Y-69561692D01*
X37580631Y-69508461D01*
X37592150Y-69046759D01*
X37612178Y-68591535D01*
X37640664Y-68147115D01*
X37677526Y-67717800D01*
X37722610Y-67308153D01*
X37775679Y-66922759D01*
X37838115Y-66556019D01*
X37914898Y-66123083D01*
X39975991Y-66123083D01*
X40238195Y-66757664D01*
X40723283Y-67243599D01*
X41357405Y-67506910D01*
X42044023Y-67507509D01*
X42678604Y-67245305D01*
X43001567Y-66922904D01*
X43321703Y-67243599D01*
X43955825Y-67506910D01*
X44642443Y-67507509D01*
X45277024Y-67245305D01*
X45762959Y-66760217D01*
X46026270Y-66126095D01*
X46026272Y-66123083D01*
X47573131Y-66123083D01*
X47835335Y-66757664D01*
X48320423Y-67243599D01*
X48954545Y-67506910D01*
X49641163Y-67507509D01*
X50275744Y-67245305D01*
X50598707Y-66922904D01*
X50918843Y-67243599D01*
X51552965Y-67506910D01*
X52239583Y-67507509D01*
X52874164Y-67245305D01*
X53360099Y-66760217D01*
X53623410Y-66126095D01*
X53624009Y-65439477D01*
X53361805Y-64804896D01*
X52876717Y-64318961D01*
X52242595Y-64055650D01*
X51555977Y-64055051D01*
X50921396Y-64317255D01*
X50598433Y-64639656D01*
X50278297Y-64318961D01*
X49644175Y-64055650D01*
X48957557Y-64055051D01*
X48322976Y-64317255D01*
X47837041Y-64802343D01*
X47573730Y-65436465D01*
X47573131Y-66123083D01*
X46026272Y-66123083D01*
X46026869Y-65439477D01*
X45764665Y-64804896D01*
X45279577Y-64318961D01*
X44645455Y-64055650D01*
X43958837Y-64055051D01*
X43324256Y-64317255D01*
X43001293Y-64639656D01*
X42681157Y-64318961D01*
X42047035Y-64055650D01*
X41360417Y-64055051D01*
X40725836Y-64317255D01*
X40239901Y-64802343D01*
X39976590Y-65436465D01*
X39975991Y-66123083D01*
X37914898Y-66123083D01*
X37935852Y-66004942D01*
X37935699Y-65997605D01*
X37938221Y-65990714D01*
X38029350Y-65405486D01*
X38029068Y-65398748D01*
X38031263Y-65392370D01*
X38115519Y-64772631D01*
X38115143Y-64766490D01*
X38117042Y-64760638D01*
X38194584Y-64103619D01*
X38194145Y-64098059D01*
X38195780Y-64092731D01*
X38263118Y-63431491D01*
X54337842Y-63431491D01*
X54736622Y-66931611D01*
X54776738Y-67093637D01*
X54915810Y-67309761D01*
X55128010Y-67454751D01*
X55379900Y-67505760D01*
X56980100Y-67505760D01*
X57145626Y-67484243D01*
X57376104Y-67370530D01*
X57544183Y-67176108D01*
X57623378Y-66931611D01*
X58018740Y-63461491D01*
X58657842Y-63461491D01*
X59056622Y-66961611D01*
X59096738Y-67123637D01*
X59235810Y-67339761D01*
X59448010Y-67484751D01*
X59699900Y-67535760D01*
X61300100Y-67535760D01*
X61465626Y-67514243D01*
X61696104Y-67400530D01*
X61864183Y-67206108D01*
X61943378Y-66961611D01*
X62071090Y-65840673D01*
X63454327Y-65840673D01*
X63693571Y-66419687D01*
X64136183Y-66863072D01*
X64714779Y-67103326D01*
X65341273Y-67103873D01*
X65920287Y-66864629D01*
X66363672Y-66422017D01*
X66603926Y-65843421D01*
X66604473Y-65216927D01*
X66365229Y-64637913D01*
X65922617Y-64194528D01*
X65344021Y-63954274D01*
X64717527Y-63953727D01*
X64138513Y-64192971D01*
X63695128Y-64635583D01*
X63454874Y-65214179D01*
X63454327Y-65840673D01*
X62071090Y-65840673D01*
X62342158Y-63461491D01*
X62302042Y-63152883D01*
X62162970Y-62936759D01*
X62146930Y-62925799D01*
X62146930Y-61550510D01*
X62102652Y-61315193D01*
X61963580Y-61099069D01*
X61751380Y-60954079D01*
X61499490Y-60903070D01*
X59500510Y-60903070D01*
X59265193Y-60947348D01*
X59049069Y-61086420D01*
X58904079Y-61298620D01*
X58853070Y-61550510D01*
X58853070Y-62934858D01*
X58800045Y-62978197D01*
X58680009Y-63205445D01*
X58657842Y-63461491D01*
X58018740Y-63461491D01*
X58022158Y-63431491D01*
X57982042Y-63122883D01*
X57842970Y-62906759D01*
X57826930Y-62895799D01*
X57826930Y-61520510D01*
X57782652Y-61285193D01*
X57643580Y-61069069D01*
X57431380Y-60924079D01*
X57179490Y-60873070D01*
X55180510Y-60873070D01*
X54945193Y-60917348D01*
X54729069Y-61056420D01*
X54584079Y-61268620D01*
X54533070Y-61520510D01*
X54533070Y-62904858D01*
X54480045Y-62948197D01*
X54360009Y-63175445D01*
X54337842Y-63431491D01*
X38263118Y-63431491D01*
X38266765Y-63395679D01*
X38266289Y-63390678D01*
X38267695Y-63385852D01*
X38332282Y-62646001D01*
X38331791Y-62641521D01*
X38332995Y-62637178D01*
X38391343Y-61851770D01*
X38390852Y-61847771D01*
X38391883Y-61843879D01*
X38444149Y-61010156D01*
X38443671Y-61006602D01*
X38444553Y-61003128D01*
X38490897Y-60118327D01*
X38490440Y-60115177D01*
X38491196Y-60112083D01*
X38531742Y-59174187D01*
X42794752Y-59174187D01*
X43012757Y-59701800D01*
X43416077Y-60105824D01*
X43943309Y-60324750D01*
X44514187Y-60325248D01*
X45041800Y-60107243D01*
X45445824Y-59703923D01*
X45664750Y-59176691D01*
X45664752Y-59174187D01*
X47794752Y-59174187D01*
X48012757Y-59701800D01*
X48416077Y-60105824D01*
X48943309Y-60324750D01*
X49514187Y-60325248D01*
X50041800Y-60107243D01*
X50445824Y-59703923D01*
X50664750Y-59176691D01*
X50665248Y-58605813D01*
X50447243Y-58078200D01*
X50043923Y-57674176D01*
X49516691Y-57455250D01*
X48945813Y-57454752D01*
X48418200Y-57672757D01*
X48014176Y-58076077D01*
X47795250Y-58603309D01*
X47794752Y-59174187D01*
X45664752Y-59174187D01*
X45665248Y-58605813D01*
X45447243Y-58078200D01*
X45043923Y-57674176D01*
X44516691Y-57455250D01*
X43945813Y-57454752D01*
X43418200Y-57672757D01*
X43014176Y-58076077D01*
X42795250Y-58603309D01*
X42794752Y-59174187D01*
X38531742Y-59174187D01*
X38531775Y-59173446D01*
X38531345Y-59170658D01*
X38531991Y-59167916D01*
X38566964Y-58172683D01*
X38566565Y-58170227D01*
X38567119Y-58167797D01*
X38596645Y-57113203D01*
X38596277Y-57111039D01*
X38596752Y-57108896D01*
X38612728Y-56372769D01*
X56327842Y-56372769D01*
X56367958Y-56681377D01*
X56507030Y-56897501D01*
X56523070Y-56908461D01*
X56523070Y-58283750D01*
X56567348Y-58519067D01*
X56706420Y-58735191D01*
X56918620Y-58880181D01*
X57170510Y-58931190D01*
X59169490Y-58931190D01*
X59404807Y-58886912D01*
X59620931Y-58747840D01*
X59765921Y-58535640D01*
X59816930Y-58283750D01*
X59816930Y-56899402D01*
X59869955Y-56856063D01*
X59989991Y-56628815D01*
X60012158Y-56372769D01*
X59725871Y-53860000D01*
X60642560Y-53860000D01*
X60642560Y-55460000D01*
X60686838Y-55695317D01*
X60825910Y-55911441D01*
X61038110Y-56056431D01*
X61290000Y-56107440D01*
X61396181Y-56107440D01*
X61534921Y-56315079D01*
X62954921Y-57735079D01*
X63209593Y-57905245D01*
X63510000Y-57965000D01*
X65204842Y-57965000D01*
X70785000Y-63545158D01*
X70785000Y-64536307D01*
X70443817Y-64194528D01*
X69865221Y-63954274D01*
X69238727Y-63953727D01*
X68659713Y-64192971D01*
X68216328Y-64635583D01*
X67976074Y-65214179D01*
X67975527Y-65840673D01*
X68214771Y-66419687D01*
X68657383Y-66863072D01*
X69235979Y-67103326D01*
X69862473Y-67103873D01*
X70441487Y-66864629D01*
X70785000Y-66521715D01*
X70785000Y-71038707D01*
X70443817Y-70696928D01*
X69865221Y-70456674D01*
X69238727Y-70456127D01*
X68659713Y-70695371D01*
X68216328Y-71137983D01*
X67976074Y-71716579D01*
X67975527Y-72343073D01*
X68214771Y-72922087D01*
X68657383Y-73365472D01*
X69235979Y-73605726D01*
X69862473Y-73606273D01*
X70441487Y-73367029D01*
X70884872Y-72924417D01*
X71052231Y-72521371D01*
X73925939Y-75395079D01*
X74180611Y-75565245D01*
X74481018Y-75625000D01*
X76490000Y-75625000D01*
X76790407Y-75565245D01*
X77045079Y-75395079D01*
X77775079Y-74665079D01*
X77945245Y-74410406D01*
X77950590Y-74383535D01*
X78068620Y-74464181D01*
X78320510Y-74515190D01*
X80319490Y-74515190D01*
X80554807Y-74470912D01*
X80770931Y-74331840D01*
X80915921Y-74119640D01*
X80966930Y-73867750D01*
X80966930Y-72483402D01*
X81019955Y-72440063D01*
X81139991Y-72212815D01*
X81162158Y-71956769D01*
X81159082Y-71929769D01*
X81687842Y-71929769D01*
X81727958Y-72238377D01*
X81867030Y-72454501D01*
X81883070Y-72465461D01*
X81883070Y-73840750D01*
X81927348Y-74076067D01*
X82066420Y-74292191D01*
X82278620Y-74437181D01*
X82530510Y-74488190D01*
X84529490Y-74488190D01*
X84764807Y-74443912D01*
X84980931Y-74304840D01*
X85125921Y-74092640D01*
X85176930Y-73840750D01*
X85176930Y-73817000D01*
X88755000Y-73817000D01*
X88755000Y-74092000D01*
X88889998Y-74516678D01*
X89177237Y-74857368D01*
X89588126Y-75059119D01*
X89763000Y-74932954D01*
X89763000Y-73817000D01*
X90017000Y-73817000D01*
X90017000Y-74932954D01*
X90191874Y-75059119D01*
X90602763Y-74857368D01*
X90890002Y-74516678D01*
X91025000Y-74092000D01*
X91025000Y-73817000D01*
X95755000Y-73817000D01*
X95755000Y-74092000D01*
X95889998Y-74516678D01*
X96177237Y-74857368D01*
X96588126Y-75059119D01*
X96763000Y-74932954D01*
X96763000Y-73817000D01*
X97017000Y-73817000D01*
X97017000Y-74932954D01*
X97191874Y-75059119D01*
X97602763Y-74857368D01*
X97890002Y-74516678D01*
X98025000Y-74092000D01*
X98025000Y-73817000D01*
X97017000Y-73817000D01*
X96763000Y-73817000D01*
X95755000Y-73817000D01*
X91025000Y-73817000D01*
X90017000Y-73817000D01*
X89763000Y-73817000D01*
X88755000Y-73817000D01*
X85176930Y-73817000D01*
X85176930Y-73288000D01*
X88755000Y-73288000D01*
X88755000Y-73563000D01*
X89763000Y-73563000D01*
X89763000Y-72447046D01*
X90017000Y-72447046D01*
X90017000Y-73563000D01*
X91025000Y-73563000D01*
X91025000Y-73288000D01*
X95755000Y-73288000D01*
X95755000Y-73563000D01*
X96763000Y-73563000D01*
X96763000Y-72447046D01*
X97017000Y-72447046D01*
X97017000Y-73563000D01*
X98025000Y-73563000D01*
X98025000Y-73288000D01*
X97890002Y-72863322D01*
X97602763Y-72522632D01*
X97191874Y-72320881D01*
X97017000Y-72447046D01*
X96763000Y-72447046D01*
X96588126Y-72320881D01*
X96177237Y-72522632D01*
X95889998Y-72863322D01*
X95755000Y-73288000D01*
X91025000Y-73288000D01*
X90890002Y-72863322D01*
X90602763Y-72522632D01*
X90191874Y-72320881D01*
X90017000Y-72447046D01*
X89763000Y-72447046D01*
X89588126Y-72320881D01*
X89177237Y-72522632D01*
X88889998Y-72863322D01*
X88755000Y-73288000D01*
X85176930Y-73288000D01*
X85176930Y-72456402D01*
X85229955Y-72413063D01*
X85349991Y-72185815D01*
X85372158Y-71929769D01*
X85299033Y-71287938D01*
X89670732Y-71287938D01*
X89854448Y-71661821D01*
X90178951Y-71949568D01*
X90588869Y-72091229D01*
X90763000Y-71942563D01*
X90763000Y-71117000D01*
X91017000Y-71117000D01*
X91017000Y-71942563D01*
X91191131Y-72091229D01*
X91601049Y-71949568D01*
X91925552Y-71661821D01*
X92109268Y-71287938D01*
X94670732Y-71287938D01*
X94854448Y-71661821D01*
X95178951Y-71949568D01*
X95588869Y-72091229D01*
X95763000Y-71942563D01*
X95763000Y-71117000D01*
X96017000Y-71117000D01*
X96017000Y-71942563D01*
X96191131Y-72091229D01*
X96601049Y-71949568D01*
X96826251Y-71749874D01*
X101544370Y-71749874D01*
X102096600Y-73086372D01*
X103118249Y-74109806D01*
X104453782Y-74664368D01*
X105899874Y-74665630D01*
X107236372Y-74113400D01*
X108259806Y-73091751D01*
X108814368Y-71756218D01*
X108815630Y-70310126D01*
X108805922Y-70286630D01*
X110322975Y-70286630D01*
X110665566Y-70761277D01*
X111998800Y-71321342D01*
X113444875Y-71328568D01*
X114783639Y-70781854D01*
X114814434Y-70761277D01*
X115157025Y-70286630D01*
X112740000Y-67869605D01*
X110322975Y-70286630D01*
X108805922Y-70286630D01*
X108263400Y-68973628D01*
X107685657Y-68394875D01*
X109101432Y-68394875D01*
X109648146Y-69733639D01*
X109668723Y-69764434D01*
X110143370Y-70107025D01*
X112560395Y-67690000D01*
X112919605Y-67690000D01*
X115336630Y-70107025D01*
X115811277Y-69764434D01*
X116371342Y-68431200D01*
X116378568Y-66985125D01*
X115831854Y-65646361D01*
X115811277Y-65615566D01*
X115336630Y-65272975D01*
X112919605Y-67690000D01*
X112560395Y-67690000D01*
X110143370Y-65272975D01*
X109668723Y-65615566D01*
X109108658Y-66948800D01*
X109101432Y-68394875D01*
X107685657Y-68394875D01*
X107241751Y-67950194D01*
X105906218Y-67395632D01*
X104460126Y-67394370D01*
X103123628Y-67946600D01*
X102100194Y-68968249D01*
X101545632Y-70303782D01*
X101544370Y-71749874D01*
X96826251Y-71749874D01*
X96925552Y-71661821D01*
X97109268Y-71287938D01*
X96982734Y-71117000D01*
X96017000Y-71117000D01*
X95763000Y-71117000D01*
X94797266Y-71117000D01*
X94670732Y-71287938D01*
X92109268Y-71287938D01*
X91982734Y-71117000D01*
X91017000Y-71117000D01*
X90763000Y-71117000D01*
X89797266Y-71117000D01*
X89670732Y-71287938D01*
X85299033Y-71287938D01*
X85231143Y-70692062D01*
X89670732Y-70692062D01*
X89797266Y-70863000D01*
X90763000Y-70863000D01*
X90763000Y-70037437D01*
X91017000Y-70037437D01*
X91017000Y-70863000D01*
X91982734Y-70863000D01*
X92109268Y-70692062D01*
X94670732Y-70692062D01*
X94797266Y-70863000D01*
X95763000Y-70863000D01*
X95763000Y-70037437D01*
X96017000Y-70037437D01*
X96017000Y-70863000D01*
X96982734Y-70863000D01*
X97109268Y-70692062D01*
X96925552Y-70318179D01*
X96601049Y-70030432D01*
X96191131Y-69888771D01*
X96017000Y-70037437D01*
X95763000Y-70037437D01*
X95588869Y-69888771D01*
X95178951Y-70030432D01*
X94854448Y-70318179D01*
X94670732Y-70692062D01*
X92109268Y-70692062D01*
X91925552Y-70318179D01*
X91601049Y-70030432D01*
X91191131Y-69888771D01*
X91017000Y-70037437D01*
X90763000Y-70037437D01*
X90588869Y-69888771D01*
X90178951Y-70030432D01*
X89854448Y-70318179D01*
X89670732Y-70692062D01*
X85231143Y-70692062D01*
X84973378Y-68429649D01*
X84933262Y-68267623D01*
X84794190Y-68051499D01*
X84581990Y-67906509D01*
X84330100Y-67855500D01*
X82729900Y-67855500D01*
X82564374Y-67877017D01*
X82333896Y-67990730D01*
X82165817Y-68185152D01*
X82086622Y-68429649D01*
X81687842Y-71929769D01*
X81159082Y-71929769D01*
X80763378Y-68456649D01*
X80723262Y-68294623D01*
X80584190Y-68078499D01*
X80371990Y-67933509D01*
X80120100Y-67882500D01*
X78519900Y-67882500D01*
X78354374Y-67904017D01*
X78123896Y-68017730D01*
X77955817Y-68212152D01*
X77876622Y-68456649D01*
X77737619Y-69676687D01*
X77665431Y-69724921D01*
X76807683Y-70582669D01*
X76563378Y-68438389D01*
X76523262Y-68276363D01*
X76384190Y-68060239D01*
X76171990Y-67915249D01*
X75920100Y-67864240D01*
X74319900Y-67864240D01*
X74154374Y-67885757D01*
X73953354Y-67984936D01*
X73665000Y-67696582D01*
X73665000Y-67157084D01*
X73676622Y-67259091D01*
X73716738Y-67421117D01*
X73855810Y-67637241D01*
X74068010Y-67782231D01*
X74319900Y-67833240D01*
X75920100Y-67833240D01*
X76085626Y-67811723D01*
X76316104Y-67698010D01*
X76484183Y-67503588D01*
X76563378Y-67259091D01*
X76962158Y-63758971D01*
X76922042Y-63450363D01*
X76782970Y-63234239D01*
X76766930Y-63223279D01*
X76766930Y-61847990D01*
X76741906Y-61715000D01*
X77703699Y-61715000D01*
X77673070Y-61866250D01*
X77673070Y-63250598D01*
X77620045Y-63293937D01*
X77500009Y-63521185D01*
X77477842Y-63777231D01*
X77876622Y-67277351D01*
X77916738Y-67439377D01*
X78055810Y-67655501D01*
X78268010Y-67800491D01*
X78519900Y-67851500D01*
X80120100Y-67851500D01*
X80285626Y-67829983D01*
X80516104Y-67716270D01*
X80684183Y-67521848D01*
X80763378Y-67277351D01*
X81162158Y-63777231D01*
X81145715Y-63650740D01*
X81696455Y-63650740D01*
X81687842Y-63750231D01*
X82086622Y-67250351D01*
X82126738Y-67412377D01*
X82265810Y-67628501D01*
X82478010Y-67773491D01*
X82729900Y-67824500D01*
X84330100Y-67824500D01*
X84495626Y-67802983D01*
X84696646Y-67703804D01*
X85167921Y-68175079D01*
X85422593Y-68345245D01*
X85723000Y-68405000D01*
X86428634Y-68405000D01*
X86680000Y-68455000D01*
X99170000Y-68455000D01*
X99489541Y-68391439D01*
X99760434Y-68210434D01*
X100990434Y-66980434D01*
X101171440Y-66709540D01*
X101235000Y-66390000D01*
X101235000Y-65093370D01*
X110322975Y-65093370D01*
X112740000Y-67510395D01*
X115157025Y-65093370D01*
X114814434Y-64618723D01*
X113481200Y-64058658D01*
X112035125Y-64051432D01*
X110696361Y-64598146D01*
X110665566Y-64618723D01*
X110322975Y-65093370D01*
X101235000Y-65093370D01*
X101235000Y-62090000D01*
X101171439Y-61770459D01*
X100990434Y-61499566D01*
X95900434Y-56409566D01*
X95835697Y-56366310D01*
X95629541Y-56228561D01*
X95310000Y-56165000D01*
X94735000Y-56165000D01*
X94735000Y-55175750D01*
X94576250Y-55017000D01*
X91977000Y-55017000D01*
X91977000Y-55037000D01*
X91723000Y-55037000D01*
X91723000Y-55017000D01*
X89123750Y-55017000D01*
X88965000Y-55175750D01*
X88965000Y-56165000D01*
X86947440Y-56165000D01*
X86947440Y-53540000D01*
X86923674Y-53413690D01*
X88965000Y-53413690D01*
X88965000Y-54604250D01*
X89123750Y-54763000D01*
X91723000Y-54763000D01*
X91723000Y-53063750D01*
X91977000Y-53063750D01*
X91977000Y-54763000D01*
X94576250Y-54763000D01*
X94735000Y-54604250D01*
X94735000Y-53413690D01*
X94638327Y-53180301D01*
X94459698Y-53001673D01*
X94226309Y-52905000D01*
X92135750Y-52905000D01*
X91977000Y-53063750D01*
X91723000Y-53063750D01*
X91564250Y-52905000D01*
X89473691Y-52905000D01*
X89240302Y-53001673D01*
X89061673Y-53180301D01*
X88965000Y-53413690D01*
X86923674Y-53413690D01*
X86903162Y-53304683D01*
X86764090Y-53088559D01*
X86551890Y-52943569D01*
X86300000Y-52892560D01*
X81800000Y-52892560D01*
X81797916Y-52892952D01*
X81815868Y-52875000D01*
X111915000Y-52875000D01*
X111915000Y-58010000D01*
X111978561Y-58329541D01*
X112116272Y-58535640D01*
X112159566Y-58600434D01*
X112726086Y-59166954D01*
X112515632Y-59673782D01*
X112514370Y-61119874D01*
X113066600Y-62456372D01*
X114088249Y-63479806D01*
X115423782Y-64034368D01*
X116869874Y-64035630D01*
X118206372Y-63483400D01*
X119229806Y-62461751D01*
X119784368Y-61126218D01*
X119785630Y-59680126D01*
X119233400Y-58343628D01*
X118211751Y-57320194D01*
X116876218Y-56765632D01*
X115430126Y-56764370D01*
X114093628Y-57316600D01*
X113665174Y-57744306D01*
X113585000Y-57664132D01*
X113585000Y-52040000D01*
X113521439Y-51720459D01*
X113340434Y-51449566D01*
X113069541Y-51268561D01*
X112750000Y-51205000D01*
X81470000Y-51205000D01*
X81150459Y-51268561D01*
X80961230Y-51395000D01*
X80879566Y-51449566D01*
X79819566Y-52509566D01*
X79638561Y-52780459D01*
X79575000Y-53100000D01*
X79575000Y-53949998D01*
X79615000Y-54151090D01*
X79615000Y-57444132D01*
X79054132Y-58005000D01*
X75515868Y-58005000D01*
X75415000Y-57904132D01*
X75415000Y-57276110D01*
X75460434Y-57230676D01*
X75495740Y-57177837D01*
X75605510Y-57013555D01*
X75605510Y-57237059D01*
X75702183Y-57470448D01*
X75880811Y-57649077D01*
X76114200Y-57745750D01*
X76954250Y-57745750D01*
X77113000Y-57587000D01*
X77113000Y-56238260D01*
X77367000Y-56238260D01*
X77367000Y-57587000D01*
X77525750Y-57745750D01*
X78365800Y-57745750D01*
X78599189Y-57649077D01*
X78777817Y-57470448D01*
X78874490Y-57237059D01*
X78874490Y-56397010D01*
X78715740Y-56238260D01*
X77367000Y-56238260D01*
X77113000Y-56238260D01*
X77093000Y-56238260D01*
X77093000Y-55984260D01*
X77113000Y-55984260D01*
X77113000Y-53650000D01*
X77367000Y-53650000D01*
X77367000Y-55984260D01*
X78715740Y-55984260D01*
X78874490Y-55825510D01*
X78874490Y-55736570D01*
X78939955Y-55683063D01*
X79059991Y-55455815D01*
X79082158Y-55199769D01*
X78905588Y-53650000D01*
X77367000Y-53650000D01*
X77113000Y-53650000D01*
X77093000Y-53650000D01*
X77093000Y-53396000D01*
X77113000Y-53396000D01*
X77113000Y-51125500D01*
X77367000Y-51125500D01*
X77367000Y-53396000D01*
X78876649Y-53396000D01*
X78683378Y-51699649D01*
X78643262Y-51537623D01*
X78504190Y-51321499D01*
X78291990Y-51176509D01*
X78040100Y-51125500D01*
X77367000Y-51125500D01*
X77113000Y-51125500D01*
X76439900Y-51125500D01*
X76274374Y-51147017D01*
X76043896Y-51260730D01*
X75875817Y-51455152D01*
X75796622Y-51699649D01*
X75647324Y-53010045D01*
X75641439Y-52980459D01*
X75460434Y-52709566D01*
X72720434Y-49969566D01*
X72449541Y-49788561D01*
X72130000Y-49725000D01*
X68495868Y-49725000D01*
X67256729Y-48485861D01*
X67719151Y-48393880D01*
X68184698Y-48082811D01*
X68440000Y-47700725D01*
X68695302Y-48082811D01*
X69160849Y-48393880D01*
X69710000Y-48503113D01*
X70259151Y-48393880D01*
X70724698Y-48082811D01*
X70866953Y-47869911D01*
X71160911Y-47811439D01*
X71431804Y-47630434D01*
X72042007Y-47020231D01*
X75397842Y-47020231D01*
X75796622Y-50520351D01*
X75836738Y-50682377D01*
X75975810Y-50898501D01*
X76188010Y-51043491D01*
X76439900Y-51094500D01*
X78040100Y-51094500D01*
X78205626Y-51072983D01*
X78436104Y-50959270D01*
X78604183Y-50764848D01*
X78683378Y-50520351D01*
X78695598Y-50413089D01*
X86536517Y-50413089D01*
X86665725Y-50705859D01*
X87365883Y-50974071D01*
X88115384Y-50953928D01*
X88714275Y-50705859D01*
X88843483Y-50413089D01*
X87690000Y-49259605D01*
X86536517Y-50413089D01*
X78695598Y-50413089D01*
X78884409Y-48755883D01*
X85795929Y-48755883D01*
X85816072Y-49505384D01*
X86064141Y-50104275D01*
X86356911Y-50233483D01*
X87510395Y-49080000D01*
X87869605Y-49080000D01*
X89023089Y-50233483D01*
X89315859Y-50104275D01*
X89584071Y-49404117D01*
X89563928Y-48654616D01*
X89315859Y-48055725D01*
X89023089Y-47926517D01*
X87869605Y-49080000D01*
X87510395Y-49080000D01*
X86356911Y-47926517D01*
X86064141Y-48055725D01*
X85795929Y-48755883D01*
X78884409Y-48755883D01*
X78999364Y-47746911D01*
X86536517Y-47746911D01*
X87690000Y-48900395D01*
X88843483Y-47746911D01*
X88714275Y-47454141D01*
X88014117Y-47185929D01*
X87264616Y-47206072D01*
X86665725Y-47454141D01*
X86536517Y-47746911D01*
X78999364Y-47746911D01*
X79082158Y-47020231D01*
X79042042Y-46711623D01*
X78902970Y-46495499D01*
X78886930Y-46484539D01*
X78886930Y-45109250D01*
X78842652Y-44873933D01*
X78703580Y-44657809D01*
X78491380Y-44512819D01*
X78239490Y-44461810D01*
X76240510Y-44461810D01*
X76005193Y-44506088D01*
X75789069Y-44645160D01*
X75644079Y-44857360D01*
X75593070Y-45109250D01*
X75593070Y-46493598D01*
X75540045Y-46536937D01*
X75420009Y-46764185D01*
X75397842Y-47020231D01*
X72042007Y-47020231D01*
X74737238Y-44325000D01*
X99354132Y-44325000D01*
X105539566Y-50510434D01*
X105810459Y-50691439D01*
X106130000Y-50755000D01*
X113151939Y-50755000D01*
X113656600Y-51976372D01*
X114678249Y-52999806D01*
X116013782Y-53554368D01*
X117459874Y-53555630D01*
X118796372Y-53003400D01*
X119819806Y-51981751D01*
X120374368Y-50646218D01*
X120375630Y-49200126D01*
X119823400Y-47863628D01*
X118801751Y-46840194D01*
X117466218Y-46285632D01*
X116020126Y-46284370D01*
X114683628Y-46836600D01*
X113660194Y-47858249D01*
X113150802Y-49085000D01*
X106475868Y-49085000D01*
X102787498Y-45396630D01*
X110022975Y-45396630D01*
X110365566Y-45871277D01*
X111698800Y-46431342D01*
X113144875Y-46438568D01*
X114483639Y-45891854D01*
X114514434Y-45871277D01*
X114857025Y-45396630D01*
X112440000Y-42979605D01*
X110022975Y-45396630D01*
X102787498Y-45396630D01*
X100895743Y-43504875D01*
X108801432Y-43504875D01*
X109348146Y-44843639D01*
X109368723Y-44874434D01*
X109843370Y-45217025D01*
X112260395Y-42800000D01*
X112619605Y-42800000D01*
X115036630Y-45217025D01*
X115511277Y-44874434D01*
X116071342Y-43541200D01*
X116078568Y-42095125D01*
X115531854Y-40756361D01*
X115511277Y-40725566D01*
X115036630Y-40382975D01*
X112619605Y-42800000D01*
X112260395Y-42800000D01*
X109843370Y-40382975D01*
X109368723Y-40725566D01*
X108808658Y-42058800D01*
X108801432Y-43504875D01*
X100895743Y-43504875D01*
X100290434Y-42899566D01*
X100243011Y-42867879D01*
X100019541Y-42718561D01*
X99700000Y-42655000D01*
X77913406Y-42655000D01*
X77961441Y-42624090D01*
X78106431Y-42411890D01*
X78157440Y-42160000D01*
X78157440Y-40360000D01*
X78113162Y-40124683D01*
X77974090Y-39908559D01*
X77761890Y-39763569D01*
X77741466Y-39759433D01*
X77910551Y-39590643D01*
X78034043Y-39293241D01*
X85804994Y-39293241D01*
X86091314Y-39986191D01*
X86621021Y-40516822D01*
X87313469Y-40804352D01*
X88063241Y-40805006D01*
X88756191Y-40518686D01*
X88875210Y-40399874D01*
X101394370Y-40399874D01*
X101946600Y-41736372D01*
X102968249Y-42759806D01*
X104303782Y-43314368D01*
X105749874Y-43315630D01*
X107086372Y-42763400D01*
X108109806Y-41741751D01*
X108664368Y-40406218D01*
X108664545Y-40203370D01*
X110022975Y-40203370D01*
X112440000Y-42620395D01*
X114857025Y-40203370D01*
X114514434Y-39728723D01*
X113181200Y-39168658D01*
X111735125Y-39161432D01*
X110396361Y-39708146D01*
X110365566Y-39728723D01*
X110022975Y-40203370D01*
X108664545Y-40203370D01*
X108665630Y-38960126D01*
X108113400Y-37623628D01*
X107091751Y-36600194D01*
X105756218Y-36045632D01*
X104310126Y-36044370D01*
X102973628Y-36596600D01*
X101950194Y-37618249D01*
X101395632Y-38953782D01*
X101394370Y-40399874D01*
X88875210Y-40399874D01*
X89286822Y-39988979D01*
X89574352Y-39296531D01*
X89575006Y-38546759D01*
X89288686Y-37853809D01*
X88758979Y-37323178D01*
X88066531Y-37035648D01*
X87316759Y-37034994D01*
X86623809Y-37321314D01*
X86093178Y-37851021D01*
X85805648Y-38543469D01*
X85804994Y-39293241D01*
X78034043Y-39293241D01*
X78144733Y-39026670D01*
X78145265Y-38416009D01*
X77912068Y-37851629D01*
X77480643Y-37419449D01*
X76916670Y-37185267D01*
X76306009Y-37184735D01*
X75741629Y-37417932D01*
X75309449Y-37849357D01*
X75075267Y-38413330D01*
X75074735Y-39023991D01*
X75307932Y-39588371D01*
X75475880Y-39756613D01*
X75474683Y-39756838D01*
X75258559Y-39895910D01*
X75113569Y-40108110D01*
X75062560Y-40360000D01*
X75062560Y-42160000D01*
X75106838Y-42395317D01*
X75245910Y-42611441D01*
X75309661Y-42655000D01*
X74391370Y-42655000D01*
X74071829Y-42718561D01*
X73848359Y-42867879D01*
X73800936Y-42899566D01*
X70711879Y-45988623D01*
X70259151Y-45686120D01*
X69710000Y-45576887D01*
X69160849Y-45686120D01*
X68695302Y-45997189D01*
X68440000Y-46379275D01*
X68184698Y-45997189D01*
X67719151Y-45686120D01*
X67170000Y-45576887D01*
X66620849Y-45686120D01*
X66155302Y-45997189D01*
X65900000Y-46379275D01*
X65644698Y-45997189D01*
X65179151Y-45686120D01*
X64630000Y-45576887D01*
X64080849Y-45686120D01*
X63615302Y-45997189D01*
X63360000Y-46379275D01*
X63104698Y-45997189D01*
X62639151Y-45686120D01*
X62090000Y-45576887D01*
X61540849Y-45686120D01*
X61075302Y-45997189D01*
X60764233Y-46462736D01*
X60655000Y-47011887D01*
X60655000Y-47068113D01*
X60764233Y-47617264D01*
X61075302Y-48082811D01*
X61540849Y-48393880D01*
X62090000Y-48503113D01*
X62639151Y-48393880D01*
X63104698Y-48082811D01*
X63360000Y-47700725D01*
X63615302Y-48082811D01*
X64080849Y-48393880D01*
X64630000Y-48503113D01*
X64865418Y-48456286D01*
X67559566Y-51150434D01*
X67830460Y-51331440D01*
X68150000Y-51395000D01*
X71784132Y-51395000D01*
X74035000Y-53645868D01*
X74035000Y-56294374D01*
X73989566Y-56339808D01*
X73808561Y-56610701D01*
X73745000Y-56930242D01*
X73745000Y-58250000D01*
X73808561Y-58569541D01*
X73919245Y-58735191D01*
X73989566Y-58840434D01*
X74579566Y-59430434D01*
X74850459Y-59611439D01*
X75170000Y-59675000D01*
X79400000Y-59675000D01*
X79480056Y-59659076D01*
X78994132Y-60145000D01*
X75737990Y-60145000D01*
X75437584Y-60204755D01*
X75182911Y-60374921D01*
X74564921Y-60992911D01*
X74426181Y-61200550D01*
X74120510Y-61200550D01*
X73885193Y-61244828D01*
X73669069Y-61383900D01*
X73524079Y-61596100D01*
X73486468Y-61781830D01*
X73435079Y-61704921D01*
X67955000Y-56224842D01*
X67955000Y-55856291D01*
X68184698Y-55702811D01*
X68454986Y-55298297D01*
X68557611Y-55515134D01*
X68972577Y-55891041D01*
X69360961Y-56051904D01*
X69583000Y-55929915D01*
X69583000Y-54787000D01*
X69837000Y-54787000D01*
X69837000Y-55929915D01*
X70059039Y-56051904D01*
X70447423Y-55891041D01*
X70862389Y-55515134D01*
X71101914Y-55009041D01*
X70980629Y-54787000D01*
X69837000Y-54787000D01*
X69583000Y-54787000D01*
X69563000Y-54787000D01*
X69563000Y-54533000D01*
X69583000Y-54533000D01*
X69583000Y-53390085D01*
X69837000Y-53390085D01*
X69837000Y-54533000D01*
X70980629Y-54533000D01*
X71101914Y-54310959D01*
X70862389Y-53804866D01*
X70447423Y-53428959D01*
X70059039Y-53268096D01*
X69837000Y-53390085D01*
X69583000Y-53390085D01*
X69360961Y-53268096D01*
X68972577Y-53428959D01*
X68557611Y-53804866D01*
X68454986Y-54021703D01*
X68184698Y-53617189D01*
X67719151Y-53306120D01*
X67170000Y-53196887D01*
X66620849Y-53306120D01*
X66155302Y-53617189D01*
X65900000Y-53999275D01*
X65644698Y-53617189D01*
X65179151Y-53306120D01*
X64630000Y-53196887D01*
X64080849Y-53306120D01*
X63615302Y-53617189D01*
X63518899Y-53761465D01*
X63493162Y-53624683D01*
X63354090Y-53408559D01*
X63141890Y-53263569D01*
X62890000Y-53212560D01*
X61290000Y-53212560D01*
X61054683Y-53256838D01*
X60838559Y-53395910D01*
X60693569Y-53608110D01*
X60642560Y-53860000D01*
X59725871Y-53860000D01*
X59613378Y-52872649D01*
X59573262Y-52710623D01*
X59434190Y-52494499D01*
X59221990Y-52349509D01*
X58970100Y-52298500D01*
X57369900Y-52298500D01*
X57204374Y-52320017D01*
X56973896Y-52433730D01*
X56805817Y-52628152D01*
X56726622Y-52872649D01*
X56327842Y-56372769D01*
X38612728Y-56372769D01*
X38620989Y-55992185D01*
X38620653Y-55990282D01*
X38621060Y-55988396D01*
X38625598Y-55707745D01*
X49881861Y-55707745D01*
X49955995Y-55953864D01*
X50493223Y-56146965D01*
X51063454Y-56119778D01*
X51464005Y-55953864D01*
X51538139Y-55707745D01*
X50710000Y-54879605D01*
X49881861Y-55707745D01*
X38625598Y-55707745D01*
X38640167Y-54806809D01*
X38639863Y-54805142D01*
X38640213Y-54803482D01*
X38653989Y-53585750D01*
X41040000Y-53585750D01*
X41040000Y-54181309D01*
X41136673Y-54414698D01*
X41315301Y-54593327D01*
X41548690Y-54690000D01*
X42894250Y-54690000D01*
X43053000Y-54531250D01*
X43053000Y-53427000D01*
X43307000Y-53427000D01*
X43307000Y-54531250D01*
X43465750Y-54690000D01*
X44811310Y-54690000D01*
X45044699Y-54593327D01*
X45154802Y-54483223D01*
X49263035Y-54483223D01*
X49290222Y-55053454D01*
X49456136Y-55454005D01*
X49702255Y-55528139D01*
X50530395Y-54700000D01*
X50889605Y-54700000D01*
X51717745Y-55528139D01*
X51963864Y-55454005D01*
X52156965Y-54916777D01*
X52129778Y-54346546D01*
X51963864Y-53945995D01*
X51717745Y-53871861D01*
X50889605Y-54700000D01*
X50530395Y-54700000D01*
X49702255Y-53871861D01*
X49456136Y-53945995D01*
X49263035Y-54483223D01*
X45154802Y-54483223D01*
X45223327Y-54414698D01*
X45320000Y-54181309D01*
X45320000Y-53692255D01*
X49881861Y-53692255D01*
X50710000Y-54520395D01*
X51538139Y-53692255D01*
X51464005Y-53446136D01*
X50926777Y-53253035D01*
X50356546Y-53280222D01*
X49955995Y-53446136D01*
X49881861Y-53692255D01*
X45320000Y-53692255D01*
X45320000Y-53585750D01*
X45161250Y-53427000D01*
X43307000Y-53427000D01*
X43053000Y-53427000D01*
X41198750Y-53427000D01*
X41040000Y-53585750D01*
X38653989Y-53585750D01*
X38654346Y-53554257D01*
X38654073Y-53552799D01*
X38654373Y-53551345D01*
X38663692Y-52231719D01*
X38663655Y-52231525D01*
X38663695Y-52231329D01*
X38673246Y-50760000D01*
X40998075Y-50760000D01*
X41103882Y-51291930D01*
X41405197Y-51742878D01*
X41655312Y-51910000D01*
X41548690Y-51910000D01*
X41315301Y-52006673D01*
X41136673Y-52185302D01*
X41040000Y-52418691D01*
X41040000Y-53014250D01*
X41198750Y-53173000D01*
X43053000Y-53173000D01*
X43053000Y-53153000D01*
X43307000Y-53153000D01*
X43307000Y-53173000D01*
X45161250Y-53173000D01*
X45320000Y-53014250D01*
X45320000Y-52418691D01*
X45223327Y-52185302D01*
X45044699Y-52006673D01*
X44811310Y-51910000D01*
X44704688Y-51910000D01*
X44954803Y-51742878D01*
X45256118Y-51291930D01*
X45361925Y-50760000D01*
X45256118Y-50228070D01*
X45093160Y-49984187D01*
X49274752Y-49984187D01*
X49492757Y-50511800D01*
X49896077Y-50915824D01*
X50423309Y-51134750D01*
X50994187Y-51135248D01*
X51521800Y-50917243D01*
X51925824Y-50513923D01*
X52144750Y-49986691D01*
X52145248Y-49415813D01*
X51927243Y-48888200D01*
X51523923Y-48484176D01*
X50996691Y-48265250D01*
X50425813Y-48264752D01*
X49898200Y-48482757D01*
X49494176Y-48886077D01*
X49275250Y-49413309D01*
X49274752Y-49984187D01*
X45093160Y-49984187D01*
X44954803Y-49777122D01*
X44503855Y-49475807D01*
X43971925Y-49370000D01*
X42388075Y-49370000D01*
X41856145Y-49475807D01*
X41405197Y-49777122D01*
X41103882Y-50228070D01*
X40998075Y-50760000D01*
X38673246Y-50760000D01*
X38677055Y-50173297D01*
X38695198Y-48509963D01*
X38701209Y-48193231D01*
X56327842Y-48193231D01*
X56726622Y-51693351D01*
X56766738Y-51855377D01*
X56905810Y-52071501D01*
X57118010Y-52216491D01*
X57369900Y-52267500D01*
X58970100Y-52267500D01*
X59135626Y-52245983D01*
X59366104Y-52132270D01*
X59534183Y-51937848D01*
X59613378Y-51693351D01*
X60012158Y-48193231D01*
X59972042Y-47884623D01*
X59832970Y-47668499D01*
X59816930Y-47657539D01*
X59816930Y-46282250D01*
X59772652Y-46046933D01*
X59633580Y-45830809D01*
X59421380Y-45685819D01*
X59169490Y-45634810D01*
X57170510Y-45634810D01*
X56935193Y-45679088D01*
X56719069Y-45818160D01*
X56574079Y-46030360D01*
X56523070Y-46282250D01*
X56523070Y-47666598D01*
X56470045Y-47709937D01*
X56350009Y-47937185D01*
X56327842Y-48193231D01*
X38701209Y-48193231D01*
X38720229Y-47191108D01*
X38735890Y-46648599D01*
X38753997Y-46174439D01*
X38774704Y-45763961D01*
X38798133Y-45411784D01*
X38824321Y-45112482D01*
X38853163Y-44860853D01*
X38884434Y-44651204D01*
X38917798Y-44477523D01*
X38953111Y-44332454D01*
X38994093Y-44196396D01*
X39093810Y-43888332D01*
X39095342Y-43875262D01*
X39101321Y-43863538D01*
X39172467Y-43611594D01*
X39174102Y-43590908D01*
X39182408Y-43571892D01*
X39206104Y-43463623D01*
X39206503Y-43442730D01*
X39213700Y-43423115D01*
X39229290Y-43323530D01*
X39228198Y-43296959D01*
X39235419Y-43271362D01*
X39242762Y-43178119D01*
X39239088Y-43147065D01*
X39244829Y-43116328D01*
X39243785Y-43027084D01*
X39236840Y-42994187D01*
X39239779Y-42960693D01*
X39230209Y-42873108D01*
X39220332Y-42841753D01*
X39220087Y-42808881D01*
X39201847Y-42720619D01*
X39190471Y-42693724D01*
X39187797Y-42664645D01*
X39160748Y-42573357D01*
X39149686Y-42552335D01*
X39145896Y-42528879D01*
X39109899Y-42432232D01*
X39100536Y-42417059D01*
X39096793Y-42399625D01*
X39051706Y-42295273D01*
X39044696Y-42285119D01*
X39041681Y-42273157D01*
X38987365Y-42158761D01*
X38981441Y-42150798D01*
X38978740Y-42141242D01*
X38844188Y-41877534D01*
X38769002Y-41724534D01*
X38706622Y-41580522D01*
X38652003Y-41435486D01*
X38605028Y-41289416D01*
X38565578Y-41142214D01*
X38533565Y-40993806D01*
X38508924Y-40844090D01*
X38499295Y-40760000D01*
X39562560Y-40760000D01*
X39562560Y-42960000D01*
X39606838Y-43195317D01*
X39745910Y-43411441D01*
X39958110Y-43556431D01*
X40210000Y-43607440D01*
X43210000Y-43607440D01*
X43445317Y-43563162D01*
X43661441Y-43424090D01*
X43806431Y-43211890D01*
X43857440Y-42960000D01*
X43857440Y-40760000D01*
X52262560Y-40760000D01*
X52262560Y-42960000D01*
X52306838Y-43195317D01*
X52445910Y-43411441D01*
X52658110Y-43556431D01*
X52910000Y-43607440D01*
X55910000Y-43607440D01*
X56145317Y-43563162D01*
X56361441Y-43424090D01*
X56506431Y-43211890D01*
X56557440Y-42960000D01*
X56557440Y-42766630D01*
X60092975Y-42766630D01*
X60435566Y-43241277D01*
X61768800Y-43801342D01*
X63214875Y-43808568D01*
X64553639Y-43261854D01*
X64584434Y-43241277D01*
X64927025Y-42766630D01*
X62510000Y-40349605D01*
X60092975Y-42766630D01*
X56557440Y-42766630D01*
X56557440Y-40874875D01*
X58871432Y-40874875D01*
X59418146Y-42213639D01*
X59438723Y-42244434D01*
X59913370Y-42587025D01*
X62330395Y-40170000D01*
X62689605Y-40170000D01*
X65106630Y-42587025D01*
X65581277Y-42244434D01*
X66141342Y-40911200D01*
X66141898Y-40799874D01*
X66234370Y-40799874D01*
X66786600Y-42136372D01*
X67808249Y-43159806D01*
X69143782Y-43714368D01*
X70589874Y-43715630D01*
X71926372Y-43163400D01*
X72949806Y-42141751D01*
X73504368Y-40806218D01*
X73505630Y-39360126D01*
X72953400Y-38023628D01*
X71931751Y-37000194D01*
X70596218Y-36445632D01*
X69150126Y-36444370D01*
X67813628Y-36996600D01*
X66790194Y-38018249D01*
X66235632Y-39353782D01*
X66234370Y-40799874D01*
X66141898Y-40799874D01*
X66148568Y-39465125D01*
X65601854Y-38126361D01*
X65581277Y-38095566D01*
X65106630Y-37752975D01*
X62689605Y-40170000D01*
X62330395Y-40170000D01*
X59913370Y-37752975D01*
X59438723Y-38095566D01*
X58878658Y-39428800D01*
X58871432Y-40874875D01*
X56557440Y-40874875D01*
X56557440Y-40760000D01*
X56513162Y-40524683D01*
X56374090Y-40308559D01*
X56161890Y-40163569D01*
X55910000Y-40112560D01*
X52910000Y-40112560D01*
X52674683Y-40156838D01*
X52458559Y-40295910D01*
X52313569Y-40508110D01*
X52262560Y-40760000D01*
X43857440Y-40760000D01*
X43813162Y-40524683D01*
X43674090Y-40308559D01*
X43461890Y-40163569D01*
X43210000Y-40112560D01*
X40210000Y-40112560D01*
X39974683Y-40156838D01*
X39758559Y-40295910D01*
X39613569Y-40508110D01*
X39562560Y-40760000D01*
X38499295Y-40760000D01*
X38491619Y-40692968D01*
X38481641Y-40540376D01*
X38479000Y-40386220D01*
X38483732Y-40230431D01*
X38495893Y-40072949D01*
X38515548Y-39913781D01*
X38542776Y-39752887D01*
X38577661Y-39590303D01*
X38620292Y-39426050D01*
X38670763Y-39260172D01*
X38729143Y-39092789D01*
X38795528Y-38923938D01*
X38869990Y-38753729D01*
X38952568Y-38582334D01*
X39043373Y-38409768D01*
X39142411Y-38236250D01*
X39249737Y-38061886D01*
X39365391Y-37886809D01*
X39489395Y-37711167D01*
X39621747Y-37535132D01*
X39762494Y-37358804D01*
X39911619Y-37182357D01*
X40069148Y-37005906D01*
X40235057Y-36829617D01*
X40409393Y-36653579D01*
X40593778Y-36476291D01*
X40779949Y-36305929D01*
X40967969Y-36142479D01*
X41157951Y-35985873D01*
X41350122Y-35835953D01*
X41544648Y-35692615D01*
X41741773Y-35555706D01*
X41941609Y-35425173D01*
X42144491Y-35300821D01*
X42350557Y-35182593D01*
X42560070Y-35070366D01*
X42773245Y-34964051D01*
X42990386Y-34863525D01*
X43211657Y-34768746D01*
X43437325Y-34679628D01*
X43667641Y-34596102D01*
X43902845Y-34518116D01*
X44143172Y-34445619D01*
X44388813Y-34378585D01*
X44640011Y-34316971D01*
X44897012Y-34260743D01*
X45159948Y-34209892D01*
X45429053Y-34164389D01*
X45704530Y-34124213D01*
X45986514Y-34089351D01*
X46275294Y-34059772D01*
X46570833Y-34035478D01*
X46873560Y-34016427D01*
X47183376Y-34002615D01*
X47500602Y-33994010D01*
X47825338Y-33990591D01*
X48157167Y-33992311D01*
X48488448Y-33999595D01*
X48817497Y-34012867D01*
X49144574Y-34032049D01*
X49469419Y-34057054D01*
X49791601Y-34087780D01*
X50110969Y-34124146D01*
X50427169Y-34166050D01*
X50739903Y-34213396D01*
X51048853Y-34266078D01*
X51353806Y-34324011D01*
X51654365Y-34387071D01*
X51950376Y-34455183D01*
X52241399Y-34528208D01*
X52527140Y-34606028D01*
X52807401Y-34688559D01*
X53081825Y-34775664D01*
X53350088Y-34867213D01*
X53611950Y-34963097D01*
X53867039Y-35063157D01*
X54115123Y-35167280D01*
X54355832Y-35275292D01*
X54588903Y-35387052D01*
X54814077Y-35502420D01*
X55030942Y-35621166D01*
X55239282Y-35743144D01*
X55438830Y-35868178D01*
X55629267Y-35996040D01*
X55810313Y-36126505D01*
X55981739Y-36259363D01*
X56143276Y-36394352D01*
X56294713Y-36531229D01*
X56441254Y-36675028D01*
X57185939Y-37437654D01*
X57222246Y-37462543D01*
X57250757Y-37496077D01*
X57331532Y-37537462D01*
X57406387Y-37588777D01*
X57449451Y-37597877D01*
X57488627Y-37617949D01*
X57579091Y-37625272D01*
X57667885Y-37644036D01*
X57711155Y-37635963D01*
X57755029Y-37639515D01*
X57841410Y-37611662D01*
X57930625Y-37595017D01*
X57963872Y-37573370D01*
X60092975Y-37573370D01*
X62510000Y-39990395D01*
X64927025Y-37573370D01*
X64584434Y-37098723D01*
X63251200Y-36538658D01*
X61805125Y-36531432D01*
X60466361Y-37078146D01*
X60435566Y-37098723D01*
X60092975Y-37573370D01*
X57963872Y-37573370D01*
X57967511Y-37571001D01*
X58009406Y-37557492D01*
X58843147Y-37093021D01*
X58996622Y-37011171D01*
X59159091Y-36931374D01*
X59336132Y-36850832D01*
X59527206Y-36769919D01*
X59731830Y-36688925D01*
X59949732Y-36608007D01*
X60180309Y-36527422D01*
X60421007Y-36448032D01*
X60945940Y-36288565D01*
X61514028Y-36132852D01*
X62125632Y-35980628D01*
X62778655Y-35832313D01*
X63470918Y-35688294D01*
X64200373Y-35548895D01*
X64965088Y-35414396D01*
X65763043Y-35285076D01*
X66592369Y-35161174D01*
X67451137Y-35042936D01*
X68337401Y-34930596D01*
X69249583Y-34824344D01*
X70185519Y-34724434D01*
X71143429Y-34631071D01*
X72121631Y-34544450D01*
X73118196Y-34464789D01*
X74131302Y-34392295D01*
X75159079Y-34327175D01*
X76199832Y-34269626D01*
X77251596Y-34219857D01*
X78312695Y-34178063D01*
X79381200Y-34144449D01*
X80455450Y-34119210D01*
X81533399Y-34102550D01*
X82613498Y-34094663D01*
X83693818Y-34095758D01*
X84772432Y-34106009D01*
X85846220Y-34125595D01*
X86175212Y-34135950D01*
X86491764Y-34151606D01*
X86797461Y-34172384D01*
X87092734Y-34198079D01*
X87377685Y-34228461D01*
X87652773Y-34263333D01*
X87918128Y-34302465D01*
X88174142Y-34345659D01*
X88421013Y-34392692D01*
X88658995Y-34443346D01*
X88888564Y-34497458D01*
X89109853Y-34554790D01*
X89323252Y-34615165D01*
X89529018Y-34678383D01*
X89727545Y-34744283D01*
X89919003Y-34812639D01*
X90103847Y-34883326D01*
X90282285Y-34956136D01*
X90454743Y-35030954D01*
X90618273Y-35106128D01*
X90939118Y-35265953D01*
X91237535Y-35429721D01*
X91519226Y-35597974D01*
X91786673Y-35769723D01*
X92042221Y-35943930D01*
X92287181Y-36118826D01*
X92763198Y-36472443D01*
X92763631Y-36472648D01*
X92763952Y-36473002D01*
X93216918Y-36808534D01*
X93224542Y-36812135D01*
X93230356Y-36818238D01*
X93451364Y-36973810D01*
X93460839Y-36978007D01*
X93468209Y-36985297D01*
X93688293Y-37130619D01*
X93701374Y-37135954D01*
X93711817Y-37145476D01*
X93933017Y-37278963D01*
X93949886Y-37285056D01*
X93963741Y-37296438D01*
X94188099Y-37416500D01*
X94203209Y-37421091D01*
X94215856Y-37430553D01*
X94329860Y-37485053D01*
X94341190Y-37487941D01*
X94350783Y-37494627D01*
X94466343Y-37545175D01*
X94478542Y-37547852D01*
X94489040Y-37554622D01*
X94606414Y-37601020D01*
X94619401Y-37603385D01*
X94630758Y-37610113D01*
X94750194Y-37652162D01*
X94763878Y-37654121D01*
X94776042Y-37660689D01*
X94897803Y-37698191D01*
X94912058Y-37699656D01*
X94924935Y-37705939D01*
X95049274Y-37738694D01*
X95063956Y-37739594D01*
X95077438Y-37745480D01*
X95204612Y-37773290D01*
X95219560Y-37773573D01*
X95233507Y-37778961D01*
X95363768Y-37801629D01*
X95378834Y-37801266D01*
X95393114Y-37806083D01*
X95526720Y-37823409D01*
X95541737Y-37822395D01*
X95556192Y-37826584D01*
X95693398Y-37838369D01*
X95708205Y-37836724D01*
X95722677Y-37840253D01*
X95863740Y-37846301D01*
X95878206Y-37844063D01*
X95892563Y-37846930D01*
X96037732Y-37847040D01*
X96051734Y-37844266D01*
X96065832Y-37846484D01*
X96215370Y-37840459D01*
X96228811Y-37837218D01*
X96242539Y-37838822D01*
X96396698Y-37826461D01*
X96409498Y-37822831D01*
X96422765Y-37823869D01*
X96581800Y-37804974D01*
X96593906Y-37801035D01*
X96606626Y-37801563D01*
X96770794Y-37775938D01*
X96776560Y-37773825D01*
X96782700Y-37773972D01*
X99836717Y-37241998D01*
X99869288Y-37229409D01*
X99904099Y-37226723D01*
X99993008Y-37181592D01*
X100086019Y-37145644D01*
X100111292Y-37121551D01*
X100142426Y-37105747D01*
X100207299Y-37030025D01*
X100279471Y-36961222D01*
X100293599Y-36929293D01*
X100316317Y-36902776D01*
X100745827Y-36138564D01*
X100831472Y-35999214D01*
X100937728Y-35847802D01*
X101065865Y-35682319D01*
X101209085Y-35511902D01*
X101360897Y-35344406D01*
X101514670Y-35187254D01*
X101663079Y-35047993D01*
X101802221Y-34930424D01*
X101948254Y-34819190D01*
X102100767Y-34711934D01*
X102256234Y-34611256D01*
X102414666Y-34517080D01*
X102576109Y-34429318D01*
X102740612Y-34347897D01*
X102908198Y-34272771D01*
X103078878Y-34203906D01*
X103252711Y-34141262D01*
X103429734Y-34084816D01*
X103609982Y-34034552D01*
X103793456Y-33990479D01*
X103980192Y-33952595D01*
X104170182Y-33920917D01*
X104363447Y-33895461D01*
X104560031Y-33876246D01*
X104759802Y-33863305D01*
X104962870Y-33856663D01*
X105169106Y-33856356D01*
X105378588Y-33862402D01*
X105378588Y-33862402D01*
G37*
X105378588Y-33862402D02*
X105591136Y-33874834D01*
X105806826Y-33893685D01*
X106025526Y-33918976D01*
X106247206Y-33950734D01*
X106471861Y-33988991D01*
X106699293Y-34033743D01*
X106929545Y-34085026D01*
X107162501Y-34142845D01*
X107398112Y-34207217D01*
X107636304Y-34278152D01*
X107877007Y-34355657D01*
X108120101Y-34439722D01*
X108365564Y-34530366D01*
X108613286Y-34627578D01*
X108863191Y-34731354D01*
X109115194Y-34841685D01*
X109369300Y-34958601D01*
X109625283Y-35082025D01*
X109883273Y-35212050D01*
X110142929Y-35348527D01*
X110404411Y-35491568D01*
X110667536Y-35641103D01*
X110932208Y-35797102D01*
X111198457Y-35959612D01*
X111466127Y-36128568D01*
X111735174Y-36303972D01*
X112005521Y-36485800D01*
X112277036Y-36673995D01*
X112549782Y-36868630D01*
X112823589Y-37069618D01*
X113098378Y-37276929D01*
X113374174Y-37490614D01*
X113650802Y-37710577D01*
X113928335Y-37936903D01*
X114206529Y-38169430D01*
X114485397Y-38408204D01*
X114764881Y-38653211D01*
X115044948Y-38904462D01*
X115325529Y-39161929D01*
X115606401Y-39425449D01*
X115887684Y-39695171D01*
X116169306Y-39971068D01*
X116451100Y-40253022D01*
X116732978Y-40540983D01*
X117089354Y-40912883D01*
X117425905Y-41272704D01*
X117744086Y-41622307D01*
X118045176Y-41963358D01*
X118330644Y-42297726D01*
X118601810Y-42627123D01*
X118860203Y-42953490D01*
X119107327Y-43278801D01*
X119344521Y-43604794D01*
X119573345Y-43933558D01*
X119795219Y-44267009D01*
X120011609Y-44607175D01*
X120223937Y-44956047D01*
X120433538Y-45315506D01*
X120641827Y-45687567D01*
X120846681Y-46067740D01*
X121054272Y-46487982D01*
X121253625Y-46921995D01*
X121443529Y-47366981D01*
X121623734Y-47822065D01*
X121793991Y-48286328D01*
X121954060Y-48758894D01*
X122103663Y-49238720D01*
X122242626Y-49725053D01*
X122370687Y-50216880D01*
X122487651Y-50713324D01*
X122593293Y-51213444D01*
X122687421Y-51716350D01*
X122769820Y-52221056D01*
X122840307Y-52726710D01*
X122898702Y-53232431D01*
X122944813Y-53737216D01*
X122978464Y-54240171D01*
X122999499Y-54740357D01*
X123007729Y-55236859D01*
X123003021Y-55728781D01*
X122985224Y-56215131D01*
X122954216Y-56695053D01*
X122909870Y-57167501D01*
X122852077Y-57631613D01*
X122780737Y-58086486D01*
X122695786Y-58531114D01*
X122596445Y-58967739D01*
X122542763Y-59177020D01*
X122484868Y-59386212D01*
X122423545Y-59592152D01*
X122358816Y-59794655D01*
X122290624Y-59993805D01*
X122219027Y-60189314D01*
X122144000Y-60381166D01*
X122065557Y-60569237D01*
X121983705Y-60753425D01*
X121894870Y-60941195D01*
X121874678Y-61021768D01*
X121842652Y-61098407D01*
X121814100Y-61239639D01*
X121778248Y-61385405D01*
X121731731Y-61550711D01*
X121675023Y-61733164D01*
X121608641Y-61930860D01*
X121533999Y-62139741D01*
X121356630Y-62600574D01*
X121150187Y-63097433D01*
X120917554Y-63624451D01*
X120662778Y-64173078D01*
X120389858Y-64735067D01*
X120102726Y-65302407D01*
X119805288Y-65867207D01*
X119501593Y-66421366D01*
X119195584Y-66957048D01*
X118891492Y-67466003D01*
X118593548Y-67940117D01*
X118304673Y-68373426D01*
X118168234Y-68567624D01*
X118035428Y-68749146D01*
X117787601Y-69071358D01*
X117517714Y-69405408D01*
X117227959Y-69749092D01*
X116921437Y-70099143D01*
X116601054Y-70452564D01*
X116269768Y-70806366D01*
X115930466Y-71157641D01*
X115586128Y-71503428D01*
X115239601Y-71840911D01*
X114893871Y-72167158D01*
X114551945Y-72479245D01*
X114216895Y-72774225D01*
X113891815Y-73049173D01*
X113580095Y-73300990D01*
X113285334Y-73526523D01*
X113010692Y-73723120D01*
X112766301Y-73884882D01*
X112492052Y-74054360D01*
X112190275Y-74230093D01*
X111863344Y-74410719D01*
X111513691Y-74594936D01*
X111143439Y-74781671D01*
X110754773Y-74969848D01*
X110349786Y-75158460D01*
X109930539Y-75346539D01*
X109499167Y-75533087D01*
X109057530Y-75717245D01*
X108607756Y-75898036D01*
X108151810Y-76074568D01*
X107691781Y-76245896D01*
X107229559Y-76411168D01*
X106767900Y-76569224D01*
X106282963Y-76726614D01*
X105831352Y-76862758D01*
X105410817Y-76977929D01*
X105019539Y-77072352D01*
X104651808Y-77147162D01*
X104482795Y-77176125D01*
X104316525Y-77200750D01*
X104155935Y-77220587D01*
X104000930Y-77235694D01*
X103851025Y-77246154D01*
X103706032Y-77252096D01*
X103565447Y-77253568D01*
X103428725Y-77250720D01*
X103295755Y-77243607D01*
X103165850Y-77232273D01*
X103038648Y-77216784D01*
X102913588Y-77197116D01*
X102790135Y-77173283D01*
X102667866Y-77145242D01*
X102546249Y-77112916D01*
X102424771Y-77076209D01*
X102303070Y-77035040D01*
X102180655Y-76989268D01*
X102057124Y-76938769D01*
X101936157Y-76885206D01*
X101669154Y-76753994D01*
X100596644Y-76193710D01*
X100482069Y-76160135D01*
X100369022Y-76121734D01*
X98838676Y-75919932D01*
X98421553Y-75861970D01*
X98062424Y-75806796D01*
X97457286Y-75701967D01*
X96950688Y-75607108D01*
X96948348Y-75607134D01*
X96946171Y-75606278D01*
X96706830Y-75563121D01*
X96701612Y-75563215D01*
X96696726Y-75561377D01*
X96455920Y-75521668D01*
X96448561Y-75521910D01*
X96441613Y-75519463D01*
X96190116Y-75483432D01*
X96181593Y-75483893D01*
X96173480Y-75481257D01*
X95902063Y-75449134D01*
X95893375Y-75449818D01*
X95885018Y-75447332D01*
X95584452Y-75419364D01*
X95576410Y-75420200D01*
X95568609Y-75418075D01*
X95229660Y-75394453D01*
X95222579Y-75395356D01*
X95215654Y-75393621D01*
X94829098Y-75374627D01*
X94823181Y-75375505D01*
X94817355Y-75374151D01*
X94373961Y-75359984D01*
X94369108Y-75360789D01*
X94364303Y-75359744D01*
X93854839Y-75350656D01*
X93850952Y-75351357D01*
X93847085Y-75350562D01*
X93263594Y-75346760D01*
X92442916Y-75339036D01*
X91703084Y-75325016D01*
X91702164Y-75325181D01*
X91701252Y-75324984D01*
X91019827Y-75313893D01*
X91015737Y-75314638D01*
X91011664Y-75313809D01*
X90687916Y-75312398D01*
X90683367Y-75313282D01*
X90678809Y-75312418D01*
X90363078Y-75315240D01*
X90357186Y-75316467D01*
X90351256Y-75315448D01*
X90041072Y-75323576D01*
X90033715Y-75325241D01*
X90026256Y-75324125D01*
X89719145Y-75338829D01*
X89710618Y-75340954D01*
X89701897Y-75339873D01*
X89395387Y-75362309D01*
X89385927Y-75364921D01*
X89376156Y-75363989D01*
X89067781Y-75395319D01*
X89057678Y-75398418D01*
X89047134Y-75397734D01*
X88734422Y-75439125D01*
X88724006Y-75442669D01*
X88713009Y-75442304D01*
X88393485Y-75494918D01*
X88383067Y-75498834D01*
X88371938Y-75498821D01*
X88043135Y-75563820D01*
X88032993Y-75568007D01*
X88022021Y-75568340D01*
X87681466Y-75646891D01*
X87631877Y-75669217D01*
X87578460Y-75679390D01*
X87316770Y-75785291D01*
X87310000Y-75789735D01*
X87302080Y-75791435D01*
X87043793Y-75903014D01*
X87038083Y-75906955D01*
X87031330Y-75908546D01*
X86775976Y-76024943D01*
X86771315Y-76028299D01*
X86765746Y-76029708D01*
X86512853Y-76150052D01*
X86507881Y-76153758D01*
X86501903Y-76155384D01*
X86001602Y-76404467D01*
X85998278Y-76407037D01*
X85994241Y-76408188D01*
X85498827Y-76662328D01*
X85008589Y-76912530D01*
X84520920Y-77151509D01*
X84281240Y-77262762D01*
X84039764Y-77369391D01*
X83797911Y-77469815D01*
X83555178Y-77563363D01*
X83311008Y-77649411D01*
X83065019Y-77727270D01*
X82816519Y-77796368D01*
X82564950Y-77856088D01*
X82309648Y-77905814D01*
X82049873Y-77944932D01*
X81784855Y-77972787D01*
X81513737Y-77988697D01*
X81235750Y-77991881D01*
X80950002Y-77981547D01*
X80655574Y-77956808D01*
X80351724Y-77916751D01*
X80037645Y-77860386D01*
X79712619Y-77786699D01*
X79375921Y-77694639D01*
X79013775Y-77578941D01*
X78951719Y-77571906D01*
X78892517Y-77552024D01*
X78549527Y-77508001D01*
X78540453Y-77508625D01*
X78531755Y-77505955D01*
X78187726Y-77470903D01*
X78179652Y-77471671D01*
X78171844Y-77469471D01*
X77827059Y-77442434D01*
X77819954Y-77443277D01*
X77813030Y-77441479D01*
X77467776Y-77421526D01*
X77461660Y-77422379D01*
X77455655Y-77420933D01*
X77110218Y-77407104D01*
X77105048Y-77407919D01*
X77099942Y-77406770D01*
X76754604Y-77398134D01*
X76748786Y-77399141D01*
X76743004Y-77397942D01*
X76053773Y-77392382D01*
X76049119Y-77393269D01*
X76044467Y-77392370D01*
X75359059Y-77396152D01*
X75358176Y-77396333D01*
X75357290Y-77396164D01*
X74680860Y-77401644D01*
X74017666Y-77401365D01*
X73695369Y-77396756D01*
X73376881Y-77387977D01*
X73063814Y-77374211D01*
X72756586Y-77354628D01*
X72455515Y-77328422D01*
X72160920Y-77294846D01*
X71873195Y-77253172D01*
X71592545Y-77202694D01*
X71319259Y-77142752D01*
X71053468Y-77072687D01*
X70795308Y-76991865D01*
X70544716Y-76899606D01*
X70297103Y-76793272D01*
X70182546Y-76738324D01*
X70065555Y-76678019D01*
X69950336Y-76614276D01*
X69836802Y-76546954D01*
X69724935Y-76475930D01*
X69614718Y-76401089D01*
X69506085Y-76322268D01*
X69398977Y-76239298D01*
X69293378Y-76152032D01*
X69181157Y-76053161D01*
X69180302Y-76052665D01*
X69179700Y-76051881D01*
X69115640Y-75995764D01*
X69086453Y-75978934D01*
X69063427Y-75954335D01*
X68992871Y-75903744D01*
X68964438Y-75890851D01*
X68941138Y-75870072D01*
X68864284Y-75824843D01*
X68837328Y-75815442D01*
X68814528Y-75798256D01*
X68731580Y-75758234D01*
X68706592Y-75751769D01*
X68684884Y-75737809D01*
X68596040Y-75702825D01*
X68573215Y-75698700D01*
X68552909Y-75687485D01*
X68458368Y-75657380D01*
X68437787Y-75655067D01*
X68419096Y-75646153D01*
X68319056Y-75620753D01*
X68300520Y-75619783D01*
X68283363Y-75612699D01*
X68178031Y-75591871D01*
X68161581Y-75591890D01*
X68146097Y-75586338D01*
X68035667Y-75569885D01*
X68020963Y-75570598D01*
X68006903Y-75566219D01*
X67891577Y-75553999D01*
X67872566Y-75555730D01*
X67854061Y-75551064D01*
X67609524Y-75538674D01*
X67588799Y-75541716D01*
X67568213Y-75537828D01*
X67306494Y-75540368D01*
X67289873Y-75543842D01*
X67273055Y-75541510D01*
X66995752Y-75557766D01*
X66982490Y-75561222D01*
X66968850Y-75559875D01*
X66677568Y-75588498D01*
X66666890Y-75591735D01*
X66655758Y-75590995D01*
X66352098Y-75630695D01*
X66343501Y-75633605D01*
X66334431Y-75633239D01*
X66019987Y-75682713D01*
X66013067Y-75685258D01*
X66005698Y-75685117D01*
X65682080Y-75743074D01*
X65676570Y-75745234D01*
X65670649Y-75745221D01*
X65339450Y-75810358D01*
X65335125Y-75812138D01*
X65330450Y-75812191D01*
X64993275Y-75883212D01*
X64988799Y-75885125D01*
X64983933Y-75885248D01*
X64298054Y-76039748D01*
X64295141Y-76041042D01*
X64291959Y-76041151D01*
X62922831Y-76362721D01*
X62270617Y-76507864D01*
X61962367Y-76571231D01*
X61665519Y-76627413D01*
X61383742Y-76674877D01*
X61119390Y-76712457D01*
X60875254Y-76739110D01*
X60654535Y-76754044D01*
X60461009Y-76756952D01*
X60290953Y-76747961D01*
X60230154Y-76740835D01*
X60172611Y-76731128D01*
X60125701Y-76720384D01*
X60064920Y-76702143D01*
X59990406Y-76695027D01*
X59918265Y-76675080D01*
X59592856Y-76651148D01*
X59581438Y-76652559D01*
X59570254Y-76649861D01*
X59231997Y-76636201D01*
X59224905Y-76637316D01*
X59217894Y-76635777D01*
X58869514Y-76628891D01*
X58866241Y-76629475D01*
X58862987Y-76628793D01*
X58507582Y-76625156D01*
X58150664Y-76621300D01*
X57798814Y-76613847D01*
X57454493Y-76599578D01*
X57116990Y-76575268D01*
X56958346Y-76559070D01*
X56800591Y-76539175D01*
X56647226Y-76515601D01*
X56498596Y-76488128D01*
X56355195Y-76456581D01*
X56217314Y-76420778D01*
X56085291Y-76380608D01*
X55959417Y-76335981D01*
X55839838Y-76286812D01*
X55726603Y-76233003D01*
X55619673Y-76174436D01*
X55518882Y-76110919D01*
X55423920Y-76042114D01*
X55334414Y-75967549D01*
X55249945Y-75886556D01*
X55157057Y-75783827D01*
X55055751Y-75668383D01*
X54969706Y-75565019D01*
X54815994Y-75365293D01*
X54694464Y-75190200D01*
X54595162Y-75033346D01*
X54430019Y-74753053D01*
X54423656Y-74745925D01*
X54420259Y-74736996D01*
X54350272Y-74625329D01*
X54329403Y-74603205D01*
X54316139Y-74575837D01*
X54248268Y-74486122D01*
X54218544Y-74459693D01*
X54197202Y-74426129D01*
X54162157Y-74389457D01*
X54132610Y-74368731D01*
X54110182Y-74340462D01*
X54073379Y-74309226D01*
X54036352Y-74288641D01*
X54006159Y-74258924D01*
X53966838Y-74233100D01*
X53924006Y-74215756D01*
X53887042Y-74188029D01*
X53844440Y-74167595D01*
X53799220Y-74156007D01*
X53758443Y-74133289D01*
X53711798Y-74118247D01*
X53668407Y-74113209D01*
X53627870Y-74096933D01*
X53576421Y-74087281D01*
X53538437Y-74087695D01*
X53501844Y-74077491D01*
X53444829Y-74073173D01*
X53412720Y-74077069D01*
X53380892Y-74071326D01*
X53317549Y-74072455D01*
X53293247Y-74077741D01*
X53268517Y-74075089D01*
X53198084Y-74081411D01*
X53178784Y-74087084D01*
X53158690Y-74086100D01*
X53080405Y-74097727D01*
X53059919Y-74105061D01*
X53038162Y-74105361D01*
X52854989Y-74144426D01*
X52838363Y-74151583D01*
X52820300Y-74152774D01*
X52596576Y-74212820D01*
X52587684Y-74217210D01*
X52577811Y-74218144D01*
X52318379Y-74295757D01*
X52178033Y-74333483D01*
X52013169Y-74368111D01*
X51811487Y-74402155D01*
X51578020Y-74434390D01*
X51316549Y-74464255D01*
X51030199Y-74491459D01*
X50721960Y-74515838D01*
X50395923Y-74537231D01*
X49689382Y-74571665D01*
X48934984Y-74594457D01*
X48148481Y-74605906D01*
X47346803Y-74606184D01*
X46547395Y-74595889D01*
X45767360Y-74575231D01*
X45024139Y-74544638D01*
X44335208Y-74504565D01*
X43716238Y-74455422D01*
X43443476Y-74428145D01*
X43194413Y-74398894D01*
X42974486Y-74368253D01*
X42787594Y-74336874D01*
X42639356Y-74306143D01*
X42516668Y-74273549D01*
X42391293Y-74237464D01*
X42379102Y-74236439D01*
X42368043Y-74231213D01*
X42237835Y-74198645D01*
X42225629Y-74198050D01*
X42214407Y-74193221D01*
X42086089Y-74165873D01*
X42073979Y-74165708D01*
X42062694Y-74161311D01*
X41936254Y-74138931D01*
X41924318Y-74139184D01*
X41913048Y-74135232D01*
X41788472Y-74117565D01*
X41776691Y-74118219D01*
X41765435Y-74114696D01*
X41642712Y-74101516D01*
X41625646Y-74103045D01*
X41609061Y-74098739D01*
X41369123Y-74084882D01*
X41347621Y-74087883D01*
X41326305Y-74083750D01*
X41093621Y-74084879D01*
X41073796Y-74088923D01*
X41053744Y-74086235D01*
X40828215Y-74100487D01*
X40810540Y-74105179D01*
X40792312Y-74103706D01*
X40573833Y-74129106D01*
X40558473Y-74134062D01*
X40542343Y-74133510D01*
X40330812Y-74168116D01*
X40317908Y-74172951D01*
X40304124Y-74173026D01*
X40099438Y-74214897D01*
X40089082Y-74219253D01*
X40077856Y-74219676D01*
X39879914Y-74266869D01*
X39869716Y-74271551D01*
X39858523Y-74272335D01*
X39482455Y-74374911D01*
X39478318Y-74376974D01*
X39473713Y-74377358D01*
X39128750Y-74476380D01*
X38977489Y-74517140D01*
X38841120Y-74549894D01*
X38721776Y-74573257D01*
X38621325Y-74586771D01*
X38541238Y-74591119D01*
X38470508Y-74587806D01*
X38457864Y-74586065D01*
X38439650Y-74582299D01*
X38424671Y-74578072D01*
X38411848Y-74573390D01*
X38399990Y-74567990D01*
X38387896Y-74561289D01*
X38374397Y-74552360D01*
X38358635Y-74540101D01*
X38340073Y-74523323D01*
X38318481Y-74500859D01*
X38293859Y-74471612D01*
X38266455Y-74434698D01*
X38236651Y-74389436D01*
X38204830Y-74335224D01*
X38171421Y-74271655D01*
X38139474Y-74204020D01*
X38065544Y-74021441D01*
X37993359Y-73804708D01*
X37921921Y-73546295D01*
X37852684Y-73246712D01*
X37790888Y-72921141D01*
X37773696Y-72808270D01*
X54545510Y-72808270D01*
X54545510Y-73648319D01*
X54642183Y-73881708D01*
X54820811Y-74060337D01*
X55054200Y-74157010D01*
X55894250Y-74157010D01*
X56053000Y-73998260D01*
X56053000Y-72649520D01*
X56307000Y-72649520D01*
X56307000Y-73998260D01*
X56465750Y-74157010D01*
X57305800Y-74157010D01*
X57539189Y-74060337D01*
X57717817Y-73881708D01*
X57814490Y-73648319D01*
X57814490Y-72838270D01*
X58865510Y-72838270D01*
X58865510Y-73678319D01*
X58962183Y-73911708D01*
X59140811Y-74090337D01*
X59374200Y-74187010D01*
X60214250Y-74187010D01*
X60373000Y-74028260D01*
X60373000Y-72679520D01*
X60627000Y-72679520D01*
X60627000Y-74028260D01*
X60785750Y-74187010D01*
X61625800Y-74187010D01*
X61859189Y-74090337D01*
X62037817Y-73911708D01*
X62134490Y-73678319D01*
X62134490Y-72838270D01*
X61975740Y-72679520D01*
X60627000Y-72679520D01*
X60373000Y-72679520D01*
X59024260Y-72679520D01*
X58865510Y-72838270D01*
X57814490Y-72838270D01*
X57814490Y-72808270D01*
X57655740Y-72649520D01*
X56307000Y-72649520D01*
X56053000Y-72649520D01*
X54704260Y-72649520D01*
X54545510Y-72808270D01*
X37773696Y-72808270D01*
X37736359Y-72563142D01*
X37689411Y-72176279D01*
X37672524Y-71998308D01*
X45761297Y-71998308D01*
X45871091Y-72274598D01*
X46513758Y-72516307D01*
X47200003Y-72493679D01*
X47728909Y-72274598D01*
X47838703Y-71998308D01*
X46800000Y-70959605D01*
X45761297Y-71998308D01*
X37672524Y-71998308D01*
X37650420Y-71765363D01*
X37619630Y-71335150D01*
X37597178Y-70890022D01*
X37584990Y-70493758D01*
X45063693Y-70493758D01*
X45086321Y-71180003D01*
X45305402Y-71708909D01*
X45581692Y-71818703D01*
X46620395Y-70780000D01*
X46979605Y-70780000D01*
X48018308Y-71818703D01*
X48294598Y-71708909D01*
X48331410Y-71611029D01*
X54337842Y-71611029D01*
X54377958Y-71919637D01*
X54517030Y-72135761D01*
X54545510Y-72155221D01*
X54545510Y-72236770D01*
X54704260Y-72395520D01*
X56053000Y-72395520D01*
X56053000Y-70061260D01*
X56307000Y-70061260D01*
X56307000Y-72395520D01*
X57655740Y-72395520D01*
X57814490Y-72236770D01*
X57814490Y-72147830D01*
X57879955Y-72094323D01*
X57999991Y-71867075D01*
X58019560Y-71641029D01*
X58657842Y-71641029D01*
X58697958Y-71949637D01*
X58837030Y-72165761D01*
X58865510Y-72185221D01*
X58865510Y-72266770D01*
X59024260Y-72425520D01*
X60373000Y-72425520D01*
X60373000Y-70091260D01*
X60627000Y-70091260D01*
X60627000Y-72425520D01*
X61975740Y-72425520D01*
X62058187Y-72343073D01*
X63454327Y-72343073D01*
X63693571Y-72922087D01*
X64136183Y-73365472D01*
X64714779Y-73605726D01*
X65341273Y-73606273D01*
X65920287Y-73367029D01*
X66363672Y-72924417D01*
X66603926Y-72345821D01*
X66604473Y-71719327D01*
X66365229Y-71140313D01*
X65922617Y-70696928D01*
X65344021Y-70456674D01*
X64717527Y-70456127D01*
X64138513Y-70695371D01*
X63695128Y-71137983D01*
X63454874Y-71716579D01*
X63454327Y-72343073D01*
X62058187Y-72343073D01*
X62134490Y-72266770D01*
X62134490Y-72177830D01*
X62199955Y-72124323D01*
X62319991Y-71897075D01*
X62342158Y-71641029D01*
X62165588Y-70091260D01*
X60627000Y-70091260D01*
X60373000Y-70091260D01*
X58834412Y-70091260D01*
X58657842Y-71641029D01*
X58019560Y-71641029D01*
X58022158Y-71611029D01*
X57845588Y-70061260D01*
X56307000Y-70061260D01*
X56053000Y-70061260D01*
X54514412Y-70061260D01*
X54337842Y-71611029D01*
X48331410Y-71611029D01*
X48536307Y-71066242D01*
X48513679Y-70379997D01*
X48294598Y-69851091D01*
X48259794Y-69837260D01*
X58863351Y-69837260D01*
X60373000Y-69837260D01*
X60373000Y-67566760D01*
X60627000Y-67566760D01*
X60627000Y-69837260D01*
X62136649Y-69837260D01*
X61943378Y-68140909D01*
X61903262Y-67978883D01*
X61764190Y-67762759D01*
X61551990Y-67617769D01*
X61300100Y-67566760D01*
X60627000Y-67566760D01*
X60373000Y-67566760D01*
X59699900Y-67566760D01*
X59534374Y-67588277D01*
X59303896Y-67701990D01*
X59135817Y-67896412D01*
X59056622Y-68140909D01*
X58863351Y-69837260D01*
X48259794Y-69837260D01*
X48184300Y-69807260D01*
X54543351Y-69807260D01*
X56053000Y-69807260D01*
X56053000Y-67536760D01*
X56307000Y-67536760D01*
X56307000Y-69807260D01*
X57816649Y-69807260D01*
X57623378Y-68110909D01*
X57583262Y-67948883D01*
X57444190Y-67732759D01*
X57231990Y-67587769D01*
X56980100Y-67536760D01*
X56307000Y-67536760D01*
X56053000Y-67536760D01*
X55379900Y-67536760D01*
X55214374Y-67558277D01*
X54983896Y-67671990D01*
X54815817Y-67866412D01*
X54736622Y-68110909D01*
X54543351Y-69807260D01*
X48184300Y-69807260D01*
X48018308Y-69741297D01*
X46979605Y-70780000D01*
X46620395Y-70780000D01*
X45581692Y-69741297D01*
X45305402Y-69851091D01*
X45063693Y-70493758D01*
X37584990Y-70493758D01*
X37583162Y-70434352D01*
X37577636Y-69972426D01*
X37580287Y-69561692D01*
X45761297Y-69561692D01*
X46800000Y-70600395D01*
X47838703Y-69561692D01*
X47728909Y-69285402D01*
X47086242Y-69043693D01*
X46399997Y-69066321D01*
X45871091Y-69285402D01*
X45761297Y-69561692D01*
X37580287Y-69561692D01*
X37580631Y-69508461D01*
X37592150Y-69046759D01*
X37612178Y-68591535D01*
X37640664Y-68147115D01*
X37677526Y-67717800D01*
X37722610Y-67308153D01*
X37775679Y-66922759D01*
X37838115Y-66556019D01*
X37914898Y-66123083D01*
X39975991Y-66123083D01*
X40238195Y-66757664D01*
X40723283Y-67243599D01*
X41357405Y-67506910D01*
X42044023Y-67507509D01*
X42678604Y-67245305D01*
X43001567Y-66922904D01*
X43321703Y-67243599D01*
X43955825Y-67506910D01*
X44642443Y-67507509D01*
X45277024Y-67245305D01*
X45762959Y-66760217D01*
X46026270Y-66126095D01*
X46026272Y-66123083D01*
X47573131Y-66123083D01*
X47835335Y-66757664D01*
X48320423Y-67243599D01*
X48954545Y-67506910D01*
X49641163Y-67507509D01*
X50275744Y-67245305D01*
X50598707Y-66922904D01*
X50918843Y-67243599D01*
X51552965Y-67506910D01*
X52239583Y-67507509D01*
X52874164Y-67245305D01*
X53360099Y-66760217D01*
X53623410Y-66126095D01*
X53624009Y-65439477D01*
X53361805Y-64804896D01*
X52876717Y-64318961D01*
X52242595Y-64055650D01*
X51555977Y-64055051D01*
X50921396Y-64317255D01*
X50598433Y-64639656D01*
X50278297Y-64318961D01*
X49644175Y-64055650D01*
X48957557Y-64055051D01*
X48322976Y-64317255D01*
X47837041Y-64802343D01*
X47573730Y-65436465D01*
X47573131Y-66123083D01*
X46026272Y-66123083D01*
X46026869Y-65439477D01*
X45764665Y-64804896D01*
X45279577Y-64318961D01*
X44645455Y-64055650D01*
X43958837Y-64055051D01*
X43324256Y-64317255D01*
X43001293Y-64639656D01*
X42681157Y-64318961D01*
X42047035Y-64055650D01*
X41360417Y-64055051D01*
X40725836Y-64317255D01*
X40239901Y-64802343D01*
X39976590Y-65436465D01*
X39975991Y-66123083D01*
X37914898Y-66123083D01*
X37935852Y-66004942D01*
X37935699Y-65997605D01*
X37938221Y-65990714D01*
X38029350Y-65405486D01*
X38029068Y-65398748D01*
X38031263Y-65392370D01*
X38115519Y-64772631D01*
X38115143Y-64766490D01*
X38117042Y-64760638D01*
X38194584Y-64103619D01*
X38194145Y-64098059D01*
X38195780Y-64092731D01*
X38263118Y-63431491D01*
X54337842Y-63431491D01*
X54736622Y-66931611D01*
X54776738Y-67093637D01*
X54915810Y-67309761D01*
X55128010Y-67454751D01*
X55379900Y-67505760D01*
X56980100Y-67505760D01*
X57145626Y-67484243D01*
X57376104Y-67370530D01*
X57544183Y-67176108D01*
X57623378Y-66931611D01*
X58018740Y-63461491D01*
X58657842Y-63461491D01*
X59056622Y-66961611D01*
X59096738Y-67123637D01*
X59235810Y-67339761D01*
X59448010Y-67484751D01*
X59699900Y-67535760D01*
X61300100Y-67535760D01*
X61465626Y-67514243D01*
X61696104Y-67400530D01*
X61864183Y-67206108D01*
X61943378Y-66961611D01*
X62071090Y-65840673D01*
X63454327Y-65840673D01*
X63693571Y-66419687D01*
X64136183Y-66863072D01*
X64714779Y-67103326D01*
X65341273Y-67103873D01*
X65920287Y-66864629D01*
X66363672Y-66422017D01*
X66603926Y-65843421D01*
X66604473Y-65216927D01*
X66365229Y-64637913D01*
X65922617Y-64194528D01*
X65344021Y-63954274D01*
X64717527Y-63953727D01*
X64138513Y-64192971D01*
X63695128Y-64635583D01*
X63454874Y-65214179D01*
X63454327Y-65840673D01*
X62071090Y-65840673D01*
X62342158Y-63461491D01*
X62302042Y-63152883D01*
X62162970Y-62936759D01*
X62146930Y-62925799D01*
X62146930Y-61550510D01*
X62102652Y-61315193D01*
X61963580Y-61099069D01*
X61751380Y-60954079D01*
X61499490Y-60903070D01*
X59500510Y-60903070D01*
X59265193Y-60947348D01*
X59049069Y-61086420D01*
X58904079Y-61298620D01*
X58853070Y-61550510D01*
X58853070Y-62934858D01*
X58800045Y-62978197D01*
X58680009Y-63205445D01*
X58657842Y-63461491D01*
X58018740Y-63461491D01*
X58022158Y-63431491D01*
X57982042Y-63122883D01*
X57842970Y-62906759D01*
X57826930Y-62895799D01*
X57826930Y-61520510D01*
X57782652Y-61285193D01*
X57643580Y-61069069D01*
X57431380Y-60924079D01*
X57179490Y-60873070D01*
X55180510Y-60873070D01*
X54945193Y-60917348D01*
X54729069Y-61056420D01*
X54584079Y-61268620D01*
X54533070Y-61520510D01*
X54533070Y-62904858D01*
X54480045Y-62948197D01*
X54360009Y-63175445D01*
X54337842Y-63431491D01*
X38263118Y-63431491D01*
X38266765Y-63395679D01*
X38266289Y-63390678D01*
X38267695Y-63385852D01*
X38332282Y-62646001D01*
X38331791Y-62641521D01*
X38332995Y-62637178D01*
X38391343Y-61851770D01*
X38390852Y-61847771D01*
X38391883Y-61843879D01*
X38444149Y-61010156D01*
X38443671Y-61006602D01*
X38444553Y-61003128D01*
X38490897Y-60118327D01*
X38490440Y-60115177D01*
X38491196Y-60112083D01*
X38531742Y-59174187D01*
X42794752Y-59174187D01*
X43012757Y-59701800D01*
X43416077Y-60105824D01*
X43943309Y-60324750D01*
X44514187Y-60325248D01*
X45041800Y-60107243D01*
X45445824Y-59703923D01*
X45664750Y-59176691D01*
X45664752Y-59174187D01*
X47794752Y-59174187D01*
X48012757Y-59701800D01*
X48416077Y-60105824D01*
X48943309Y-60324750D01*
X49514187Y-60325248D01*
X50041800Y-60107243D01*
X50445824Y-59703923D01*
X50664750Y-59176691D01*
X50665248Y-58605813D01*
X50447243Y-58078200D01*
X50043923Y-57674176D01*
X49516691Y-57455250D01*
X48945813Y-57454752D01*
X48418200Y-57672757D01*
X48014176Y-58076077D01*
X47795250Y-58603309D01*
X47794752Y-59174187D01*
X45664752Y-59174187D01*
X45665248Y-58605813D01*
X45447243Y-58078200D01*
X45043923Y-57674176D01*
X44516691Y-57455250D01*
X43945813Y-57454752D01*
X43418200Y-57672757D01*
X43014176Y-58076077D01*
X42795250Y-58603309D01*
X42794752Y-59174187D01*
X38531742Y-59174187D01*
X38531775Y-59173446D01*
X38531345Y-59170658D01*
X38531991Y-59167916D01*
X38566964Y-58172683D01*
X38566565Y-58170227D01*
X38567119Y-58167797D01*
X38596645Y-57113203D01*
X38596277Y-57111039D01*
X38596752Y-57108896D01*
X38612728Y-56372769D01*
X56327842Y-56372769D01*
X56367958Y-56681377D01*
X56507030Y-56897501D01*
X56523070Y-56908461D01*
X56523070Y-58283750D01*
X56567348Y-58519067D01*
X56706420Y-58735191D01*
X56918620Y-58880181D01*
X57170510Y-58931190D01*
X59169490Y-58931190D01*
X59404807Y-58886912D01*
X59620931Y-58747840D01*
X59765921Y-58535640D01*
X59816930Y-58283750D01*
X59816930Y-56899402D01*
X59869955Y-56856063D01*
X59989991Y-56628815D01*
X60012158Y-56372769D01*
X59725871Y-53860000D01*
X60642560Y-53860000D01*
X60642560Y-55460000D01*
X60686838Y-55695317D01*
X60825910Y-55911441D01*
X61038110Y-56056431D01*
X61290000Y-56107440D01*
X61396181Y-56107440D01*
X61534921Y-56315079D01*
X62954921Y-57735079D01*
X63209593Y-57905245D01*
X63510000Y-57965000D01*
X65204842Y-57965000D01*
X70785000Y-63545158D01*
X70785000Y-64536307D01*
X70443817Y-64194528D01*
X69865221Y-63954274D01*
X69238727Y-63953727D01*
X68659713Y-64192971D01*
X68216328Y-64635583D01*
X67976074Y-65214179D01*
X67975527Y-65840673D01*
X68214771Y-66419687D01*
X68657383Y-66863072D01*
X69235979Y-67103326D01*
X69862473Y-67103873D01*
X70441487Y-66864629D01*
X70785000Y-66521715D01*
X70785000Y-71038707D01*
X70443817Y-70696928D01*
X69865221Y-70456674D01*
X69238727Y-70456127D01*
X68659713Y-70695371D01*
X68216328Y-71137983D01*
X67976074Y-71716579D01*
X67975527Y-72343073D01*
X68214771Y-72922087D01*
X68657383Y-73365472D01*
X69235979Y-73605726D01*
X69862473Y-73606273D01*
X70441487Y-73367029D01*
X70884872Y-72924417D01*
X71052231Y-72521371D01*
X73925939Y-75395079D01*
X74180611Y-75565245D01*
X74481018Y-75625000D01*
X76490000Y-75625000D01*
X76790407Y-75565245D01*
X77045079Y-75395079D01*
X77775079Y-74665079D01*
X77945245Y-74410406D01*
X77950590Y-74383535D01*
X78068620Y-74464181D01*
X78320510Y-74515190D01*
X80319490Y-74515190D01*
X80554807Y-74470912D01*
X80770931Y-74331840D01*
X80915921Y-74119640D01*
X80966930Y-73867750D01*
X80966930Y-72483402D01*
X81019955Y-72440063D01*
X81139991Y-72212815D01*
X81162158Y-71956769D01*
X81159082Y-71929769D01*
X81687842Y-71929769D01*
X81727958Y-72238377D01*
X81867030Y-72454501D01*
X81883070Y-72465461D01*
X81883070Y-73840750D01*
X81927348Y-74076067D01*
X82066420Y-74292191D01*
X82278620Y-74437181D01*
X82530510Y-74488190D01*
X84529490Y-74488190D01*
X84764807Y-74443912D01*
X84980931Y-74304840D01*
X85125921Y-74092640D01*
X85176930Y-73840750D01*
X85176930Y-73817000D01*
X88755000Y-73817000D01*
X88755000Y-74092000D01*
X88889998Y-74516678D01*
X89177237Y-74857368D01*
X89588126Y-75059119D01*
X89763000Y-74932954D01*
X89763000Y-73817000D01*
X90017000Y-73817000D01*
X90017000Y-74932954D01*
X90191874Y-75059119D01*
X90602763Y-74857368D01*
X90890002Y-74516678D01*
X91025000Y-74092000D01*
X91025000Y-73817000D01*
X95755000Y-73817000D01*
X95755000Y-74092000D01*
X95889998Y-74516678D01*
X96177237Y-74857368D01*
X96588126Y-75059119D01*
X96763000Y-74932954D01*
X96763000Y-73817000D01*
X97017000Y-73817000D01*
X97017000Y-74932954D01*
X97191874Y-75059119D01*
X97602763Y-74857368D01*
X97890002Y-74516678D01*
X98025000Y-74092000D01*
X98025000Y-73817000D01*
X97017000Y-73817000D01*
X96763000Y-73817000D01*
X95755000Y-73817000D01*
X91025000Y-73817000D01*
X90017000Y-73817000D01*
X89763000Y-73817000D01*
X88755000Y-73817000D01*
X85176930Y-73817000D01*
X85176930Y-73288000D01*
X88755000Y-73288000D01*
X88755000Y-73563000D01*
X89763000Y-73563000D01*
X89763000Y-72447046D01*
X90017000Y-72447046D01*
X90017000Y-73563000D01*
X91025000Y-73563000D01*
X91025000Y-73288000D01*
X95755000Y-73288000D01*
X95755000Y-73563000D01*
X96763000Y-73563000D01*
X96763000Y-72447046D01*
X97017000Y-72447046D01*
X97017000Y-73563000D01*
X98025000Y-73563000D01*
X98025000Y-73288000D01*
X97890002Y-72863322D01*
X97602763Y-72522632D01*
X97191874Y-72320881D01*
X97017000Y-72447046D01*
X96763000Y-72447046D01*
X96588126Y-72320881D01*
X96177237Y-72522632D01*
X95889998Y-72863322D01*
X95755000Y-73288000D01*
X91025000Y-73288000D01*
X90890002Y-72863322D01*
X90602763Y-72522632D01*
X90191874Y-72320881D01*
X90017000Y-72447046D01*
X89763000Y-72447046D01*
X89588126Y-72320881D01*
X89177237Y-72522632D01*
X88889998Y-72863322D01*
X88755000Y-73288000D01*
X85176930Y-73288000D01*
X85176930Y-72456402D01*
X85229955Y-72413063D01*
X85349991Y-72185815D01*
X85372158Y-71929769D01*
X85299033Y-71287938D01*
X89670732Y-71287938D01*
X89854448Y-71661821D01*
X90178951Y-71949568D01*
X90588869Y-72091229D01*
X90763000Y-71942563D01*
X90763000Y-71117000D01*
X91017000Y-71117000D01*
X91017000Y-71942563D01*
X91191131Y-72091229D01*
X91601049Y-71949568D01*
X91925552Y-71661821D01*
X92109268Y-71287938D01*
X94670732Y-71287938D01*
X94854448Y-71661821D01*
X95178951Y-71949568D01*
X95588869Y-72091229D01*
X95763000Y-71942563D01*
X95763000Y-71117000D01*
X96017000Y-71117000D01*
X96017000Y-71942563D01*
X96191131Y-72091229D01*
X96601049Y-71949568D01*
X96826251Y-71749874D01*
X101544370Y-71749874D01*
X102096600Y-73086372D01*
X103118249Y-74109806D01*
X104453782Y-74664368D01*
X105899874Y-74665630D01*
X107236372Y-74113400D01*
X108259806Y-73091751D01*
X108814368Y-71756218D01*
X108815630Y-70310126D01*
X108805922Y-70286630D01*
X110322975Y-70286630D01*
X110665566Y-70761277D01*
X111998800Y-71321342D01*
X113444875Y-71328568D01*
X114783639Y-70781854D01*
X114814434Y-70761277D01*
X115157025Y-70286630D01*
X112740000Y-67869605D01*
X110322975Y-70286630D01*
X108805922Y-70286630D01*
X108263400Y-68973628D01*
X107685657Y-68394875D01*
X109101432Y-68394875D01*
X109648146Y-69733639D01*
X109668723Y-69764434D01*
X110143370Y-70107025D01*
X112560395Y-67690000D01*
X112919605Y-67690000D01*
X115336630Y-70107025D01*
X115811277Y-69764434D01*
X116371342Y-68431200D01*
X116378568Y-66985125D01*
X115831854Y-65646361D01*
X115811277Y-65615566D01*
X115336630Y-65272975D01*
X112919605Y-67690000D01*
X112560395Y-67690000D01*
X110143370Y-65272975D01*
X109668723Y-65615566D01*
X109108658Y-66948800D01*
X109101432Y-68394875D01*
X107685657Y-68394875D01*
X107241751Y-67950194D01*
X105906218Y-67395632D01*
X104460126Y-67394370D01*
X103123628Y-67946600D01*
X102100194Y-68968249D01*
X101545632Y-70303782D01*
X101544370Y-71749874D01*
X96826251Y-71749874D01*
X96925552Y-71661821D01*
X97109268Y-71287938D01*
X96982734Y-71117000D01*
X96017000Y-71117000D01*
X95763000Y-71117000D01*
X94797266Y-71117000D01*
X94670732Y-71287938D01*
X92109268Y-71287938D01*
X91982734Y-71117000D01*
X91017000Y-71117000D01*
X90763000Y-71117000D01*
X89797266Y-71117000D01*
X89670732Y-71287938D01*
X85299033Y-71287938D01*
X85231143Y-70692062D01*
X89670732Y-70692062D01*
X89797266Y-70863000D01*
X90763000Y-70863000D01*
X90763000Y-70037437D01*
X91017000Y-70037437D01*
X91017000Y-70863000D01*
X91982734Y-70863000D01*
X92109268Y-70692062D01*
X94670732Y-70692062D01*
X94797266Y-70863000D01*
X95763000Y-70863000D01*
X95763000Y-70037437D01*
X96017000Y-70037437D01*
X96017000Y-70863000D01*
X96982734Y-70863000D01*
X97109268Y-70692062D01*
X96925552Y-70318179D01*
X96601049Y-70030432D01*
X96191131Y-69888771D01*
X96017000Y-70037437D01*
X95763000Y-70037437D01*
X95588869Y-69888771D01*
X95178951Y-70030432D01*
X94854448Y-70318179D01*
X94670732Y-70692062D01*
X92109268Y-70692062D01*
X91925552Y-70318179D01*
X91601049Y-70030432D01*
X91191131Y-69888771D01*
X91017000Y-70037437D01*
X90763000Y-70037437D01*
X90588869Y-69888771D01*
X90178951Y-70030432D01*
X89854448Y-70318179D01*
X89670732Y-70692062D01*
X85231143Y-70692062D01*
X84973378Y-68429649D01*
X84933262Y-68267623D01*
X84794190Y-68051499D01*
X84581990Y-67906509D01*
X84330100Y-67855500D01*
X82729900Y-67855500D01*
X82564374Y-67877017D01*
X82333896Y-67990730D01*
X82165817Y-68185152D01*
X82086622Y-68429649D01*
X81687842Y-71929769D01*
X81159082Y-71929769D01*
X80763378Y-68456649D01*
X80723262Y-68294623D01*
X80584190Y-68078499D01*
X80371990Y-67933509D01*
X80120100Y-67882500D01*
X78519900Y-67882500D01*
X78354374Y-67904017D01*
X78123896Y-68017730D01*
X77955817Y-68212152D01*
X77876622Y-68456649D01*
X77737619Y-69676687D01*
X77665431Y-69724921D01*
X76807683Y-70582669D01*
X76563378Y-68438389D01*
X76523262Y-68276363D01*
X76384190Y-68060239D01*
X76171990Y-67915249D01*
X75920100Y-67864240D01*
X74319900Y-67864240D01*
X74154374Y-67885757D01*
X73953354Y-67984936D01*
X73665000Y-67696582D01*
X73665000Y-67157084D01*
X73676622Y-67259091D01*
X73716738Y-67421117D01*
X73855810Y-67637241D01*
X74068010Y-67782231D01*
X74319900Y-67833240D01*
X75920100Y-67833240D01*
X76085626Y-67811723D01*
X76316104Y-67698010D01*
X76484183Y-67503588D01*
X76563378Y-67259091D01*
X76962158Y-63758971D01*
X76922042Y-63450363D01*
X76782970Y-63234239D01*
X76766930Y-63223279D01*
X76766930Y-61847990D01*
X76741906Y-61715000D01*
X77703699Y-61715000D01*
X77673070Y-61866250D01*
X77673070Y-63250598D01*
X77620045Y-63293937D01*
X77500009Y-63521185D01*
X77477842Y-63777231D01*
X77876622Y-67277351D01*
X77916738Y-67439377D01*
X78055810Y-67655501D01*
X78268010Y-67800491D01*
X78519900Y-67851500D01*
X80120100Y-67851500D01*
X80285626Y-67829983D01*
X80516104Y-67716270D01*
X80684183Y-67521848D01*
X80763378Y-67277351D01*
X81162158Y-63777231D01*
X81145715Y-63650740D01*
X81696455Y-63650740D01*
X81687842Y-63750231D01*
X82086622Y-67250351D01*
X82126738Y-67412377D01*
X82265810Y-67628501D01*
X82478010Y-67773491D01*
X82729900Y-67824500D01*
X84330100Y-67824500D01*
X84495626Y-67802983D01*
X84696646Y-67703804D01*
X85167921Y-68175079D01*
X85422593Y-68345245D01*
X85723000Y-68405000D01*
X86428634Y-68405000D01*
X86680000Y-68455000D01*
X99170000Y-68455000D01*
X99489541Y-68391439D01*
X99760434Y-68210434D01*
X100990434Y-66980434D01*
X101171440Y-66709540D01*
X101235000Y-66390000D01*
X101235000Y-65093370D01*
X110322975Y-65093370D01*
X112740000Y-67510395D01*
X115157025Y-65093370D01*
X114814434Y-64618723D01*
X113481200Y-64058658D01*
X112035125Y-64051432D01*
X110696361Y-64598146D01*
X110665566Y-64618723D01*
X110322975Y-65093370D01*
X101235000Y-65093370D01*
X101235000Y-62090000D01*
X101171439Y-61770459D01*
X100990434Y-61499566D01*
X95900434Y-56409566D01*
X95835697Y-56366310D01*
X95629541Y-56228561D01*
X95310000Y-56165000D01*
X94735000Y-56165000D01*
X94735000Y-55175750D01*
X94576250Y-55017000D01*
X91977000Y-55017000D01*
X91977000Y-55037000D01*
X91723000Y-55037000D01*
X91723000Y-55017000D01*
X89123750Y-55017000D01*
X88965000Y-55175750D01*
X88965000Y-56165000D01*
X86947440Y-56165000D01*
X86947440Y-53540000D01*
X86923674Y-53413690D01*
X88965000Y-53413690D01*
X88965000Y-54604250D01*
X89123750Y-54763000D01*
X91723000Y-54763000D01*
X91723000Y-53063750D01*
X91977000Y-53063750D01*
X91977000Y-54763000D01*
X94576250Y-54763000D01*
X94735000Y-54604250D01*
X94735000Y-53413690D01*
X94638327Y-53180301D01*
X94459698Y-53001673D01*
X94226309Y-52905000D01*
X92135750Y-52905000D01*
X91977000Y-53063750D01*
X91723000Y-53063750D01*
X91564250Y-52905000D01*
X89473691Y-52905000D01*
X89240302Y-53001673D01*
X89061673Y-53180301D01*
X88965000Y-53413690D01*
X86923674Y-53413690D01*
X86903162Y-53304683D01*
X86764090Y-53088559D01*
X86551890Y-52943569D01*
X86300000Y-52892560D01*
X81800000Y-52892560D01*
X81797916Y-52892952D01*
X81815868Y-52875000D01*
X111915000Y-52875000D01*
X111915000Y-58010000D01*
X111978561Y-58329541D01*
X112116272Y-58535640D01*
X112159566Y-58600434D01*
X112726086Y-59166954D01*
X112515632Y-59673782D01*
X112514370Y-61119874D01*
X113066600Y-62456372D01*
X114088249Y-63479806D01*
X115423782Y-64034368D01*
X116869874Y-64035630D01*
X118206372Y-63483400D01*
X119229806Y-62461751D01*
X119784368Y-61126218D01*
X119785630Y-59680126D01*
X119233400Y-58343628D01*
X118211751Y-57320194D01*
X116876218Y-56765632D01*
X115430126Y-56764370D01*
X114093628Y-57316600D01*
X113665174Y-57744306D01*
X113585000Y-57664132D01*
X113585000Y-52040000D01*
X113521439Y-51720459D01*
X113340434Y-51449566D01*
X113069541Y-51268561D01*
X112750000Y-51205000D01*
X81470000Y-51205000D01*
X81150459Y-51268561D01*
X80961230Y-51395000D01*
X80879566Y-51449566D01*
X79819566Y-52509566D01*
X79638561Y-52780459D01*
X79575000Y-53100000D01*
X79575000Y-53949998D01*
X79615000Y-54151090D01*
X79615000Y-57444132D01*
X79054132Y-58005000D01*
X75515868Y-58005000D01*
X75415000Y-57904132D01*
X75415000Y-57276110D01*
X75460434Y-57230676D01*
X75495740Y-57177837D01*
X75605510Y-57013555D01*
X75605510Y-57237059D01*
X75702183Y-57470448D01*
X75880811Y-57649077D01*
X76114200Y-57745750D01*
X76954250Y-57745750D01*
X77113000Y-57587000D01*
X77113000Y-56238260D01*
X77367000Y-56238260D01*
X77367000Y-57587000D01*
X77525750Y-57745750D01*
X78365800Y-57745750D01*
X78599189Y-57649077D01*
X78777817Y-57470448D01*
X78874490Y-57237059D01*
X78874490Y-56397010D01*
X78715740Y-56238260D01*
X77367000Y-56238260D01*
X77113000Y-56238260D01*
X77093000Y-56238260D01*
X77093000Y-55984260D01*
X77113000Y-55984260D01*
X77113000Y-53650000D01*
X77367000Y-53650000D01*
X77367000Y-55984260D01*
X78715740Y-55984260D01*
X78874490Y-55825510D01*
X78874490Y-55736570D01*
X78939955Y-55683063D01*
X79059991Y-55455815D01*
X79082158Y-55199769D01*
X78905588Y-53650000D01*
X77367000Y-53650000D01*
X77113000Y-53650000D01*
X77093000Y-53650000D01*
X77093000Y-53396000D01*
X77113000Y-53396000D01*
X77113000Y-51125500D01*
X77367000Y-51125500D01*
X77367000Y-53396000D01*
X78876649Y-53396000D01*
X78683378Y-51699649D01*
X78643262Y-51537623D01*
X78504190Y-51321499D01*
X78291990Y-51176509D01*
X78040100Y-51125500D01*
X77367000Y-51125500D01*
X77113000Y-51125500D01*
X76439900Y-51125500D01*
X76274374Y-51147017D01*
X76043896Y-51260730D01*
X75875817Y-51455152D01*
X75796622Y-51699649D01*
X75647324Y-53010045D01*
X75641439Y-52980459D01*
X75460434Y-52709566D01*
X72720434Y-49969566D01*
X72449541Y-49788561D01*
X72130000Y-49725000D01*
X68495868Y-49725000D01*
X67256729Y-48485861D01*
X67719151Y-48393880D01*
X68184698Y-48082811D01*
X68440000Y-47700725D01*
X68695302Y-48082811D01*
X69160849Y-48393880D01*
X69710000Y-48503113D01*
X70259151Y-48393880D01*
X70724698Y-48082811D01*
X70866953Y-47869911D01*
X71160911Y-47811439D01*
X71431804Y-47630434D01*
X72042007Y-47020231D01*
X75397842Y-47020231D01*
X75796622Y-50520351D01*
X75836738Y-50682377D01*
X75975810Y-50898501D01*
X76188010Y-51043491D01*
X76439900Y-51094500D01*
X78040100Y-51094500D01*
X78205626Y-51072983D01*
X78436104Y-50959270D01*
X78604183Y-50764848D01*
X78683378Y-50520351D01*
X78695598Y-50413089D01*
X86536517Y-50413089D01*
X86665725Y-50705859D01*
X87365883Y-50974071D01*
X88115384Y-50953928D01*
X88714275Y-50705859D01*
X88843483Y-50413089D01*
X87690000Y-49259605D01*
X86536517Y-50413089D01*
X78695598Y-50413089D01*
X78884409Y-48755883D01*
X85795929Y-48755883D01*
X85816072Y-49505384D01*
X86064141Y-50104275D01*
X86356911Y-50233483D01*
X87510395Y-49080000D01*
X87869605Y-49080000D01*
X89023089Y-50233483D01*
X89315859Y-50104275D01*
X89584071Y-49404117D01*
X89563928Y-48654616D01*
X89315859Y-48055725D01*
X89023089Y-47926517D01*
X87869605Y-49080000D01*
X87510395Y-49080000D01*
X86356911Y-47926517D01*
X86064141Y-48055725D01*
X85795929Y-48755883D01*
X78884409Y-48755883D01*
X78999364Y-47746911D01*
X86536517Y-47746911D01*
X87690000Y-48900395D01*
X88843483Y-47746911D01*
X88714275Y-47454141D01*
X88014117Y-47185929D01*
X87264616Y-47206072D01*
X86665725Y-47454141D01*
X86536517Y-47746911D01*
X78999364Y-47746911D01*
X79082158Y-47020231D01*
X79042042Y-46711623D01*
X78902970Y-46495499D01*
X78886930Y-46484539D01*
X78886930Y-45109250D01*
X78842652Y-44873933D01*
X78703580Y-44657809D01*
X78491380Y-44512819D01*
X78239490Y-44461810D01*
X76240510Y-44461810D01*
X76005193Y-44506088D01*
X75789069Y-44645160D01*
X75644079Y-44857360D01*
X75593070Y-45109250D01*
X75593070Y-46493598D01*
X75540045Y-46536937D01*
X75420009Y-46764185D01*
X75397842Y-47020231D01*
X72042007Y-47020231D01*
X74737238Y-44325000D01*
X99354132Y-44325000D01*
X105539566Y-50510434D01*
X105810459Y-50691439D01*
X106130000Y-50755000D01*
X113151939Y-50755000D01*
X113656600Y-51976372D01*
X114678249Y-52999806D01*
X116013782Y-53554368D01*
X117459874Y-53555630D01*
X118796372Y-53003400D01*
X119819806Y-51981751D01*
X120374368Y-50646218D01*
X120375630Y-49200126D01*
X119823400Y-47863628D01*
X118801751Y-46840194D01*
X117466218Y-46285632D01*
X116020126Y-46284370D01*
X114683628Y-46836600D01*
X113660194Y-47858249D01*
X113150802Y-49085000D01*
X106475868Y-49085000D01*
X102787498Y-45396630D01*
X110022975Y-45396630D01*
X110365566Y-45871277D01*
X111698800Y-46431342D01*
X113144875Y-46438568D01*
X114483639Y-45891854D01*
X114514434Y-45871277D01*
X114857025Y-45396630D01*
X112440000Y-42979605D01*
X110022975Y-45396630D01*
X102787498Y-45396630D01*
X100895743Y-43504875D01*
X108801432Y-43504875D01*
X109348146Y-44843639D01*
X109368723Y-44874434D01*
X109843370Y-45217025D01*
X112260395Y-42800000D01*
X112619605Y-42800000D01*
X115036630Y-45217025D01*
X115511277Y-44874434D01*
X116071342Y-43541200D01*
X116078568Y-42095125D01*
X115531854Y-40756361D01*
X115511277Y-40725566D01*
X115036630Y-40382975D01*
X112619605Y-42800000D01*
X112260395Y-42800000D01*
X109843370Y-40382975D01*
X109368723Y-40725566D01*
X108808658Y-42058800D01*
X108801432Y-43504875D01*
X100895743Y-43504875D01*
X100290434Y-42899566D01*
X100243011Y-42867879D01*
X100019541Y-42718561D01*
X99700000Y-42655000D01*
X77913406Y-42655000D01*
X77961441Y-42624090D01*
X78106431Y-42411890D01*
X78157440Y-42160000D01*
X78157440Y-40360000D01*
X78113162Y-40124683D01*
X77974090Y-39908559D01*
X77761890Y-39763569D01*
X77741466Y-39759433D01*
X77910551Y-39590643D01*
X78034043Y-39293241D01*
X85804994Y-39293241D01*
X86091314Y-39986191D01*
X86621021Y-40516822D01*
X87313469Y-40804352D01*
X88063241Y-40805006D01*
X88756191Y-40518686D01*
X88875210Y-40399874D01*
X101394370Y-40399874D01*
X101946600Y-41736372D01*
X102968249Y-42759806D01*
X104303782Y-43314368D01*
X105749874Y-43315630D01*
X107086372Y-42763400D01*
X108109806Y-41741751D01*
X108664368Y-40406218D01*
X108664545Y-40203370D01*
X110022975Y-40203370D01*
X112440000Y-42620395D01*
X114857025Y-40203370D01*
X114514434Y-39728723D01*
X113181200Y-39168658D01*
X111735125Y-39161432D01*
X110396361Y-39708146D01*
X110365566Y-39728723D01*
X110022975Y-40203370D01*
X108664545Y-40203370D01*
X108665630Y-38960126D01*
X108113400Y-37623628D01*
X107091751Y-36600194D01*
X105756218Y-36045632D01*
X104310126Y-36044370D01*
X102973628Y-36596600D01*
X101950194Y-37618249D01*
X101395632Y-38953782D01*
X101394370Y-40399874D01*
X88875210Y-40399874D01*
X89286822Y-39988979D01*
X89574352Y-39296531D01*
X89575006Y-38546759D01*
X89288686Y-37853809D01*
X88758979Y-37323178D01*
X88066531Y-37035648D01*
X87316759Y-37034994D01*
X86623809Y-37321314D01*
X86093178Y-37851021D01*
X85805648Y-38543469D01*
X85804994Y-39293241D01*
X78034043Y-39293241D01*
X78144733Y-39026670D01*
X78145265Y-38416009D01*
X77912068Y-37851629D01*
X77480643Y-37419449D01*
X76916670Y-37185267D01*
X76306009Y-37184735D01*
X75741629Y-37417932D01*
X75309449Y-37849357D01*
X75075267Y-38413330D01*
X75074735Y-39023991D01*
X75307932Y-39588371D01*
X75475880Y-39756613D01*
X75474683Y-39756838D01*
X75258559Y-39895910D01*
X75113569Y-40108110D01*
X75062560Y-40360000D01*
X75062560Y-42160000D01*
X75106838Y-42395317D01*
X75245910Y-42611441D01*
X75309661Y-42655000D01*
X74391370Y-42655000D01*
X74071829Y-42718561D01*
X73848359Y-42867879D01*
X73800936Y-42899566D01*
X70711879Y-45988623D01*
X70259151Y-45686120D01*
X69710000Y-45576887D01*
X69160849Y-45686120D01*
X68695302Y-45997189D01*
X68440000Y-46379275D01*
X68184698Y-45997189D01*
X67719151Y-45686120D01*
X67170000Y-45576887D01*
X66620849Y-45686120D01*
X66155302Y-45997189D01*
X65900000Y-46379275D01*
X65644698Y-45997189D01*
X65179151Y-45686120D01*
X64630000Y-45576887D01*
X64080849Y-45686120D01*
X63615302Y-45997189D01*
X63360000Y-46379275D01*
X63104698Y-45997189D01*
X62639151Y-45686120D01*
X62090000Y-45576887D01*
X61540849Y-45686120D01*
X61075302Y-45997189D01*
X60764233Y-46462736D01*
X60655000Y-47011887D01*
X60655000Y-47068113D01*
X60764233Y-47617264D01*
X61075302Y-48082811D01*
X61540849Y-48393880D01*
X62090000Y-48503113D01*
X62639151Y-48393880D01*
X63104698Y-48082811D01*
X63360000Y-47700725D01*
X63615302Y-48082811D01*
X64080849Y-48393880D01*
X64630000Y-48503113D01*
X64865418Y-48456286D01*
X67559566Y-51150434D01*
X67830460Y-51331440D01*
X68150000Y-51395000D01*
X71784132Y-51395000D01*
X74035000Y-53645868D01*
X74035000Y-56294374D01*
X73989566Y-56339808D01*
X73808561Y-56610701D01*
X73745000Y-56930242D01*
X73745000Y-58250000D01*
X73808561Y-58569541D01*
X73919245Y-58735191D01*
X73989566Y-58840434D01*
X74579566Y-59430434D01*
X74850459Y-59611439D01*
X75170000Y-59675000D01*
X79400000Y-59675000D01*
X79480056Y-59659076D01*
X78994132Y-60145000D01*
X75737990Y-60145000D01*
X75437584Y-60204755D01*
X75182911Y-60374921D01*
X74564921Y-60992911D01*
X74426181Y-61200550D01*
X74120510Y-61200550D01*
X73885193Y-61244828D01*
X73669069Y-61383900D01*
X73524079Y-61596100D01*
X73486468Y-61781830D01*
X73435079Y-61704921D01*
X67955000Y-56224842D01*
X67955000Y-55856291D01*
X68184698Y-55702811D01*
X68454986Y-55298297D01*
X68557611Y-55515134D01*
X68972577Y-55891041D01*
X69360961Y-56051904D01*
X69583000Y-55929915D01*
X69583000Y-54787000D01*
X69837000Y-54787000D01*
X69837000Y-55929915D01*
X70059039Y-56051904D01*
X70447423Y-55891041D01*
X70862389Y-55515134D01*
X71101914Y-55009041D01*
X70980629Y-54787000D01*
X69837000Y-54787000D01*
X69583000Y-54787000D01*
X69563000Y-54787000D01*
X69563000Y-54533000D01*
X69583000Y-54533000D01*
X69583000Y-53390085D01*
X69837000Y-53390085D01*
X69837000Y-54533000D01*
X70980629Y-54533000D01*
X71101914Y-54310959D01*
X70862389Y-53804866D01*
X70447423Y-53428959D01*
X70059039Y-53268096D01*
X69837000Y-53390085D01*
X69583000Y-53390085D01*
X69360961Y-53268096D01*
X68972577Y-53428959D01*
X68557611Y-53804866D01*
X68454986Y-54021703D01*
X68184698Y-53617189D01*
X67719151Y-53306120D01*
X67170000Y-53196887D01*
X66620849Y-53306120D01*
X66155302Y-53617189D01*
X65900000Y-53999275D01*
X65644698Y-53617189D01*
X65179151Y-53306120D01*
X64630000Y-53196887D01*
X64080849Y-53306120D01*
X63615302Y-53617189D01*
X63518899Y-53761465D01*
X63493162Y-53624683D01*
X63354090Y-53408559D01*
X63141890Y-53263569D01*
X62890000Y-53212560D01*
X61290000Y-53212560D01*
X61054683Y-53256838D01*
X60838559Y-53395910D01*
X60693569Y-53608110D01*
X60642560Y-53860000D01*
X59725871Y-53860000D01*
X59613378Y-52872649D01*
X59573262Y-52710623D01*
X59434190Y-52494499D01*
X59221990Y-52349509D01*
X58970100Y-52298500D01*
X57369900Y-52298500D01*
X57204374Y-52320017D01*
X56973896Y-52433730D01*
X56805817Y-52628152D01*
X56726622Y-52872649D01*
X56327842Y-56372769D01*
X38612728Y-56372769D01*
X38620989Y-55992185D01*
X38620653Y-55990282D01*
X38621060Y-55988396D01*
X38625598Y-55707745D01*
X49881861Y-55707745D01*
X49955995Y-55953864D01*
X50493223Y-56146965D01*
X51063454Y-56119778D01*
X51464005Y-55953864D01*
X51538139Y-55707745D01*
X50710000Y-54879605D01*
X49881861Y-55707745D01*
X38625598Y-55707745D01*
X38640167Y-54806809D01*
X38639863Y-54805142D01*
X38640213Y-54803482D01*
X38653989Y-53585750D01*
X41040000Y-53585750D01*
X41040000Y-54181309D01*
X41136673Y-54414698D01*
X41315301Y-54593327D01*
X41548690Y-54690000D01*
X42894250Y-54690000D01*
X43053000Y-54531250D01*
X43053000Y-53427000D01*
X43307000Y-53427000D01*
X43307000Y-54531250D01*
X43465750Y-54690000D01*
X44811310Y-54690000D01*
X45044699Y-54593327D01*
X45154802Y-54483223D01*
X49263035Y-54483223D01*
X49290222Y-55053454D01*
X49456136Y-55454005D01*
X49702255Y-55528139D01*
X50530395Y-54700000D01*
X50889605Y-54700000D01*
X51717745Y-55528139D01*
X51963864Y-55454005D01*
X52156965Y-54916777D01*
X52129778Y-54346546D01*
X51963864Y-53945995D01*
X51717745Y-53871861D01*
X50889605Y-54700000D01*
X50530395Y-54700000D01*
X49702255Y-53871861D01*
X49456136Y-53945995D01*
X49263035Y-54483223D01*
X45154802Y-54483223D01*
X45223327Y-54414698D01*
X45320000Y-54181309D01*
X45320000Y-53692255D01*
X49881861Y-53692255D01*
X50710000Y-54520395D01*
X51538139Y-53692255D01*
X51464005Y-53446136D01*
X50926777Y-53253035D01*
X50356546Y-53280222D01*
X49955995Y-53446136D01*
X49881861Y-53692255D01*
X45320000Y-53692255D01*
X45320000Y-53585750D01*
X45161250Y-53427000D01*
X43307000Y-53427000D01*
X43053000Y-53427000D01*
X41198750Y-53427000D01*
X41040000Y-53585750D01*
X38653989Y-53585750D01*
X38654346Y-53554257D01*
X38654073Y-53552799D01*
X38654373Y-53551345D01*
X38663692Y-52231719D01*
X38663655Y-52231525D01*
X38663695Y-52231329D01*
X38673246Y-50760000D01*
X40998075Y-50760000D01*
X41103882Y-51291930D01*
X41405197Y-51742878D01*
X41655312Y-51910000D01*
X41548690Y-51910000D01*
X41315301Y-52006673D01*
X41136673Y-52185302D01*
X41040000Y-52418691D01*
X41040000Y-53014250D01*
X41198750Y-53173000D01*
X43053000Y-53173000D01*
X43053000Y-53153000D01*
X43307000Y-53153000D01*
X43307000Y-53173000D01*
X45161250Y-53173000D01*
X45320000Y-53014250D01*
X45320000Y-52418691D01*
X45223327Y-52185302D01*
X45044699Y-52006673D01*
X44811310Y-51910000D01*
X44704688Y-51910000D01*
X44954803Y-51742878D01*
X45256118Y-51291930D01*
X45361925Y-50760000D01*
X45256118Y-50228070D01*
X45093160Y-49984187D01*
X49274752Y-49984187D01*
X49492757Y-50511800D01*
X49896077Y-50915824D01*
X50423309Y-51134750D01*
X50994187Y-51135248D01*
X51521800Y-50917243D01*
X51925824Y-50513923D01*
X52144750Y-49986691D01*
X52145248Y-49415813D01*
X51927243Y-48888200D01*
X51523923Y-48484176D01*
X50996691Y-48265250D01*
X50425813Y-48264752D01*
X49898200Y-48482757D01*
X49494176Y-48886077D01*
X49275250Y-49413309D01*
X49274752Y-49984187D01*
X45093160Y-49984187D01*
X44954803Y-49777122D01*
X44503855Y-49475807D01*
X43971925Y-49370000D01*
X42388075Y-49370000D01*
X41856145Y-49475807D01*
X41405197Y-49777122D01*
X41103882Y-50228070D01*
X40998075Y-50760000D01*
X38673246Y-50760000D01*
X38677055Y-50173297D01*
X38695198Y-48509963D01*
X38701209Y-48193231D01*
X56327842Y-48193231D01*
X56726622Y-51693351D01*
X56766738Y-51855377D01*
X56905810Y-52071501D01*
X57118010Y-52216491D01*
X57369900Y-52267500D01*
X58970100Y-52267500D01*
X59135626Y-52245983D01*
X59366104Y-52132270D01*
X59534183Y-51937848D01*
X59613378Y-51693351D01*
X60012158Y-48193231D01*
X59972042Y-47884623D01*
X59832970Y-47668499D01*
X59816930Y-47657539D01*
X59816930Y-46282250D01*
X59772652Y-46046933D01*
X59633580Y-45830809D01*
X59421380Y-45685819D01*
X59169490Y-45634810D01*
X57170510Y-45634810D01*
X56935193Y-45679088D01*
X56719069Y-45818160D01*
X56574079Y-46030360D01*
X56523070Y-46282250D01*
X56523070Y-47666598D01*
X56470045Y-47709937D01*
X56350009Y-47937185D01*
X56327842Y-48193231D01*
X38701209Y-48193231D01*
X38720229Y-47191108D01*
X38735890Y-46648599D01*
X38753997Y-46174439D01*
X38774704Y-45763961D01*
X38798133Y-45411784D01*
X38824321Y-45112482D01*
X38853163Y-44860853D01*
X38884434Y-44651204D01*
X38917798Y-44477523D01*
X38953111Y-44332454D01*
X38994093Y-44196396D01*
X39093810Y-43888332D01*
X39095342Y-43875262D01*
X39101321Y-43863538D01*
X39172467Y-43611594D01*
X39174102Y-43590908D01*
X39182408Y-43571892D01*
X39206104Y-43463623D01*
X39206503Y-43442730D01*
X39213700Y-43423115D01*
X39229290Y-43323530D01*
X39228198Y-43296959D01*
X39235419Y-43271362D01*
X39242762Y-43178119D01*
X39239088Y-43147065D01*
X39244829Y-43116328D01*
X39243785Y-43027084D01*
X39236840Y-42994187D01*
X39239779Y-42960693D01*
X39230209Y-42873108D01*
X39220332Y-42841753D01*
X39220087Y-42808881D01*
X39201847Y-42720619D01*
X39190471Y-42693724D01*
X39187797Y-42664645D01*
X39160748Y-42573357D01*
X39149686Y-42552335D01*
X39145896Y-42528879D01*
X39109899Y-42432232D01*
X39100536Y-42417059D01*
X39096793Y-42399625D01*
X39051706Y-42295273D01*
X39044696Y-42285119D01*
X39041681Y-42273157D01*
X38987365Y-42158761D01*
X38981441Y-42150798D01*
X38978740Y-42141242D01*
X38844188Y-41877534D01*
X38769002Y-41724534D01*
X38706622Y-41580522D01*
X38652003Y-41435486D01*
X38605028Y-41289416D01*
X38565578Y-41142214D01*
X38533565Y-40993806D01*
X38508924Y-40844090D01*
X38499295Y-40760000D01*
X39562560Y-40760000D01*
X39562560Y-42960000D01*
X39606838Y-43195317D01*
X39745910Y-43411441D01*
X39958110Y-43556431D01*
X40210000Y-43607440D01*
X43210000Y-43607440D01*
X43445317Y-43563162D01*
X43661441Y-43424090D01*
X43806431Y-43211890D01*
X43857440Y-42960000D01*
X43857440Y-40760000D01*
X52262560Y-40760000D01*
X52262560Y-42960000D01*
X52306838Y-43195317D01*
X52445910Y-43411441D01*
X52658110Y-43556431D01*
X52910000Y-43607440D01*
X55910000Y-43607440D01*
X56145317Y-43563162D01*
X56361441Y-43424090D01*
X56506431Y-43211890D01*
X56557440Y-42960000D01*
X56557440Y-42766630D01*
X60092975Y-42766630D01*
X60435566Y-43241277D01*
X61768800Y-43801342D01*
X63214875Y-43808568D01*
X64553639Y-43261854D01*
X64584434Y-43241277D01*
X64927025Y-42766630D01*
X62510000Y-40349605D01*
X60092975Y-42766630D01*
X56557440Y-42766630D01*
X56557440Y-40874875D01*
X58871432Y-40874875D01*
X59418146Y-42213639D01*
X59438723Y-42244434D01*
X59913370Y-42587025D01*
X62330395Y-40170000D01*
X62689605Y-40170000D01*
X65106630Y-42587025D01*
X65581277Y-42244434D01*
X66141342Y-40911200D01*
X66141898Y-40799874D01*
X66234370Y-40799874D01*
X66786600Y-42136372D01*
X67808249Y-43159806D01*
X69143782Y-43714368D01*
X70589874Y-43715630D01*
X71926372Y-43163400D01*
X72949806Y-42141751D01*
X73504368Y-40806218D01*
X73505630Y-39360126D01*
X72953400Y-38023628D01*
X71931751Y-37000194D01*
X70596218Y-36445632D01*
X69150126Y-36444370D01*
X67813628Y-36996600D01*
X66790194Y-38018249D01*
X66235632Y-39353782D01*
X66234370Y-40799874D01*
X66141898Y-40799874D01*
X66148568Y-39465125D01*
X65601854Y-38126361D01*
X65581277Y-38095566D01*
X65106630Y-37752975D01*
X62689605Y-40170000D01*
X62330395Y-40170000D01*
X59913370Y-37752975D01*
X59438723Y-38095566D01*
X58878658Y-39428800D01*
X58871432Y-40874875D01*
X56557440Y-40874875D01*
X56557440Y-40760000D01*
X56513162Y-40524683D01*
X56374090Y-40308559D01*
X56161890Y-40163569D01*
X55910000Y-40112560D01*
X52910000Y-40112560D01*
X52674683Y-40156838D01*
X52458559Y-40295910D01*
X52313569Y-40508110D01*
X52262560Y-40760000D01*
X43857440Y-40760000D01*
X43813162Y-40524683D01*
X43674090Y-40308559D01*
X43461890Y-40163569D01*
X43210000Y-40112560D01*
X40210000Y-40112560D01*
X39974683Y-40156838D01*
X39758559Y-40295910D01*
X39613569Y-40508110D01*
X39562560Y-40760000D01*
X38499295Y-40760000D01*
X38491619Y-40692968D01*
X38481641Y-40540376D01*
X38479000Y-40386220D01*
X38483732Y-40230431D01*
X38495893Y-40072949D01*
X38515548Y-39913781D01*
X38542776Y-39752887D01*
X38577661Y-39590303D01*
X38620292Y-39426050D01*
X38670763Y-39260172D01*
X38729143Y-39092789D01*
X38795528Y-38923938D01*
X38869990Y-38753729D01*
X38952568Y-38582334D01*
X39043373Y-38409768D01*
X39142411Y-38236250D01*
X39249737Y-38061886D01*
X39365391Y-37886809D01*
X39489395Y-37711167D01*
X39621747Y-37535132D01*
X39762494Y-37358804D01*
X39911619Y-37182357D01*
X40069148Y-37005906D01*
X40235057Y-36829617D01*
X40409393Y-36653579D01*
X40593778Y-36476291D01*
X40779949Y-36305929D01*
X40967969Y-36142479D01*
X41157951Y-35985873D01*
X41350122Y-35835953D01*
X41544648Y-35692615D01*
X41741773Y-35555706D01*
X41941609Y-35425173D01*
X42144491Y-35300821D01*
X42350557Y-35182593D01*
X42560070Y-35070366D01*
X42773245Y-34964051D01*
X42990386Y-34863525D01*
X43211657Y-34768746D01*
X43437325Y-34679628D01*
X43667641Y-34596102D01*
X43902845Y-34518116D01*
X44143172Y-34445619D01*
X44388813Y-34378585D01*
X44640011Y-34316971D01*
X44897012Y-34260743D01*
X45159948Y-34209892D01*
X45429053Y-34164389D01*
X45704530Y-34124213D01*
X45986514Y-34089351D01*
X46275294Y-34059772D01*
X46570833Y-34035478D01*
X46873560Y-34016427D01*
X47183376Y-34002615D01*
X47500602Y-33994010D01*
X47825338Y-33990591D01*
X48157167Y-33992311D01*
X48488448Y-33999595D01*
X48817497Y-34012867D01*
X49144574Y-34032049D01*
X49469419Y-34057054D01*
X49791601Y-34087780D01*
X50110969Y-34124146D01*
X50427169Y-34166050D01*
X50739903Y-34213396D01*
X51048853Y-34266078D01*
X51353806Y-34324011D01*
X51654365Y-34387071D01*
X51950376Y-34455183D01*
X52241399Y-34528208D01*
X52527140Y-34606028D01*
X52807401Y-34688559D01*
X53081825Y-34775664D01*
X53350088Y-34867213D01*
X53611950Y-34963097D01*
X53867039Y-35063157D01*
X54115123Y-35167280D01*
X54355832Y-35275292D01*
X54588903Y-35387052D01*
X54814077Y-35502420D01*
X55030942Y-35621166D01*
X55239282Y-35743144D01*
X55438830Y-35868178D01*
X55629267Y-35996040D01*
X55810313Y-36126505D01*
X55981739Y-36259363D01*
X56143276Y-36394352D01*
X56294713Y-36531229D01*
X56441254Y-36675028D01*
X57185939Y-37437654D01*
X57222246Y-37462543D01*
X57250757Y-37496077D01*
X57331532Y-37537462D01*
X57406387Y-37588777D01*
X57449451Y-37597877D01*
X57488627Y-37617949D01*
X57579091Y-37625272D01*
X57667885Y-37644036D01*
X57711155Y-37635963D01*
X57755029Y-37639515D01*
X57841410Y-37611662D01*
X57930625Y-37595017D01*
X57963872Y-37573370D01*
X60092975Y-37573370D01*
X62510000Y-39990395D01*
X64927025Y-37573370D01*
X64584434Y-37098723D01*
X63251200Y-36538658D01*
X61805125Y-36531432D01*
X60466361Y-37078146D01*
X60435566Y-37098723D01*
X60092975Y-37573370D01*
X57963872Y-37573370D01*
X57967511Y-37571001D01*
X58009406Y-37557492D01*
X58843147Y-37093021D01*
X58996622Y-37011171D01*
X59159091Y-36931374D01*
X59336132Y-36850832D01*
X59527206Y-36769919D01*
X59731830Y-36688925D01*
X59949732Y-36608007D01*
X60180309Y-36527422D01*
X60421007Y-36448032D01*
X60945940Y-36288565D01*
X61514028Y-36132852D01*
X62125632Y-35980628D01*
X62778655Y-35832313D01*
X63470918Y-35688294D01*
X64200373Y-35548895D01*
X64965088Y-35414396D01*
X65763043Y-35285076D01*
X66592369Y-35161174D01*
X67451137Y-35042936D01*
X68337401Y-34930596D01*
X69249583Y-34824344D01*
X70185519Y-34724434D01*
X71143429Y-34631071D01*
X72121631Y-34544450D01*
X73118196Y-34464789D01*
X74131302Y-34392295D01*
X75159079Y-34327175D01*
X76199832Y-34269626D01*
X77251596Y-34219857D01*
X78312695Y-34178063D01*
X79381200Y-34144449D01*
X80455450Y-34119210D01*
X81533399Y-34102550D01*
X82613498Y-34094663D01*
X83693818Y-34095758D01*
X84772432Y-34106009D01*
X85846220Y-34125595D01*
X86175212Y-34135950D01*
X86491764Y-34151606D01*
X86797461Y-34172384D01*
X87092734Y-34198079D01*
X87377685Y-34228461D01*
X87652773Y-34263333D01*
X87918128Y-34302465D01*
X88174142Y-34345659D01*
X88421013Y-34392692D01*
X88658995Y-34443346D01*
X88888564Y-34497458D01*
X89109853Y-34554790D01*
X89323252Y-34615165D01*
X89529018Y-34678383D01*
X89727545Y-34744283D01*
X89919003Y-34812639D01*
X90103847Y-34883326D01*
X90282285Y-34956136D01*
X90454743Y-35030954D01*
X90618273Y-35106128D01*
X90939118Y-35265953D01*
X91237535Y-35429721D01*
X91519226Y-35597974D01*
X91786673Y-35769723D01*
X92042221Y-35943930D01*
X92287181Y-36118826D01*
X92763198Y-36472443D01*
X92763631Y-36472648D01*
X92763952Y-36473002D01*
X93216918Y-36808534D01*
X93224542Y-36812135D01*
X93230356Y-36818238D01*
X93451364Y-36973810D01*
X93460839Y-36978007D01*
X93468209Y-36985297D01*
X93688293Y-37130619D01*
X93701374Y-37135954D01*
X93711817Y-37145476D01*
X93933017Y-37278963D01*
X93949886Y-37285056D01*
X93963741Y-37296438D01*
X94188099Y-37416500D01*
X94203209Y-37421091D01*
X94215856Y-37430553D01*
X94329860Y-37485053D01*
X94341190Y-37487941D01*
X94350783Y-37494627D01*
X94466343Y-37545175D01*
X94478542Y-37547852D01*
X94489040Y-37554622D01*
X94606414Y-37601020D01*
X94619401Y-37603385D01*
X94630758Y-37610113D01*
X94750194Y-37652162D01*
X94763878Y-37654121D01*
X94776042Y-37660689D01*
X94897803Y-37698191D01*
X94912058Y-37699656D01*
X94924935Y-37705939D01*
X95049274Y-37738694D01*
X95063956Y-37739594D01*
X95077438Y-37745480D01*
X95204612Y-37773290D01*
X95219560Y-37773573D01*
X95233507Y-37778961D01*
X95363768Y-37801629D01*
X95378834Y-37801266D01*
X95393114Y-37806083D01*
X95526720Y-37823409D01*
X95541737Y-37822395D01*
X95556192Y-37826584D01*
X95693398Y-37838369D01*
X95708205Y-37836724D01*
X95722677Y-37840253D01*
X95863740Y-37846301D01*
X95878206Y-37844063D01*
X95892563Y-37846930D01*
X96037732Y-37847040D01*
X96051734Y-37844266D01*
X96065832Y-37846484D01*
X96215370Y-37840459D01*
X96228811Y-37837218D01*
X96242539Y-37838822D01*
X96396698Y-37826461D01*
X96409498Y-37822831D01*
X96422765Y-37823869D01*
X96581800Y-37804974D01*
X96593906Y-37801035D01*
X96606626Y-37801563D01*
X96770794Y-37775938D01*
X96776560Y-37773825D01*
X96782700Y-37773972D01*
X99836717Y-37241998D01*
X99869288Y-37229409D01*
X99904099Y-37226723D01*
X99993008Y-37181592D01*
X100086019Y-37145644D01*
X100111292Y-37121551D01*
X100142426Y-37105747D01*
X100207299Y-37030025D01*
X100279471Y-36961222D01*
X100293599Y-36929293D01*
X100316317Y-36902776D01*
X100745827Y-36138564D01*
X100831472Y-35999214D01*
X100937728Y-35847802D01*
X101065865Y-35682319D01*
X101209085Y-35511902D01*
X101360897Y-35344406D01*
X101514670Y-35187254D01*
X101663079Y-35047993D01*
X101802221Y-34930424D01*
X101948254Y-34819190D01*
X102100767Y-34711934D01*
X102256234Y-34611256D01*
X102414666Y-34517080D01*
X102576109Y-34429318D01*
X102740612Y-34347897D01*
X102908198Y-34272771D01*
X103078878Y-34203906D01*
X103252711Y-34141262D01*
X103429734Y-34084816D01*
X103609982Y-34034552D01*
X103793456Y-33990479D01*
X103980192Y-33952595D01*
X104170182Y-33920917D01*
X104363447Y-33895461D01*
X104560031Y-33876246D01*
X104759802Y-33863305D01*
X104962870Y-33856663D01*
X105169106Y-33856356D01*
X105378588Y-33862402D01*
G36*
X88965000Y-58724250D02*
X89123750Y-58883000D01*
X91723000Y-58883000D01*
X91723000Y-58863000D01*
X91977000Y-58863000D01*
X91977000Y-58883000D01*
X94576250Y-58883000D01*
X94735000Y-58724250D01*
X94735000Y-57835000D01*
X94964132Y-57835000D01*
X99565000Y-62435868D01*
X99565000Y-62830002D01*
X99266924Y-62558355D01*
X98856890Y-62388524D01*
X98627000Y-62509845D01*
X98627000Y-63703000D01*
X98647000Y-63703000D01*
X98647000Y-63957000D01*
X98627000Y-63957000D01*
X98627000Y-65150155D01*
X98856890Y-65271476D01*
X99266924Y-65101645D01*
X99565000Y-64829998D01*
X99565000Y-66044132D01*
X98824132Y-66785000D01*
X90525158Y-66785000D01*
X90585080Y-66725078D01*
X90755246Y-66470406D01*
X90815001Y-66169999D01*
X90815001Y-65331164D01*
X90880000Y-65344093D01*
X91448285Y-65231054D01*
X91930054Y-64909147D01*
X92150000Y-64579974D01*
X92369946Y-64909147D01*
X92851715Y-65231054D01*
X93420000Y-65344093D01*
X93988285Y-65231054D01*
X94470054Y-64909147D01*
X94690000Y-64579974D01*
X94909946Y-64909147D01*
X95391715Y-65231054D01*
X95960000Y-65344093D01*
X96528285Y-65231054D01*
X97010054Y-64909147D01*
X97237702Y-64568447D01*
X97304817Y-64711358D01*
X97733076Y-65101645D01*
X98143110Y-65271476D01*
X98373000Y-65150155D01*
X98373000Y-63957000D01*
X98353000Y-63957000D01*
X98353000Y-63703000D01*
X98373000Y-63703000D01*
X98373000Y-62509845D01*
X98143110Y-62388524D01*
X97733076Y-62558355D01*
X97304817Y-62948642D01*
X97237702Y-63091553D01*
X97010054Y-62750853D01*
X96528285Y-62428946D01*
X95960000Y-62315907D01*
X95391715Y-62428946D01*
X94909946Y-62750853D01*
X94690000Y-63080026D01*
X94470054Y-62750853D01*
X93988285Y-62428946D01*
X93420000Y-62315907D01*
X93083082Y-62382924D01*
X91629704Y-60929546D01*
X91723000Y-60836250D01*
X91723000Y-59137000D01*
X91977000Y-59137000D01*
X91977000Y-60836250D01*
X92135750Y-60995000D01*
X94226309Y-60995000D01*
X94459698Y-60898327D01*
X94638327Y-60719699D01*
X94735000Y-60486310D01*
X94735000Y-59295750D01*
X94576250Y-59137000D01*
X91977000Y-59137000D01*
X91723000Y-59137000D01*
X89123750Y-59137000D01*
X88965000Y-59295750D01*
X88965000Y-60145000D01*
X86947440Y-60145000D01*
X86947440Y-57835000D01*
X88965000Y-57835000D01*
X88965000Y-58724250D01*
X88965000Y-58724250D01*
G37*
X88965000Y-58724250D02*
X89123750Y-58883000D01*
X91723000Y-58883000D01*
X91723000Y-58863000D01*
X91977000Y-58863000D01*
X91977000Y-58883000D01*
X94576250Y-58883000D01*
X94735000Y-58724250D01*
X94735000Y-57835000D01*
X94964132Y-57835000D01*
X99565000Y-62435868D01*
X99565000Y-62830002D01*
X99266924Y-62558355D01*
X98856890Y-62388524D01*
X98627000Y-62509845D01*
X98627000Y-63703000D01*
X98647000Y-63703000D01*
X98647000Y-63957000D01*
X98627000Y-63957000D01*
X98627000Y-65150155D01*
X98856890Y-65271476D01*
X99266924Y-65101645D01*
X99565000Y-64829998D01*
X99565000Y-66044132D01*
X98824132Y-66785000D01*
X90525158Y-66785000D01*
X90585080Y-66725078D01*
X90755246Y-66470406D01*
X90815001Y-66169999D01*
X90815001Y-65331164D01*
X90880000Y-65344093D01*
X91448285Y-65231054D01*
X91930054Y-64909147D01*
X92150000Y-64579974D01*
X92369946Y-64909147D01*
X92851715Y-65231054D01*
X93420000Y-65344093D01*
X93988285Y-65231054D01*
X94470054Y-64909147D01*
X94690000Y-64579974D01*
X94909946Y-64909147D01*
X95391715Y-65231054D01*
X95960000Y-65344093D01*
X96528285Y-65231054D01*
X97010054Y-64909147D01*
X97237702Y-64568447D01*
X97304817Y-64711358D01*
X97733076Y-65101645D01*
X98143110Y-65271476D01*
X98373000Y-65150155D01*
X98373000Y-63957000D01*
X98353000Y-63957000D01*
X98353000Y-63703000D01*
X98373000Y-63703000D01*
X98373000Y-62509845D01*
X98143110Y-62388524D01*
X97733076Y-62558355D01*
X97304817Y-62948642D01*
X97237702Y-63091553D01*
X97010054Y-62750853D01*
X96528285Y-62428946D01*
X95960000Y-62315907D01*
X95391715Y-62428946D01*
X94909946Y-62750853D01*
X94690000Y-63080026D01*
X94470054Y-62750853D01*
X93988285Y-62428946D01*
X93420000Y-62315907D01*
X93083082Y-62382924D01*
X91629704Y-60929546D01*
X91723000Y-60836250D01*
X91723000Y-59137000D01*
X91977000Y-59137000D01*
X91977000Y-60836250D01*
X92135750Y-60995000D01*
X94226309Y-60995000D01*
X94459698Y-60898327D01*
X94638327Y-60719699D01*
X94735000Y-60486310D01*
X94735000Y-59295750D01*
X94576250Y-59137000D01*
X91977000Y-59137000D01*
X91723000Y-59137000D01*
X89123750Y-59137000D01*
X88965000Y-59295750D01*
X88965000Y-60145000D01*
X86947440Y-60145000D01*
X86947440Y-57835000D01*
X88965000Y-57835000D01*
X88965000Y-58724250D01*
M02*
