G04 #@! TF.FileFunction,Soldermask,Top*
%FSLAX46Y46*%
G04 Gerber Fmt 4.6, Leading zero omitted, Abs format (unit mm)*
G04 Created by KiCad (PCBNEW 4.0.7-e0-6372~58~ubuntu16.04.1) date Tue Jul 24 02:48:08 2018*
%MOMM*%
%LPD*%
G01*
G04 APERTURE LIST*
%ADD10C,0.100000*%
%ADD11C,0.010000*%
%ADD12R,2.000000X2.000000*%
%ADD13O,2.000000X2.000000*%
%ADD14R,2.200000X2.200000*%
%ADD15C,2.200000*%
%ADD16C,2.899360*%
%ADD17C,6.400000*%
%ADD18C,2.279600*%
%ADD19C,2.581860*%
%ADD20C,2.000000*%
%ADD21R,3.410000X1.910000*%
%ADD22O,3.410000X1.910000*%
%ADD23R,0.800000X1.750000*%
%ADD24O,1.650000X1.350000*%
%ADD25O,1.400000X1.950000*%
%ADD26C,2.100000*%
%ADD27O,2.100000X2.100000*%
%ADD28R,2.398980X2.398980*%
%ADD29R,3.400000X2.600000*%
G04 APERTURE END LIST*
D10*
D11*
G36*
X99223524Y-57746817D02*
X99365384Y-57850080D01*
X99464257Y-57997456D01*
X99500600Y-58165570D01*
X99485183Y-58297723D01*
X99424601Y-58394857D01*
X99370533Y-58444818D01*
X99274410Y-58513824D01*
X99203796Y-58527079D01*
X99156475Y-58509312D01*
X99063134Y-58430468D01*
X99051975Y-58342916D01*
X99123299Y-58255443D01*
X99188621Y-58199667D01*
X99188619Y-58168979D01*
X99151544Y-58150678D01*
X99091530Y-58155276D01*
X99005241Y-58212636D01*
X98882192Y-58330124D01*
X98853918Y-58359718D01*
X98697728Y-58506622D01*
X98564448Y-58584346D01*
X98436984Y-58598327D01*
X98298241Y-58554006D01*
X98276752Y-58543359D01*
X98151589Y-58442096D01*
X98074412Y-58304156D01*
X98043294Y-58147951D01*
X98056308Y-57991896D01*
X98111528Y-57854402D01*
X98207026Y-57753884D01*
X98340876Y-57708754D01*
X98364184Y-57707900D01*
X98453176Y-57715126D01*
X98478825Y-57752704D01*
X98467037Y-57824317D01*
X98438054Y-57958778D01*
X98431854Y-58032426D01*
X98448138Y-58065909D01*
X98463434Y-58073629D01*
X98511756Y-58051713D01*
X98576979Y-57978464D01*
X98590434Y-57958768D01*
X98737829Y-57804071D01*
X98928311Y-57721383D01*
X99058231Y-57707900D01*
X99223524Y-57746817D01*
X99223524Y-57746817D01*
G37*
X99223524Y-57746817D02*
X99365384Y-57850080D01*
X99464257Y-57997456D01*
X99500600Y-58165570D01*
X99485183Y-58297723D01*
X99424601Y-58394857D01*
X99370533Y-58444818D01*
X99274410Y-58513824D01*
X99203796Y-58527079D01*
X99156475Y-58509312D01*
X99063134Y-58430468D01*
X99051975Y-58342916D01*
X99123299Y-58255443D01*
X99188621Y-58199667D01*
X99188619Y-58168979D01*
X99151544Y-58150678D01*
X99091530Y-58155276D01*
X99005241Y-58212636D01*
X98882192Y-58330124D01*
X98853918Y-58359718D01*
X98697728Y-58506622D01*
X98564448Y-58584346D01*
X98436984Y-58598327D01*
X98298241Y-58554006D01*
X98276752Y-58543359D01*
X98151589Y-58442096D01*
X98074412Y-58304156D01*
X98043294Y-58147951D01*
X98056308Y-57991896D01*
X98111528Y-57854402D01*
X98207026Y-57753884D01*
X98340876Y-57708754D01*
X98364184Y-57707900D01*
X98453176Y-57715126D01*
X98478825Y-57752704D01*
X98467037Y-57824317D01*
X98438054Y-57958778D01*
X98431854Y-58032426D01*
X98448138Y-58065909D01*
X98463434Y-58073629D01*
X98511756Y-58051713D01*
X98576979Y-57978464D01*
X98590434Y-57958768D01*
X98737829Y-57804071D01*
X98928311Y-57721383D01*
X99058231Y-57707900D01*
X99223524Y-57746817D01*
G36*
X105510802Y-50309016D02*
X105547889Y-50513830D01*
X105580985Y-50691823D01*
X105606574Y-50824415D01*
X105621145Y-50893029D01*
X105621481Y-50894298D01*
X105665807Y-50936654D01*
X105771992Y-51000385D01*
X105923017Y-51076089D01*
X106063083Y-51138280D01*
X106486935Y-51316697D01*
X106917039Y-51015615D01*
X107087241Y-50897938D01*
X107235893Y-50797877D01*
X107347363Y-50725770D01*
X107406020Y-50691957D01*
X107406988Y-50691570D01*
X107453619Y-50712361D01*
X107544964Y-50781037D01*
X107667029Y-50884474D01*
X107805821Y-51009548D01*
X107947348Y-51143135D01*
X108077615Y-51272112D01*
X108182631Y-51383356D01*
X108248401Y-51463742D01*
X108263600Y-51494952D01*
X108241318Y-51540356D01*
X108180195Y-51642142D01*
X108088813Y-51786552D01*
X107975754Y-51959829D01*
X107939183Y-52014949D01*
X107614767Y-52502055D01*
X107773654Y-52903497D01*
X107843697Y-53073980D01*
X107905749Y-53213268D01*
X107951554Y-53303455D01*
X107969170Y-53327576D01*
X108022544Y-53343687D01*
X108142234Y-53371532D01*
X108311310Y-53407400D01*
X108512843Y-53447580D01*
X108544248Y-53453639D01*
X108749183Y-53495159D01*
X108924073Y-53534643D01*
X109051977Y-53567975D01*
X109115955Y-53591039D01*
X109118928Y-53593294D01*
X109131451Y-53646942D01*
X109140289Y-53768405D01*
X109144764Y-53940884D01*
X109144198Y-54147582D01*
X109143296Y-54197629D01*
X109131434Y-54765734D01*
X108577622Y-54875261D01*
X108368853Y-54917925D01*
X108188911Y-54957280D01*
X108054778Y-54989423D01*
X107983432Y-55010452D01*
X107978176Y-55012991D01*
X107944078Y-55062314D01*
X107888950Y-55172478D01*
X107821573Y-55325078D01*
X107775726Y-55437403D01*
X107618909Y-55833612D01*
X107921927Y-56285252D01*
X108038679Y-56461386D01*
X108138736Y-56616303D01*
X108212135Y-56734295D01*
X108248915Y-56799658D01*
X108250253Y-56802845D01*
X108234768Y-56861361D01*
X108159229Y-56966361D01*
X108021593Y-57120396D01*
X107878834Y-57267183D01*
X107729364Y-57414625D01*
X107599864Y-57537406D01*
X107502519Y-57624333D01*
X107449513Y-57664216D01*
X107445118Y-57665567D01*
X107397848Y-57642477D01*
X107296839Y-57579671D01*
X107157105Y-57486845D01*
X106999782Y-57378005D01*
X106834019Y-57261696D01*
X106690237Y-57161593D01*
X106584522Y-57088842D01*
X106534440Y-57055487D01*
X106470871Y-57055975D01*
X106352847Y-57088054D01*
X106200401Y-57143068D01*
X106033567Y-57212358D01*
X105872375Y-57287268D01*
X105736861Y-57359139D01*
X105647056Y-57419315D01*
X105622144Y-57449745D01*
X105607873Y-57515967D01*
X105582469Y-57646874D01*
X105549480Y-57823769D01*
X105512448Y-58027952D01*
X105511011Y-58035984D01*
X105418292Y-58554567D01*
X104828784Y-58554567D01*
X104574548Y-58552299D01*
X104395967Y-58544976D01*
X104284136Y-58531822D01*
X104230152Y-58512058D01*
X104222603Y-58501650D01*
X104209080Y-58441358D01*
X104184435Y-58315778D01*
X104152122Y-58143024D01*
X104115596Y-57941210D01*
X104114081Y-57932703D01*
X104022233Y-57416672D01*
X103660660Y-57265314D01*
X103450985Y-57177592D01*
X103298646Y-57121595D01*
X103181621Y-57099543D01*
X103077886Y-57113656D01*
X102965420Y-57166151D01*
X102822198Y-57259249D01*
X102669624Y-57365184D01*
X102500014Y-57480059D01*
X102353143Y-57574652D01*
X102244102Y-57639580D01*
X102187982Y-57665460D01*
X102186500Y-57665567D01*
X102140913Y-57635979D01*
X102050911Y-57554955D01*
X101928591Y-57434109D01*
X101786048Y-57285052D01*
X101752746Y-57249161D01*
X101368509Y-56832755D01*
X101662145Y-56391911D01*
X101774357Y-56219181D01*
X101866794Y-56068777D01*
X101930305Y-55956176D01*
X101955739Y-55896856D01*
X101955857Y-55895105D01*
X101935669Y-55828367D01*
X101884072Y-55720048D01*
X101845693Y-55651032D01*
X101735452Y-55462920D01*
X102008960Y-55338906D01*
X102205268Y-55251997D01*
X102342130Y-55201170D01*
X102436539Y-55186104D01*
X102505490Y-55206477D01*
X102565977Y-55261970D01*
X102616743Y-55327433D01*
X102841350Y-55577809D01*
X103128114Y-55815387D01*
X103454543Y-56025761D01*
X103798142Y-56194522D01*
X104136417Y-56307264D01*
X104152527Y-56311112D01*
X104428879Y-56354563D01*
X104720030Y-56364351D01*
X104995816Y-56341362D01*
X105226071Y-56286481D01*
X105246113Y-56279008D01*
X105378726Y-56217079D01*
X105520929Y-56134783D01*
X105652776Y-56045852D01*
X105754321Y-55964019D01*
X105805619Y-55903015D01*
X105808267Y-55891971D01*
X105777460Y-55848959D01*
X105701554Y-55782577D01*
X105683731Y-55769083D01*
X105595702Y-55710864D01*
X105531877Y-55702205D01*
X105450720Y-55739308D01*
X105437935Y-55746603D01*
X105284475Y-55795033D01*
X105146373Y-55762495D01*
X105035927Y-55652632D01*
X105018587Y-55622370D01*
X104978223Y-55506016D01*
X104949698Y-55329045D01*
X104931415Y-55080740D01*
X104928774Y-55019734D01*
X104923085Y-54874636D01*
X105351004Y-54874636D01*
X105357895Y-54922630D01*
X105374981Y-54971777D01*
X105408629Y-55029015D01*
X105465210Y-55101280D01*
X105551094Y-55195510D01*
X105672649Y-55318643D01*
X105836246Y-55477614D01*
X106048254Y-55679362D01*
X106315042Y-55930823D01*
X106356927Y-55970203D01*
X107350087Y-56903775D01*
X107443417Y-56787254D01*
X107536747Y-56670734D01*
X106728438Y-55845234D01*
X106501994Y-55613882D01*
X106283092Y-55390067D01*
X106082323Y-55184629D01*
X105910274Y-55008406D01*
X105777537Y-54872241D01*
X105701438Y-54793934D01*
X105588272Y-54679755D01*
X105516230Y-54618916D01*
X105468820Y-54602715D01*
X105429555Y-54622448D01*
X105410494Y-54640387D01*
X105355607Y-54750703D01*
X105351004Y-54874636D01*
X104923085Y-54874636D01*
X104910513Y-54554067D01*
X104713807Y-54347537D01*
X104517100Y-54141007D01*
X104649745Y-54165574D01*
X104785187Y-54193084D01*
X104893161Y-54217943D01*
X104983057Y-54232034D01*
X104996532Y-54210052D01*
X104933711Y-54152108D01*
X104794720Y-54058312D01*
X104579683Y-53928775D01*
X104535941Y-53903419D01*
X104361595Y-53801327D01*
X104218868Y-53714886D01*
X104121089Y-53652387D01*
X104081591Y-53622120D01*
X104081528Y-53620861D01*
X104125453Y-53624181D01*
X104234880Y-53642987D01*
X104392728Y-53674111D01*
X104559770Y-53709534D01*
X104750799Y-53750438D01*
X104912923Y-53783668D01*
X105027317Y-53805458D01*
X105073049Y-53812175D01*
X105115474Y-53777579D01*
X105177568Y-53686548D01*
X105235204Y-53579804D01*
X105324787Y-53421313D01*
X105430293Y-53268718D01*
X105491318Y-53195908D01*
X105635660Y-53082202D01*
X105772850Y-53050759D01*
X105897478Y-53101316D01*
X105996708Y-53220567D01*
X106037534Y-53304182D01*
X106063478Y-53400612D01*
X106077616Y-53530881D01*
X106083025Y-53716013D01*
X106083434Y-53813234D01*
X106080357Y-54026158D01*
X106072095Y-54232598D01*
X106060096Y-54402023D01*
X106052278Y-54469400D01*
X106037330Y-54597975D01*
X106047887Y-54675894D01*
X106094287Y-54735798D01*
X106151559Y-54782875D01*
X106229452Y-54836471D01*
X106284990Y-54847592D01*
X106326148Y-54806522D01*
X106360896Y-54703547D01*
X106397209Y-54528952D01*
X106407912Y-54470503D01*
X106462799Y-53998806D01*
X106449081Y-53575469D01*
X106367833Y-53201924D01*
X106220132Y-52879600D01*
X106007053Y-52609928D01*
X105729671Y-52394339D01*
X105389063Y-52234262D01*
X104986303Y-52131129D01*
X104618333Y-52090487D01*
X104366840Y-52081636D01*
X104166337Y-52088539D01*
X103984244Y-52113359D01*
X103856333Y-52141086D01*
X103445321Y-52273679D01*
X103080476Y-52459113D01*
X102772501Y-52690808D01*
X102541173Y-52949412D01*
X102468584Y-53045461D01*
X102406003Y-53100471D01*
X102334070Y-53115838D01*
X102233424Y-53092961D01*
X102084704Y-53033235D01*
X101985226Y-52989531D01*
X101744593Y-52883112D01*
X101857789Y-52652308D01*
X101970986Y-52421505D01*
X101659535Y-51950468D01*
X101348084Y-51479432D01*
X102190284Y-50637232D01*
X102646749Y-50955233D01*
X102818610Y-51073483D01*
X102965570Y-51171820D01*
X103073767Y-51241171D01*
X103129341Y-51272463D01*
X103132824Y-51273358D01*
X103181795Y-51258229D01*
X103291672Y-51217144D01*
X103445207Y-51156720D01*
X103592624Y-51096957D01*
X104022814Y-50920432D01*
X104094388Y-50514750D01*
X104129035Y-50320188D01*
X104161617Y-50140392D01*
X104187082Y-50003109D01*
X104195207Y-49960900D01*
X104224454Y-49812734D01*
X104821164Y-49801016D01*
X105417874Y-49789299D01*
X105510802Y-50309016D01*
X105510802Y-50309016D01*
G37*
X105510802Y-50309016D02*
X105547889Y-50513830D01*
X105580985Y-50691823D01*
X105606574Y-50824415D01*
X105621145Y-50893029D01*
X105621481Y-50894298D01*
X105665807Y-50936654D01*
X105771992Y-51000385D01*
X105923017Y-51076089D01*
X106063083Y-51138280D01*
X106486935Y-51316697D01*
X106917039Y-51015615D01*
X107087241Y-50897938D01*
X107235893Y-50797877D01*
X107347363Y-50725770D01*
X107406020Y-50691957D01*
X107406988Y-50691570D01*
X107453619Y-50712361D01*
X107544964Y-50781037D01*
X107667029Y-50884474D01*
X107805821Y-51009548D01*
X107947348Y-51143135D01*
X108077615Y-51272112D01*
X108182631Y-51383356D01*
X108248401Y-51463742D01*
X108263600Y-51494952D01*
X108241318Y-51540356D01*
X108180195Y-51642142D01*
X108088813Y-51786552D01*
X107975754Y-51959829D01*
X107939183Y-52014949D01*
X107614767Y-52502055D01*
X107773654Y-52903497D01*
X107843697Y-53073980D01*
X107905749Y-53213268D01*
X107951554Y-53303455D01*
X107969170Y-53327576D01*
X108022544Y-53343687D01*
X108142234Y-53371532D01*
X108311310Y-53407400D01*
X108512843Y-53447580D01*
X108544248Y-53453639D01*
X108749183Y-53495159D01*
X108924073Y-53534643D01*
X109051977Y-53567975D01*
X109115955Y-53591039D01*
X109118928Y-53593294D01*
X109131451Y-53646942D01*
X109140289Y-53768405D01*
X109144764Y-53940884D01*
X109144198Y-54147582D01*
X109143296Y-54197629D01*
X109131434Y-54765734D01*
X108577622Y-54875261D01*
X108368853Y-54917925D01*
X108188911Y-54957280D01*
X108054778Y-54989423D01*
X107983432Y-55010452D01*
X107978176Y-55012991D01*
X107944078Y-55062314D01*
X107888950Y-55172478D01*
X107821573Y-55325078D01*
X107775726Y-55437403D01*
X107618909Y-55833612D01*
X107921927Y-56285252D01*
X108038679Y-56461386D01*
X108138736Y-56616303D01*
X108212135Y-56734295D01*
X108248915Y-56799658D01*
X108250253Y-56802845D01*
X108234768Y-56861361D01*
X108159229Y-56966361D01*
X108021593Y-57120396D01*
X107878834Y-57267183D01*
X107729364Y-57414625D01*
X107599864Y-57537406D01*
X107502519Y-57624333D01*
X107449513Y-57664216D01*
X107445118Y-57665567D01*
X107397848Y-57642477D01*
X107296839Y-57579671D01*
X107157105Y-57486845D01*
X106999782Y-57378005D01*
X106834019Y-57261696D01*
X106690237Y-57161593D01*
X106584522Y-57088842D01*
X106534440Y-57055487D01*
X106470871Y-57055975D01*
X106352847Y-57088054D01*
X106200401Y-57143068D01*
X106033567Y-57212358D01*
X105872375Y-57287268D01*
X105736861Y-57359139D01*
X105647056Y-57419315D01*
X105622144Y-57449745D01*
X105607873Y-57515967D01*
X105582469Y-57646874D01*
X105549480Y-57823769D01*
X105512448Y-58027952D01*
X105511011Y-58035984D01*
X105418292Y-58554567D01*
X104828784Y-58554567D01*
X104574548Y-58552299D01*
X104395967Y-58544976D01*
X104284136Y-58531822D01*
X104230152Y-58512058D01*
X104222603Y-58501650D01*
X104209080Y-58441358D01*
X104184435Y-58315778D01*
X104152122Y-58143024D01*
X104115596Y-57941210D01*
X104114081Y-57932703D01*
X104022233Y-57416672D01*
X103660660Y-57265314D01*
X103450985Y-57177592D01*
X103298646Y-57121595D01*
X103181621Y-57099543D01*
X103077886Y-57113656D01*
X102965420Y-57166151D01*
X102822198Y-57259249D01*
X102669624Y-57365184D01*
X102500014Y-57480059D01*
X102353143Y-57574652D01*
X102244102Y-57639580D01*
X102187982Y-57665460D01*
X102186500Y-57665567D01*
X102140913Y-57635979D01*
X102050911Y-57554955D01*
X101928591Y-57434109D01*
X101786048Y-57285052D01*
X101752746Y-57249161D01*
X101368509Y-56832755D01*
X101662145Y-56391911D01*
X101774357Y-56219181D01*
X101866794Y-56068777D01*
X101930305Y-55956176D01*
X101955739Y-55896856D01*
X101955857Y-55895105D01*
X101935669Y-55828367D01*
X101884072Y-55720048D01*
X101845693Y-55651032D01*
X101735452Y-55462920D01*
X102008960Y-55338906D01*
X102205268Y-55251997D01*
X102342130Y-55201170D01*
X102436539Y-55186104D01*
X102505490Y-55206477D01*
X102565977Y-55261970D01*
X102616743Y-55327433D01*
X102841350Y-55577809D01*
X103128114Y-55815387D01*
X103454543Y-56025761D01*
X103798142Y-56194522D01*
X104136417Y-56307264D01*
X104152527Y-56311112D01*
X104428879Y-56354563D01*
X104720030Y-56364351D01*
X104995816Y-56341362D01*
X105226071Y-56286481D01*
X105246113Y-56279008D01*
X105378726Y-56217079D01*
X105520929Y-56134783D01*
X105652776Y-56045852D01*
X105754321Y-55964019D01*
X105805619Y-55903015D01*
X105808267Y-55891971D01*
X105777460Y-55848959D01*
X105701554Y-55782577D01*
X105683731Y-55769083D01*
X105595702Y-55710864D01*
X105531877Y-55702205D01*
X105450720Y-55739308D01*
X105437935Y-55746603D01*
X105284475Y-55795033D01*
X105146373Y-55762495D01*
X105035927Y-55652632D01*
X105018587Y-55622370D01*
X104978223Y-55506016D01*
X104949698Y-55329045D01*
X104931415Y-55080740D01*
X104928774Y-55019734D01*
X104923085Y-54874636D01*
X105351004Y-54874636D01*
X105357895Y-54922630D01*
X105374981Y-54971777D01*
X105408629Y-55029015D01*
X105465210Y-55101280D01*
X105551094Y-55195510D01*
X105672649Y-55318643D01*
X105836246Y-55477614D01*
X106048254Y-55679362D01*
X106315042Y-55930823D01*
X106356927Y-55970203D01*
X107350087Y-56903775D01*
X107443417Y-56787254D01*
X107536747Y-56670734D01*
X106728438Y-55845234D01*
X106501994Y-55613882D01*
X106283092Y-55390067D01*
X106082323Y-55184629D01*
X105910274Y-55008406D01*
X105777537Y-54872241D01*
X105701438Y-54793934D01*
X105588272Y-54679755D01*
X105516230Y-54618916D01*
X105468820Y-54602715D01*
X105429555Y-54622448D01*
X105410494Y-54640387D01*
X105355607Y-54750703D01*
X105351004Y-54874636D01*
X104923085Y-54874636D01*
X104910513Y-54554067D01*
X104713807Y-54347537D01*
X104517100Y-54141007D01*
X104649745Y-54165574D01*
X104785187Y-54193084D01*
X104893161Y-54217943D01*
X104983057Y-54232034D01*
X104996532Y-54210052D01*
X104933711Y-54152108D01*
X104794720Y-54058312D01*
X104579683Y-53928775D01*
X104535941Y-53903419D01*
X104361595Y-53801327D01*
X104218868Y-53714886D01*
X104121089Y-53652387D01*
X104081591Y-53622120D01*
X104081528Y-53620861D01*
X104125453Y-53624181D01*
X104234880Y-53642987D01*
X104392728Y-53674111D01*
X104559770Y-53709534D01*
X104750799Y-53750438D01*
X104912923Y-53783668D01*
X105027317Y-53805458D01*
X105073049Y-53812175D01*
X105115474Y-53777579D01*
X105177568Y-53686548D01*
X105235204Y-53579804D01*
X105324787Y-53421313D01*
X105430293Y-53268718D01*
X105491318Y-53195908D01*
X105635660Y-53082202D01*
X105772850Y-53050759D01*
X105897478Y-53101316D01*
X105996708Y-53220567D01*
X106037534Y-53304182D01*
X106063478Y-53400612D01*
X106077616Y-53530881D01*
X106083025Y-53716013D01*
X106083434Y-53813234D01*
X106080357Y-54026158D01*
X106072095Y-54232598D01*
X106060096Y-54402023D01*
X106052278Y-54469400D01*
X106037330Y-54597975D01*
X106047887Y-54675894D01*
X106094287Y-54735798D01*
X106151559Y-54782875D01*
X106229452Y-54836471D01*
X106284990Y-54847592D01*
X106326148Y-54806522D01*
X106360896Y-54703547D01*
X106397209Y-54528952D01*
X106407912Y-54470503D01*
X106462799Y-53998806D01*
X106449081Y-53575469D01*
X106367833Y-53201924D01*
X106220132Y-52879600D01*
X106007053Y-52609928D01*
X105729671Y-52394339D01*
X105389063Y-52234262D01*
X104986303Y-52131129D01*
X104618333Y-52090487D01*
X104366840Y-52081636D01*
X104166337Y-52088539D01*
X103984244Y-52113359D01*
X103856333Y-52141086D01*
X103445321Y-52273679D01*
X103080476Y-52459113D01*
X102772501Y-52690808D01*
X102541173Y-52949412D01*
X102468584Y-53045461D01*
X102406003Y-53100471D01*
X102334070Y-53115838D01*
X102233424Y-53092961D01*
X102084704Y-53033235D01*
X101985226Y-52989531D01*
X101744593Y-52883112D01*
X101857789Y-52652308D01*
X101970986Y-52421505D01*
X101659535Y-51950468D01*
X101348084Y-51479432D01*
X102190284Y-50637232D01*
X102646749Y-50955233D01*
X102818610Y-51073483D01*
X102965570Y-51171820D01*
X103073767Y-51241171D01*
X103129341Y-51272463D01*
X103132824Y-51273358D01*
X103181795Y-51258229D01*
X103291672Y-51217144D01*
X103445207Y-51156720D01*
X103592624Y-51096957D01*
X104022814Y-50920432D01*
X104094388Y-50514750D01*
X104129035Y-50320188D01*
X104161617Y-50140392D01*
X104187082Y-50003109D01*
X104195207Y-49960900D01*
X104224454Y-49812734D01*
X104821164Y-49801016D01*
X105417874Y-49789299D01*
X105510802Y-50309016D01*
G36*
X100471251Y-57798903D02*
X100645031Y-57809986D01*
X100787244Y-57827032D01*
X100876116Y-57847087D01*
X100892674Y-57856067D01*
X100919368Y-57920466D01*
X100940777Y-58036962D01*
X100947659Y-58110067D01*
X100951839Y-58236220D01*
X100938753Y-58299323D01*
X100901335Y-58320378D01*
X100876434Y-58321734D01*
X100794527Y-58286142D01*
X100749978Y-58226484D01*
X100691778Y-58145263D01*
X100635403Y-58144216D01*
X100597561Y-58221119D01*
X100593495Y-58247288D01*
X100555086Y-58344646D01*
X100483350Y-58377527D01*
X100399784Y-58336149D01*
X100399302Y-58335669D01*
X100353405Y-58260589D01*
X100347267Y-58228600D01*
X100322349Y-58178884D01*
X100268971Y-58181552D01*
X100219196Y-58229782D01*
X100208001Y-58258234D01*
X100161805Y-58327345D01*
X100089067Y-58335752D01*
X100007530Y-58294907D01*
X99934939Y-58216265D01*
X99889040Y-58111280D01*
X99881600Y-58047543D01*
X99901614Y-57935875D01*
X99968005Y-57859511D01*
X100090300Y-57814435D01*
X100278023Y-57796630D01*
X100471251Y-57798903D01*
X100471251Y-57798903D01*
G37*
X100471251Y-57798903D02*
X100645031Y-57809986D01*
X100787244Y-57827032D01*
X100876116Y-57847087D01*
X100892674Y-57856067D01*
X100919368Y-57920466D01*
X100940777Y-58036962D01*
X100947659Y-58110067D01*
X100951839Y-58236220D01*
X100938753Y-58299323D01*
X100901335Y-58320378D01*
X100876434Y-58321734D01*
X100794527Y-58286142D01*
X100749978Y-58226484D01*
X100691778Y-58145263D01*
X100635403Y-58144216D01*
X100597561Y-58221119D01*
X100593495Y-58247288D01*
X100555086Y-58344646D01*
X100483350Y-58377527D01*
X100399784Y-58336149D01*
X100399302Y-58335669D01*
X100353405Y-58260589D01*
X100347267Y-58228600D01*
X100322349Y-58178884D01*
X100268971Y-58181552D01*
X100219196Y-58229782D01*
X100208001Y-58258234D01*
X100161805Y-58327345D01*
X100089067Y-58335752D01*
X100007530Y-58294907D01*
X99934939Y-58216265D01*
X99889040Y-58111280D01*
X99881600Y-58047543D01*
X99901614Y-57935875D01*
X99968005Y-57859511D01*
X100090300Y-57814435D01*
X100278023Y-57796630D01*
X100471251Y-57798903D01*
G36*
X100533841Y-57026984D02*
X100745913Y-57067100D01*
X100888603Y-57146782D01*
X100965537Y-57267816D01*
X100982267Y-57385880D01*
X100950096Y-57502517D01*
X100868978Y-57595142D01*
X100762006Y-57651543D01*
X100652274Y-57659504D01*
X100563387Y-57607433D01*
X100536588Y-57529636D01*
X100555888Y-57451131D01*
X100610677Y-57411262D01*
X100616379Y-57410919D01*
X100649516Y-57401087D01*
X100622188Y-57379235D01*
X100556043Y-57353993D01*
X100472728Y-57333989D01*
X100407239Y-57327548D01*
X100289780Y-57337462D01*
X100247493Y-57375317D01*
X100272841Y-57450936D01*
X100290625Y-57479592D01*
X100332482Y-57587987D01*
X100310235Y-57665501D01*
X100241005Y-57705154D01*
X100141911Y-57699968D01*
X100030072Y-57642961D01*
X99985509Y-57603991D01*
X99912706Y-57499465D01*
X99881622Y-57391395D01*
X99881600Y-57389068D01*
X99917868Y-57269681D01*
X100009388Y-57151964D01*
X100130237Y-57061646D01*
X100248760Y-57024650D01*
X100533841Y-57026984D01*
X100533841Y-57026984D01*
G37*
X100533841Y-57026984D02*
X100745913Y-57067100D01*
X100888603Y-57146782D01*
X100965537Y-57267816D01*
X100982267Y-57385880D01*
X100950096Y-57502517D01*
X100868978Y-57595142D01*
X100762006Y-57651543D01*
X100652274Y-57659504D01*
X100563387Y-57607433D01*
X100536588Y-57529636D01*
X100555888Y-57451131D01*
X100610677Y-57411262D01*
X100616379Y-57410919D01*
X100649516Y-57401087D01*
X100622188Y-57379235D01*
X100556043Y-57353993D01*
X100472728Y-57333989D01*
X100407239Y-57327548D01*
X100289780Y-57337462D01*
X100247493Y-57375317D01*
X100272841Y-57450936D01*
X100290625Y-57479592D01*
X100332482Y-57587987D01*
X100310235Y-57665501D01*
X100241005Y-57705154D01*
X100141911Y-57699968D01*
X100030072Y-57642961D01*
X99985509Y-57603991D01*
X99912706Y-57499465D01*
X99881622Y-57391395D01*
X99881600Y-57389068D01*
X99917868Y-57269681D01*
X100009388Y-57151964D01*
X100130237Y-57061646D01*
X100248760Y-57024650D01*
X100533841Y-57026984D01*
G36*
X99323296Y-56633990D02*
X99386958Y-56699927D01*
X99452014Y-56865444D01*
X99475844Y-57065651D01*
X99459980Y-57270629D01*
X99405955Y-57450457D01*
X99343475Y-57548466D01*
X99244240Y-57611082D01*
X99135221Y-57614952D01*
X99049018Y-57560833D01*
X99036423Y-57541350D01*
X99000098Y-57444155D01*
X98992600Y-57393181D01*
X98980562Y-57362151D01*
X98934656Y-57343000D01*
X98840196Y-57333535D01*
X98682496Y-57331562D01*
X98586666Y-57332538D01*
X98391528Y-57333013D01*
X98261777Y-57325912D01*
X98178253Y-57308214D01*
X98121799Y-57276896D01*
X98098000Y-57255448D01*
X98041599Y-57174716D01*
X98049399Y-57084342D01*
X98057408Y-57061883D01*
X98114066Y-56962214D01*
X98202599Y-56900127D01*
X98337798Y-56870806D01*
X98534450Y-56869431D01*
X98629954Y-56875351D01*
X98971434Y-56900765D01*
X99034934Y-56764583D01*
X99117834Y-56654846D01*
X99221017Y-56610018D01*
X99323296Y-56633990D01*
X99323296Y-56633990D01*
G37*
X99323296Y-56633990D02*
X99386958Y-56699927D01*
X99452014Y-56865444D01*
X99475844Y-57065651D01*
X99459980Y-57270629D01*
X99405955Y-57450457D01*
X99343475Y-57548466D01*
X99244240Y-57611082D01*
X99135221Y-57614952D01*
X99049018Y-57560833D01*
X99036423Y-57541350D01*
X99000098Y-57444155D01*
X98992600Y-57393181D01*
X98980562Y-57362151D01*
X98934656Y-57343000D01*
X98840196Y-57333535D01*
X98682496Y-57331562D01*
X98586666Y-57332538D01*
X98391528Y-57333013D01*
X98261777Y-57325912D01*
X98178253Y-57308214D01*
X98121799Y-57276896D01*
X98098000Y-57255448D01*
X98041599Y-57174716D01*
X98049399Y-57084342D01*
X98057408Y-57061883D01*
X98114066Y-56962214D01*
X98202599Y-56900127D01*
X98337798Y-56870806D01*
X98534450Y-56869431D01*
X98629954Y-56875351D01*
X98971434Y-56900765D01*
X99034934Y-56764583D01*
X99117834Y-56654846D01*
X99221017Y-56610018D01*
X99323296Y-56633990D01*
G36*
X100358657Y-56184548D02*
X100545425Y-56187801D01*
X100702405Y-56196050D01*
X100809036Y-56207909D01*
X100842035Y-56217160D01*
X100901131Y-56290893D01*
X100951623Y-56413242D01*
X100980033Y-56548299D01*
X100982267Y-56590747D01*
X100944767Y-56721298D01*
X100847610Y-56823384D01*
X100713807Y-56886819D01*
X100566369Y-56901419D01*
X100428309Y-56857000D01*
X100409392Y-56844297D01*
X100335169Y-56806614D01*
X100265092Y-56829951D01*
X100243715Y-56844297D01*
X100120159Y-56896927D01*
X100005426Y-56889403D01*
X99926471Y-56823615D01*
X99925575Y-56821967D01*
X99901565Y-56709620D01*
X99946323Y-56618951D01*
X99995002Y-56589020D01*
X100029741Y-56562227D01*
X100001079Y-56518658D01*
X99998164Y-56516161D01*
X100454093Y-56516161D01*
X100475437Y-56545143D01*
X100550005Y-56593539D01*
X100614233Y-56567644D01*
X100633899Y-56530504D01*
X100611466Y-56492249D01*
X100536111Y-56480234D01*
X100459446Y-56486915D01*
X100454093Y-56516161D01*
X99998164Y-56516161D01*
X99964180Y-56487056D01*
X99896000Y-56405557D01*
X99894915Y-56306379D01*
X99897191Y-56296876D01*
X99925547Y-56183900D01*
X100358657Y-56184548D01*
X100358657Y-56184548D01*
G37*
X100358657Y-56184548D02*
X100545425Y-56187801D01*
X100702405Y-56196050D01*
X100809036Y-56207909D01*
X100842035Y-56217160D01*
X100901131Y-56290893D01*
X100951623Y-56413242D01*
X100980033Y-56548299D01*
X100982267Y-56590747D01*
X100944767Y-56721298D01*
X100847610Y-56823384D01*
X100713807Y-56886819D01*
X100566369Y-56901419D01*
X100428309Y-56857000D01*
X100409392Y-56844297D01*
X100335169Y-56806614D01*
X100265092Y-56829951D01*
X100243715Y-56844297D01*
X100120159Y-56896927D01*
X100005426Y-56889403D01*
X99926471Y-56823615D01*
X99925575Y-56821967D01*
X99901565Y-56709620D01*
X99946323Y-56618951D01*
X99995002Y-56589020D01*
X100029741Y-56562227D01*
X100001079Y-56518658D01*
X99998164Y-56516161D01*
X100454093Y-56516161D01*
X100475437Y-56545143D01*
X100550005Y-56593539D01*
X100614233Y-56567644D01*
X100633899Y-56530504D01*
X100611466Y-56492249D01*
X100536111Y-56480234D01*
X100459446Y-56486915D01*
X100454093Y-56516161D01*
X99998164Y-56516161D01*
X99964180Y-56487056D01*
X99896000Y-56405557D01*
X99894915Y-56306379D01*
X99897191Y-56296876D01*
X99925547Y-56183900D01*
X100358657Y-56184548D01*
G36*
X99029720Y-55477750D02*
X99240456Y-55518867D01*
X99376419Y-55588434D01*
X99437453Y-55677011D01*
X99436078Y-55779294D01*
X99380781Y-55856867D01*
X99329245Y-55901150D01*
X99272374Y-55921926D01*
X99186331Y-55921532D01*
X99047282Y-55902305D01*
X98998501Y-55894344D01*
X98791017Y-55868103D01*
X98656501Y-55871486D01*
X98588179Y-55905664D01*
X98578270Y-55966977D01*
X98602882Y-56002796D01*
X98670372Y-56029666D01*
X98795076Y-56051338D01*
X98971129Y-56069774D01*
X99204517Y-56098863D01*
X99360856Y-56137006D01*
X99425714Y-56171585D01*
X99487108Y-56242422D01*
X99487442Y-56307147D01*
X99423756Y-56390970D01*
X99396691Y-56418658D01*
X99321271Y-56479867D01*
X99233519Y-56510207D01*
X99102457Y-56518481D01*
X99047441Y-56517929D01*
X98874170Y-56508934D01*
X98704177Y-56491134D01*
X98628818Y-56478935D01*
X98367725Y-56408575D01*
X98184220Y-56313982D01*
X98073534Y-56190581D01*
X98030902Y-56033795D01*
X98037512Y-55911238D01*
X98082938Y-55752349D01*
X98178787Y-55625331D01*
X98213136Y-55593661D01*
X98288340Y-55531865D01*
X98357406Y-55493698D01*
X98443494Y-55473487D01*
X98569761Y-55465558D01*
X98741433Y-55464234D01*
X99029720Y-55477750D01*
X99029720Y-55477750D01*
G37*
X99029720Y-55477750D02*
X99240456Y-55518867D01*
X99376419Y-55588434D01*
X99437453Y-55677011D01*
X99436078Y-55779294D01*
X99380781Y-55856867D01*
X99329245Y-55901150D01*
X99272374Y-55921926D01*
X99186331Y-55921532D01*
X99047282Y-55902305D01*
X98998501Y-55894344D01*
X98791017Y-55868103D01*
X98656501Y-55871486D01*
X98588179Y-55905664D01*
X98578270Y-55966977D01*
X98602882Y-56002796D01*
X98670372Y-56029666D01*
X98795076Y-56051338D01*
X98971129Y-56069774D01*
X99204517Y-56098863D01*
X99360856Y-56137006D01*
X99425714Y-56171585D01*
X99487108Y-56242422D01*
X99487442Y-56307147D01*
X99423756Y-56390970D01*
X99396691Y-56418658D01*
X99321271Y-56479867D01*
X99233519Y-56510207D01*
X99102457Y-56518481D01*
X99047441Y-56517929D01*
X98874170Y-56508934D01*
X98704177Y-56491134D01*
X98628818Y-56478935D01*
X98367725Y-56408575D01*
X98184220Y-56313982D01*
X98073534Y-56190581D01*
X98030902Y-56033795D01*
X98037512Y-55911238D01*
X98082938Y-55752349D01*
X98178787Y-55625331D01*
X98213136Y-55593661D01*
X98288340Y-55531865D01*
X98357406Y-55493698D01*
X98443494Y-55473487D01*
X98569761Y-55465558D01*
X98741433Y-55464234D01*
X99029720Y-55477750D01*
G36*
X100610688Y-55299321D02*
X100734321Y-55315419D01*
X100818821Y-55347448D01*
X100861160Y-55376915D01*
X100927329Y-55445679D01*
X100929047Y-55505696D01*
X100913089Y-55535665D01*
X100872019Y-55577799D01*
X100802067Y-55598742D01*
X100681462Y-55602781D01*
X100588933Y-55599504D01*
X100423947Y-55600394D01*
X100317411Y-55618380D01*
X100276547Y-55649570D01*
X100308575Y-55690070D01*
X100368642Y-55718313D01*
X100484074Y-55745744D01*
X100628579Y-55759999D01*
X100659432Y-55760567D01*
X100822467Y-55778703D01*
X100928018Y-55828798D01*
X100965615Y-55904384D01*
X100957631Y-55944843D01*
X100893630Y-56018359D01*
X100786679Y-56075108D01*
X100678353Y-56093494D01*
X100672594Y-56092891D01*
X100596285Y-56083537D01*
X100495434Y-56071431D01*
X100304385Y-56037166D01*
X100127803Y-55985426D01*
X99994257Y-55925389D01*
X99955684Y-55897997D01*
X99893119Y-55791414D01*
X99880460Y-55649652D01*
X99915809Y-55504498D01*
X99985509Y-55398809D01*
X100047451Y-55345829D01*
X100117583Y-55314584D01*
X100219486Y-55299504D01*
X100376738Y-55295019D01*
X100425319Y-55294900D01*
X100610688Y-55299321D01*
X100610688Y-55299321D01*
G37*
X100610688Y-55299321D02*
X100734321Y-55315419D01*
X100818821Y-55347448D01*
X100861160Y-55376915D01*
X100927329Y-55445679D01*
X100929047Y-55505696D01*
X100913089Y-55535665D01*
X100872019Y-55577799D01*
X100802067Y-55598742D01*
X100681462Y-55602781D01*
X100588933Y-55599504D01*
X100423947Y-55600394D01*
X100317411Y-55618380D01*
X100276547Y-55649570D01*
X100308575Y-55690070D01*
X100368642Y-55718313D01*
X100484074Y-55745744D01*
X100628579Y-55759999D01*
X100659432Y-55760567D01*
X100822467Y-55778703D01*
X100928018Y-55828798D01*
X100965615Y-55904384D01*
X100957631Y-55944843D01*
X100893630Y-56018359D01*
X100786679Y-56075108D01*
X100678353Y-56093494D01*
X100672594Y-56092891D01*
X100596285Y-56083537D01*
X100495434Y-56071431D01*
X100304385Y-56037166D01*
X100127803Y-55985426D01*
X99994257Y-55925389D01*
X99955684Y-55897997D01*
X99893119Y-55791414D01*
X99880460Y-55649652D01*
X99915809Y-55504498D01*
X99985509Y-55398809D01*
X100047451Y-55345829D01*
X100117583Y-55314584D01*
X100219486Y-55299504D01*
X100376738Y-55295019D01*
X100425319Y-55294900D01*
X100610688Y-55299321D01*
G36*
X98761722Y-54285796D02*
X98973470Y-54292852D01*
X99117928Y-54301986D01*
X99212455Y-54316987D01*
X99274410Y-54341643D01*
X99321154Y-54379741D01*
X99352679Y-54414760D01*
X99423463Y-54533693D01*
X99414189Y-54637604D01*
X99323073Y-54731942D01*
X99231675Y-54784591D01*
X99056100Y-54871500D01*
X99213874Y-54871533D01*
X99340476Y-54888661D01*
X99421915Y-54950465D01*
X99439133Y-54974561D01*
X99476441Y-55092576D01*
X99444087Y-55199938D01*
X99359663Y-55265101D01*
X99265505Y-55284612D01*
X99111837Y-55299644D01*
X98923731Y-55309469D01*
X98726261Y-55313361D01*
X98544500Y-55310589D01*
X98403520Y-55300427D01*
X98363669Y-55294027D01*
X98195240Y-55245094D01*
X98100270Y-55179501D01*
X98067875Y-55088012D01*
X98069710Y-55044524D01*
X98096041Y-54970244D01*
X98167179Y-54903127D01*
X98185463Y-54892734D01*
X98992600Y-54892734D01*
X99013767Y-54913900D01*
X99034934Y-54892734D01*
X99013767Y-54871567D01*
X98992600Y-54892734D01*
X98185463Y-54892734D01*
X98300324Y-54827447D01*
X98315267Y-54820009D01*
X98548100Y-54704951D01*
X98386567Y-54703592D01*
X98205007Y-54680629D01*
X98096475Y-54615531D01*
X98061267Y-54511220D01*
X98078447Y-54417790D01*
X98136509Y-54351444D01*
X98245233Y-54309035D01*
X98414399Y-54287416D01*
X98653788Y-54283438D01*
X98761722Y-54285796D01*
X98761722Y-54285796D01*
G37*
X98761722Y-54285796D02*
X98973470Y-54292852D01*
X99117928Y-54301986D01*
X99212455Y-54316987D01*
X99274410Y-54341643D01*
X99321154Y-54379741D01*
X99352679Y-54414760D01*
X99423463Y-54533693D01*
X99414189Y-54637604D01*
X99323073Y-54731942D01*
X99231675Y-54784591D01*
X99056100Y-54871500D01*
X99213874Y-54871533D01*
X99340476Y-54888661D01*
X99421915Y-54950465D01*
X99439133Y-54974561D01*
X99476441Y-55092576D01*
X99444087Y-55199938D01*
X99359663Y-55265101D01*
X99265505Y-55284612D01*
X99111837Y-55299644D01*
X98923731Y-55309469D01*
X98726261Y-55313361D01*
X98544500Y-55310589D01*
X98403520Y-55300427D01*
X98363669Y-55294027D01*
X98195240Y-55245094D01*
X98100270Y-55179501D01*
X98067875Y-55088012D01*
X98069710Y-55044524D01*
X98096041Y-54970244D01*
X98167179Y-54903127D01*
X98185463Y-54892734D01*
X98992600Y-54892734D01*
X99013767Y-54913900D01*
X99034934Y-54892734D01*
X99013767Y-54871567D01*
X98992600Y-54892734D01*
X98185463Y-54892734D01*
X98300324Y-54827447D01*
X98315267Y-54820009D01*
X98548100Y-54704951D01*
X98386567Y-54703592D01*
X98205007Y-54680629D01*
X98096475Y-54615531D01*
X98061267Y-54511220D01*
X98078447Y-54417790D01*
X98136509Y-54351444D01*
X98245233Y-54309035D01*
X98414399Y-54287416D01*
X98653788Y-54283438D01*
X98761722Y-54285796D01*
G36*
X100640037Y-54449119D02*
X100805562Y-54516155D01*
X100902979Y-54629492D01*
X100932256Y-54741165D01*
X100915661Y-54904016D01*
X100827303Y-55029400D01*
X100663619Y-55121572D01*
X100593706Y-55145057D01*
X100467374Y-55180615D01*
X100377144Y-55202377D01*
X100350167Y-55205900D01*
X100296538Y-55194170D01*
X100196417Y-55171056D01*
X100178952Y-55166957D01*
X100014993Y-55093978D01*
X99915764Y-54977072D01*
X99885766Y-54831815D01*
X99896171Y-54794215D01*
X100236651Y-54794215D01*
X100248738Y-54843582D01*
X100249640Y-54844496D01*
X100317041Y-54867294D01*
X100424037Y-54868567D01*
X100528278Y-54848096D01*
X100534061Y-54845964D01*
X100583259Y-54808898D01*
X100561010Y-54773099D01*
X100480034Y-54749030D01*
X100410767Y-54744567D01*
X100295208Y-54758389D01*
X100236651Y-54794215D01*
X99896171Y-54794215D01*
X99929500Y-54673784D01*
X100005128Y-54565318D01*
X100079058Y-54489945D01*
X100149196Y-54448463D01*
X100244476Y-54430846D01*
X100393834Y-54427072D01*
X100404190Y-54427067D01*
X100640037Y-54449119D01*
X100640037Y-54449119D01*
G37*
X100640037Y-54449119D02*
X100805562Y-54516155D01*
X100902979Y-54629492D01*
X100932256Y-54741165D01*
X100915661Y-54904016D01*
X100827303Y-55029400D01*
X100663619Y-55121572D01*
X100593706Y-55145057D01*
X100467374Y-55180615D01*
X100377144Y-55202377D01*
X100350167Y-55205900D01*
X100296538Y-55194170D01*
X100196417Y-55171056D01*
X100178952Y-55166957D01*
X100014993Y-55093978D01*
X99915764Y-54977072D01*
X99885766Y-54831815D01*
X99896171Y-54794215D01*
X100236651Y-54794215D01*
X100248738Y-54843582D01*
X100249640Y-54844496D01*
X100317041Y-54867294D01*
X100424037Y-54868567D01*
X100528278Y-54848096D01*
X100534061Y-54845964D01*
X100583259Y-54808898D01*
X100561010Y-54773099D01*
X100480034Y-54749030D01*
X100410767Y-54744567D01*
X100295208Y-54758389D01*
X100236651Y-54794215D01*
X99896171Y-54794215D01*
X99929500Y-54673784D01*
X100005128Y-54565318D01*
X100079058Y-54489945D01*
X100149196Y-54448463D01*
X100244476Y-54430846D01*
X100393834Y-54427072D01*
X100404190Y-54427067D01*
X100640037Y-54449119D01*
G36*
X102421600Y-55062067D02*
X102400434Y-55083234D01*
X102379267Y-55062067D01*
X102400434Y-55040900D01*
X102421600Y-55062067D01*
X102421600Y-55062067D01*
G37*
X102421600Y-55062067D02*
X102400434Y-55083234D01*
X102379267Y-55062067D01*
X102400434Y-55040900D01*
X102421600Y-55062067D01*
G36*
X100773563Y-53691210D02*
X100853571Y-53762691D01*
X100934657Y-53866195D01*
X100979276Y-53966720D01*
X100982267Y-53991058D01*
X100954228Y-54114838D01*
X100884275Y-54219133D01*
X100793654Y-54275549D01*
X100766871Y-54278900D01*
X100683127Y-54247043D01*
X100653410Y-54171704D01*
X100687230Y-54086838D01*
X100718034Y-54021608D01*
X100710656Y-53993179D01*
X100668735Y-54005396D01*
X100590643Y-54067532D01*
X100515822Y-54142368D01*
X100359022Y-54274891D01*
X100209966Y-54327859D01*
X100073994Y-54300614D01*
X99969339Y-54209691D01*
X99903542Y-54076169D01*
X99890108Y-53929867D01*
X99924665Y-53795826D01*
X100002841Y-53699087D01*
X100063440Y-53670697D01*
X100160363Y-53662318D01*
X100200089Y-53710231D01*
X100192422Y-53814875D01*
X100181491Y-53907970D01*
X100203630Y-53932495D01*
X100264823Y-53888377D01*
X100337280Y-53813128D01*
X100447951Y-53722590D01*
X100570131Y-53664527D01*
X100588987Y-53660009D01*
X100689770Y-53653827D01*
X100773563Y-53691210D01*
X100773563Y-53691210D01*
G37*
X100773563Y-53691210D02*
X100853571Y-53762691D01*
X100934657Y-53866195D01*
X100979276Y-53966720D01*
X100982267Y-53991058D01*
X100954228Y-54114838D01*
X100884275Y-54219133D01*
X100793654Y-54275549D01*
X100766871Y-54278900D01*
X100683127Y-54247043D01*
X100653410Y-54171704D01*
X100687230Y-54086838D01*
X100718034Y-54021608D01*
X100710656Y-53993179D01*
X100668735Y-54005396D01*
X100590643Y-54067532D01*
X100515822Y-54142368D01*
X100359022Y-54274891D01*
X100209966Y-54327859D01*
X100073994Y-54300614D01*
X99969339Y-54209691D01*
X99903542Y-54076169D01*
X99890108Y-53929867D01*
X99924665Y-53795826D01*
X100002841Y-53699087D01*
X100063440Y-53670697D01*
X100160363Y-53662318D01*
X100200089Y-53710231D01*
X100192422Y-53814875D01*
X100181491Y-53907970D01*
X100203630Y-53932495D01*
X100264823Y-53888377D01*
X100337280Y-53813128D01*
X100447951Y-53722590D01*
X100570131Y-53664527D01*
X100588987Y-53660009D01*
X100689770Y-53653827D01*
X100773563Y-53691210D01*
G36*
X99064088Y-53161290D02*
X99202987Y-53219914D01*
X99352229Y-53318129D01*
X99432169Y-53435763D01*
X99458062Y-53596529D01*
X99458267Y-53616702D01*
X99419194Y-53782741D01*
X99311488Y-53925167D01*
X99149415Y-54037571D01*
X98947242Y-54113543D01*
X98719235Y-54146675D01*
X98479662Y-54130556D01*
X98370847Y-54105229D01*
X98216875Y-54021252D01*
X98111070Y-53885293D01*
X98058443Y-53718212D01*
X98060129Y-53664422D01*
X98493351Y-53664422D01*
X98552869Y-53699735D01*
X98556341Y-53700741D01*
X98641709Y-53709231D01*
X98762303Y-53705030D01*
X98883488Y-53691326D01*
X98970634Y-53671308D01*
X98989785Y-53660827D01*
X98988940Y-53623371D01*
X98924282Y-53591407D01*
X98816657Y-53571503D01*
X98699576Y-53569372D01*
X98577916Y-53588958D01*
X98505438Y-53624069D01*
X98493351Y-53664422D01*
X98060129Y-53664422D01*
X98064003Y-53540870D01*
X98132763Y-53374127D01*
X98180643Y-53313395D01*
X98354016Y-53186696D01*
X98571706Y-53117954D01*
X98814726Y-53108907D01*
X99064088Y-53161290D01*
X99064088Y-53161290D01*
G37*
X99064088Y-53161290D02*
X99202987Y-53219914D01*
X99352229Y-53318129D01*
X99432169Y-53435763D01*
X99458062Y-53596529D01*
X99458267Y-53616702D01*
X99419194Y-53782741D01*
X99311488Y-53925167D01*
X99149415Y-54037571D01*
X98947242Y-54113543D01*
X98719235Y-54146675D01*
X98479662Y-54130556D01*
X98370847Y-54105229D01*
X98216875Y-54021252D01*
X98111070Y-53885293D01*
X98058443Y-53718212D01*
X98060129Y-53664422D01*
X98493351Y-53664422D01*
X98552869Y-53699735D01*
X98556341Y-53700741D01*
X98641709Y-53709231D01*
X98762303Y-53705030D01*
X98883488Y-53691326D01*
X98970634Y-53671308D01*
X98989785Y-53660827D01*
X98988940Y-53623371D01*
X98924282Y-53591407D01*
X98816657Y-53571503D01*
X98699576Y-53569372D01*
X98577916Y-53588958D01*
X98505438Y-53624069D01*
X98493351Y-53664422D01*
X98060129Y-53664422D01*
X98064003Y-53540870D01*
X98132763Y-53374127D01*
X98180643Y-53313395D01*
X98354016Y-53186696D01*
X98571706Y-53117954D01*
X98814726Y-53108907D01*
X99064088Y-53161290D01*
G36*
X100534335Y-52416596D02*
X100699688Y-52437519D01*
X100822127Y-52472861D01*
X100855955Y-52492945D01*
X100923582Y-52585733D01*
X100910724Y-52681604D01*
X100820694Y-52771537D01*
X100737229Y-52816196D01*
X100580100Y-52885255D01*
X100716046Y-52863797D01*
X100855471Y-52870078D01*
X100917129Y-52907477D01*
X100975441Y-52988499D01*
X100959435Y-53061124D01*
X100915743Y-53111710D01*
X100832779Y-53149872D01*
X100690868Y-53173838D01*
X100514495Y-53183814D01*
X100328145Y-53180004D01*
X100156303Y-53162613D01*
X100023456Y-53131846D01*
X99968366Y-53103779D01*
X99903414Y-53017205D01*
X99922677Y-52931977D01*
X100025707Y-52849392D01*
X100063450Y-52829817D01*
X100199100Y-52764205D01*
X100072100Y-52731868D01*
X99939871Y-52677818D01*
X99888307Y-52605081D01*
X99918718Y-52516292D01*
X99948124Y-52482757D01*
X100032961Y-52443174D01*
X100175754Y-52419141D01*
X100351284Y-52410376D01*
X100534335Y-52416596D01*
X100534335Y-52416596D01*
G37*
X100534335Y-52416596D02*
X100699688Y-52437519D01*
X100822127Y-52472861D01*
X100855955Y-52492945D01*
X100923582Y-52585733D01*
X100910724Y-52681604D01*
X100820694Y-52771537D01*
X100737229Y-52816196D01*
X100580100Y-52885255D01*
X100716046Y-52863797D01*
X100855471Y-52870078D01*
X100917129Y-52907477D01*
X100975441Y-52988499D01*
X100959435Y-53061124D01*
X100915743Y-53111710D01*
X100832779Y-53149872D01*
X100690868Y-53173838D01*
X100514495Y-53183814D01*
X100328145Y-53180004D01*
X100156303Y-53162613D01*
X100023456Y-53131846D01*
X99968366Y-53103779D01*
X99903414Y-53017205D01*
X99922677Y-52931977D01*
X100025707Y-52849392D01*
X100063450Y-52829817D01*
X100199100Y-52764205D01*
X100072100Y-52731868D01*
X99939871Y-52677818D01*
X99888307Y-52605081D01*
X99918718Y-52516292D01*
X99948124Y-52482757D01*
X100032961Y-52443174D01*
X100175754Y-52419141D01*
X100351284Y-52410376D01*
X100534335Y-52416596D01*
G36*
X99033930Y-52099666D02*
X99126796Y-52121191D01*
X99308366Y-52193155D01*
X99421064Y-52296640D01*
X99479124Y-52446972D01*
X99488907Y-52511133D01*
X99496563Y-52640664D01*
X99473733Y-52727535D01*
X99407263Y-52811959D01*
X99382134Y-52837546D01*
X99242018Y-52940477D01*
X99103805Y-52961820D01*
X98989817Y-52922744D01*
X98923007Y-52846294D01*
X98913908Y-52741867D01*
X98962057Y-52643002D01*
X98994051Y-52614716D01*
X99047201Y-52572295D01*
X99035773Y-52549169D01*
X98950540Y-52528472D01*
X98946426Y-52527649D01*
X98790538Y-52506134D01*
X98648198Y-52502845D01*
X98544891Y-52517163D01*
X98508842Y-52538258D01*
X98516301Y-52593799D01*
X98565898Y-52677428D01*
X98569844Y-52682518D01*
X98641706Y-52814383D01*
X98640596Y-52919292D01*
X98576509Y-52987157D01*
X98459443Y-53007887D01*
X98299395Y-52971393D01*
X98288046Y-52966923D01*
X98171374Y-52878111D01*
X98092015Y-52736527D01*
X98057574Y-52568684D01*
X98075658Y-52401094D01*
X98105016Y-52328922D01*
X98205707Y-52222774D01*
X98368525Y-52142793D01*
X98573889Y-52092961D01*
X98802218Y-52077259D01*
X99033930Y-52099666D01*
X99033930Y-52099666D01*
G37*
X99033930Y-52099666D02*
X99126796Y-52121191D01*
X99308366Y-52193155D01*
X99421064Y-52296640D01*
X99479124Y-52446972D01*
X99488907Y-52511133D01*
X99496563Y-52640664D01*
X99473733Y-52727535D01*
X99407263Y-52811959D01*
X99382134Y-52837546D01*
X99242018Y-52940477D01*
X99103805Y-52961820D01*
X98989817Y-52922744D01*
X98923007Y-52846294D01*
X98913908Y-52741867D01*
X98962057Y-52643002D01*
X98994051Y-52614716D01*
X99047201Y-52572295D01*
X99035773Y-52549169D01*
X98950540Y-52528472D01*
X98946426Y-52527649D01*
X98790538Y-52506134D01*
X98648198Y-52502845D01*
X98544891Y-52517163D01*
X98508842Y-52538258D01*
X98516301Y-52593799D01*
X98565898Y-52677428D01*
X98569844Y-52682518D01*
X98641706Y-52814383D01*
X98640596Y-52919292D01*
X98576509Y-52987157D01*
X98459443Y-53007887D01*
X98299395Y-52971393D01*
X98288046Y-52966923D01*
X98171374Y-52878111D01*
X98092015Y-52736527D01*
X98057574Y-52568684D01*
X98075658Y-52401094D01*
X98105016Y-52328922D01*
X98205707Y-52222774D01*
X98368525Y-52142793D01*
X98573889Y-52092961D01*
X98802218Y-52077259D01*
X99033930Y-52099666D01*
G36*
X100671715Y-50946596D02*
X100800525Y-50961291D01*
X100856228Y-50977415D01*
X100926991Y-51058039D01*
X100965403Y-51188448D01*
X100966200Y-51338208D01*
X100937672Y-51448026D01*
X100838150Y-51579224D01*
X100710579Y-51655997D01*
X100537767Y-51732920D01*
X100685934Y-51736558D01*
X100799271Y-51747403D01*
X100876574Y-51768935D01*
X100880507Y-51771298D01*
X100918940Y-51836073D01*
X100946201Y-51950142D01*
X100958518Y-52079097D01*
X100952117Y-52188530D01*
X100931715Y-52238185D01*
X100860864Y-52259818D01*
X100781616Y-52228864D01*
X100731812Y-52163665D01*
X100728267Y-52139577D01*
X100694347Y-52084753D01*
X100664767Y-52077567D01*
X100613695Y-52114367D01*
X100601267Y-52183400D01*
X100584006Y-52263698D01*
X100515731Y-52288710D01*
X100494386Y-52289234D01*
X100395388Y-52257992D01*
X100347267Y-52183400D01*
X100298058Y-52099975D01*
X100250252Y-52082215D01*
X100222131Y-52133168D01*
X100220267Y-52162234D01*
X100194824Y-52229167D01*
X100116834Y-52246900D01*
X100005746Y-52210337D01*
X99925767Y-52118617D01*
X99887367Y-51998696D01*
X99901016Y-51877531D01*
X99946139Y-51807409D01*
X100021559Y-51767986D01*
X100150009Y-51732671D01*
X100265620Y-51714026D01*
X100401607Y-51696666D01*
X100464236Y-51680934D01*
X100464528Y-51661501D01*
X100423331Y-51637765D01*
X100337954Y-51566853D01*
X100264983Y-51460437D01*
X100262600Y-51455482D01*
X100188078Y-51349875D01*
X100083355Y-51308325D01*
X100076369Y-51307508D01*
X100052847Y-51299437D01*
X100496008Y-51299437D01*
X100516600Y-51315567D01*
X100621336Y-51355135D01*
X100697302Y-51328544D01*
X100707100Y-51315567D01*
X100689903Y-51286337D01*
X100605405Y-51273955D01*
X100593182Y-51273882D01*
X100506512Y-51279840D01*
X100496008Y-51299437D01*
X100052847Y-51299437D01*
X99953772Y-51265443D01*
X99893373Y-51187116D01*
X99896620Y-51095241D01*
X99964963Y-51012529D01*
X100054940Y-50971499D01*
X100170326Y-50952322D01*
X100329597Y-50941912D01*
X100505733Y-50940070D01*
X100671715Y-50946596D01*
X100671715Y-50946596D01*
G37*
X100671715Y-50946596D02*
X100800525Y-50961291D01*
X100856228Y-50977415D01*
X100926991Y-51058039D01*
X100965403Y-51188448D01*
X100966200Y-51338208D01*
X100937672Y-51448026D01*
X100838150Y-51579224D01*
X100710579Y-51655997D01*
X100537767Y-51732920D01*
X100685934Y-51736558D01*
X100799271Y-51747403D01*
X100876574Y-51768935D01*
X100880507Y-51771298D01*
X100918940Y-51836073D01*
X100946201Y-51950142D01*
X100958518Y-52079097D01*
X100952117Y-52188530D01*
X100931715Y-52238185D01*
X100860864Y-52259818D01*
X100781616Y-52228864D01*
X100731812Y-52163665D01*
X100728267Y-52139577D01*
X100694347Y-52084753D01*
X100664767Y-52077567D01*
X100613695Y-52114367D01*
X100601267Y-52183400D01*
X100584006Y-52263698D01*
X100515731Y-52288710D01*
X100494386Y-52289234D01*
X100395388Y-52257992D01*
X100347267Y-52183400D01*
X100298058Y-52099975D01*
X100250252Y-52082215D01*
X100222131Y-52133168D01*
X100220267Y-52162234D01*
X100194824Y-52229167D01*
X100116834Y-52246900D01*
X100005746Y-52210337D01*
X99925767Y-52118617D01*
X99887367Y-51998696D01*
X99901016Y-51877531D01*
X99946139Y-51807409D01*
X100021559Y-51767986D01*
X100150009Y-51732671D01*
X100265620Y-51714026D01*
X100401607Y-51696666D01*
X100464236Y-51680934D01*
X100464528Y-51661501D01*
X100423331Y-51637765D01*
X100337954Y-51566853D01*
X100264983Y-51460437D01*
X100262600Y-51455482D01*
X100188078Y-51349875D01*
X100083355Y-51308325D01*
X100076369Y-51307508D01*
X100052847Y-51299437D01*
X100496008Y-51299437D01*
X100516600Y-51315567D01*
X100621336Y-51355135D01*
X100697302Y-51328544D01*
X100707100Y-51315567D01*
X100689903Y-51286337D01*
X100605405Y-51273955D01*
X100593182Y-51273882D01*
X100506512Y-51279840D01*
X100496008Y-51299437D01*
X100052847Y-51299437D01*
X99953772Y-51265443D01*
X99893373Y-51187116D01*
X99896620Y-51095241D01*
X99964963Y-51012529D01*
X100054940Y-50971499D01*
X100170326Y-50952322D01*
X100329597Y-50941912D01*
X100505733Y-50940070D01*
X100671715Y-50946596D01*
G36*
X98967061Y-50949417D02*
X99145523Y-50999573D01*
X99294551Y-51093443D01*
X99341850Y-51135680D01*
X99435479Y-51276741D01*
X99459545Y-51438752D01*
X99418683Y-51601887D01*
X99317533Y-51746321D01*
X99175867Y-51845328D01*
X99041770Y-51887820D01*
X98859228Y-51919581D01*
X98662282Y-51937299D01*
X98484977Y-51937663D01*
X98378767Y-51922864D01*
X98291693Y-51879015D01*
X98190192Y-51801839D01*
X98177684Y-51790364D01*
X98100720Y-51698987D01*
X98067072Y-51593658D01*
X98061267Y-51482689D01*
X98066993Y-51448187D01*
X98492512Y-51448187D01*
X98502842Y-51480167D01*
X98562079Y-51509964D01*
X98671381Y-51524215D01*
X98797498Y-51522443D01*
X98907181Y-51504174D01*
X98949041Y-51486554D01*
X98989755Y-51440251D01*
X98948114Y-51404245D01*
X98823322Y-51378019D01*
X98772441Y-51372267D01*
X98626289Y-51371648D01*
X98528278Y-51398836D01*
X98492512Y-51448187D01*
X98066993Y-51448187D01*
X98096259Y-51271872D01*
X98199078Y-51109719D01*
X98366483Y-50998871D01*
X98595237Y-50941967D01*
X98733742Y-50934567D01*
X98967061Y-50949417D01*
X98967061Y-50949417D01*
G37*
X98967061Y-50949417D02*
X99145523Y-50999573D01*
X99294551Y-51093443D01*
X99341850Y-51135680D01*
X99435479Y-51276741D01*
X99459545Y-51438752D01*
X99418683Y-51601887D01*
X99317533Y-51746321D01*
X99175867Y-51845328D01*
X99041770Y-51887820D01*
X98859228Y-51919581D01*
X98662282Y-51937299D01*
X98484977Y-51937663D01*
X98378767Y-51922864D01*
X98291693Y-51879015D01*
X98190192Y-51801839D01*
X98177684Y-51790364D01*
X98100720Y-51698987D01*
X98067072Y-51593658D01*
X98061267Y-51482689D01*
X98066993Y-51448187D01*
X98492512Y-51448187D01*
X98502842Y-51480167D01*
X98562079Y-51509964D01*
X98671381Y-51524215D01*
X98797498Y-51522443D01*
X98907181Y-51504174D01*
X98949041Y-51486554D01*
X98989755Y-51440251D01*
X98948114Y-51404245D01*
X98823322Y-51378019D01*
X98772441Y-51372267D01*
X98626289Y-51371648D01*
X98528278Y-51398836D01*
X98492512Y-51448187D01*
X98066993Y-51448187D01*
X98096259Y-51271872D01*
X98199078Y-51109719D01*
X98366483Y-50998871D01*
X98595237Y-50941967D01*
X98733742Y-50934567D01*
X98967061Y-50949417D01*
G36*
X100606019Y-50113927D02*
X100774582Y-50185069D01*
X100891046Y-50291524D01*
X100944636Y-50423424D01*
X100924577Y-50570901D01*
X100924278Y-50571652D01*
X100825367Y-50708101D01*
X100659778Y-50800767D01*
X100435427Y-50845914D01*
X100334759Y-50849834D01*
X100181537Y-50843282D01*
X100081302Y-50817364D01*
X100002984Y-50762843D01*
X99985509Y-50745991D01*
X99896617Y-50609095D01*
X99886764Y-50518961D01*
X100240996Y-50518961D01*
X100303142Y-50547698D01*
X100416421Y-50545495D01*
X100505541Y-50527009D01*
X100569725Y-50494176D01*
X100577126Y-50464087D01*
X100520926Y-50437691D01*
X100421368Y-50427583D01*
X100318056Y-50433892D01*
X100250593Y-50456749D01*
X100245083Y-50462996D01*
X100240996Y-50518961D01*
X99886764Y-50518961D01*
X99880803Y-50464436D01*
X99929326Y-50326023D01*
X100033444Y-50207863D01*
X100184417Y-50123965D01*
X100373502Y-50088337D01*
X100396132Y-50087966D01*
X100606019Y-50113927D01*
X100606019Y-50113927D01*
G37*
X100606019Y-50113927D02*
X100774582Y-50185069D01*
X100891046Y-50291524D01*
X100944636Y-50423424D01*
X100924577Y-50570901D01*
X100924278Y-50571652D01*
X100825367Y-50708101D01*
X100659778Y-50800767D01*
X100435427Y-50845914D01*
X100334759Y-50849834D01*
X100181537Y-50843282D01*
X100081302Y-50817364D01*
X100002984Y-50762843D01*
X99985509Y-50745991D01*
X99896617Y-50609095D01*
X99886764Y-50518961D01*
X100240996Y-50518961D01*
X100303142Y-50547698D01*
X100416421Y-50545495D01*
X100505541Y-50527009D01*
X100569725Y-50494176D01*
X100577126Y-50464087D01*
X100520926Y-50437691D01*
X100421368Y-50427583D01*
X100318056Y-50433892D01*
X100250593Y-50456749D01*
X100245083Y-50462996D01*
X100240996Y-50518961D01*
X99886764Y-50518961D01*
X99880803Y-50464436D01*
X99929326Y-50326023D01*
X100033444Y-50207863D01*
X100184417Y-50123965D01*
X100373502Y-50088337D01*
X100396132Y-50087966D01*
X100606019Y-50113927D01*
G36*
X99045838Y-49912379D02*
X99246605Y-49984795D01*
X99400202Y-50097140D01*
X99434530Y-50139411D01*
X99492405Y-50284417D01*
X99487491Y-50440647D01*
X99429762Y-50586508D01*
X99329192Y-50700408D01*
X99195753Y-50760752D01*
X99145470Y-50765234D01*
X99003467Y-50737076D01*
X98923148Y-50663333D01*
X98911777Y-50560096D01*
X98976619Y-50443458D01*
X98992600Y-50426567D01*
X99033733Y-50382355D01*
X99037478Y-50357055D01*
X98990639Y-50345387D01*
X98880018Y-50342074D01*
X98780934Y-50341900D01*
X98634879Y-50346578D01*
X98529043Y-50358888D01*
X98484834Y-50376246D01*
X98484600Y-50377672D01*
X98512932Y-50429710D01*
X98571271Y-50491880D01*
X98639697Y-50603045D01*
X98645354Y-50678358D01*
X98626217Y-50748098D01*
X98573769Y-50782978D01*
X98463161Y-50798663D01*
X98453336Y-50799394D01*
X98319093Y-50796740D01*
X98223743Y-50755348D01*
X98167586Y-50706068D01*
X98097864Y-50615352D01*
X98066717Y-50505078D01*
X98061267Y-50390543D01*
X98068816Y-50254378D01*
X98102817Y-50163055D01*
X98180304Y-50077278D01*
X98207647Y-50052814D01*
X98378805Y-49950108D01*
X98590108Y-49893495D01*
X98819729Y-49881431D01*
X99045838Y-49912379D01*
X99045838Y-49912379D01*
G37*
X99045838Y-49912379D02*
X99246605Y-49984795D01*
X99400202Y-50097140D01*
X99434530Y-50139411D01*
X99492405Y-50284417D01*
X99487491Y-50440647D01*
X99429762Y-50586508D01*
X99329192Y-50700408D01*
X99195753Y-50760752D01*
X99145470Y-50765234D01*
X99003467Y-50737076D01*
X98923148Y-50663333D01*
X98911777Y-50560096D01*
X98976619Y-50443458D01*
X98992600Y-50426567D01*
X99033733Y-50382355D01*
X99037478Y-50357055D01*
X98990639Y-50345387D01*
X98880018Y-50342074D01*
X98780934Y-50341900D01*
X98634879Y-50346578D01*
X98529043Y-50358888D01*
X98484834Y-50376246D01*
X98484600Y-50377672D01*
X98512932Y-50429710D01*
X98571271Y-50491880D01*
X98639697Y-50603045D01*
X98645354Y-50678358D01*
X98626217Y-50748098D01*
X98573769Y-50782978D01*
X98463161Y-50798663D01*
X98453336Y-50799394D01*
X98319093Y-50796740D01*
X98223743Y-50755348D01*
X98167586Y-50706068D01*
X98097864Y-50615352D01*
X98066717Y-50505078D01*
X98061267Y-50390543D01*
X98068816Y-50254378D01*
X98102817Y-50163055D01*
X98180304Y-50077278D01*
X98207647Y-50052814D01*
X98378805Y-49950108D01*
X98590108Y-49893495D01*
X98819729Y-49881431D01*
X99045838Y-49912379D01*
D12*
X62090000Y-54660000D03*
D13*
X69710000Y-47040000D03*
X64630000Y-54660000D03*
X67170000Y-47040000D03*
X67170000Y-54660000D03*
X64630000Y-47040000D03*
X69710000Y-54660000D03*
X62090000Y-47040000D03*
D14*
X76610000Y-41260000D03*
D15*
X76610000Y-38720000D03*
D16*
X87690000Y-49080000D03*
X87690000Y-38920000D03*
D17*
X105030000Y-39680000D03*
X116150000Y-60400000D03*
X116740000Y-49920000D03*
X112440000Y-42800000D03*
D18*
X65029400Y-72031200D03*
X65029400Y-65528800D03*
X69550600Y-72031200D03*
X69550600Y-65528800D03*
D19*
X41702220Y-65781280D03*
X44300640Y-65781280D03*
X46800000Y-70780000D03*
X51897780Y-65781280D03*
X49299360Y-65781280D03*
D20*
X49230000Y-58890000D03*
X44230000Y-58890000D03*
D21*
X43180000Y-53300000D03*
D22*
X43180000Y-50760000D03*
D17*
X105180000Y-71030000D03*
X112740000Y-67690000D03*
D23*
X92090000Y-70990000D03*
X92740000Y-70990000D03*
X93390000Y-70990000D03*
X94040000Y-70990000D03*
X94690000Y-70990000D03*
D24*
X90890000Y-70990000D03*
X95890000Y-70990000D03*
D25*
X89890000Y-73690000D03*
X96890000Y-73690000D03*
D26*
X88340000Y-63830000D03*
D27*
X90880000Y-63830000D03*
X93420000Y-63830000D03*
X95960000Y-63830000D03*
X98500000Y-63830000D03*
D28*
X56180000Y-62520000D03*
X56180000Y-72522520D03*
X60500000Y-62550000D03*
X60500000Y-72552520D03*
X77240000Y-56111260D03*
X77240000Y-46108740D03*
D20*
X50710000Y-49700000D03*
X50710000Y-54700000D03*
D28*
X58170000Y-47281740D03*
X58170000Y-57284260D03*
D17*
X69870000Y-40080000D03*
X62510000Y-40170000D03*
D29*
X41710000Y-41860000D03*
X54410000Y-41860000D03*
M02*
