G04 #@! TF.FileFunction,Profile,NP*
%FSLAX46Y46*%
G04 Gerber Fmt 4.6, Leading zero omitted, Abs format (unit mm)*
G04 Created by KiCad (PCBNEW 4.0.7-e0-6372~58~ubuntu16.04.1) date Tue Jul 24 02:48:08 2018*
%MOMM*%
%LPD*%
G01*
G04 APERTURE LIST*
%ADD10C,0.100000*%
G04 APERTURE END LIST*
D10*
X52503771Y-74955291D02*
X52774141Y-74874406D01*
X52774141Y-74874406D02*
X52997865Y-74814360D01*
X52997865Y-74814360D02*
X53181038Y-74775295D01*
X53181038Y-74775295D02*
X53259323Y-74763668D01*
X53259323Y-74763668D02*
X53329756Y-74757346D01*
X53329756Y-74757346D02*
X53393099Y-74756217D01*
X53393099Y-74756217D02*
X53450114Y-74760535D01*
X53450114Y-74760535D02*
X53501562Y-74770187D01*
X53501562Y-74770187D02*
X53548207Y-74785229D01*
X53548207Y-74785229D02*
X53590809Y-74805662D01*
X53590809Y-74805662D02*
X53630130Y-74831486D01*
X53630130Y-74831486D02*
X53666934Y-74862722D01*
X53666934Y-74862722D02*
X53701980Y-74899394D01*
X53701980Y-74899394D02*
X53769851Y-74989110D01*
X53769851Y-74989110D02*
X53839838Y-75100776D01*
X53839838Y-75100776D02*
X54010544Y-75390511D01*
X54010544Y-75390511D02*
X54123453Y-75568859D01*
X54123453Y-75568859D02*
X54262860Y-75769708D01*
X54262860Y-75769708D02*
X54434860Y-75993197D01*
X54434860Y-75993197D02*
X54534987Y-76113477D01*
X54534987Y-76113477D02*
X54645549Y-76239470D01*
X54645549Y-76239470D02*
X54758232Y-76364091D01*
X54758232Y-76364091D02*
X54877581Y-76478529D01*
X54877581Y-76478529D02*
X55003254Y-76583225D01*
X55003254Y-76583225D02*
X55134912Y-76678619D01*
X55134912Y-76678619D02*
X55272213Y-76765145D01*
X55272213Y-76765145D02*
X55414817Y-76843250D01*
X55414817Y-76843250D02*
X55562383Y-76913374D01*
X55562383Y-76913374D02*
X55714571Y-76975951D01*
X55714571Y-76975951D02*
X55871040Y-77031425D01*
X55871040Y-77031425D02*
X56031450Y-77080232D01*
X56031450Y-77080232D02*
X56195459Y-77122820D01*
X56195459Y-77122820D02*
X56362728Y-77159618D01*
X56362728Y-77159618D02*
X56532915Y-77191075D01*
X56532915Y-77191075D02*
X56705681Y-77217632D01*
X56705681Y-77217632D02*
X56880684Y-77239702D01*
X56880684Y-77239702D02*
X57057584Y-77257764D01*
X57057584Y-77257764D02*
X57415712Y-77283559D01*
X57415712Y-77283559D02*
X57777340Y-77298545D01*
X57777340Y-77298545D02*
X58139743Y-77306222D01*
X58139743Y-77306222D02*
X58500197Y-77310116D01*
X58500197Y-77310116D02*
X58855977Y-77313757D01*
X58855977Y-77313757D02*
X59204357Y-77320643D01*
X59204357Y-77320643D02*
X59542614Y-77334303D01*
X59542614Y-77334303D02*
X59868022Y-77358235D01*
X59868022Y-77358235D02*
X59950589Y-77383014D01*
X59950589Y-77383014D02*
X60039065Y-77403278D01*
X60039065Y-77403278D02*
X60133249Y-77419167D01*
X60133249Y-77419167D02*
X60232944Y-77430851D01*
X60232944Y-77430851D02*
X60448056Y-77442224D01*
X60448056Y-77442224D02*
X60682806Y-77438697D01*
X60682806Y-77438697D02*
X60935587Y-77421594D01*
X60935587Y-77421594D02*
X61204798Y-77392203D01*
X61204798Y-77392203D02*
X61488847Y-77351823D01*
X61488847Y-77351823D02*
X61786122Y-77301748D01*
X61786122Y-77301748D02*
X62095032Y-77243283D01*
X62095032Y-77243283D02*
X62413968Y-77177720D01*
X62413968Y-77177720D02*
X63075531Y-77030496D01*
X63075531Y-77030496D02*
X64448584Y-76708004D01*
X64448584Y-76708004D02*
X65134463Y-76553504D01*
X65134463Y-76553504D02*
X65471637Y-76482483D01*
X65471637Y-76482483D02*
X65802836Y-76417346D01*
X65802836Y-76417346D02*
X66126454Y-76359389D01*
X66126454Y-76359389D02*
X66440898Y-76309915D01*
X66440898Y-76309915D02*
X66744558Y-76270215D01*
X66744558Y-76270215D02*
X67035839Y-76241592D01*
X67035839Y-76241592D02*
X67313142Y-76225336D01*
X67313142Y-76225336D02*
X67574861Y-76222796D01*
X67574861Y-76222796D02*
X67819398Y-76235186D01*
X67819398Y-76235186D02*
X67934723Y-76247406D01*
X67934723Y-76247406D02*
X68045153Y-76263859D01*
X68045153Y-76263859D02*
X68150484Y-76284687D01*
X68150484Y-76284687D02*
X68250524Y-76310087D01*
X68250524Y-76310087D02*
X68345065Y-76340192D01*
X68345065Y-76340192D02*
X68433909Y-76375176D01*
X68433909Y-76375176D02*
X68516857Y-76415198D01*
X68516857Y-76415198D02*
X68593711Y-76460427D01*
X68593711Y-76460427D02*
X68664267Y-76511018D01*
X68664267Y-76511018D02*
X68728326Y-76567135D01*
X68728326Y-76567135D02*
X68848677Y-76673169D01*
X68848677Y-76673169D02*
X68970944Y-76774210D01*
X68970944Y-76774210D02*
X69095090Y-76870377D01*
X69095090Y-76870377D02*
X69221080Y-76961792D01*
X69221080Y-76961792D02*
X69348876Y-77048570D01*
X69348876Y-77048570D02*
X69478444Y-77130832D01*
X69478444Y-77130832D02*
X69609748Y-77208691D01*
X69609748Y-77208691D02*
X69742754Y-77282275D01*
X69742754Y-77282275D02*
X69877424Y-77351693D01*
X69877424Y-77351693D02*
X70013724Y-77417070D01*
X70013724Y-77417070D02*
X70291066Y-77536171D01*
X70291066Y-77536171D02*
X70574502Y-77640522D01*
X70574502Y-77640522D02*
X70863740Y-77731073D01*
X70863740Y-77731073D02*
X71158499Y-77808775D01*
X71158499Y-77808775D02*
X71458490Y-77874575D01*
X71458490Y-77874575D02*
X71763431Y-77929422D01*
X71763431Y-77929422D02*
X72073034Y-77974264D01*
X72073034Y-77974264D02*
X72387018Y-78010050D01*
X72387018Y-78010050D02*
X72705093Y-78037736D01*
X72705093Y-78037736D02*
X73026976Y-78058253D01*
X73026976Y-78058253D02*
X73352384Y-78072562D01*
X73352384Y-78072562D02*
X73681029Y-78081621D01*
X73681029Y-78081621D02*
X74012626Y-78086363D01*
X74012626Y-78086363D02*
X74683539Y-78086645D01*
X74683539Y-78086645D02*
X75362839Y-78081142D01*
X75362839Y-78081142D02*
X76048247Y-78077360D01*
X76048247Y-78077360D02*
X76737479Y-78082920D01*
X76737479Y-78082920D02*
X77082817Y-78091556D01*
X77082817Y-78091556D02*
X77428254Y-78105385D01*
X77428254Y-78105385D02*
X77773508Y-78125338D01*
X77773508Y-78125338D02*
X78118293Y-78152375D01*
X78118293Y-78152375D02*
X78462322Y-78187427D01*
X78462322Y-78187427D02*
X78805312Y-78231450D01*
X78805312Y-78231450D02*
X79181280Y-78351564D01*
X79181280Y-78351564D02*
X79546467Y-78451414D01*
X79546467Y-78451414D02*
X79901353Y-78531870D01*
X79901353Y-78531870D02*
X80246404Y-78593793D01*
X80246404Y-78593793D02*
X80582098Y-78638048D01*
X80582098Y-78638048D02*
X80908903Y-78665508D01*
X80908903Y-78665508D02*
X81227298Y-78677023D01*
X81227298Y-78677023D02*
X81537748Y-78673467D01*
X81537748Y-78673467D02*
X81840733Y-78655687D01*
X81840733Y-78655687D02*
X82136719Y-78624577D01*
X82136719Y-78624577D02*
X82426186Y-78580988D01*
X82426186Y-78580988D02*
X82709602Y-78525786D01*
X82709602Y-78525786D02*
X82987439Y-78459830D01*
X82987439Y-78459830D02*
X83260173Y-78383994D01*
X83260173Y-78383994D02*
X83528272Y-78299136D01*
X83528272Y-78299136D02*
X83792215Y-78206121D01*
X83792215Y-78206121D02*
X84052472Y-78105819D01*
X84052472Y-78105819D02*
X84309514Y-77999088D01*
X84309514Y-77999088D02*
X84563816Y-77886795D01*
X84563816Y-77886795D02*
X84815849Y-77769808D01*
X84815849Y-77769808D02*
X85315004Y-77525201D01*
X85315004Y-77525201D02*
X85810759Y-77272183D01*
X85810759Y-77272183D02*
X86306897Y-77017672D01*
X86306897Y-77017672D02*
X86807198Y-76768588D01*
X86807198Y-76768588D02*
X87060091Y-76648243D01*
X87060091Y-76648243D02*
X87315446Y-76531846D01*
X87315446Y-76531846D02*
X87573733Y-76420267D01*
X87573733Y-76420267D02*
X87835423Y-76314366D01*
X87835423Y-76314366D02*
X88175978Y-76235815D01*
X88175978Y-76235815D02*
X88504781Y-76170816D01*
X88504781Y-76170816D02*
X88824305Y-76118202D01*
X88824305Y-76118202D02*
X89137018Y-76076811D01*
X89137018Y-76076811D02*
X89445394Y-76045481D01*
X89445394Y-76045481D02*
X89751904Y-76023045D01*
X89751904Y-76023045D02*
X90059015Y-76008341D01*
X90059015Y-76008341D02*
X90369200Y-76000213D01*
X90369200Y-76000213D02*
X90684931Y-75997391D01*
X90684931Y-75997391D02*
X91008679Y-75998802D01*
X91008679Y-75998802D02*
X91690105Y-76009893D01*
X91690105Y-76009893D02*
X92433244Y-76023976D01*
X92433244Y-76023976D02*
X93257863Y-76031737D01*
X93257863Y-76031737D02*
X93842622Y-76035547D01*
X93842622Y-76035547D02*
X94352086Y-76044635D01*
X94352086Y-76044635D02*
X94795480Y-76058802D01*
X94795480Y-76058802D02*
X95182037Y-76077796D01*
X95182037Y-76077796D02*
X95520986Y-76101418D01*
X95520986Y-76101418D02*
X95821553Y-76129386D01*
X95821553Y-76129386D02*
X96092971Y-76161509D01*
X96092971Y-76161509D02*
X96344468Y-76197540D01*
X96344468Y-76197540D02*
X96585274Y-76237249D01*
X96585274Y-76237249D02*
X96824615Y-76280406D01*
X96824615Y-76280406D02*
X97335833Y-76376130D01*
X97335833Y-76376130D02*
X97951949Y-76482861D01*
X97951949Y-76482861D02*
X98322422Y-76539777D01*
X98322422Y-76539777D02*
X98746805Y-76598747D01*
X98746805Y-76598747D02*
X100279469Y-76800855D01*
X100279469Y-76800855D02*
X101359455Y-77365045D01*
X101359455Y-77365045D02*
X101646308Y-77506012D01*
X101646308Y-77506012D02*
X101788788Y-77569100D01*
X101788788Y-77569100D02*
X101931025Y-77627247D01*
X101931025Y-77627247D02*
X102073302Y-77680445D01*
X102073302Y-77680445D02*
X102215912Y-77728688D01*
X102215912Y-77728688D02*
X102359139Y-77771967D01*
X102359139Y-77771967D02*
X102503276Y-77810279D01*
X102503276Y-77810279D02*
X102648609Y-77843609D01*
X102648609Y-77843609D02*
X102795427Y-77871953D01*
X102795427Y-77871953D02*
X102944014Y-77895321D01*
X102944014Y-77895321D02*
X103094667Y-77913665D01*
X103094667Y-77913665D02*
X103247665Y-77927014D01*
X103247665Y-77927014D02*
X103403305Y-77935340D01*
X103403305Y-77935340D02*
X103561869Y-77938642D01*
X103561869Y-77938642D02*
X103723647Y-77936949D01*
X103723647Y-77936949D02*
X103888931Y-77930175D01*
X103888931Y-77930175D02*
X104058001Y-77918378D01*
X104058001Y-77918378D02*
X104231156Y-77901502D01*
X104231156Y-77901502D02*
X104408677Y-77879573D01*
X104408677Y-77879573D02*
X104590854Y-77852593D01*
X104590854Y-77852593D02*
X104777976Y-77820526D01*
X104777976Y-77820526D02*
X105168204Y-77741140D01*
X105168204Y-77741140D02*
X105581677Y-77641360D01*
X105581677Y-77641360D02*
X106020693Y-77521128D01*
X106020693Y-77521128D02*
X106487562Y-77380384D01*
X106487562Y-77380384D02*
X106984589Y-77219071D01*
X106984589Y-77219071D02*
X107455847Y-77057728D01*
X107455847Y-77057728D02*
X107926633Y-76889394D01*
X107926633Y-76889394D02*
X108395043Y-76714944D01*
X108395043Y-76714944D02*
X108859165Y-76535247D01*
X108859165Y-76535247D02*
X109317091Y-76351179D01*
X109317091Y-76351179D02*
X109766908Y-76163611D01*
X109766908Y-76163611D02*
X110206712Y-75973416D01*
X110206712Y-75973416D02*
X110634591Y-75781465D01*
X110634591Y-75781465D02*
X111048637Y-75588634D01*
X111048637Y-75588634D02*
X111446937Y-75395792D01*
X111446937Y-75395792D02*
X111827587Y-75203813D01*
X111827587Y-75203813D02*
X112188673Y-75013573D01*
X112188673Y-75013573D02*
X112528291Y-74825937D01*
X112528291Y-74825937D02*
X112844527Y-74641784D01*
X112844527Y-74641784D02*
X113135475Y-74461986D01*
X113135475Y-74461986D02*
X113399223Y-74287412D01*
X113399223Y-74287412D02*
X113692929Y-74077168D01*
X113692929Y-74077168D02*
X114003534Y-73839511D01*
X114003534Y-73839511D02*
X114328287Y-73577166D01*
X114328287Y-73577166D02*
X114664434Y-73292858D01*
X114664434Y-73292858D02*
X115009211Y-72989314D01*
X115009211Y-72989314D02*
X115359869Y-72669257D01*
X115359869Y-72669257D02*
X115713646Y-72335417D01*
X115713646Y-72335417D02*
X116067792Y-71990513D01*
X116067792Y-71990513D02*
X116419548Y-71637278D01*
X116419548Y-71637278D02*
X116766159Y-71278435D01*
X116766159Y-71278435D02*
X117104868Y-70916705D01*
X117104868Y-70916705D02*
X117432921Y-70554823D01*
X117432921Y-70554823D02*
X117747556Y-70195506D01*
X117747556Y-70195506D02*
X118046026Y-69841484D01*
X118046026Y-69841484D02*
X118325570Y-69495482D01*
X118325570Y-69495482D02*
X118583431Y-69160225D01*
X118583431Y-69160225D02*
X118724968Y-68966767D01*
X118724968Y-68966767D02*
X118869993Y-68760347D01*
X118869993Y-68760347D02*
X119168624Y-68312404D01*
X119168624Y-68312404D02*
X119475569Y-67823968D01*
X119475569Y-67823968D02*
X119787072Y-67302607D01*
X119787072Y-67302607D02*
X120099381Y-66755898D01*
X120099381Y-66755898D02*
X120408739Y-66191405D01*
X120408739Y-66191405D02*
X120711392Y-65616702D01*
X120711392Y-65616702D02*
X121003585Y-65039363D01*
X121003585Y-65039363D02*
X121281565Y-64466954D01*
X121281565Y-64466954D02*
X121541579Y-63907048D01*
X121541579Y-63907048D02*
X121779868Y-63367216D01*
X121779868Y-63367216D02*
X121992680Y-62855028D01*
X121992680Y-62855028D02*
X122176260Y-62378056D01*
X122176260Y-62378056D02*
X122255917Y-62155143D01*
X122255917Y-62155143D02*
X122326857Y-61943871D01*
X122326857Y-61943871D02*
X122388610Y-61745187D01*
X122388610Y-61745187D02*
X122440711Y-61560040D01*
X122440711Y-61560040D02*
X122482686Y-61389378D01*
X122482686Y-61389378D02*
X122514069Y-61234141D01*
X122514069Y-61234141D02*
X122606373Y-61039038D01*
X122606373Y-61039038D02*
X122694728Y-60840219D01*
X122694728Y-60840219D02*
X122779160Y-60637792D01*
X122779160Y-60637792D02*
X122859690Y-60431866D01*
X122859690Y-60431866D02*
X122936344Y-60222547D01*
X122936344Y-60222547D02*
X123009143Y-60009946D01*
X123009143Y-60009946D02*
X123078115Y-59794168D01*
X123078115Y-59794168D02*
X123143281Y-59575321D01*
X123143281Y-59575321D02*
X123204667Y-59353514D01*
X123204667Y-59353514D02*
X123262294Y-59128854D01*
X123262294Y-59128854D02*
X123366372Y-58671411D01*
X123366372Y-58671411D02*
X123455703Y-58203854D01*
X123455703Y-58203854D02*
X123530484Y-57727045D01*
X123530484Y-57727045D02*
X123590902Y-57241852D01*
X123590902Y-57241852D02*
X123637150Y-56749134D01*
X123637150Y-56749134D02*
X123669416Y-56249753D01*
X123669416Y-56249753D02*
X123687902Y-55744578D01*
X123687902Y-55744578D02*
X123692784Y-55234470D01*
X123692784Y-55234470D02*
X123684261Y-54720292D01*
X123684261Y-54720292D02*
X123662502Y-54202908D01*
X123662502Y-54202908D02*
X123627729Y-53683179D01*
X123627729Y-53683179D02*
X123580118Y-53161974D01*
X123580118Y-53161974D02*
X123519864Y-52640151D01*
X123519864Y-52640151D02*
X123447158Y-52118576D01*
X123447158Y-52118576D02*
X123362186Y-51598113D01*
X123362186Y-51598113D02*
X123265141Y-51079623D01*
X123265141Y-51079623D02*
X123156218Y-50563972D01*
X123156218Y-50563972D02*
X123035601Y-50052021D01*
X123035601Y-50052021D02*
X122903488Y-49544633D01*
X122903488Y-49544633D02*
X122760062Y-49042676D01*
X122760062Y-49042676D02*
X122605520Y-48547012D01*
X122605520Y-48547012D02*
X122440051Y-48058502D01*
X122440051Y-48058502D02*
X122263842Y-47578010D01*
X122263842Y-47578010D02*
X122077093Y-47106400D01*
X122077093Y-47106400D02*
X121879986Y-46644535D01*
X121879986Y-46644535D02*
X121672714Y-46193281D01*
X121672714Y-46193281D02*
X121455470Y-45753497D01*
X121455470Y-45753497D02*
X121242226Y-45357754D01*
X121242226Y-45357754D02*
X121028316Y-44975651D01*
X121028316Y-44975651D02*
X120812424Y-44605406D01*
X120812424Y-44605406D02*
X120593231Y-44245254D01*
X120593231Y-44245254D02*
X120369414Y-43893413D01*
X120369414Y-43893413D02*
X120139657Y-43548114D01*
X120139657Y-43548114D02*
X119902639Y-43207577D01*
X119902639Y-43207577D02*
X119657040Y-42870033D01*
X119657040Y-42870033D02*
X119401545Y-42533703D01*
X119401545Y-42533703D02*
X119134825Y-42196818D01*
X119134825Y-42196818D02*
X118855572Y-41857598D01*
X118855572Y-41857598D02*
X118562456Y-41514272D01*
X118562456Y-41514272D02*
X118254165Y-41165064D01*
X118254165Y-41165064D02*
X117929378Y-40808202D01*
X117929378Y-40808202D02*
X117586771Y-40441908D01*
X117586771Y-40441908D02*
X117225030Y-40064409D01*
X117225030Y-40064409D02*
X116938129Y-39771316D01*
X116938129Y-39771316D02*
X116651256Y-39484281D01*
X116651256Y-39484281D02*
X116364473Y-39203326D01*
X116364473Y-39203326D02*
X116077836Y-38928471D01*
X116077836Y-38928471D02*
X115791409Y-38659738D01*
X115791409Y-38659738D02*
X115505244Y-38397147D01*
X115505244Y-38397147D02*
X115219407Y-38140720D01*
X115219407Y-38140720D02*
X114933950Y-37890477D01*
X114933950Y-37890477D02*
X114648934Y-37646440D01*
X114648934Y-37646440D02*
X114364420Y-37408630D01*
X114364420Y-37408630D02*
X114080465Y-37177067D01*
X114080465Y-37177067D02*
X113797131Y-36951772D01*
X113797131Y-36951772D02*
X113514471Y-36732768D01*
X113514471Y-36732768D02*
X113232546Y-36520074D01*
X113232546Y-36520074D02*
X112951418Y-36313712D01*
X112951418Y-36313712D02*
X112671141Y-36113702D01*
X112671141Y-36113702D02*
X112391777Y-35920067D01*
X112391777Y-35920067D02*
X112113382Y-35732826D01*
X112113382Y-35732826D02*
X111836020Y-35552001D01*
X111836020Y-35552001D02*
X111559744Y-35377612D01*
X111559744Y-35377612D02*
X111284614Y-35209681D01*
X111284614Y-35209681D02*
X111010692Y-35048230D01*
X111010692Y-35048230D02*
X110738034Y-34893278D01*
X110738034Y-34893278D02*
X110466700Y-34744847D01*
X110466700Y-34744847D02*
X110196749Y-34602958D01*
X110196749Y-34602958D02*
X109928237Y-34467631D01*
X109928237Y-34467631D02*
X109661224Y-34338889D01*
X109661224Y-34338889D02*
X109395771Y-34216751D01*
X109395771Y-34216751D02*
X109131936Y-34101240D01*
X109131936Y-34101240D02*
X108869777Y-33992376D01*
X108869777Y-33992376D02*
X108609354Y-33890179D01*
X108609354Y-33890179D02*
X108350722Y-33794672D01*
X108350722Y-33794672D02*
X108093945Y-33705875D01*
X108093945Y-33705875D02*
X107839076Y-33623808D01*
X107839076Y-33623808D02*
X107586180Y-33548494D01*
X107586180Y-33548494D02*
X107335312Y-33479953D01*
X107335312Y-33479953D02*
X107086531Y-33418206D01*
X107086531Y-33418206D02*
X106839897Y-33363274D01*
X106839897Y-33363274D02*
X106595470Y-33315179D01*
X106595470Y-33315179D02*
X106353303Y-33273940D01*
X106353303Y-33273940D02*
X106113462Y-33239580D01*
X106113462Y-33239580D02*
X105876001Y-33212119D01*
X105876001Y-33212119D02*
X105640980Y-33191579D01*
X105640980Y-33191579D02*
X105408457Y-33177979D01*
X105408457Y-33177979D02*
X105178494Y-33171341D01*
X105178494Y-33171341D02*
X104951147Y-33171680D01*
X104951147Y-33171680D02*
X104726476Y-33179029D01*
X104726476Y-33179029D02*
X104504539Y-33193405D01*
X104504539Y-33193405D02*
X104285393Y-33214826D01*
X104285393Y-33214826D02*
X104069101Y-33243315D01*
X104069101Y-33243315D02*
X103855719Y-33278893D01*
X103855719Y-33278893D02*
X103645308Y-33321580D01*
X103645308Y-33321580D02*
X103437923Y-33371397D01*
X103437923Y-33371397D02*
X103233625Y-33428367D01*
X103233625Y-33428367D02*
X103032471Y-33492508D01*
X103032471Y-33492508D02*
X102834523Y-33563843D01*
X102834523Y-33563843D02*
X102639840Y-33642392D01*
X102639840Y-33642392D02*
X102448477Y-33728177D01*
X102448477Y-33728177D02*
X102260494Y-33821219D01*
X102260494Y-33821219D02*
X102075952Y-33921538D01*
X102075952Y-33921538D02*
X101894909Y-34029155D01*
X101894909Y-34029155D02*
X101717423Y-34144093D01*
X101717423Y-34144093D02*
X101543551Y-34266370D01*
X101543551Y-34266370D02*
X101373354Y-34396010D01*
X101373354Y-34396010D02*
X101207357Y-34536270D01*
X101207357Y-34536270D02*
X101035289Y-34697732D01*
X101035289Y-34697732D02*
X100862151Y-34874674D01*
X100862151Y-34874674D02*
X100692933Y-35061373D01*
X100692933Y-35061373D02*
X100532640Y-35252106D01*
X100532640Y-35252106D02*
X100386260Y-35441150D01*
X100386260Y-35441150D02*
X100258794Y-35622784D01*
X100258794Y-35622784D02*
X100155235Y-35791283D01*
X100155235Y-35791283D02*
X99719168Y-36567159D01*
X99719168Y-36567159D02*
X96665151Y-37099133D01*
X96665151Y-37099133D02*
X96500983Y-37124758D01*
X96500983Y-37124758D02*
X96341948Y-37143653D01*
X96341948Y-37143653D02*
X96187789Y-37156014D01*
X96187789Y-37156014D02*
X96038251Y-37162040D01*
X96038251Y-37162040D02*
X95893082Y-37161930D01*
X95893082Y-37161930D02*
X95752019Y-37155882D01*
X95752019Y-37155882D02*
X95614813Y-37144097D01*
X95614813Y-37144097D02*
X95481207Y-37126771D01*
X95481207Y-37126771D02*
X95350947Y-37104103D01*
X95350947Y-37104103D02*
X95223772Y-37076293D01*
X95223772Y-37076293D02*
X95099433Y-37043538D01*
X95099433Y-37043538D02*
X94977671Y-37006036D01*
X94977671Y-37006036D02*
X94858235Y-36963987D01*
X94858235Y-36963987D02*
X94740862Y-36917589D01*
X94740862Y-36917589D02*
X94625303Y-36867041D01*
X94625303Y-36867041D02*
X94511299Y-36812541D01*
X94511299Y-36812541D02*
X94286941Y-36692479D01*
X94286941Y-36692479D02*
X94065741Y-36558992D01*
X94065741Y-36558992D02*
X93845658Y-36413670D01*
X93845658Y-36413670D02*
X93624650Y-36258098D01*
X93624650Y-36258098D02*
X93171684Y-35922566D01*
X93171684Y-35922566D02*
X92690492Y-35565104D01*
X92690492Y-35565104D02*
X92434203Y-35382120D01*
X92434203Y-35382120D02*
X92164726Y-35198418D01*
X92164726Y-35198418D02*
X91880023Y-35015588D01*
X91880023Y-35015588D02*
X91578045Y-34835217D01*
X91578045Y-34835217D02*
X91256750Y-34658894D01*
X91256750Y-34658894D02*
X90914098Y-34488207D01*
X90914098Y-34488207D02*
X90734122Y-34405473D01*
X90734122Y-34405473D02*
X90548042Y-34324745D01*
X90548042Y-34324745D02*
X90355597Y-34246220D01*
X90355597Y-34246220D02*
X90156537Y-34170096D01*
X90156537Y-34170096D02*
X89950605Y-34096573D01*
X89950605Y-34096573D02*
X89737545Y-34025849D01*
X89737545Y-34025849D02*
X89517104Y-33958122D01*
X89517104Y-33958122D02*
X89289020Y-33893592D01*
X89289020Y-33893592D02*
X89053046Y-33832456D01*
X89053046Y-33832456D02*
X88808921Y-33774913D01*
X88808921Y-33774913D02*
X88556388Y-33721162D01*
X88556388Y-33721162D02*
X88295197Y-33671402D01*
X88295197Y-33671402D02*
X88025091Y-33625830D01*
X88025091Y-33625830D02*
X87745815Y-33584645D01*
X87745815Y-33584645D02*
X87457110Y-33548047D01*
X87457110Y-33548047D02*
X87158725Y-33516233D01*
X87158725Y-33516233D02*
X86850400Y-33489402D01*
X86850400Y-33489402D02*
X86531884Y-33467753D01*
X86531884Y-33467753D02*
X86202920Y-33451483D01*
X86202920Y-33451483D02*
X85863252Y-33440792D01*
X85863252Y-33440792D02*
X84781934Y-33421068D01*
X84781934Y-33421068D02*
X83697371Y-33410761D01*
X83697371Y-33410761D02*
X82611355Y-33409660D01*
X82611355Y-33409660D02*
X81525663Y-33417588D01*
X81525663Y-33417588D02*
X80442091Y-33434335D01*
X80442091Y-33434335D02*
X79362422Y-33459701D01*
X79362422Y-33459701D02*
X78288442Y-33493487D01*
X78288442Y-33493487D02*
X77221941Y-33535494D01*
X77221941Y-33535494D02*
X76164706Y-33585522D01*
X76164706Y-33585522D02*
X75118519Y-33643372D01*
X75118519Y-33643372D02*
X74085174Y-33708844D01*
X74085174Y-33708844D02*
X73066451Y-33781740D01*
X73066451Y-33781740D02*
X72064141Y-33861860D01*
X72064141Y-33861860D02*
X71080033Y-33949004D01*
X71080033Y-33949004D02*
X70115908Y-34042973D01*
X70115908Y-34042973D02*
X69173559Y-34143568D01*
X69173559Y-34143568D02*
X68254768Y-34250590D01*
X68254768Y-34250590D02*
X67361326Y-34363839D01*
X67361326Y-34363839D02*
X66495017Y-34483116D01*
X66495017Y-34483116D02*
X65657630Y-34608222D01*
X65657630Y-34608222D02*
X64850948Y-34738956D01*
X64850948Y-34738956D02*
X64076765Y-34875121D01*
X64076765Y-34875121D02*
X63336863Y-35016516D01*
X63336863Y-35016516D02*
X62633029Y-35162942D01*
X62633029Y-35162942D02*
X61967049Y-35314200D01*
X61967049Y-35314200D02*
X61340717Y-35470090D01*
X61340717Y-35470090D02*
X60755811Y-35630413D01*
X60755811Y-35630413D02*
X60214122Y-35794970D01*
X60214122Y-35794970D02*
X59960043Y-35878774D01*
X59960043Y-35878774D02*
X59717439Y-35963562D01*
X59717439Y-35963562D02*
X59486533Y-36049309D01*
X59486533Y-36049309D02*
X59267546Y-36135989D01*
X59267546Y-36135989D02*
X59060705Y-36223578D01*
X59060705Y-36223578D02*
X58866231Y-36312051D01*
X58866231Y-36312051D02*
X58684348Y-36401383D01*
X58684348Y-36401383D02*
X58515280Y-36491550D01*
X58515280Y-36491550D02*
X57676038Y-36959085D01*
X57676038Y-36959085D02*
X56926232Y-36191215D01*
X56926232Y-36191215D02*
X56764459Y-36032469D01*
X56764459Y-36032469D02*
X56592729Y-35877251D01*
X56592729Y-35877251D02*
X56411315Y-35725651D01*
X56411315Y-35725651D02*
X56220491Y-35577759D01*
X56220491Y-35577759D02*
X56020530Y-35433664D01*
X56020530Y-35433664D02*
X55811705Y-35293456D01*
X55811705Y-35293456D02*
X55594290Y-35157226D01*
X55594290Y-35157226D02*
X55368557Y-35025064D01*
X55368557Y-35025064D02*
X55134781Y-34897059D01*
X55134781Y-34897059D02*
X54893234Y-34773302D01*
X54893234Y-34773302D02*
X54644191Y-34653882D01*
X54644191Y-34653882D02*
X54387923Y-34538889D01*
X54387923Y-34538889D02*
X54124704Y-34428414D01*
X54124704Y-34428414D02*
X53854809Y-34322546D01*
X53854809Y-34322546D02*
X53578509Y-34221375D01*
X53578509Y-34221375D02*
X53296079Y-34124992D01*
X53296079Y-34124992D02*
X53007791Y-34033486D01*
X53007791Y-34033486D02*
X52713919Y-33946947D01*
X52713919Y-33946947D02*
X52414736Y-33865466D01*
X52414736Y-33865466D02*
X52110516Y-33789131D01*
X52110516Y-33789131D02*
X51801532Y-33718034D01*
X51801532Y-33718034D02*
X51488057Y-33652264D01*
X51488057Y-33652264D02*
X51170364Y-33591911D01*
X51170364Y-33591911D02*
X50848726Y-33537065D01*
X50848726Y-33537065D02*
X50523418Y-33487816D01*
X50523418Y-33487816D02*
X50194712Y-33444255D01*
X50194712Y-33444255D02*
X49862882Y-33406470D01*
X49862882Y-33406470D02*
X49528201Y-33374552D01*
X49528201Y-33374552D02*
X49190942Y-33348591D01*
X49190942Y-33348591D02*
X48851378Y-33328677D01*
X48851378Y-33328677D02*
X48509783Y-33314899D01*
X48509783Y-33314899D02*
X48166430Y-33307350D01*
X48166430Y-33307350D02*
X47823522Y-33305572D01*
X47823522Y-33305572D02*
X47487713Y-33309108D01*
X47487713Y-33309108D02*
X47158844Y-33318029D01*
X47158844Y-33318029D02*
X46836757Y-33332388D01*
X46836757Y-33332388D02*
X46521294Y-33352240D01*
X46521294Y-33352240D02*
X46212297Y-33377640D01*
X46212297Y-33377640D02*
X45909606Y-33408644D01*
X45909606Y-33408644D02*
X45613063Y-33445306D01*
X45613063Y-33445306D02*
X45322510Y-33487681D01*
X45322510Y-33487681D02*
X45037789Y-33535825D01*
X45037789Y-33535825D02*
X44758741Y-33589792D01*
X44758741Y-33589792D02*
X44485207Y-33649637D01*
X44485207Y-33649637D02*
X44217030Y-33715415D01*
X44217030Y-33715415D02*
X43954050Y-33787181D01*
X43954050Y-33787181D02*
X43696109Y-33864991D01*
X43696109Y-33864991D02*
X43443049Y-33948898D01*
X43443049Y-33948898D02*
X43194711Y-34038959D01*
X43194711Y-34038959D02*
X42950937Y-34135227D01*
X42950937Y-34135227D02*
X42711569Y-34237758D01*
X42711569Y-34237758D02*
X42476447Y-34346608D01*
X42476447Y-34346608D02*
X42245414Y-34461830D01*
X42245414Y-34461830D02*
X42018311Y-34583480D01*
X42018311Y-34583480D02*
X41794980Y-34711613D01*
X41794980Y-34711613D02*
X41575262Y-34846284D01*
X41575262Y-34846284D02*
X41358998Y-34987548D01*
X41358998Y-34987548D02*
X41146031Y-35135460D01*
X41146031Y-35135460D02*
X40936202Y-35290074D01*
X40936202Y-35290074D02*
X40729352Y-35451446D01*
X40729352Y-35451446D02*
X40525323Y-35619631D01*
X40525323Y-35619631D02*
X40323957Y-35794684D01*
X40323957Y-35794684D02*
X40125094Y-35976659D01*
X40125094Y-35976659D02*
X39928577Y-36165612D01*
X39928577Y-36165612D02*
X39742207Y-36353802D01*
X39742207Y-36353802D02*
X39564156Y-36542992D01*
X39564156Y-36542992D02*
X39394452Y-36733080D01*
X39394452Y-36733080D02*
X39233124Y-36923966D01*
X39233124Y-36923966D02*
X39080200Y-37115549D01*
X39080200Y-37115549D02*
X38935709Y-37307730D01*
X38935709Y-37307730D02*
X38799679Y-37500406D01*
X38799679Y-37500406D02*
X38672138Y-37693478D01*
X38672138Y-37693478D02*
X38553115Y-37886846D01*
X38553115Y-37886846D02*
X38442637Y-38080407D01*
X38442637Y-38080407D02*
X38340734Y-38274062D01*
X38340734Y-38274062D02*
X38247434Y-38467711D01*
X38247434Y-38467711D02*
X38162765Y-38661252D01*
X38162765Y-38661252D02*
X38086755Y-38854585D01*
X38086755Y-38854585D02*
X38019433Y-39047608D01*
X38019433Y-39047608D02*
X37960827Y-39240223D01*
X37960827Y-39240223D02*
X37910966Y-39432328D01*
X37910966Y-39432328D02*
X37869878Y-39623822D01*
X37869878Y-39623822D02*
X37837592Y-39814605D01*
X37837592Y-39814605D02*
X37814133Y-40004576D01*
X37814133Y-40004576D02*
X37799534Y-40193635D01*
X37799534Y-40193635D02*
X37793822Y-40381680D01*
X37793822Y-40381680D02*
X37797025Y-40568613D01*
X37797025Y-40568613D02*
X37809169Y-40754332D01*
X37809169Y-40754332D02*
X37830285Y-40938733D01*
X37830285Y-40938733D02*
X37860402Y-41121720D01*
X37860402Y-41121720D02*
X37899547Y-41303192D01*
X37899547Y-41303192D02*
X37947748Y-41483047D01*
X37947748Y-41483047D02*
X38005035Y-41661182D01*
X38005035Y-41661182D02*
X38071435Y-41837504D01*
X38071435Y-41837504D02*
X38146977Y-42011903D01*
X38146977Y-42011903D02*
X38231688Y-42184284D01*
X38231688Y-42184284D02*
X38368574Y-42452567D01*
X38368574Y-42452567D02*
X38422890Y-42566963D01*
X38422890Y-42566963D02*
X38467977Y-42671315D01*
X38467977Y-42671315D02*
X38503973Y-42767962D01*
X38503973Y-42767962D02*
X38531022Y-42859250D01*
X38531022Y-42859250D02*
X38549262Y-42947512D01*
X38549262Y-42947512D02*
X38558832Y-43035097D01*
X38558832Y-43035097D02*
X38559876Y-43124341D01*
X38559876Y-43124341D02*
X38552533Y-43217584D01*
X38552533Y-43217584D02*
X38536943Y-43317169D01*
X38536943Y-43317169D02*
X38513247Y-43425438D01*
X38513247Y-43425438D02*
X38442101Y-43677381D01*
X38442101Y-43677381D02*
X38340217Y-43992140D01*
X38340217Y-43992140D02*
X38291904Y-44152538D01*
X38291904Y-44152538D02*
X38248266Y-44331806D01*
X38248266Y-44331806D02*
X38209035Y-44536028D01*
X38209035Y-44536028D02*
X38173945Y-44771277D01*
X38173945Y-44771277D02*
X38142728Y-45043632D01*
X38142728Y-45043632D02*
X38115119Y-45359171D01*
X38115119Y-45359171D02*
X38090850Y-45723974D01*
X38090850Y-45723974D02*
X38069656Y-46144116D01*
X38069656Y-46144116D02*
X38051266Y-46625677D01*
X38051266Y-46625677D02*
X38035416Y-47174735D01*
X38035416Y-47174735D02*
X38010270Y-48499655D01*
X38010270Y-48499655D02*
X37992078Y-50167495D01*
X37992078Y-50167495D02*
X37978709Y-52226882D01*
X37978709Y-52226882D02*
X37969390Y-53546508D01*
X37969390Y-53546508D02*
X37955257Y-54795733D01*
X37955257Y-54795733D02*
X37936150Y-55977321D01*
X37936150Y-55977321D02*
X37911913Y-57094032D01*
X37911913Y-57094032D02*
X37882387Y-58148626D01*
X37882387Y-58148626D02*
X37847414Y-59143860D01*
X37847414Y-59143860D02*
X37806835Y-60082497D01*
X37806835Y-60082497D02*
X37760491Y-60967298D01*
X37760491Y-60967298D02*
X37708225Y-61801021D01*
X37708225Y-61801021D02*
X37649877Y-62586429D01*
X37649877Y-62586429D02*
X37585290Y-63326280D01*
X37585290Y-63326280D02*
X37514305Y-64023332D01*
X37514305Y-64023332D02*
X37436763Y-64680351D01*
X37436763Y-64680351D02*
X37352507Y-65300091D01*
X37352507Y-65300091D02*
X37261378Y-65885319D01*
X37261378Y-65885319D02*
X37163217Y-66438787D01*
X37163217Y-66438787D02*
X37098566Y-66818540D01*
X37098566Y-66818540D02*
X37042743Y-67223932D01*
X37042743Y-67223932D02*
X36995739Y-67651025D01*
X36995739Y-67651025D02*
X36957542Y-68095883D01*
X36957542Y-68095883D02*
X36928141Y-68554576D01*
X36928141Y-68554576D02*
X36907525Y-69023164D01*
X36907525Y-69023164D02*
X36895686Y-69497718D01*
X36895686Y-69497718D02*
X36892609Y-69974298D01*
X36892609Y-69974298D02*
X36898288Y-70448970D01*
X36898288Y-70448970D02*
X36912709Y-70917800D01*
X36912709Y-70917800D02*
X36935863Y-71376857D01*
X36935863Y-71376857D02*
X36967736Y-71822201D01*
X36967736Y-71822201D02*
X37008320Y-72249898D01*
X37008320Y-72249898D02*
X37057604Y-72656013D01*
X37057604Y-72656013D02*
X37115576Y-73036615D01*
X37115576Y-73036615D02*
X37182226Y-73387764D01*
X37182226Y-73387764D02*
X37257795Y-73714741D01*
X37257795Y-73714741D02*
X37337848Y-74004321D01*
X37337848Y-74004321D02*
X37422488Y-74258450D01*
X37422488Y-74258450D02*
X37511819Y-74479066D01*
X37511819Y-74479066D02*
X37558275Y-74577415D01*
X37558275Y-74577415D02*
X37605942Y-74668116D01*
X37605942Y-74668116D02*
X37654833Y-74751408D01*
X37654833Y-74751408D02*
X37704961Y-74827535D01*
X37704961Y-74827535D02*
X37756338Y-74896741D01*
X37756338Y-74896741D02*
X37808978Y-74959270D01*
X37808978Y-74959270D02*
X37862892Y-75015362D01*
X37862892Y-75015362D02*
X37918095Y-75065259D01*
X37918095Y-75065259D02*
X37974598Y-75109206D01*
X37974598Y-75109206D02*
X38032415Y-75147445D01*
X38032415Y-75147445D02*
X38091559Y-75180216D01*
X38091559Y-75180216D02*
X38152042Y-75207761D01*
X38152042Y-75207761D02*
X38213877Y-75230339D01*
X38213877Y-75230339D02*
X38277077Y-75248175D01*
X38277077Y-75248175D02*
X38341655Y-75261525D01*
X38341655Y-75261525D02*
X38407623Y-75270612D01*
X38407623Y-75270612D02*
X38543783Y-75276990D01*
X38543783Y-75276990D02*
X38685660Y-75269286D01*
X38685660Y-75269286D02*
X38833355Y-75249417D01*
X38833355Y-75249417D02*
X38986972Y-75219344D01*
X38986972Y-75219344D02*
X39146613Y-75181001D01*
X39146613Y-75181001D02*
X39312382Y-75136331D01*
X39312382Y-75136331D02*
X39662710Y-75035769D01*
X39662710Y-75035769D02*
X40038778Y-74933193D01*
X40038778Y-74933193D02*
X40236720Y-74886000D01*
X40236720Y-74886000D02*
X40441406Y-74844129D01*
X40441406Y-74844129D02*
X40652937Y-74809523D01*
X40652937Y-74809523D02*
X40871416Y-74784123D01*
X40871416Y-74784123D02*
X41096945Y-74769871D01*
X41096945Y-74769871D02*
X41329628Y-74768742D01*
X41329628Y-74768742D02*
X41569566Y-74782599D01*
X41569566Y-74782599D02*
X41692289Y-74795779D01*
X41692289Y-74795779D02*
X41816864Y-74813446D01*
X41816864Y-74813446D02*
X41943304Y-74835826D01*
X41943304Y-74835826D02*
X42071622Y-74863174D01*
X42071622Y-74863174D02*
X42201831Y-74895742D01*
X42201831Y-74895742D02*
X42333944Y-74933766D01*
X42333944Y-74933766D02*
X42481775Y-74973040D01*
X42481775Y-74973040D02*
X42661312Y-75010259D01*
X42661312Y-75010259D02*
X42870481Y-75045379D01*
X42870481Y-75045379D02*
X43107208Y-75078360D01*
X43107208Y-75078360D02*
X43369419Y-75109156D01*
X43369419Y-75109156D02*
X43655040Y-75137719D01*
X43655040Y-75137719D02*
X44288217Y-75187989D01*
X44288217Y-75187989D02*
X44990145Y-75228818D01*
X44990145Y-75228818D02*
X45744236Y-75259859D01*
X45744236Y-75259859D02*
X46533894Y-75280772D01*
X46533894Y-75280772D02*
X47342530Y-75291186D01*
X47342530Y-75291186D02*
X48153552Y-75290904D01*
X48153552Y-75290904D02*
X48950367Y-75279305D01*
X48950367Y-75279305D02*
X49716383Y-75256162D01*
X49716383Y-75256162D02*
X50435009Y-75221139D01*
X50435009Y-75221139D02*
X50771366Y-75199069D01*
X50771366Y-75199069D02*
X51089654Y-75173895D01*
X51089654Y-75173895D02*
X51387798Y-75145571D01*
X51387798Y-75145571D02*
X51663724Y-75114055D01*
X51663724Y-75114055D02*
X51915359Y-75079311D01*
X51915359Y-75079311D02*
X52140629Y-75041287D01*
X52140629Y-75041287D02*
X52337459Y-74999944D01*
X52337459Y-74999944D02*
X52503776Y-74955237D01*
X52503776Y-74955237D02*
X52503776Y-74955240D01*
X52503776Y-74955240D02*
X52503771Y-74955291D01*
M02*
