G04 #@! TF.FileFunction,Copper,L1,Top,Signal*
%FSLAX46Y46*%
G04 Gerber Fmt 4.6, Leading zero omitted, Abs format (unit mm)*
G04 Created by KiCad (PCBNEW 4.0.7-e0-6372~58~ubuntu16.04.1) date Tue Jul 24 02:48:08 2018*
%MOMM*%
%LPD*%
G01*
G04 APERTURE LIST*
%ADD10C,0.100000*%
%ADD11R,1.600000X1.600000*%
%ADD12O,1.600000X1.600000*%
%ADD13R,1.800000X1.800000*%
%ADD14C,1.800000*%
%ADD15C,2.499360*%
%ADD16C,6.000000*%
%ADD17C,1.879600*%
%ADD18C,2.181860*%
%ADD19C,1.600000*%
%ADD20R,3.010000X1.510000*%
%ADD21O,3.010000X1.510000*%
%ADD22R,0.400000X1.350000*%
%ADD23O,1.250000X0.950000*%
%ADD24O,1.000000X1.550000*%
%ADD25C,1.700000*%
%ADD26O,1.700000X1.700000*%
%ADD27R,1.998980X1.998980*%
%ADD28R,3.000000X2.200000*%
%ADD29C,0.400000*%
%ADD30C,0.300000*%
%ADD31C,0.254000*%
G04 APERTURE END LIST*
D10*
D11*
X62090000Y-54660000D03*
D12*
X69710000Y-47040000D03*
X64630000Y-54660000D03*
X67170000Y-47040000D03*
X67170000Y-54660000D03*
X64630000Y-47040000D03*
X69710000Y-54660000D03*
X62090000Y-47040000D03*
D13*
X76610000Y-41260000D03*
D14*
X76610000Y-38720000D03*
D15*
X87690000Y-49080000D03*
X87690000Y-38920000D03*
D16*
X105030000Y-39680000D03*
X116150000Y-60400000D03*
X116740000Y-49920000D03*
X112440000Y-42800000D03*
D17*
X65029400Y-72031200D03*
X65029400Y-65528800D03*
X69550600Y-72031200D03*
X69550600Y-65528800D03*
D18*
X41702220Y-65781280D03*
X44300640Y-65781280D03*
X46800000Y-70780000D03*
X51897780Y-65781280D03*
X49299360Y-65781280D03*
D19*
X49230000Y-58890000D03*
X44230000Y-58890000D03*
D20*
X43180000Y-53300000D03*
D21*
X43180000Y-50760000D03*
D16*
X105180000Y-71030000D03*
X112740000Y-67690000D03*
D22*
X92090000Y-70990000D03*
X92740000Y-70990000D03*
X93390000Y-70990000D03*
X94040000Y-70990000D03*
X94690000Y-70990000D03*
D23*
X90890000Y-70990000D03*
X95890000Y-70990000D03*
D24*
X89890000Y-73690000D03*
X96890000Y-73690000D03*
D25*
X88340000Y-63830000D03*
D26*
X90880000Y-63830000D03*
X93420000Y-63830000D03*
X95960000Y-63830000D03*
X98500000Y-63830000D03*
D27*
X56180000Y-62520000D03*
X56180000Y-72522520D03*
X60500000Y-62550000D03*
X60500000Y-72552520D03*
X77240000Y-56111260D03*
X77240000Y-46108740D03*
D19*
X50710000Y-49700000D03*
X50710000Y-54700000D03*
D27*
X58170000Y-47281740D03*
X58170000Y-57284260D03*
D16*
X69870000Y-40080000D03*
X62510000Y-40170000D03*
D28*
X41710000Y-41860000D03*
X54410000Y-41860000D03*
D29*
X71450000Y-51710000D02*
X71450000Y-54580000D01*
X85849249Y-61339249D02*
X87490001Y-62980001D01*
X71450000Y-54580000D02*
X78209249Y-61339249D01*
X78209249Y-61339249D02*
X85849249Y-61339249D01*
X87490001Y-62980001D02*
X88340000Y-63830000D01*
X47950000Y-51710000D02*
X71450000Y-51710000D01*
X47000000Y-50760000D02*
X47950000Y-51710000D01*
X43180000Y-50760000D02*
X47000000Y-50760000D01*
X41710000Y-41860000D02*
X43180000Y-43330000D01*
X43180000Y-43330000D02*
X43180000Y-50760000D01*
X83530000Y-72841260D02*
X84929490Y-72841260D01*
X84929490Y-72841260D02*
X88340000Y-69430750D01*
X88340000Y-69430750D02*
X88340000Y-65032081D01*
X88340000Y-65032081D02*
X88340000Y-63830000D01*
X88340000Y-65032081D02*
X92039999Y-68732080D01*
X92039999Y-68732080D02*
X92039999Y-69914999D01*
X92039999Y-69914999D02*
X92039999Y-70990000D01*
X95370000Y-67870000D02*
X94740001Y-68499999D01*
X94740001Y-68499999D02*
X94740001Y-69914999D01*
X94740001Y-69914999D02*
X94740001Y-70990000D01*
X96010000Y-67870000D02*
X95370000Y-67870000D01*
X98460000Y-65420000D02*
X96010000Y-67870000D01*
X98460000Y-65072081D02*
X98460000Y-65420000D01*
X98500000Y-63830000D02*
X98500000Y-65032081D01*
X98500000Y-65032081D02*
X98460000Y-65072081D01*
X58170000Y-57284260D02*
X59569490Y-57284260D01*
X59569490Y-57284260D02*
X60355230Y-58070000D01*
X60355230Y-58070000D02*
X61220000Y-58070000D01*
X51821370Y-60350000D02*
X56630000Y-60350000D01*
X56180000Y-62520000D02*
X56180000Y-61120510D01*
X56180000Y-61120510D02*
X56630000Y-60670510D01*
X56630000Y-60350000D02*
X58940000Y-60350000D01*
X56630000Y-60670510D02*
X56630000Y-60350000D01*
X63250000Y-58070000D02*
X63250000Y-63749400D01*
X63250000Y-63749400D02*
X65029400Y-65528800D01*
X58279250Y-60350000D02*
X58940000Y-60350000D01*
X58940000Y-60350000D02*
X59950000Y-59340000D01*
X59950000Y-59340000D02*
X61220000Y-58070000D01*
X64630000Y-56690000D02*
X64630000Y-54660000D01*
X49230000Y-58890000D02*
X50361370Y-58890000D01*
X50361370Y-58890000D02*
X51821370Y-60350000D01*
X63250000Y-58070000D02*
X64630000Y-56690000D01*
X61220000Y-58070000D02*
X63250000Y-58070000D01*
X43600000Y-62060000D02*
X44230000Y-61430000D01*
X44230000Y-61430000D02*
X44230000Y-58890000D01*
X42320000Y-62060000D02*
X43600000Y-62060000D01*
X41702220Y-62677780D02*
X42320000Y-62060000D01*
X41702220Y-65781280D02*
X41702220Y-62677780D01*
X80760000Y-49370000D02*
X81760000Y-49370000D01*
X81760000Y-49370000D02*
X85740000Y-45390000D01*
X90450000Y-45390000D02*
X96160000Y-39680000D01*
X85740000Y-45390000D02*
X90450000Y-45390000D01*
X96160000Y-39680000D02*
X105030000Y-39680000D01*
X100620000Y-63080000D02*
X100620000Y-66470000D01*
X100620000Y-66470000D02*
X105180000Y-71030000D01*
X98860000Y-61320000D02*
X100620000Y-63080000D01*
X97399998Y-61320000D02*
X98860000Y-61320000D01*
X95720000Y-52820000D02*
X95720000Y-59640002D01*
X95720000Y-59640002D02*
X97399998Y-61320000D01*
X95030000Y-52130000D02*
X95720000Y-52820000D01*
X83500000Y-52130000D02*
X95030000Y-52130000D01*
X80760000Y-49390000D02*
X83500000Y-52130000D01*
X80760000Y-49370000D02*
X80760000Y-49390000D01*
X62090000Y-47040000D02*
X62090000Y-48320000D01*
X62090000Y-48320000D02*
X62010000Y-48400000D01*
X62010000Y-48400000D02*
X62980000Y-49370000D01*
X62980000Y-49370000D02*
X80760000Y-49370000D01*
X58170000Y-47281740D02*
X61848260Y-47281740D01*
X61848260Y-47281740D02*
X62090000Y-47040000D01*
X54410000Y-41860000D02*
X54410000Y-46905230D01*
X54410000Y-46905230D02*
X54860510Y-47355740D01*
X54860510Y-47355740D02*
X56260000Y-47355740D01*
X50710000Y-49700000D02*
X53054260Y-47355740D01*
X53054260Y-47355740D02*
X56260000Y-47355740D01*
X62090000Y-47040000D02*
X56575740Y-47040000D01*
X56575740Y-47040000D02*
X56260000Y-47355740D01*
X76610000Y-42940000D02*
X77240000Y-43570000D01*
X77240000Y-43570000D02*
X77240000Y-46108740D01*
X76610000Y-41260000D02*
X76610000Y-42940000D01*
X76610000Y-38720000D02*
X87490000Y-38720000D01*
X87490000Y-38720000D02*
X87690000Y-38920000D01*
X74270000Y-38990000D02*
X74540000Y-38720000D01*
X74540000Y-38720000D02*
X76610000Y-38720000D01*
X74270000Y-42170000D02*
X74270000Y-38990000D01*
X72100000Y-44340000D02*
X74270000Y-42170000D01*
X67170000Y-44340000D02*
X67170000Y-42780000D01*
X67170000Y-47040000D02*
X67170000Y-44340000D01*
X67170000Y-44340000D02*
X72100000Y-44340000D01*
X67170000Y-42780000D02*
X69870000Y-40080000D01*
D30*
X93420000Y-69834998D02*
X93420000Y-69924998D01*
X93420000Y-69924998D02*
X93390000Y-69954998D01*
X93390000Y-70015000D02*
X93390000Y-70990000D01*
X93390000Y-69954998D02*
X93390000Y-70015000D01*
D29*
X93420000Y-63830000D02*
X93420000Y-69834998D01*
X93420000Y-69834998D02*
X93390000Y-69864998D01*
D30*
X92719990Y-68490000D02*
X92719990Y-69934988D01*
X92719990Y-69934988D02*
X92740000Y-69954998D01*
X92740000Y-69954998D02*
X92740000Y-70015000D01*
X92740000Y-70015000D02*
X92740000Y-70990000D01*
D29*
X92719990Y-65669990D02*
X92719990Y-68490000D01*
X90880000Y-63830000D02*
X92719990Y-65669990D01*
X68118477Y-68290000D02*
X63351770Y-68290000D01*
X63351770Y-68290000D02*
X62520000Y-67458230D01*
X62520000Y-62970000D02*
X62100000Y-62550000D01*
X62520000Y-67458230D02*
X62520000Y-62970000D01*
X62100000Y-62550000D02*
X60500000Y-62550000D01*
X68118477Y-68290000D02*
X68118477Y-70599077D01*
X68118477Y-70599077D02*
X69550600Y-72031200D01*
X69550600Y-65528800D02*
X69550600Y-66857877D01*
X69550600Y-66857877D02*
X68118477Y-68290000D01*
D31*
G36*
X105378588Y-33862402D02*
X105591136Y-33874834D01*
X105806826Y-33893685D01*
X106025526Y-33918976D01*
X106247206Y-33950734D01*
X106471861Y-33988991D01*
X106699293Y-34033743D01*
X106929545Y-34085026D01*
X107162501Y-34142845D01*
X107398112Y-34207217D01*
X107636304Y-34278152D01*
X107877007Y-34355657D01*
X108120101Y-34439722D01*
X108365564Y-34530366D01*
X108613286Y-34627578D01*
X108863191Y-34731354D01*
X109115194Y-34841685D01*
X109369300Y-34958601D01*
X109625283Y-35082025D01*
X109883273Y-35212050D01*
X110142929Y-35348527D01*
X110404411Y-35491568D01*
X110667536Y-35641103D01*
X110932208Y-35797102D01*
X111198457Y-35959612D01*
X111466127Y-36128568D01*
X111735174Y-36303972D01*
X112005521Y-36485800D01*
X112277036Y-36673995D01*
X112549782Y-36868630D01*
X112823589Y-37069618D01*
X113098378Y-37276929D01*
X113374174Y-37490614D01*
X113650802Y-37710577D01*
X113928335Y-37936903D01*
X114206529Y-38169430D01*
X114485397Y-38408204D01*
X114764881Y-38653211D01*
X115044948Y-38904462D01*
X115325529Y-39161929D01*
X115606401Y-39425449D01*
X115887684Y-39695171D01*
X116169306Y-39971068D01*
X116451100Y-40253022D01*
X116732978Y-40540983D01*
X117089354Y-40912883D01*
X117425905Y-41272704D01*
X117744086Y-41622307D01*
X118045176Y-41963358D01*
X118330644Y-42297726D01*
X118601810Y-42627123D01*
X118860203Y-42953490D01*
X119107327Y-43278801D01*
X119344521Y-43604794D01*
X119573345Y-43933558D01*
X119795219Y-44267009D01*
X120011609Y-44607175D01*
X120223937Y-44956047D01*
X120433538Y-45315506D01*
X120641827Y-45687567D01*
X120846681Y-46067740D01*
X121054272Y-46487982D01*
X121253625Y-46921995D01*
X121443529Y-47366981D01*
X121623734Y-47822065D01*
X121793991Y-48286328D01*
X121954060Y-48758894D01*
X122103663Y-49238720D01*
X122242626Y-49725053D01*
X122370687Y-50216880D01*
X122487651Y-50713324D01*
X122593293Y-51213444D01*
X122687421Y-51716350D01*
X122769820Y-52221056D01*
X122840307Y-52726710D01*
X122898702Y-53232431D01*
X122944813Y-53737216D01*
X122978464Y-54240171D01*
X122999499Y-54740357D01*
X123007729Y-55236859D01*
X123003021Y-55728781D01*
X122985224Y-56215131D01*
X122954216Y-56695053D01*
X122909870Y-57167501D01*
X122852077Y-57631613D01*
X122780737Y-58086486D01*
X122695786Y-58531114D01*
X122596445Y-58967739D01*
X122542763Y-59177020D01*
X122484868Y-59386212D01*
X122423545Y-59592152D01*
X122358816Y-59794655D01*
X122290624Y-59993805D01*
X122219027Y-60189314D01*
X122144000Y-60381166D01*
X122065557Y-60569237D01*
X121983705Y-60753425D01*
X121894870Y-60941195D01*
X121874678Y-61021768D01*
X121842652Y-61098407D01*
X121814100Y-61239639D01*
X121778248Y-61385405D01*
X121731731Y-61550711D01*
X121675023Y-61733164D01*
X121608641Y-61930860D01*
X121533999Y-62139741D01*
X121356630Y-62600574D01*
X121150187Y-63097433D01*
X120917554Y-63624451D01*
X120662778Y-64173078D01*
X120389858Y-64735067D01*
X120102726Y-65302407D01*
X119805288Y-65867207D01*
X119501593Y-66421366D01*
X119195584Y-66957048D01*
X118891492Y-67466003D01*
X118593548Y-67940117D01*
X118304673Y-68373426D01*
X118168234Y-68567624D01*
X118035428Y-68749146D01*
X117787601Y-69071358D01*
X117517714Y-69405408D01*
X117227959Y-69749092D01*
X116921437Y-70099143D01*
X116601054Y-70452564D01*
X116269768Y-70806366D01*
X115930466Y-71157641D01*
X115586128Y-71503428D01*
X115239601Y-71840911D01*
X114893871Y-72167158D01*
X114551945Y-72479245D01*
X114216895Y-72774225D01*
X113891815Y-73049173D01*
X113580095Y-73300990D01*
X113285334Y-73526523D01*
X113010692Y-73723120D01*
X112766301Y-73884882D01*
X112492052Y-74054360D01*
X112190275Y-74230093D01*
X111863344Y-74410719D01*
X111513691Y-74594936D01*
X111143439Y-74781671D01*
X110754773Y-74969848D01*
X110349786Y-75158460D01*
X109930539Y-75346539D01*
X109499167Y-75533087D01*
X109057530Y-75717245D01*
X108607756Y-75898036D01*
X108151810Y-76074568D01*
X107691781Y-76245896D01*
X107229559Y-76411168D01*
X106767900Y-76569224D01*
X106282963Y-76726614D01*
X105831352Y-76862758D01*
X105410817Y-76977929D01*
X105019539Y-77072352D01*
X104651808Y-77147162D01*
X104482795Y-77176125D01*
X104316525Y-77200750D01*
X104155935Y-77220587D01*
X104000930Y-77235694D01*
X103851025Y-77246154D01*
X103706032Y-77252096D01*
X103565447Y-77253568D01*
X103428725Y-77250720D01*
X103295755Y-77243607D01*
X103165850Y-77232273D01*
X103038648Y-77216784D01*
X102913588Y-77197116D01*
X102790135Y-77173283D01*
X102667866Y-77145242D01*
X102546249Y-77112916D01*
X102424771Y-77076209D01*
X102303070Y-77035040D01*
X102180655Y-76989268D01*
X102057124Y-76938769D01*
X101936157Y-76885206D01*
X101669154Y-76753994D01*
X100596644Y-76193710D01*
X100482069Y-76160135D01*
X100369022Y-76121734D01*
X98838676Y-75919932D01*
X98421553Y-75861970D01*
X98062424Y-75806796D01*
X97457286Y-75701967D01*
X96950688Y-75607108D01*
X96948348Y-75607134D01*
X96946171Y-75606278D01*
X96706830Y-75563121D01*
X96701612Y-75563215D01*
X96696726Y-75561377D01*
X96455920Y-75521668D01*
X96448561Y-75521910D01*
X96441613Y-75519463D01*
X96190116Y-75483432D01*
X96181593Y-75483893D01*
X96173480Y-75481257D01*
X95902063Y-75449134D01*
X95893375Y-75449818D01*
X95885018Y-75447332D01*
X95584452Y-75419364D01*
X95576410Y-75420200D01*
X95568609Y-75418075D01*
X95229660Y-75394453D01*
X95222579Y-75395356D01*
X95215654Y-75393621D01*
X94829098Y-75374627D01*
X94823181Y-75375505D01*
X94817355Y-75374151D01*
X94373961Y-75359984D01*
X94369108Y-75360789D01*
X94364303Y-75359744D01*
X93854839Y-75350656D01*
X93850952Y-75351357D01*
X93847085Y-75350562D01*
X93263594Y-75346760D01*
X92442916Y-75339036D01*
X91703084Y-75325016D01*
X91702164Y-75325181D01*
X91701252Y-75324984D01*
X91019827Y-75313893D01*
X91015737Y-75314638D01*
X91011664Y-75313809D01*
X90687916Y-75312398D01*
X90683367Y-75313282D01*
X90678809Y-75312418D01*
X90363078Y-75315240D01*
X90357186Y-75316467D01*
X90351256Y-75315448D01*
X90041072Y-75323576D01*
X90033715Y-75325241D01*
X90026256Y-75324125D01*
X89719145Y-75338829D01*
X89710618Y-75340954D01*
X89701897Y-75339873D01*
X89395387Y-75362309D01*
X89385927Y-75364921D01*
X89376156Y-75363989D01*
X89067781Y-75395319D01*
X89057678Y-75398418D01*
X89047134Y-75397734D01*
X88734422Y-75439125D01*
X88724006Y-75442669D01*
X88713009Y-75442304D01*
X88393485Y-75494918D01*
X88383067Y-75498834D01*
X88371938Y-75498821D01*
X88043135Y-75563820D01*
X88032993Y-75568007D01*
X88022021Y-75568340D01*
X87681466Y-75646891D01*
X87631877Y-75669217D01*
X87578460Y-75679390D01*
X87316770Y-75785291D01*
X87310000Y-75789735D01*
X87302080Y-75791435D01*
X87043793Y-75903014D01*
X87038083Y-75906955D01*
X87031330Y-75908546D01*
X86775976Y-76024943D01*
X86771315Y-76028299D01*
X86765746Y-76029708D01*
X86512853Y-76150052D01*
X86507881Y-76153758D01*
X86501903Y-76155384D01*
X86001602Y-76404467D01*
X85998278Y-76407037D01*
X85994241Y-76408188D01*
X85498827Y-76662328D01*
X85008589Y-76912530D01*
X84520920Y-77151509D01*
X84281240Y-77262762D01*
X84039764Y-77369391D01*
X83797911Y-77469815D01*
X83555178Y-77563363D01*
X83311008Y-77649411D01*
X83065019Y-77727270D01*
X82816519Y-77796368D01*
X82564950Y-77856088D01*
X82309648Y-77905814D01*
X82049873Y-77944932D01*
X81784855Y-77972787D01*
X81513737Y-77988697D01*
X81235750Y-77991881D01*
X80950002Y-77981547D01*
X80655574Y-77956808D01*
X80351724Y-77916751D01*
X80037645Y-77860386D01*
X79712619Y-77786699D01*
X79375921Y-77694639D01*
X79013775Y-77578941D01*
X78951719Y-77571906D01*
X78892517Y-77552024D01*
X78549527Y-77508001D01*
X78540453Y-77508625D01*
X78531755Y-77505955D01*
X78187726Y-77470903D01*
X78179652Y-77471671D01*
X78171844Y-77469471D01*
X77827059Y-77442434D01*
X77819954Y-77443277D01*
X77813030Y-77441479D01*
X77467776Y-77421526D01*
X77461660Y-77422379D01*
X77455655Y-77420933D01*
X77110218Y-77407104D01*
X77105048Y-77407919D01*
X77099942Y-77406770D01*
X76754604Y-77398134D01*
X76748786Y-77399141D01*
X76743004Y-77397942D01*
X76053773Y-77392382D01*
X76049119Y-77393269D01*
X76044467Y-77392370D01*
X75359059Y-77396152D01*
X75358176Y-77396333D01*
X75357290Y-77396164D01*
X74680860Y-77401644D01*
X74017666Y-77401365D01*
X73695369Y-77396756D01*
X73376881Y-77387977D01*
X73063814Y-77374211D01*
X72756586Y-77354628D01*
X72455515Y-77328422D01*
X72160920Y-77294846D01*
X71873195Y-77253172D01*
X71592545Y-77202694D01*
X71319259Y-77142752D01*
X71053468Y-77072687D01*
X70795308Y-76991865D01*
X70544716Y-76899606D01*
X70297103Y-76793272D01*
X70182546Y-76738324D01*
X70065555Y-76678019D01*
X69950336Y-76614276D01*
X69836802Y-76546954D01*
X69724935Y-76475930D01*
X69614718Y-76401089D01*
X69506085Y-76322268D01*
X69398977Y-76239298D01*
X69293378Y-76152032D01*
X69181157Y-76053161D01*
X69180302Y-76052665D01*
X69179700Y-76051881D01*
X69115640Y-75995764D01*
X69086453Y-75978934D01*
X69063427Y-75954335D01*
X68992871Y-75903744D01*
X68964438Y-75890851D01*
X68941138Y-75870072D01*
X68864284Y-75824843D01*
X68837328Y-75815442D01*
X68814528Y-75798256D01*
X68731580Y-75758234D01*
X68706592Y-75751769D01*
X68684884Y-75737809D01*
X68596040Y-75702825D01*
X68573215Y-75698700D01*
X68552909Y-75687485D01*
X68458368Y-75657380D01*
X68437787Y-75655067D01*
X68419096Y-75646153D01*
X68319056Y-75620753D01*
X68300520Y-75619783D01*
X68283363Y-75612699D01*
X68178031Y-75591871D01*
X68161581Y-75591890D01*
X68146097Y-75586338D01*
X68035667Y-75569885D01*
X68020963Y-75570598D01*
X68006903Y-75566219D01*
X67891577Y-75553999D01*
X67872566Y-75555730D01*
X67854061Y-75551064D01*
X67609524Y-75538674D01*
X67588799Y-75541716D01*
X67568213Y-75537828D01*
X67306494Y-75540368D01*
X67289873Y-75543842D01*
X67273055Y-75541510D01*
X66995752Y-75557766D01*
X66982490Y-75561222D01*
X66968850Y-75559875D01*
X66677568Y-75588498D01*
X66666890Y-75591735D01*
X66655758Y-75590995D01*
X66352098Y-75630695D01*
X66343501Y-75633605D01*
X66334431Y-75633239D01*
X66019987Y-75682713D01*
X66013067Y-75685258D01*
X66005698Y-75685117D01*
X65682080Y-75743074D01*
X65676570Y-75745234D01*
X65670649Y-75745221D01*
X65339450Y-75810358D01*
X65335125Y-75812138D01*
X65330450Y-75812191D01*
X64993275Y-75883212D01*
X64988799Y-75885125D01*
X64983933Y-75885248D01*
X64298054Y-76039748D01*
X64295141Y-76041042D01*
X64291959Y-76041151D01*
X62922831Y-76362721D01*
X62270617Y-76507864D01*
X61962367Y-76571231D01*
X61665519Y-76627413D01*
X61383742Y-76674877D01*
X61119390Y-76712457D01*
X60875254Y-76739110D01*
X60654535Y-76754044D01*
X60461009Y-76756952D01*
X60290953Y-76747961D01*
X60230154Y-76740835D01*
X60172611Y-76731128D01*
X60125701Y-76720384D01*
X60064920Y-76702143D01*
X59990406Y-76695027D01*
X59918265Y-76675080D01*
X59592856Y-76651148D01*
X59581438Y-76652559D01*
X59570254Y-76649861D01*
X59231997Y-76636201D01*
X59224905Y-76637316D01*
X59217894Y-76635777D01*
X58869514Y-76628891D01*
X58866241Y-76629475D01*
X58862987Y-76628793D01*
X58507582Y-76625156D01*
X58150664Y-76621300D01*
X57798814Y-76613847D01*
X57454493Y-76599578D01*
X57116990Y-76575268D01*
X56958346Y-76559070D01*
X56800591Y-76539175D01*
X56647226Y-76515601D01*
X56498596Y-76488128D01*
X56355195Y-76456581D01*
X56217314Y-76420778D01*
X56085291Y-76380608D01*
X55959417Y-76335981D01*
X55839838Y-76286812D01*
X55726603Y-76233003D01*
X55619673Y-76174436D01*
X55518882Y-76110919D01*
X55423920Y-76042114D01*
X55334414Y-75967549D01*
X55249945Y-75886556D01*
X55157057Y-75783827D01*
X55055751Y-75668383D01*
X54969706Y-75565019D01*
X54815994Y-75365293D01*
X54694464Y-75190200D01*
X54595162Y-75033346D01*
X54430019Y-74753053D01*
X54423656Y-74745925D01*
X54420259Y-74736996D01*
X54350272Y-74625329D01*
X54329403Y-74603205D01*
X54316139Y-74575837D01*
X54248268Y-74486122D01*
X54218544Y-74459693D01*
X54197202Y-74426129D01*
X54162157Y-74389457D01*
X54132610Y-74368731D01*
X54110182Y-74340462D01*
X54073379Y-74309226D01*
X54036352Y-74288641D01*
X54006159Y-74258924D01*
X53966838Y-74233100D01*
X53924006Y-74215756D01*
X53887042Y-74188029D01*
X53844440Y-74167595D01*
X53799220Y-74156007D01*
X53758443Y-74133289D01*
X53711798Y-74118247D01*
X53668407Y-74113209D01*
X53627870Y-74096933D01*
X53576421Y-74087281D01*
X53538437Y-74087695D01*
X53501844Y-74077491D01*
X53444829Y-74073173D01*
X53412720Y-74077069D01*
X53380892Y-74071326D01*
X53317549Y-74072455D01*
X53293247Y-74077741D01*
X53268517Y-74075089D01*
X53198084Y-74081411D01*
X53178784Y-74087084D01*
X53158690Y-74086100D01*
X53080405Y-74097727D01*
X53059919Y-74105061D01*
X53038162Y-74105361D01*
X52854989Y-74144426D01*
X52838363Y-74151583D01*
X52820300Y-74152774D01*
X52596576Y-74212820D01*
X52587684Y-74217210D01*
X52577811Y-74218144D01*
X52318379Y-74295757D01*
X52178033Y-74333483D01*
X52013169Y-74368111D01*
X51811487Y-74402155D01*
X51578020Y-74434390D01*
X51316549Y-74464255D01*
X51030199Y-74491459D01*
X50721960Y-74515838D01*
X50395923Y-74537231D01*
X49689382Y-74571665D01*
X48934984Y-74594457D01*
X48148481Y-74605906D01*
X47346803Y-74606184D01*
X46547395Y-74595889D01*
X45767360Y-74575231D01*
X45024139Y-74544638D01*
X44335208Y-74504565D01*
X43716238Y-74455422D01*
X43443476Y-74428145D01*
X43194413Y-74398894D01*
X42974486Y-74368253D01*
X42787594Y-74336874D01*
X42639356Y-74306143D01*
X42516668Y-74273549D01*
X42391293Y-74237464D01*
X42379102Y-74236439D01*
X42368043Y-74231213D01*
X42237835Y-74198645D01*
X42225629Y-74198050D01*
X42214407Y-74193221D01*
X42086089Y-74165873D01*
X42073979Y-74165708D01*
X42062694Y-74161311D01*
X41936254Y-74138931D01*
X41924318Y-74139184D01*
X41913048Y-74135232D01*
X41788472Y-74117565D01*
X41776691Y-74118219D01*
X41765435Y-74114696D01*
X41642712Y-74101516D01*
X41625646Y-74103045D01*
X41609061Y-74098739D01*
X41369123Y-74084882D01*
X41347621Y-74087883D01*
X41326305Y-74083750D01*
X41093621Y-74084879D01*
X41073796Y-74088923D01*
X41053744Y-74086235D01*
X40828215Y-74100487D01*
X40810540Y-74105179D01*
X40792312Y-74103706D01*
X40573833Y-74129106D01*
X40558473Y-74134062D01*
X40542343Y-74133510D01*
X40330812Y-74168116D01*
X40317908Y-74172951D01*
X40304124Y-74173026D01*
X40099438Y-74214897D01*
X40089082Y-74219253D01*
X40077856Y-74219676D01*
X39879914Y-74266869D01*
X39869716Y-74271551D01*
X39858523Y-74272335D01*
X39482455Y-74374911D01*
X39478318Y-74376974D01*
X39473713Y-74377358D01*
X39128750Y-74476380D01*
X38977489Y-74517140D01*
X38841120Y-74549894D01*
X38721776Y-74573257D01*
X38621325Y-74586771D01*
X38541238Y-74591119D01*
X38470508Y-74587806D01*
X38457864Y-74586065D01*
X38439650Y-74582299D01*
X38424671Y-74578072D01*
X38411848Y-74573390D01*
X38399990Y-74567990D01*
X38387896Y-74561289D01*
X38374397Y-74552360D01*
X38358635Y-74540101D01*
X38340073Y-74523323D01*
X38318481Y-74500859D01*
X38293859Y-74471612D01*
X38266455Y-74434698D01*
X38236651Y-74389436D01*
X38204830Y-74335224D01*
X38171421Y-74271655D01*
X38139474Y-74204020D01*
X38065544Y-74021441D01*
X37993359Y-73804708D01*
X37921921Y-73546295D01*
X37852684Y-73246712D01*
X37790888Y-72921141D01*
X37773696Y-72808270D01*
X54545510Y-72808270D01*
X54545510Y-73648319D01*
X54642183Y-73881708D01*
X54820811Y-74060337D01*
X55054200Y-74157010D01*
X55894250Y-74157010D01*
X56053000Y-73998260D01*
X56053000Y-72649520D01*
X56307000Y-72649520D01*
X56307000Y-73998260D01*
X56465750Y-74157010D01*
X57305800Y-74157010D01*
X57539189Y-74060337D01*
X57717817Y-73881708D01*
X57814490Y-73648319D01*
X57814490Y-72838270D01*
X58865510Y-72838270D01*
X58865510Y-73678319D01*
X58962183Y-73911708D01*
X59140811Y-74090337D01*
X59374200Y-74187010D01*
X60214250Y-74187010D01*
X60373000Y-74028260D01*
X60373000Y-72679520D01*
X60627000Y-72679520D01*
X60627000Y-74028260D01*
X60785750Y-74187010D01*
X61625800Y-74187010D01*
X61859189Y-74090337D01*
X62037817Y-73911708D01*
X62134490Y-73678319D01*
X62134490Y-72838270D01*
X61975740Y-72679520D01*
X60627000Y-72679520D01*
X60373000Y-72679520D01*
X59024260Y-72679520D01*
X58865510Y-72838270D01*
X57814490Y-72838270D01*
X57814490Y-72808270D01*
X57655740Y-72649520D01*
X56307000Y-72649520D01*
X56053000Y-72649520D01*
X54704260Y-72649520D01*
X54545510Y-72808270D01*
X37773696Y-72808270D01*
X37736359Y-72563142D01*
X37689411Y-72176279D01*
X37672524Y-71998308D01*
X45761297Y-71998308D01*
X45871091Y-72274598D01*
X46513758Y-72516307D01*
X47200003Y-72493679D01*
X47728909Y-72274598D01*
X47838703Y-71998308D01*
X46800000Y-70959605D01*
X45761297Y-71998308D01*
X37672524Y-71998308D01*
X37650420Y-71765363D01*
X37619630Y-71335150D01*
X37597178Y-70890022D01*
X37584990Y-70493758D01*
X45063693Y-70493758D01*
X45086321Y-71180003D01*
X45305402Y-71708909D01*
X45581692Y-71818703D01*
X46620395Y-70780000D01*
X46979605Y-70780000D01*
X48018308Y-71818703D01*
X48294598Y-71708909D01*
X48412012Y-71396721D01*
X54545510Y-71396721D01*
X54545510Y-72236770D01*
X54704260Y-72395520D01*
X56053000Y-72395520D01*
X56053000Y-71046780D01*
X56307000Y-71046780D01*
X56307000Y-72395520D01*
X57655740Y-72395520D01*
X57814490Y-72236770D01*
X57814490Y-71426721D01*
X58865510Y-71426721D01*
X58865510Y-72266770D01*
X59024260Y-72425520D01*
X60373000Y-72425520D01*
X60373000Y-71076780D01*
X60627000Y-71076780D01*
X60627000Y-72425520D01*
X61975740Y-72425520D01*
X62058187Y-72343073D01*
X63454327Y-72343073D01*
X63693571Y-72922087D01*
X64136183Y-73365472D01*
X64714779Y-73605726D01*
X65341273Y-73606273D01*
X65920287Y-73367029D01*
X66363672Y-72924417D01*
X66603926Y-72345821D01*
X66604473Y-71719327D01*
X66365229Y-71140313D01*
X65922617Y-70696928D01*
X65344021Y-70456674D01*
X64717527Y-70456127D01*
X64138513Y-70695371D01*
X63695128Y-71137983D01*
X63454874Y-71716579D01*
X63454327Y-72343073D01*
X62058187Y-72343073D01*
X62134490Y-72266770D01*
X62134490Y-71426721D01*
X62037817Y-71193332D01*
X61859189Y-71014703D01*
X61625800Y-70918030D01*
X60785750Y-70918030D01*
X60627000Y-71076780D01*
X60373000Y-71076780D01*
X60214250Y-70918030D01*
X59374200Y-70918030D01*
X59140811Y-71014703D01*
X58962183Y-71193332D01*
X58865510Y-71426721D01*
X57814490Y-71426721D01*
X57814490Y-71396721D01*
X57717817Y-71163332D01*
X57539189Y-70984703D01*
X57305800Y-70888030D01*
X56465750Y-70888030D01*
X56307000Y-71046780D01*
X56053000Y-71046780D01*
X55894250Y-70888030D01*
X55054200Y-70888030D01*
X54820811Y-70984703D01*
X54642183Y-71163332D01*
X54545510Y-71396721D01*
X48412012Y-71396721D01*
X48536307Y-71066242D01*
X48513679Y-70379997D01*
X48294598Y-69851091D01*
X48018308Y-69741297D01*
X46979605Y-70780000D01*
X46620395Y-70780000D01*
X45581692Y-69741297D01*
X45305402Y-69851091D01*
X45063693Y-70493758D01*
X37584990Y-70493758D01*
X37583162Y-70434352D01*
X37577636Y-69972426D01*
X37580287Y-69561692D01*
X45761297Y-69561692D01*
X46800000Y-70600395D01*
X47838703Y-69561692D01*
X47728909Y-69285402D01*
X47086242Y-69043693D01*
X46399997Y-69066321D01*
X45871091Y-69285402D01*
X45761297Y-69561692D01*
X37580287Y-69561692D01*
X37580631Y-69508461D01*
X37592150Y-69046759D01*
X37612178Y-68591535D01*
X37640664Y-68147115D01*
X37677526Y-67717800D01*
X37722610Y-67308153D01*
X37775679Y-66922759D01*
X37838115Y-66556019D01*
X37914898Y-66123083D01*
X39975991Y-66123083D01*
X40238195Y-66757664D01*
X40723283Y-67243599D01*
X41357405Y-67506910D01*
X42044023Y-67507509D01*
X42678604Y-67245305D01*
X43001567Y-66922904D01*
X43321703Y-67243599D01*
X43955825Y-67506910D01*
X44642443Y-67507509D01*
X45277024Y-67245305D01*
X45762959Y-66760217D01*
X46026270Y-66126095D01*
X46026272Y-66123083D01*
X47573131Y-66123083D01*
X47835335Y-66757664D01*
X48320423Y-67243599D01*
X48954545Y-67506910D01*
X49641163Y-67507509D01*
X50275744Y-67245305D01*
X50598707Y-66922904D01*
X50918843Y-67243599D01*
X51552965Y-67506910D01*
X52239583Y-67507509D01*
X52874164Y-67245305D01*
X53360099Y-66760217D01*
X53623410Y-66126095D01*
X53624009Y-65439477D01*
X53361805Y-64804896D01*
X52876717Y-64318961D01*
X52242595Y-64055650D01*
X51555977Y-64055051D01*
X50921396Y-64317255D01*
X50598433Y-64639656D01*
X50278297Y-64318961D01*
X49644175Y-64055650D01*
X48957557Y-64055051D01*
X48322976Y-64317255D01*
X47837041Y-64802343D01*
X47573730Y-65436465D01*
X47573131Y-66123083D01*
X46026272Y-66123083D01*
X46026869Y-65439477D01*
X45764665Y-64804896D01*
X45279577Y-64318961D01*
X44645455Y-64055650D01*
X43958837Y-64055051D01*
X43324256Y-64317255D01*
X43001293Y-64639656D01*
X42681157Y-64318961D01*
X42537220Y-64259193D01*
X42537220Y-63023648D01*
X42665868Y-62895000D01*
X43600000Y-62895000D01*
X43919541Y-62831439D01*
X44190434Y-62650434D01*
X44820434Y-62020434D01*
X45001440Y-61749540D01*
X45065000Y-61430000D01*
X45065000Y-60084083D01*
X45445824Y-59703923D01*
X45664750Y-59176691D01*
X45664752Y-59174187D01*
X47794752Y-59174187D01*
X48012757Y-59701800D01*
X48416077Y-60105824D01*
X48943309Y-60324750D01*
X49514187Y-60325248D01*
X50041800Y-60107243D01*
X50219928Y-59929426D01*
X51230936Y-60940434D01*
X51501829Y-61121439D01*
X51821370Y-61185000D01*
X54641214Y-61185000D01*
X54584079Y-61268620D01*
X54533070Y-61520510D01*
X54533070Y-63519490D01*
X54577348Y-63754807D01*
X54716420Y-63970931D01*
X54928620Y-64115921D01*
X55180510Y-64166930D01*
X57179490Y-64166930D01*
X57414807Y-64122652D01*
X57630931Y-63983580D01*
X57775921Y-63771380D01*
X57826930Y-63519490D01*
X57826930Y-61520510D01*
X57782652Y-61285193D01*
X57718180Y-61185000D01*
X58940000Y-61185000D01*
X58988273Y-61175398D01*
X58904079Y-61298620D01*
X58853070Y-61550510D01*
X58853070Y-63549490D01*
X58897348Y-63784807D01*
X59036420Y-64000931D01*
X59248620Y-64145921D01*
X59500510Y-64196930D01*
X61499490Y-64196930D01*
X61685000Y-64162024D01*
X61685000Y-67458230D01*
X61748561Y-67777771D01*
X61870751Y-67960641D01*
X61929566Y-68048664D01*
X62761336Y-68880434D01*
X63032229Y-69061439D01*
X63351770Y-69125000D01*
X67283477Y-69125000D01*
X67283477Y-70599077D01*
X67347038Y-70918618D01*
X67510551Y-71163332D01*
X67528043Y-71189511D01*
X67999264Y-71660732D01*
X67976074Y-71716579D01*
X67975527Y-72343073D01*
X68214771Y-72922087D01*
X68657383Y-73365472D01*
X69235979Y-73605726D01*
X69862473Y-73606273D01*
X70441487Y-73367029D01*
X70734176Y-73074850D01*
X73984424Y-73074850D01*
X74156911Y-73492301D01*
X74476019Y-73811967D01*
X74893168Y-73985182D01*
X75344850Y-73985576D01*
X75762301Y-73813089D01*
X76081967Y-73493981D01*
X76248422Y-73093110D01*
X78184424Y-73093110D01*
X78356911Y-73510561D01*
X78676019Y-73830227D01*
X79093168Y-74003442D01*
X79544850Y-74003836D01*
X79962301Y-73831349D01*
X80281967Y-73512241D01*
X80455182Y-73095092D01*
X80455576Y-72643410D01*
X80283089Y-72225959D01*
X79963981Y-71906293D01*
X79546832Y-71733078D01*
X79095150Y-71732684D01*
X78677699Y-71905171D01*
X78358033Y-72224279D01*
X78184818Y-72641428D01*
X78184424Y-73093110D01*
X76248422Y-73093110D01*
X76255182Y-73076832D01*
X76255576Y-72625150D01*
X76083089Y-72207699D01*
X75763981Y-71888033D01*
X75346832Y-71714818D01*
X74895150Y-71714424D01*
X74477699Y-71886911D01*
X74158033Y-72206019D01*
X73984818Y-72623168D01*
X73984424Y-73074850D01*
X70734176Y-73074850D01*
X70884872Y-72924417D01*
X71125126Y-72345821D01*
X71125673Y-71719327D01*
X70886429Y-71140313D01*
X70443817Y-70696928D01*
X69865221Y-70456674D01*
X69238727Y-70456127D01*
X69180467Y-70480199D01*
X68953477Y-70253209D01*
X68953477Y-68635868D01*
X70141034Y-67448311D01*
X70322040Y-67177417D01*
X70379132Y-66890394D01*
X70441487Y-66864629D01*
X70884872Y-66422017D01*
X71125126Y-65843421D01*
X71125673Y-65216927D01*
X70886429Y-64637913D01*
X70443817Y-64194528D01*
X69865221Y-63954274D01*
X69238727Y-63953727D01*
X68659713Y-64192971D01*
X68216328Y-64635583D01*
X67976074Y-65214179D01*
X67975527Y-65840673D01*
X68214771Y-66419687D01*
X68511088Y-66716521D01*
X67772609Y-67455000D01*
X63697638Y-67455000D01*
X63355000Y-67112362D01*
X63355000Y-65035268D01*
X63478064Y-65158332D01*
X63454874Y-65214179D01*
X63454327Y-65840673D01*
X63693571Y-66419687D01*
X64136183Y-66863072D01*
X64714779Y-67103326D01*
X65341273Y-67103873D01*
X65920287Y-66864629D01*
X66363672Y-66422017D01*
X66603926Y-65843421D01*
X66604473Y-65216927D01*
X66365229Y-64637913D01*
X65922617Y-64194528D01*
X65344021Y-63954274D01*
X64717527Y-63953727D01*
X64659267Y-63977799D01*
X64085000Y-63403532D01*
X64085000Y-63072330D01*
X73984424Y-63072330D01*
X74156911Y-63489781D01*
X74476019Y-63809447D01*
X74893168Y-63982662D01*
X75344850Y-63983056D01*
X75762301Y-63810569D01*
X76081967Y-63491461D01*
X76255182Y-63074312D01*
X76255576Y-62622630D01*
X76083089Y-62205179D01*
X75763981Y-61885513D01*
X75346832Y-61712298D01*
X74895150Y-61711904D01*
X74477699Y-61884391D01*
X74158033Y-62203499D01*
X73984818Y-62620648D01*
X73984424Y-63072330D01*
X64085000Y-63072330D01*
X64085000Y-58415868D01*
X65220434Y-57280434D01*
X65401440Y-57009540D01*
X65465000Y-56690000D01*
X65465000Y-55822882D01*
X65644698Y-55702811D01*
X65900000Y-55320725D01*
X66155302Y-55702811D01*
X66620849Y-56013880D01*
X67170000Y-56123113D01*
X67719151Y-56013880D01*
X68184698Y-55702811D01*
X68454986Y-55298297D01*
X68557611Y-55515134D01*
X68972577Y-55891041D01*
X69360961Y-56051904D01*
X69583000Y-55929915D01*
X69583000Y-54787000D01*
X69563000Y-54787000D01*
X69563000Y-54533000D01*
X69583000Y-54533000D01*
X69583000Y-53390085D01*
X69360961Y-53268096D01*
X68972577Y-53428959D01*
X68557611Y-53804866D01*
X68454986Y-54021703D01*
X68184698Y-53617189D01*
X67719151Y-53306120D01*
X67170000Y-53196887D01*
X66620849Y-53306120D01*
X66155302Y-53617189D01*
X65900000Y-53999275D01*
X65644698Y-53617189D01*
X65179151Y-53306120D01*
X64630000Y-53196887D01*
X64080849Y-53306120D01*
X63615302Y-53617189D01*
X63518899Y-53761465D01*
X63493162Y-53624683D01*
X63354090Y-53408559D01*
X63141890Y-53263569D01*
X62890000Y-53212560D01*
X61290000Y-53212560D01*
X61054683Y-53256838D01*
X60838559Y-53395910D01*
X60693569Y-53608110D01*
X60642560Y-53860000D01*
X60642560Y-55460000D01*
X60686838Y-55695317D01*
X60825910Y-55911441D01*
X61038110Y-56056431D01*
X61290000Y-56107440D01*
X62890000Y-56107440D01*
X63125317Y-56063162D01*
X63341441Y-55924090D01*
X63486431Y-55711890D01*
X63517815Y-55556911D01*
X63615302Y-55702811D01*
X63795000Y-55822882D01*
X63795000Y-56344132D01*
X62904132Y-57235000D01*
X60701098Y-57235000D01*
X60159924Y-56693826D01*
X60112639Y-56662231D01*
X59889031Y-56512821D01*
X59816930Y-56498479D01*
X59816930Y-56284770D01*
X59772652Y-56049453D01*
X59633580Y-55833329D01*
X59421380Y-55688339D01*
X59169490Y-55637330D01*
X57170510Y-55637330D01*
X56935193Y-55681608D01*
X56719069Y-55820680D01*
X56574079Y-56032880D01*
X56523070Y-56284770D01*
X56523070Y-58283750D01*
X56567348Y-58519067D01*
X56706420Y-58735191D01*
X56918620Y-58880181D01*
X57170510Y-58931190D01*
X59169490Y-58931190D01*
X59179901Y-58929231D01*
X58594132Y-59515000D01*
X52167238Y-59515000D01*
X50951804Y-58299566D01*
X50928134Y-58283750D01*
X50680911Y-58118561D01*
X50439622Y-58070565D01*
X50043923Y-57674176D01*
X49516691Y-57455250D01*
X48945813Y-57454752D01*
X48418200Y-57672757D01*
X48014176Y-58076077D01*
X47795250Y-58603309D01*
X47794752Y-59174187D01*
X45664752Y-59174187D01*
X45665248Y-58605813D01*
X45447243Y-58078200D01*
X45043923Y-57674176D01*
X44516691Y-57455250D01*
X43945813Y-57454752D01*
X43418200Y-57672757D01*
X43014176Y-58076077D01*
X42795250Y-58603309D01*
X42794752Y-59174187D01*
X43012757Y-59701800D01*
X43395000Y-60084710D01*
X43395000Y-61084132D01*
X43254132Y-61225000D01*
X42320000Y-61225000D01*
X42000459Y-61288561D01*
X41792714Y-61427372D01*
X41729566Y-61469566D01*
X41111786Y-62087346D01*
X40930781Y-62358239D01*
X40867220Y-62677780D01*
X40867220Y-64258836D01*
X40725836Y-64317255D01*
X40239901Y-64802343D01*
X39976590Y-65436465D01*
X39975991Y-66123083D01*
X37914898Y-66123083D01*
X37935852Y-66004942D01*
X37935699Y-65997605D01*
X37938221Y-65990714D01*
X38029350Y-65405486D01*
X38029068Y-65398748D01*
X38031263Y-65392370D01*
X38115519Y-64772631D01*
X38115143Y-64766490D01*
X38117042Y-64760638D01*
X38194584Y-64103619D01*
X38194145Y-64098059D01*
X38195780Y-64092731D01*
X38266765Y-63395679D01*
X38266289Y-63390678D01*
X38267695Y-63385852D01*
X38332282Y-62646001D01*
X38331791Y-62641521D01*
X38332995Y-62637178D01*
X38391343Y-61851770D01*
X38390852Y-61847771D01*
X38391883Y-61843879D01*
X38444149Y-61010156D01*
X38443671Y-61006602D01*
X38444553Y-61003128D01*
X38490897Y-60118327D01*
X38490440Y-60115177D01*
X38491196Y-60112083D01*
X38531775Y-59173446D01*
X38531345Y-59170658D01*
X38531991Y-59167916D01*
X38566964Y-58172683D01*
X38566565Y-58170227D01*
X38567119Y-58167797D01*
X38596645Y-57113203D01*
X38596277Y-57111039D01*
X38596752Y-57108896D01*
X38620989Y-55992185D01*
X38620653Y-55990282D01*
X38621060Y-55988396D01*
X38625598Y-55707745D01*
X49881861Y-55707745D01*
X49955995Y-55953864D01*
X50493223Y-56146965D01*
X51063454Y-56119778D01*
X51464005Y-55953864D01*
X51538139Y-55707745D01*
X50710000Y-54879605D01*
X49881861Y-55707745D01*
X38625598Y-55707745D01*
X38640167Y-54806809D01*
X38639863Y-54805142D01*
X38640213Y-54803482D01*
X38653989Y-53585750D01*
X41040000Y-53585750D01*
X41040000Y-54181309D01*
X41136673Y-54414698D01*
X41315301Y-54593327D01*
X41548690Y-54690000D01*
X42894250Y-54690000D01*
X43053000Y-54531250D01*
X43053000Y-53427000D01*
X43307000Y-53427000D01*
X43307000Y-54531250D01*
X43465750Y-54690000D01*
X44811310Y-54690000D01*
X45044699Y-54593327D01*
X45154802Y-54483223D01*
X49263035Y-54483223D01*
X49290222Y-55053454D01*
X49456136Y-55454005D01*
X49702255Y-55528139D01*
X50530395Y-54700000D01*
X50889605Y-54700000D01*
X51717745Y-55528139D01*
X51963864Y-55454005D01*
X52156965Y-54916777D01*
X52129778Y-54346546D01*
X51963864Y-53945995D01*
X51717745Y-53871861D01*
X50889605Y-54700000D01*
X50530395Y-54700000D01*
X49702255Y-53871861D01*
X49456136Y-53945995D01*
X49263035Y-54483223D01*
X45154802Y-54483223D01*
X45223327Y-54414698D01*
X45320000Y-54181309D01*
X45320000Y-53692255D01*
X49881861Y-53692255D01*
X50710000Y-54520395D01*
X51538139Y-53692255D01*
X51464005Y-53446136D01*
X50926777Y-53253035D01*
X50356546Y-53280222D01*
X49955995Y-53446136D01*
X49881861Y-53692255D01*
X45320000Y-53692255D01*
X45320000Y-53585750D01*
X45161250Y-53427000D01*
X43307000Y-53427000D01*
X43053000Y-53427000D01*
X41198750Y-53427000D01*
X41040000Y-53585750D01*
X38653989Y-53585750D01*
X38654346Y-53554257D01*
X38654073Y-53552799D01*
X38654373Y-53551345D01*
X38663692Y-52231719D01*
X38663655Y-52231525D01*
X38663695Y-52231329D01*
X38677055Y-50173297D01*
X38695198Y-48509963D01*
X38720229Y-47191108D01*
X38735890Y-46648599D01*
X38753997Y-46174439D01*
X38774704Y-45763961D01*
X38798133Y-45411784D01*
X38824321Y-45112482D01*
X38853163Y-44860853D01*
X38884434Y-44651204D01*
X38917798Y-44477523D01*
X38953111Y-44332454D01*
X38994093Y-44196396D01*
X39093810Y-43888332D01*
X39095342Y-43875262D01*
X39101321Y-43863538D01*
X39172467Y-43611594D01*
X39174102Y-43590908D01*
X39182408Y-43571892D01*
X39206104Y-43463623D01*
X39206503Y-43442730D01*
X39213700Y-43423115D01*
X39229290Y-43323530D01*
X39228198Y-43296959D01*
X39235419Y-43271362D01*
X39242762Y-43178119D01*
X39239088Y-43147065D01*
X39244829Y-43116328D01*
X39243785Y-43027084D01*
X39236840Y-42994187D01*
X39239779Y-42960693D01*
X39230209Y-42873108D01*
X39220332Y-42841753D01*
X39220087Y-42808881D01*
X39201847Y-42720619D01*
X39190471Y-42693724D01*
X39187797Y-42664645D01*
X39160748Y-42573357D01*
X39149686Y-42552335D01*
X39145896Y-42528879D01*
X39109899Y-42432232D01*
X39100536Y-42417059D01*
X39096793Y-42399625D01*
X39051706Y-42295273D01*
X39044696Y-42285119D01*
X39041681Y-42273157D01*
X38987365Y-42158761D01*
X38981441Y-42150798D01*
X38978740Y-42141242D01*
X38844188Y-41877534D01*
X38769002Y-41724534D01*
X38706622Y-41580522D01*
X38652003Y-41435486D01*
X38605028Y-41289416D01*
X38565578Y-41142214D01*
X38533565Y-40993806D01*
X38508924Y-40844090D01*
X38499295Y-40760000D01*
X39562560Y-40760000D01*
X39562560Y-42960000D01*
X39606838Y-43195317D01*
X39745910Y-43411441D01*
X39958110Y-43556431D01*
X40210000Y-43607440D01*
X42276572Y-43607440D01*
X42345000Y-43675868D01*
X42345000Y-49378568D01*
X41856145Y-49475807D01*
X41405197Y-49777122D01*
X41103882Y-50228070D01*
X40998075Y-50760000D01*
X41103882Y-51291930D01*
X41405197Y-51742878D01*
X41655312Y-51910000D01*
X41548690Y-51910000D01*
X41315301Y-52006673D01*
X41136673Y-52185302D01*
X41040000Y-52418691D01*
X41040000Y-53014250D01*
X41198750Y-53173000D01*
X43053000Y-53173000D01*
X43053000Y-53153000D01*
X43307000Y-53153000D01*
X43307000Y-53173000D01*
X45161250Y-53173000D01*
X45320000Y-53014250D01*
X45320000Y-52418691D01*
X45223327Y-52185302D01*
X45044699Y-52006673D01*
X44811310Y-51910000D01*
X44704688Y-51910000D01*
X44954803Y-51742878D01*
X45053612Y-51595000D01*
X46654132Y-51595000D01*
X47359566Y-52300434D01*
X47630459Y-52481439D01*
X47950000Y-52545000D01*
X70615000Y-52545000D01*
X70615000Y-53580763D01*
X70447423Y-53428959D01*
X70059039Y-53268096D01*
X69837000Y-53390085D01*
X69837000Y-54533000D01*
X69857000Y-54533000D01*
X69857000Y-54787000D01*
X69837000Y-54787000D01*
X69837000Y-55929915D01*
X70059039Y-56051904D01*
X70447423Y-55891041D01*
X70862389Y-55515134D01*
X70972215Y-55283083D01*
X77618815Y-61929683D01*
X77889709Y-62110689D01*
X78209249Y-62174249D01*
X78405626Y-62174249D01*
X78358033Y-62221759D01*
X78184818Y-62638908D01*
X78184424Y-63090590D01*
X78356911Y-63508041D01*
X78676019Y-63827707D01*
X79093168Y-64000922D01*
X79544850Y-64001316D01*
X79962301Y-63828829D01*
X80281967Y-63509721D01*
X80455182Y-63092572D01*
X80455576Y-62640890D01*
X80283089Y-62223439D01*
X80233985Y-62174249D01*
X82588579Y-62174249D01*
X82568033Y-62194759D01*
X82394818Y-62611908D01*
X82394424Y-63063590D01*
X82566911Y-63481041D01*
X82886019Y-63800707D01*
X83303168Y-63973922D01*
X83754850Y-63974316D01*
X84172301Y-63801829D01*
X84491967Y-63482721D01*
X84665182Y-63065572D01*
X84665576Y-62613890D01*
X84493089Y-62196439D01*
X84470938Y-62174249D01*
X85503381Y-62174249D01*
X86857368Y-63528236D01*
X86855258Y-63533319D01*
X86854743Y-64124089D01*
X87080344Y-64670086D01*
X87497717Y-65088188D01*
X87505000Y-65091212D01*
X87505000Y-69084881D01*
X84583622Y-72006260D01*
X84300726Y-72006260D01*
X84173981Y-71879293D01*
X83756832Y-71706078D01*
X83305150Y-71705684D01*
X82887699Y-71878171D01*
X82568033Y-72197279D01*
X82394818Y-72614428D01*
X82394424Y-73066110D01*
X82566911Y-73483561D01*
X82886019Y-73803227D01*
X83303168Y-73976442D01*
X83754850Y-73976836D01*
X84141683Y-73817000D01*
X88755000Y-73817000D01*
X88755000Y-74092000D01*
X88889998Y-74516678D01*
X89177237Y-74857368D01*
X89588126Y-75059119D01*
X89763000Y-74932954D01*
X89763000Y-73817000D01*
X90017000Y-73817000D01*
X90017000Y-74932954D01*
X90191874Y-75059119D01*
X90602763Y-74857368D01*
X90890002Y-74516678D01*
X91025000Y-74092000D01*
X91025000Y-73817000D01*
X95755000Y-73817000D01*
X95755000Y-74092000D01*
X95889998Y-74516678D01*
X96177237Y-74857368D01*
X96588126Y-75059119D01*
X96763000Y-74932954D01*
X96763000Y-73817000D01*
X97017000Y-73817000D01*
X97017000Y-74932954D01*
X97191874Y-75059119D01*
X97602763Y-74857368D01*
X97890002Y-74516678D01*
X98025000Y-74092000D01*
X98025000Y-73817000D01*
X97017000Y-73817000D01*
X96763000Y-73817000D01*
X95755000Y-73817000D01*
X91025000Y-73817000D01*
X90017000Y-73817000D01*
X89763000Y-73817000D01*
X88755000Y-73817000D01*
X84141683Y-73817000D01*
X84172301Y-73804349D01*
X84300614Y-73676260D01*
X84929490Y-73676260D01*
X85249031Y-73612699D01*
X85519924Y-73431694D01*
X85663618Y-73288000D01*
X88755000Y-73288000D01*
X88755000Y-73563000D01*
X89763000Y-73563000D01*
X89763000Y-72447046D01*
X90017000Y-72447046D01*
X90017000Y-73563000D01*
X91025000Y-73563000D01*
X91025000Y-73288000D01*
X95755000Y-73288000D01*
X95755000Y-73563000D01*
X96763000Y-73563000D01*
X96763000Y-72447046D01*
X97017000Y-72447046D01*
X97017000Y-73563000D01*
X98025000Y-73563000D01*
X98025000Y-73288000D01*
X97890002Y-72863322D01*
X97602763Y-72522632D01*
X97191874Y-72320881D01*
X97017000Y-72447046D01*
X96763000Y-72447046D01*
X96588126Y-72320881D01*
X96177237Y-72522632D01*
X95889998Y-72863322D01*
X95755000Y-73288000D01*
X91025000Y-73288000D01*
X90890002Y-72863322D01*
X90602763Y-72522632D01*
X90191874Y-72320881D01*
X90017000Y-72447046D01*
X89763000Y-72447046D01*
X89588126Y-72320881D01*
X89177237Y-72522632D01*
X88889998Y-72863322D01*
X88755000Y-73288000D01*
X85663618Y-73288000D01*
X87663680Y-71287938D01*
X89670732Y-71287938D01*
X89854448Y-71661821D01*
X90178951Y-71949568D01*
X90588869Y-72091229D01*
X90763000Y-71942563D01*
X90763000Y-71117000D01*
X89797266Y-71117000D01*
X89670732Y-71287938D01*
X87663680Y-71287938D01*
X88259556Y-70692062D01*
X89670732Y-70692062D01*
X89797266Y-70863000D01*
X90763000Y-70863000D01*
X90763000Y-70037437D01*
X90588869Y-69888771D01*
X90178951Y-70030432D01*
X89854448Y-70318179D01*
X89670732Y-70692062D01*
X88259556Y-70692062D01*
X88930434Y-70021185D01*
X89035756Y-69863559D01*
X89111439Y-69750291D01*
X89175000Y-69430750D01*
X89175000Y-67047949D01*
X91204999Y-69077948D01*
X91204999Y-69893564D01*
X91191131Y-69888771D01*
X91017000Y-70037437D01*
X91017000Y-70863000D01*
X91037000Y-70863000D01*
X91037000Y-71117000D01*
X91017000Y-71117000D01*
X91017000Y-71942563D01*
X91191131Y-72091229D01*
X91369926Y-72029440D01*
X91425910Y-72116441D01*
X91638110Y-72261431D01*
X91890000Y-72312440D01*
X92290000Y-72312440D01*
X92419589Y-72288056D01*
X92540000Y-72312440D01*
X92940000Y-72312440D01*
X93069589Y-72288056D01*
X93190000Y-72312440D01*
X93590000Y-72312440D01*
X93719589Y-72288056D01*
X93840000Y-72312440D01*
X94240000Y-72312440D01*
X94345705Y-72292550D01*
X94363690Y-72300000D01*
X94431250Y-72300000D01*
X94460254Y-72270996D01*
X94475317Y-72268162D01*
X94691441Y-72129090D01*
X94790000Y-71984844D01*
X94790000Y-72141250D01*
X94948750Y-72300000D01*
X95016310Y-72300000D01*
X95249699Y-72203327D01*
X95420115Y-72032910D01*
X95588869Y-72091229D01*
X95763000Y-71942563D01*
X95763000Y-71117000D01*
X96017000Y-71117000D01*
X96017000Y-71942563D01*
X96191131Y-72091229D01*
X96601049Y-71949568D01*
X96925552Y-71661821D01*
X97109268Y-71287938D01*
X96982734Y-71117000D01*
X96017000Y-71117000D01*
X95763000Y-71117000D01*
X95743000Y-71117000D01*
X95743000Y-70863000D01*
X95763000Y-70863000D01*
X95763000Y-70037437D01*
X96017000Y-70037437D01*
X96017000Y-70863000D01*
X96982734Y-70863000D01*
X97109268Y-70692062D01*
X96925552Y-70318179D01*
X96601049Y-70030432D01*
X96191131Y-69888771D01*
X96017000Y-70037437D01*
X95763000Y-70037437D01*
X95588869Y-69888771D01*
X95420115Y-69947090D01*
X95249699Y-69776673D01*
X95016310Y-69680000D01*
X94948750Y-69680000D01*
X94790000Y-69838750D01*
X94790000Y-69997067D01*
X94704090Y-69863559D01*
X94491890Y-69718569D01*
X94464215Y-69712965D01*
X94431250Y-69680000D01*
X94363690Y-69680000D01*
X94343247Y-69688468D01*
X94255000Y-69670598D01*
X94255000Y-65052841D01*
X94470054Y-64909147D01*
X94690000Y-64579974D01*
X94909946Y-64909147D01*
X95391715Y-65231054D01*
X95960000Y-65344093D01*
X96528285Y-65231054D01*
X97010054Y-64909147D01*
X97237702Y-64568447D01*
X97304817Y-64711358D01*
X97733076Y-65101645D01*
X98143110Y-65271476D01*
X98373000Y-65150155D01*
X98373000Y-63957000D01*
X98353000Y-63957000D01*
X98353000Y-63703000D01*
X98373000Y-63703000D01*
X98373000Y-62509845D01*
X98143110Y-62388524D01*
X97733076Y-62558355D01*
X97304817Y-62948642D01*
X97237702Y-63091553D01*
X97010054Y-62750853D01*
X96528285Y-62428946D01*
X95960000Y-62315907D01*
X95391715Y-62428946D01*
X94909946Y-62750853D01*
X94690000Y-63080026D01*
X94470054Y-62750853D01*
X93988285Y-62428946D01*
X93420000Y-62315907D01*
X92851715Y-62428946D01*
X92369946Y-62750853D01*
X92150000Y-63080026D01*
X91930054Y-62750853D01*
X91448285Y-62428946D01*
X90880000Y-62315907D01*
X90311715Y-62428946D01*
X89829946Y-62750853D01*
X89626615Y-63055160D01*
X89599656Y-62989914D01*
X89182283Y-62571812D01*
X88636681Y-62345258D01*
X88045911Y-62344743D01*
X88038623Y-62347755D01*
X86439683Y-60748815D01*
X86355505Y-60692569D01*
X86168790Y-60567810D01*
X85849249Y-60504249D01*
X78555117Y-60504249D01*
X77305336Y-59254468D01*
X81715346Y-59254468D01*
X81902883Y-59708341D01*
X82249833Y-60055897D01*
X82703377Y-60244225D01*
X83194468Y-60244654D01*
X83648341Y-60057117D01*
X83995897Y-59710167D01*
X84184225Y-59256623D01*
X84184226Y-59254468D01*
X91715346Y-59254468D01*
X91902883Y-59708341D01*
X92249833Y-60055897D01*
X92703377Y-60244225D01*
X93194468Y-60244654D01*
X93648341Y-60057117D01*
X93995897Y-59710167D01*
X94184225Y-59256623D01*
X94184654Y-58765532D01*
X93997117Y-58311659D01*
X93650167Y-57964103D01*
X93196623Y-57775775D01*
X92705532Y-57775346D01*
X92251659Y-57962883D01*
X91904103Y-58309833D01*
X91715775Y-58763377D01*
X91715346Y-59254468D01*
X84184226Y-59254468D01*
X84184654Y-58765532D01*
X83997117Y-58311659D01*
X83650167Y-57964103D01*
X83196623Y-57775775D01*
X82705532Y-57775346D01*
X82251659Y-57962883D01*
X81904103Y-58309833D01*
X81715775Y-58763377D01*
X81715346Y-59254468D01*
X77305336Y-59254468D01*
X74447878Y-56397010D01*
X75605510Y-56397010D01*
X75605510Y-57237059D01*
X75702183Y-57470448D01*
X75880811Y-57649077D01*
X76114200Y-57745750D01*
X76954250Y-57745750D01*
X77113000Y-57587000D01*
X77113000Y-56238260D01*
X77367000Y-56238260D01*
X77367000Y-57587000D01*
X77525750Y-57745750D01*
X78365800Y-57745750D01*
X78599189Y-57649077D01*
X78777817Y-57470448D01*
X78874490Y-57237059D01*
X78874490Y-56397010D01*
X78715740Y-56238260D01*
X77367000Y-56238260D01*
X77113000Y-56238260D01*
X75764260Y-56238260D01*
X75605510Y-56397010D01*
X74447878Y-56397010D01*
X73036329Y-54985461D01*
X75605510Y-54985461D01*
X75605510Y-55825510D01*
X75764260Y-55984260D01*
X77113000Y-55984260D01*
X77113000Y-54635520D01*
X77367000Y-54635520D01*
X77367000Y-55984260D01*
X78715740Y-55984260D01*
X78874490Y-55825510D01*
X78874490Y-55134468D01*
X81715346Y-55134468D01*
X81902883Y-55588341D01*
X82249833Y-55935897D01*
X82703377Y-56124225D01*
X83194468Y-56124654D01*
X83648341Y-55937117D01*
X83995897Y-55590167D01*
X84184225Y-55136623D01*
X84184226Y-55134468D01*
X91715346Y-55134468D01*
X91902883Y-55588341D01*
X92249833Y-55935897D01*
X92703377Y-56124225D01*
X93194468Y-56124654D01*
X93648341Y-55937117D01*
X93995897Y-55590167D01*
X94184225Y-55136623D01*
X94184654Y-54645532D01*
X93997117Y-54191659D01*
X93650167Y-53844103D01*
X93196623Y-53655775D01*
X92705532Y-53655346D01*
X92251659Y-53842883D01*
X91904103Y-54189833D01*
X91715775Y-54643377D01*
X91715346Y-55134468D01*
X84184226Y-55134468D01*
X84184654Y-54645532D01*
X83997117Y-54191659D01*
X83650167Y-53844103D01*
X83196623Y-53655775D01*
X82705532Y-53655346D01*
X82251659Y-53842883D01*
X81904103Y-54189833D01*
X81715775Y-54643377D01*
X81715346Y-55134468D01*
X78874490Y-55134468D01*
X78874490Y-54985461D01*
X78777817Y-54752072D01*
X78599189Y-54573443D01*
X78365800Y-54476770D01*
X77525750Y-54476770D01*
X77367000Y-54635520D01*
X77113000Y-54635520D01*
X76954250Y-54476770D01*
X76114200Y-54476770D01*
X75880811Y-54573443D01*
X75702183Y-54752072D01*
X75605510Y-54985461D01*
X73036329Y-54985461D01*
X72285000Y-54234132D01*
X72285000Y-51710000D01*
X72221439Y-51390459D01*
X72040434Y-51119566D01*
X71769541Y-50938561D01*
X71450000Y-50875000D01*
X51564117Y-50875000D01*
X51925824Y-50513923D01*
X52144750Y-49986691D01*
X52145222Y-49445646D01*
X53400128Y-48190740D01*
X56260000Y-48190740D01*
X56523070Y-48138412D01*
X56523070Y-48281230D01*
X56567348Y-48516547D01*
X56706420Y-48732671D01*
X56918620Y-48877661D01*
X57170510Y-48928670D01*
X59169490Y-48928670D01*
X59404807Y-48884392D01*
X59620931Y-48745320D01*
X59765921Y-48533120D01*
X59816930Y-48281230D01*
X59816930Y-48116740D01*
X61126080Y-48116740D01*
X61218995Y-48178824D01*
X61175000Y-48400000D01*
X61238561Y-48719540D01*
X61419566Y-48990434D01*
X62389566Y-49960434D01*
X62660459Y-50141439D01*
X62980000Y-50205000D01*
X80394132Y-50205000D01*
X82909566Y-52720434D01*
X83180459Y-52901439D01*
X83500000Y-52965000D01*
X94684132Y-52965000D01*
X94885000Y-53165868D01*
X94885000Y-59640002D01*
X94948561Y-59959543D01*
X95079457Y-60155442D01*
X95129566Y-60230436D01*
X96809564Y-61910434D01*
X97080457Y-62091439D01*
X97399998Y-62155000D01*
X98514132Y-62155000D01*
X98785389Y-62426257D01*
X98627000Y-62509845D01*
X98627000Y-63703000D01*
X98647000Y-63703000D01*
X98647000Y-63957000D01*
X98627000Y-63957000D01*
X98627000Y-65150155D01*
X98856890Y-65271476D01*
X99266924Y-65101645D01*
X99695183Y-64711358D01*
X99785000Y-64520106D01*
X99785000Y-66470000D01*
X99848561Y-66789541D01*
X99999971Y-67016142D01*
X100029566Y-67060434D01*
X102052424Y-69083292D01*
X101545632Y-70303782D01*
X101544370Y-71749874D01*
X102096600Y-73086372D01*
X103118249Y-74109806D01*
X104453782Y-74664368D01*
X105899874Y-74665630D01*
X107236372Y-74113400D01*
X108259806Y-73091751D01*
X108814368Y-71756218D01*
X108815630Y-70310126D01*
X108805922Y-70286630D01*
X110322975Y-70286630D01*
X110665566Y-70761277D01*
X111998800Y-71321342D01*
X113444875Y-71328568D01*
X114783639Y-70781854D01*
X114814434Y-70761277D01*
X115157025Y-70286630D01*
X112740000Y-67869605D01*
X110322975Y-70286630D01*
X108805922Y-70286630D01*
X108263400Y-68973628D01*
X107685657Y-68394875D01*
X109101432Y-68394875D01*
X109648146Y-69733639D01*
X109668723Y-69764434D01*
X110143370Y-70107025D01*
X112560395Y-67690000D01*
X112919605Y-67690000D01*
X115336630Y-70107025D01*
X115811277Y-69764434D01*
X116371342Y-68431200D01*
X116378568Y-66985125D01*
X115831854Y-65646361D01*
X115811277Y-65615566D01*
X115336630Y-65272975D01*
X112919605Y-67690000D01*
X112560395Y-67690000D01*
X110143370Y-65272975D01*
X109668723Y-65615566D01*
X109108658Y-66948800D01*
X109101432Y-68394875D01*
X107685657Y-68394875D01*
X107241751Y-67950194D01*
X105906218Y-67395632D01*
X104460126Y-67394370D01*
X103232488Y-67901620D01*
X101455000Y-66124132D01*
X101455000Y-65093370D01*
X110322975Y-65093370D01*
X112740000Y-67510395D01*
X115157025Y-65093370D01*
X114814434Y-64618723D01*
X113481200Y-64058658D01*
X112035125Y-64051432D01*
X110696361Y-64598146D01*
X110665566Y-64618723D01*
X110322975Y-65093370D01*
X101455000Y-65093370D01*
X101455000Y-63080000D01*
X101391439Y-62760459D01*
X101210434Y-62489566D01*
X99840742Y-61119874D01*
X112514370Y-61119874D01*
X113066600Y-62456372D01*
X114088249Y-63479806D01*
X115423782Y-64034368D01*
X116869874Y-64035630D01*
X118206372Y-63483400D01*
X119229806Y-62461751D01*
X119784368Y-61126218D01*
X119785630Y-59680126D01*
X119233400Y-58343628D01*
X118211751Y-57320194D01*
X116876218Y-56765632D01*
X115430126Y-56764370D01*
X114093628Y-57316600D01*
X113070194Y-58338249D01*
X112515632Y-59673782D01*
X112514370Y-61119874D01*
X99840742Y-61119874D01*
X99450434Y-60729566D01*
X99395064Y-60692569D01*
X99179541Y-60548561D01*
X98860000Y-60485000D01*
X97745866Y-60485000D01*
X96555000Y-59294134D01*
X96555000Y-52820000D01*
X96491439Y-52500459D01*
X96310434Y-52229566D01*
X95620434Y-51539566D01*
X95542871Y-51487740D01*
X95349541Y-51358561D01*
X95030000Y-51295000D01*
X83845868Y-51295000D01*
X82963957Y-50413089D01*
X86536517Y-50413089D01*
X86665725Y-50705859D01*
X87365883Y-50974071D01*
X88115384Y-50953928D01*
X88714275Y-50705859D01*
X88743396Y-50639874D01*
X113104370Y-50639874D01*
X113656600Y-51976372D01*
X114678249Y-52999806D01*
X116013782Y-53554368D01*
X117459874Y-53555630D01*
X118796372Y-53003400D01*
X119819806Y-51981751D01*
X120374368Y-50646218D01*
X120375630Y-49200126D01*
X119823400Y-47863628D01*
X118801751Y-46840194D01*
X117466218Y-46285632D01*
X116020126Y-46284370D01*
X114683628Y-46836600D01*
X113660194Y-47858249D01*
X113105632Y-49193782D01*
X113104370Y-50639874D01*
X88743396Y-50639874D01*
X88843483Y-50413089D01*
X87690000Y-49259605D01*
X86536517Y-50413089D01*
X82963957Y-50413089D01*
X82430868Y-49880000D01*
X83554985Y-48755883D01*
X85795929Y-48755883D01*
X85816072Y-49505384D01*
X86064141Y-50104275D01*
X86356911Y-50233483D01*
X87510395Y-49080000D01*
X87869605Y-49080000D01*
X89023089Y-50233483D01*
X89315859Y-50104275D01*
X89584071Y-49404117D01*
X89563928Y-48654616D01*
X89315859Y-48055725D01*
X89023089Y-47926517D01*
X87869605Y-49080000D01*
X87510395Y-49080000D01*
X86356911Y-47926517D01*
X86064141Y-48055725D01*
X85795929Y-48755883D01*
X83554985Y-48755883D01*
X84563957Y-47746911D01*
X86536517Y-47746911D01*
X87690000Y-48900395D01*
X88843483Y-47746911D01*
X88714275Y-47454141D01*
X88014117Y-47185929D01*
X87264616Y-47206072D01*
X86665725Y-47454141D01*
X86536517Y-47746911D01*
X84563957Y-47746911D01*
X86085868Y-46225000D01*
X90450000Y-46225000D01*
X90769541Y-46161439D01*
X91040434Y-45980434D01*
X91624238Y-45396630D01*
X110022975Y-45396630D01*
X110365566Y-45871277D01*
X111698800Y-46431342D01*
X113144875Y-46438568D01*
X114483639Y-45891854D01*
X114514434Y-45871277D01*
X114857025Y-45396630D01*
X112440000Y-42979605D01*
X110022975Y-45396630D01*
X91624238Y-45396630D01*
X93515993Y-43504875D01*
X108801432Y-43504875D01*
X109348146Y-44843639D01*
X109368723Y-44874434D01*
X109843370Y-45217025D01*
X112260395Y-42800000D01*
X112619605Y-42800000D01*
X115036630Y-45217025D01*
X115511277Y-44874434D01*
X116071342Y-43541200D01*
X116078568Y-42095125D01*
X115531854Y-40756361D01*
X115511277Y-40725566D01*
X115036630Y-40382975D01*
X112619605Y-42800000D01*
X112260395Y-42800000D01*
X109843370Y-40382975D01*
X109368723Y-40725566D01*
X108808658Y-42058800D01*
X108801432Y-43504875D01*
X93515993Y-43504875D01*
X96505868Y-40515000D01*
X101441939Y-40515000D01*
X101946600Y-41736372D01*
X102968249Y-42759806D01*
X104303782Y-43314368D01*
X105749874Y-43315630D01*
X107086372Y-42763400D01*
X108109806Y-41741751D01*
X108664368Y-40406218D01*
X108664545Y-40203370D01*
X110022975Y-40203370D01*
X112440000Y-42620395D01*
X114857025Y-40203370D01*
X114514434Y-39728723D01*
X113181200Y-39168658D01*
X111735125Y-39161432D01*
X110396361Y-39708146D01*
X110365566Y-39728723D01*
X110022975Y-40203370D01*
X108664545Y-40203370D01*
X108665630Y-38960126D01*
X108113400Y-37623628D01*
X107091751Y-36600194D01*
X105756218Y-36045632D01*
X104310126Y-36044370D01*
X102973628Y-36596600D01*
X101950194Y-37618249D01*
X101440802Y-38845000D01*
X96160000Y-38845000D01*
X95840459Y-38908561D01*
X95638850Y-39043272D01*
X95569566Y-39089566D01*
X90104132Y-44555000D01*
X85740000Y-44555000D01*
X85420459Y-44618561D01*
X85296205Y-44701585D01*
X85149566Y-44799566D01*
X81414132Y-48535000D01*
X63325868Y-48535000D01*
X62966212Y-48175344D01*
X63104698Y-48082811D01*
X63360000Y-47700725D01*
X63615302Y-48082811D01*
X64080849Y-48393880D01*
X64630000Y-48503113D01*
X65179151Y-48393880D01*
X65644698Y-48082811D01*
X65900000Y-47700725D01*
X66155302Y-48082811D01*
X66620849Y-48393880D01*
X67170000Y-48503113D01*
X67719151Y-48393880D01*
X68184698Y-48082811D01*
X68440000Y-47700725D01*
X68695302Y-48082811D01*
X69160849Y-48393880D01*
X69710000Y-48503113D01*
X70259151Y-48393880D01*
X70724698Y-48082811D01*
X71035767Y-47617264D01*
X71145000Y-47068113D01*
X71145000Y-47011887D01*
X71035767Y-46462736D01*
X70724698Y-45997189D01*
X70259151Y-45686120D01*
X69710000Y-45576887D01*
X69160849Y-45686120D01*
X68695302Y-45997189D01*
X68440000Y-46379275D01*
X68184698Y-45997189D01*
X68005000Y-45877118D01*
X68005000Y-45175000D01*
X72100000Y-45175000D01*
X72419541Y-45111439D01*
X72690434Y-44930434D01*
X74860434Y-42760434D01*
X74880358Y-42730615D01*
X75041439Y-42489541D01*
X75084158Y-42274781D01*
X75106838Y-42395317D01*
X75245910Y-42611441D01*
X75458110Y-42756431D01*
X75710000Y-42807440D01*
X75775000Y-42807440D01*
X75775000Y-42940000D01*
X75838561Y-43259541D01*
X75973350Y-43461267D01*
X76019566Y-43530434D01*
X76405000Y-43915868D01*
X76405000Y-44461810D01*
X76240510Y-44461810D01*
X76005193Y-44506088D01*
X75789069Y-44645160D01*
X75644079Y-44857360D01*
X75593070Y-45109250D01*
X75593070Y-47108230D01*
X75637348Y-47343547D01*
X75776420Y-47559671D01*
X75988620Y-47704661D01*
X76240510Y-47755670D01*
X78239490Y-47755670D01*
X78474807Y-47711392D01*
X78690931Y-47572320D01*
X78835921Y-47360120D01*
X78886930Y-47108230D01*
X78886930Y-45109250D01*
X78842652Y-44873933D01*
X78703580Y-44657809D01*
X78491380Y-44512819D01*
X78239490Y-44461810D01*
X78075000Y-44461810D01*
X78075000Y-43570000D01*
X78061104Y-43500139D01*
X78011440Y-43250460D01*
X77830434Y-42979566D01*
X77634821Y-42783953D01*
X77745317Y-42763162D01*
X77961441Y-42624090D01*
X78106431Y-42411890D01*
X78157440Y-42160000D01*
X78157440Y-40360000D01*
X78113162Y-40124683D01*
X77974090Y-39908559D01*
X77761890Y-39763569D01*
X77741466Y-39759433D01*
X77910551Y-39590643D01*
X77925351Y-39555000D01*
X85913150Y-39555000D01*
X86091314Y-39986191D01*
X86621021Y-40516822D01*
X87313469Y-40804352D01*
X88063241Y-40805006D01*
X88756191Y-40518686D01*
X89286822Y-39988979D01*
X89574352Y-39296531D01*
X89575006Y-38546759D01*
X89288686Y-37853809D01*
X88758979Y-37323178D01*
X88066531Y-37035648D01*
X87316759Y-37034994D01*
X86623809Y-37321314D01*
X86093178Y-37851021D01*
X86079069Y-37885000D01*
X77925857Y-37885000D01*
X77912068Y-37851629D01*
X77480643Y-37419449D01*
X76916670Y-37185267D01*
X76306009Y-37184735D01*
X75741629Y-37417932D01*
X75309449Y-37849357D01*
X75294649Y-37885000D01*
X74540000Y-37885000D01*
X74220460Y-37948560D01*
X73949566Y-38129566D01*
X73679566Y-38399566D01*
X73498561Y-38670459D01*
X73435000Y-38990000D01*
X73435000Y-39189188D01*
X72953400Y-38023628D01*
X71931751Y-37000194D01*
X70596218Y-36445632D01*
X69150126Y-36444370D01*
X67813628Y-36996600D01*
X66790194Y-38018249D01*
X66235632Y-39353782D01*
X66234370Y-40799874D01*
X66741620Y-42027512D01*
X66579566Y-42189566D01*
X66398561Y-42460459D01*
X66335000Y-42780000D01*
X66335000Y-45877118D01*
X66155302Y-45997189D01*
X65900000Y-46379275D01*
X65644698Y-45997189D01*
X65179151Y-45686120D01*
X64630000Y-45576887D01*
X64080849Y-45686120D01*
X63615302Y-45997189D01*
X63360000Y-46379275D01*
X63104698Y-45997189D01*
X62639151Y-45686120D01*
X62090000Y-45576887D01*
X61540849Y-45686120D01*
X61075302Y-45997189D01*
X60936447Y-46205000D01*
X59802394Y-46205000D01*
X59772652Y-46046933D01*
X59633580Y-45830809D01*
X59421380Y-45685819D01*
X59169490Y-45634810D01*
X57170510Y-45634810D01*
X56935193Y-45679088D01*
X56719069Y-45818160D01*
X56574079Y-46030360D01*
X56537159Y-46212674D01*
X56256200Y-46268560D01*
X55985306Y-46449566D01*
X55914132Y-46520740D01*
X55245000Y-46520740D01*
X55245000Y-43607440D01*
X55910000Y-43607440D01*
X56145317Y-43563162D01*
X56361441Y-43424090D01*
X56506431Y-43211890D01*
X56557440Y-42960000D01*
X56557440Y-42766630D01*
X60092975Y-42766630D01*
X60435566Y-43241277D01*
X61768800Y-43801342D01*
X63214875Y-43808568D01*
X64553639Y-43261854D01*
X64584434Y-43241277D01*
X64927025Y-42766630D01*
X62510000Y-40349605D01*
X60092975Y-42766630D01*
X56557440Y-42766630D01*
X56557440Y-40874875D01*
X58871432Y-40874875D01*
X59418146Y-42213639D01*
X59438723Y-42244434D01*
X59913370Y-42587025D01*
X62330395Y-40170000D01*
X62689605Y-40170000D01*
X65106630Y-42587025D01*
X65581277Y-42244434D01*
X66141342Y-40911200D01*
X66148568Y-39465125D01*
X65601854Y-38126361D01*
X65581277Y-38095566D01*
X65106630Y-37752975D01*
X62689605Y-40170000D01*
X62330395Y-40170000D01*
X59913370Y-37752975D01*
X59438723Y-38095566D01*
X58878658Y-39428800D01*
X58871432Y-40874875D01*
X56557440Y-40874875D01*
X56557440Y-40760000D01*
X56513162Y-40524683D01*
X56374090Y-40308559D01*
X56161890Y-40163569D01*
X55910000Y-40112560D01*
X52910000Y-40112560D01*
X52674683Y-40156838D01*
X52458559Y-40295910D01*
X52313569Y-40508110D01*
X52262560Y-40760000D01*
X52262560Y-42960000D01*
X52306838Y-43195317D01*
X52445910Y-43411441D01*
X52658110Y-43556431D01*
X52910000Y-43607440D01*
X53575000Y-43607440D01*
X53575000Y-46520740D01*
X53054260Y-46520740D01*
X52734719Y-46584301D01*
X52530944Y-46720459D01*
X52463826Y-46765306D01*
X50963911Y-48265221D01*
X50425813Y-48264752D01*
X49898200Y-48482757D01*
X49494176Y-48886077D01*
X49275250Y-49413309D01*
X49274752Y-49984187D01*
X49492757Y-50511800D01*
X49855324Y-50875000D01*
X48295868Y-50875000D01*
X47590434Y-50169566D01*
X47458062Y-50081118D01*
X47319541Y-49988561D01*
X47000000Y-49925000D01*
X45053612Y-49925000D01*
X44954803Y-49777122D01*
X44503855Y-49475807D01*
X44015000Y-49378568D01*
X44015000Y-43330000D01*
X43951439Y-43010459D01*
X43857440Y-42869780D01*
X43857440Y-40760000D01*
X43813162Y-40524683D01*
X43674090Y-40308559D01*
X43461890Y-40163569D01*
X43210000Y-40112560D01*
X40210000Y-40112560D01*
X39974683Y-40156838D01*
X39758559Y-40295910D01*
X39613569Y-40508110D01*
X39562560Y-40760000D01*
X38499295Y-40760000D01*
X38491619Y-40692968D01*
X38481641Y-40540376D01*
X38479000Y-40386220D01*
X38483732Y-40230431D01*
X38495893Y-40072949D01*
X38515548Y-39913781D01*
X38542776Y-39752887D01*
X38577661Y-39590303D01*
X38620292Y-39426050D01*
X38670763Y-39260172D01*
X38729143Y-39092789D01*
X38795528Y-38923938D01*
X38869990Y-38753729D01*
X38952568Y-38582334D01*
X39043373Y-38409768D01*
X39142411Y-38236250D01*
X39249737Y-38061886D01*
X39365391Y-37886809D01*
X39489395Y-37711167D01*
X39621747Y-37535132D01*
X39762494Y-37358804D01*
X39911619Y-37182357D01*
X40069148Y-37005906D01*
X40235057Y-36829617D01*
X40409393Y-36653579D01*
X40593778Y-36476291D01*
X40779949Y-36305929D01*
X40967969Y-36142479D01*
X41157951Y-35985873D01*
X41350122Y-35835953D01*
X41544648Y-35692615D01*
X41741773Y-35555706D01*
X41941609Y-35425173D01*
X42144491Y-35300821D01*
X42350557Y-35182593D01*
X42560070Y-35070366D01*
X42773245Y-34964051D01*
X42990386Y-34863525D01*
X43211657Y-34768746D01*
X43437325Y-34679628D01*
X43667641Y-34596102D01*
X43902845Y-34518116D01*
X44143172Y-34445619D01*
X44388813Y-34378585D01*
X44640011Y-34316971D01*
X44897012Y-34260743D01*
X45159948Y-34209892D01*
X45429053Y-34164389D01*
X45704530Y-34124213D01*
X45986514Y-34089351D01*
X46275294Y-34059772D01*
X46570833Y-34035478D01*
X46873560Y-34016427D01*
X47183376Y-34002615D01*
X47500602Y-33994010D01*
X47825338Y-33990591D01*
X48157167Y-33992311D01*
X48488448Y-33999595D01*
X48817497Y-34012867D01*
X49144574Y-34032049D01*
X49469419Y-34057054D01*
X49791601Y-34087780D01*
X50110969Y-34124146D01*
X50427169Y-34166050D01*
X50739903Y-34213396D01*
X51048853Y-34266078D01*
X51353806Y-34324011D01*
X51654365Y-34387071D01*
X51950376Y-34455183D01*
X52241399Y-34528208D01*
X52527140Y-34606028D01*
X52807401Y-34688559D01*
X53081825Y-34775664D01*
X53350088Y-34867213D01*
X53611950Y-34963097D01*
X53867039Y-35063157D01*
X54115123Y-35167280D01*
X54355832Y-35275292D01*
X54588903Y-35387052D01*
X54814077Y-35502420D01*
X55030942Y-35621166D01*
X55239282Y-35743144D01*
X55438830Y-35868178D01*
X55629267Y-35996040D01*
X55810313Y-36126505D01*
X55981739Y-36259363D01*
X56143276Y-36394352D01*
X56294713Y-36531229D01*
X56441254Y-36675028D01*
X57185939Y-37437654D01*
X57222246Y-37462543D01*
X57250757Y-37496077D01*
X57331532Y-37537462D01*
X57406387Y-37588777D01*
X57449451Y-37597877D01*
X57488627Y-37617949D01*
X57579091Y-37625272D01*
X57667885Y-37644036D01*
X57711155Y-37635963D01*
X57755029Y-37639515D01*
X57841410Y-37611662D01*
X57930625Y-37595017D01*
X57963872Y-37573370D01*
X60092975Y-37573370D01*
X62510000Y-39990395D01*
X64927025Y-37573370D01*
X64584434Y-37098723D01*
X63251200Y-36538658D01*
X61805125Y-36531432D01*
X60466361Y-37078146D01*
X60435566Y-37098723D01*
X60092975Y-37573370D01*
X57963872Y-37573370D01*
X57967511Y-37571001D01*
X58009406Y-37557492D01*
X58843147Y-37093021D01*
X58996622Y-37011171D01*
X59159091Y-36931374D01*
X59336132Y-36850832D01*
X59527206Y-36769919D01*
X59731830Y-36688925D01*
X59949732Y-36608007D01*
X60180309Y-36527422D01*
X60421007Y-36448032D01*
X60945940Y-36288565D01*
X61514028Y-36132852D01*
X62125632Y-35980628D01*
X62778655Y-35832313D01*
X63470918Y-35688294D01*
X64200373Y-35548895D01*
X64965088Y-35414396D01*
X65763043Y-35285076D01*
X66592369Y-35161174D01*
X67451137Y-35042936D01*
X68337401Y-34930596D01*
X69249583Y-34824344D01*
X70185519Y-34724434D01*
X71143429Y-34631071D01*
X72121631Y-34544450D01*
X73118196Y-34464789D01*
X74131302Y-34392295D01*
X75159079Y-34327175D01*
X76199832Y-34269626D01*
X77251596Y-34219857D01*
X78312695Y-34178063D01*
X79381200Y-34144449D01*
X80455450Y-34119210D01*
X81533399Y-34102550D01*
X82613498Y-34094663D01*
X83693818Y-34095758D01*
X84772432Y-34106009D01*
X85846220Y-34125595D01*
X86175212Y-34135950D01*
X86491764Y-34151606D01*
X86797461Y-34172384D01*
X87092734Y-34198079D01*
X87377685Y-34228461D01*
X87652773Y-34263333D01*
X87918128Y-34302465D01*
X88174142Y-34345659D01*
X88421013Y-34392692D01*
X88658995Y-34443346D01*
X88888564Y-34497458D01*
X89109853Y-34554790D01*
X89323252Y-34615165D01*
X89529018Y-34678383D01*
X89727545Y-34744283D01*
X89919003Y-34812639D01*
X90103847Y-34883326D01*
X90282285Y-34956136D01*
X90454743Y-35030954D01*
X90618273Y-35106128D01*
X90939118Y-35265953D01*
X91237535Y-35429721D01*
X91519226Y-35597974D01*
X91786673Y-35769723D01*
X92042221Y-35943930D01*
X92287181Y-36118826D01*
X92763198Y-36472443D01*
X92763631Y-36472648D01*
X92763952Y-36473002D01*
X93216918Y-36808534D01*
X93224542Y-36812135D01*
X93230356Y-36818238D01*
X93451364Y-36973810D01*
X93460839Y-36978007D01*
X93468209Y-36985297D01*
X93688293Y-37130619D01*
X93701374Y-37135954D01*
X93711817Y-37145476D01*
X93933017Y-37278963D01*
X93949886Y-37285056D01*
X93963741Y-37296438D01*
X94188099Y-37416500D01*
X94203209Y-37421091D01*
X94215856Y-37430553D01*
X94329860Y-37485053D01*
X94341190Y-37487941D01*
X94350783Y-37494627D01*
X94466343Y-37545175D01*
X94478542Y-37547852D01*
X94489040Y-37554622D01*
X94606414Y-37601020D01*
X94619401Y-37603385D01*
X94630758Y-37610113D01*
X94750194Y-37652162D01*
X94763878Y-37654121D01*
X94776042Y-37660689D01*
X94897803Y-37698191D01*
X94912058Y-37699656D01*
X94924935Y-37705939D01*
X95049274Y-37738694D01*
X95063956Y-37739594D01*
X95077438Y-37745480D01*
X95204612Y-37773290D01*
X95219560Y-37773573D01*
X95233507Y-37778961D01*
X95363768Y-37801629D01*
X95378834Y-37801266D01*
X95393114Y-37806083D01*
X95526720Y-37823409D01*
X95541737Y-37822395D01*
X95556192Y-37826584D01*
X95693398Y-37838369D01*
X95708205Y-37836724D01*
X95722677Y-37840253D01*
X95863740Y-37846301D01*
X95878206Y-37844063D01*
X95892563Y-37846930D01*
X96037732Y-37847040D01*
X96051734Y-37844266D01*
X96065832Y-37846484D01*
X96215370Y-37840459D01*
X96228811Y-37837218D01*
X96242539Y-37838822D01*
X96396698Y-37826461D01*
X96409498Y-37822831D01*
X96422765Y-37823869D01*
X96581800Y-37804974D01*
X96593906Y-37801035D01*
X96606626Y-37801563D01*
X96770794Y-37775938D01*
X96776560Y-37773825D01*
X96782700Y-37773972D01*
X99836717Y-37241998D01*
X99869288Y-37229409D01*
X99904099Y-37226723D01*
X99993008Y-37181592D01*
X100086019Y-37145644D01*
X100111292Y-37121551D01*
X100142426Y-37105747D01*
X100207299Y-37030025D01*
X100279471Y-36961222D01*
X100293599Y-36929293D01*
X100316317Y-36902776D01*
X100745827Y-36138564D01*
X100831472Y-35999214D01*
X100937728Y-35847802D01*
X101065865Y-35682319D01*
X101209085Y-35511902D01*
X101360897Y-35344406D01*
X101514670Y-35187254D01*
X101663079Y-35047993D01*
X101802221Y-34930424D01*
X101948254Y-34819190D01*
X102100767Y-34711934D01*
X102256234Y-34611256D01*
X102414666Y-34517080D01*
X102576109Y-34429318D01*
X102740612Y-34347897D01*
X102908198Y-34272771D01*
X103078878Y-34203906D01*
X103252711Y-34141262D01*
X103429734Y-34084816D01*
X103609982Y-34034552D01*
X103793456Y-33990479D01*
X103980192Y-33952595D01*
X104170182Y-33920917D01*
X104363447Y-33895461D01*
X104560031Y-33876246D01*
X104759802Y-33863305D01*
X104962870Y-33856663D01*
X105169106Y-33856356D01*
X105378588Y-33862402D01*
X105378588Y-33862402D01*
G37*
X105378588Y-33862402D02*
X105591136Y-33874834D01*
X105806826Y-33893685D01*
X106025526Y-33918976D01*
X106247206Y-33950734D01*
X106471861Y-33988991D01*
X106699293Y-34033743D01*
X106929545Y-34085026D01*
X107162501Y-34142845D01*
X107398112Y-34207217D01*
X107636304Y-34278152D01*
X107877007Y-34355657D01*
X108120101Y-34439722D01*
X108365564Y-34530366D01*
X108613286Y-34627578D01*
X108863191Y-34731354D01*
X109115194Y-34841685D01*
X109369300Y-34958601D01*
X109625283Y-35082025D01*
X109883273Y-35212050D01*
X110142929Y-35348527D01*
X110404411Y-35491568D01*
X110667536Y-35641103D01*
X110932208Y-35797102D01*
X111198457Y-35959612D01*
X111466127Y-36128568D01*
X111735174Y-36303972D01*
X112005521Y-36485800D01*
X112277036Y-36673995D01*
X112549782Y-36868630D01*
X112823589Y-37069618D01*
X113098378Y-37276929D01*
X113374174Y-37490614D01*
X113650802Y-37710577D01*
X113928335Y-37936903D01*
X114206529Y-38169430D01*
X114485397Y-38408204D01*
X114764881Y-38653211D01*
X115044948Y-38904462D01*
X115325529Y-39161929D01*
X115606401Y-39425449D01*
X115887684Y-39695171D01*
X116169306Y-39971068D01*
X116451100Y-40253022D01*
X116732978Y-40540983D01*
X117089354Y-40912883D01*
X117425905Y-41272704D01*
X117744086Y-41622307D01*
X118045176Y-41963358D01*
X118330644Y-42297726D01*
X118601810Y-42627123D01*
X118860203Y-42953490D01*
X119107327Y-43278801D01*
X119344521Y-43604794D01*
X119573345Y-43933558D01*
X119795219Y-44267009D01*
X120011609Y-44607175D01*
X120223937Y-44956047D01*
X120433538Y-45315506D01*
X120641827Y-45687567D01*
X120846681Y-46067740D01*
X121054272Y-46487982D01*
X121253625Y-46921995D01*
X121443529Y-47366981D01*
X121623734Y-47822065D01*
X121793991Y-48286328D01*
X121954060Y-48758894D01*
X122103663Y-49238720D01*
X122242626Y-49725053D01*
X122370687Y-50216880D01*
X122487651Y-50713324D01*
X122593293Y-51213444D01*
X122687421Y-51716350D01*
X122769820Y-52221056D01*
X122840307Y-52726710D01*
X122898702Y-53232431D01*
X122944813Y-53737216D01*
X122978464Y-54240171D01*
X122999499Y-54740357D01*
X123007729Y-55236859D01*
X123003021Y-55728781D01*
X122985224Y-56215131D01*
X122954216Y-56695053D01*
X122909870Y-57167501D01*
X122852077Y-57631613D01*
X122780737Y-58086486D01*
X122695786Y-58531114D01*
X122596445Y-58967739D01*
X122542763Y-59177020D01*
X122484868Y-59386212D01*
X122423545Y-59592152D01*
X122358816Y-59794655D01*
X122290624Y-59993805D01*
X122219027Y-60189314D01*
X122144000Y-60381166D01*
X122065557Y-60569237D01*
X121983705Y-60753425D01*
X121894870Y-60941195D01*
X121874678Y-61021768D01*
X121842652Y-61098407D01*
X121814100Y-61239639D01*
X121778248Y-61385405D01*
X121731731Y-61550711D01*
X121675023Y-61733164D01*
X121608641Y-61930860D01*
X121533999Y-62139741D01*
X121356630Y-62600574D01*
X121150187Y-63097433D01*
X120917554Y-63624451D01*
X120662778Y-64173078D01*
X120389858Y-64735067D01*
X120102726Y-65302407D01*
X119805288Y-65867207D01*
X119501593Y-66421366D01*
X119195584Y-66957048D01*
X118891492Y-67466003D01*
X118593548Y-67940117D01*
X118304673Y-68373426D01*
X118168234Y-68567624D01*
X118035428Y-68749146D01*
X117787601Y-69071358D01*
X117517714Y-69405408D01*
X117227959Y-69749092D01*
X116921437Y-70099143D01*
X116601054Y-70452564D01*
X116269768Y-70806366D01*
X115930466Y-71157641D01*
X115586128Y-71503428D01*
X115239601Y-71840911D01*
X114893871Y-72167158D01*
X114551945Y-72479245D01*
X114216895Y-72774225D01*
X113891815Y-73049173D01*
X113580095Y-73300990D01*
X113285334Y-73526523D01*
X113010692Y-73723120D01*
X112766301Y-73884882D01*
X112492052Y-74054360D01*
X112190275Y-74230093D01*
X111863344Y-74410719D01*
X111513691Y-74594936D01*
X111143439Y-74781671D01*
X110754773Y-74969848D01*
X110349786Y-75158460D01*
X109930539Y-75346539D01*
X109499167Y-75533087D01*
X109057530Y-75717245D01*
X108607756Y-75898036D01*
X108151810Y-76074568D01*
X107691781Y-76245896D01*
X107229559Y-76411168D01*
X106767900Y-76569224D01*
X106282963Y-76726614D01*
X105831352Y-76862758D01*
X105410817Y-76977929D01*
X105019539Y-77072352D01*
X104651808Y-77147162D01*
X104482795Y-77176125D01*
X104316525Y-77200750D01*
X104155935Y-77220587D01*
X104000930Y-77235694D01*
X103851025Y-77246154D01*
X103706032Y-77252096D01*
X103565447Y-77253568D01*
X103428725Y-77250720D01*
X103295755Y-77243607D01*
X103165850Y-77232273D01*
X103038648Y-77216784D01*
X102913588Y-77197116D01*
X102790135Y-77173283D01*
X102667866Y-77145242D01*
X102546249Y-77112916D01*
X102424771Y-77076209D01*
X102303070Y-77035040D01*
X102180655Y-76989268D01*
X102057124Y-76938769D01*
X101936157Y-76885206D01*
X101669154Y-76753994D01*
X100596644Y-76193710D01*
X100482069Y-76160135D01*
X100369022Y-76121734D01*
X98838676Y-75919932D01*
X98421553Y-75861970D01*
X98062424Y-75806796D01*
X97457286Y-75701967D01*
X96950688Y-75607108D01*
X96948348Y-75607134D01*
X96946171Y-75606278D01*
X96706830Y-75563121D01*
X96701612Y-75563215D01*
X96696726Y-75561377D01*
X96455920Y-75521668D01*
X96448561Y-75521910D01*
X96441613Y-75519463D01*
X96190116Y-75483432D01*
X96181593Y-75483893D01*
X96173480Y-75481257D01*
X95902063Y-75449134D01*
X95893375Y-75449818D01*
X95885018Y-75447332D01*
X95584452Y-75419364D01*
X95576410Y-75420200D01*
X95568609Y-75418075D01*
X95229660Y-75394453D01*
X95222579Y-75395356D01*
X95215654Y-75393621D01*
X94829098Y-75374627D01*
X94823181Y-75375505D01*
X94817355Y-75374151D01*
X94373961Y-75359984D01*
X94369108Y-75360789D01*
X94364303Y-75359744D01*
X93854839Y-75350656D01*
X93850952Y-75351357D01*
X93847085Y-75350562D01*
X93263594Y-75346760D01*
X92442916Y-75339036D01*
X91703084Y-75325016D01*
X91702164Y-75325181D01*
X91701252Y-75324984D01*
X91019827Y-75313893D01*
X91015737Y-75314638D01*
X91011664Y-75313809D01*
X90687916Y-75312398D01*
X90683367Y-75313282D01*
X90678809Y-75312418D01*
X90363078Y-75315240D01*
X90357186Y-75316467D01*
X90351256Y-75315448D01*
X90041072Y-75323576D01*
X90033715Y-75325241D01*
X90026256Y-75324125D01*
X89719145Y-75338829D01*
X89710618Y-75340954D01*
X89701897Y-75339873D01*
X89395387Y-75362309D01*
X89385927Y-75364921D01*
X89376156Y-75363989D01*
X89067781Y-75395319D01*
X89057678Y-75398418D01*
X89047134Y-75397734D01*
X88734422Y-75439125D01*
X88724006Y-75442669D01*
X88713009Y-75442304D01*
X88393485Y-75494918D01*
X88383067Y-75498834D01*
X88371938Y-75498821D01*
X88043135Y-75563820D01*
X88032993Y-75568007D01*
X88022021Y-75568340D01*
X87681466Y-75646891D01*
X87631877Y-75669217D01*
X87578460Y-75679390D01*
X87316770Y-75785291D01*
X87310000Y-75789735D01*
X87302080Y-75791435D01*
X87043793Y-75903014D01*
X87038083Y-75906955D01*
X87031330Y-75908546D01*
X86775976Y-76024943D01*
X86771315Y-76028299D01*
X86765746Y-76029708D01*
X86512853Y-76150052D01*
X86507881Y-76153758D01*
X86501903Y-76155384D01*
X86001602Y-76404467D01*
X85998278Y-76407037D01*
X85994241Y-76408188D01*
X85498827Y-76662328D01*
X85008589Y-76912530D01*
X84520920Y-77151509D01*
X84281240Y-77262762D01*
X84039764Y-77369391D01*
X83797911Y-77469815D01*
X83555178Y-77563363D01*
X83311008Y-77649411D01*
X83065019Y-77727270D01*
X82816519Y-77796368D01*
X82564950Y-77856088D01*
X82309648Y-77905814D01*
X82049873Y-77944932D01*
X81784855Y-77972787D01*
X81513737Y-77988697D01*
X81235750Y-77991881D01*
X80950002Y-77981547D01*
X80655574Y-77956808D01*
X80351724Y-77916751D01*
X80037645Y-77860386D01*
X79712619Y-77786699D01*
X79375921Y-77694639D01*
X79013775Y-77578941D01*
X78951719Y-77571906D01*
X78892517Y-77552024D01*
X78549527Y-77508001D01*
X78540453Y-77508625D01*
X78531755Y-77505955D01*
X78187726Y-77470903D01*
X78179652Y-77471671D01*
X78171844Y-77469471D01*
X77827059Y-77442434D01*
X77819954Y-77443277D01*
X77813030Y-77441479D01*
X77467776Y-77421526D01*
X77461660Y-77422379D01*
X77455655Y-77420933D01*
X77110218Y-77407104D01*
X77105048Y-77407919D01*
X77099942Y-77406770D01*
X76754604Y-77398134D01*
X76748786Y-77399141D01*
X76743004Y-77397942D01*
X76053773Y-77392382D01*
X76049119Y-77393269D01*
X76044467Y-77392370D01*
X75359059Y-77396152D01*
X75358176Y-77396333D01*
X75357290Y-77396164D01*
X74680860Y-77401644D01*
X74017666Y-77401365D01*
X73695369Y-77396756D01*
X73376881Y-77387977D01*
X73063814Y-77374211D01*
X72756586Y-77354628D01*
X72455515Y-77328422D01*
X72160920Y-77294846D01*
X71873195Y-77253172D01*
X71592545Y-77202694D01*
X71319259Y-77142752D01*
X71053468Y-77072687D01*
X70795308Y-76991865D01*
X70544716Y-76899606D01*
X70297103Y-76793272D01*
X70182546Y-76738324D01*
X70065555Y-76678019D01*
X69950336Y-76614276D01*
X69836802Y-76546954D01*
X69724935Y-76475930D01*
X69614718Y-76401089D01*
X69506085Y-76322268D01*
X69398977Y-76239298D01*
X69293378Y-76152032D01*
X69181157Y-76053161D01*
X69180302Y-76052665D01*
X69179700Y-76051881D01*
X69115640Y-75995764D01*
X69086453Y-75978934D01*
X69063427Y-75954335D01*
X68992871Y-75903744D01*
X68964438Y-75890851D01*
X68941138Y-75870072D01*
X68864284Y-75824843D01*
X68837328Y-75815442D01*
X68814528Y-75798256D01*
X68731580Y-75758234D01*
X68706592Y-75751769D01*
X68684884Y-75737809D01*
X68596040Y-75702825D01*
X68573215Y-75698700D01*
X68552909Y-75687485D01*
X68458368Y-75657380D01*
X68437787Y-75655067D01*
X68419096Y-75646153D01*
X68319056Y-75620753D01*
X68300520Y-75619783D01*
X68283363Y-75612699D01*
X68178031Y-75591871D01*
X68161581Y-75591890D01*
X68146097Y-75586338D01*
X68035667Y-75569885D01*
X68020963Y-75570598D01*
X68006903Y-75566219D01*
X67891577Y-75553999D01*
X67872566Y-75555730D01*
X67854061Y-75551064D01*
X67609524Y-75538674D01*
X67588799Y-75541716D01*
X67568213Y-75537828D01*
X67306494Y-75540368D01*
X67289873Y-75543842D01*
X67273055Y-75541510D01*
X66995752Y-75557766D01*
X66982490Y-75561222D01*
X66968850Y-75559875D01*
X66677568Y-75588498D01*
X66666890Y-75591735D01*
X66655758Y-75590995D01*
X66352098Y-75630695D01*
X66343501Y-75633605D01*
X66334431Y-75633239D01*
X66019987Y-75682713D01*
X66013067Y-75685258D01*
X66005698Y-75685117D01*
X65682080Y-75743074D01*
X65676570Y-75745234D01*
X65670649Y-75745221D01*
X65339450Y-75810358D01*
X65335125Y-75812138D01*
X65330450Y-75812191D01*
X64993275Y-75883212D01*
X64988799Y-75885125D01*
X64983933Y-75885248D01*
X64298054Y-76039748D01*
X64295141Y-76041042D01*
X64291959Y-76041151D01*
X62922831Y-76362721D01*
X62270617Y-76507864D01*
X61962367Y-76571231D01*
X61665519Y-76627413D01*
X61383742Y-76674877D01*
X61119390Y-76712457D01*
X60875254Y-76739110D01*
X60654535Y-76754044D01*
X60461009Y-76756952D01*
X60290953Y-76747961D01*
X60230154Y-76740835D01*
X60172611Y-76731128D01*
X60125701Y-76720384D01*
X60064920Y-76702143D01*
X59990406Y-76695027D01*
X59918265Y-76675080D01*
X59592856Y-76651148D01*
X59581438Y-76652559D01*
X59570254Y-76649861D01*
X59231997Y-76636201D01*
X59224905Y-76637316D01*
X59217894Y-76635777D01*
X58869514Y-76628891D01*
X58866241Y-76629475D01*
X58862987Y-76628793D01*
X58507582Y-76625156D01*
X58150664Y-76621300D01*
X57798814Y-76613847D01*
X57454493Y-76599578D01*
X57116990Y-76575268D01*
X56958346Y-76559070D01*
X56800591Y-76539175D01*
X56647226Y-76515601D01*
X56498596Y-76488128D01*
X56355195Y-76456581D01*
X56217314Y-76420778D01*
X56085291Y-76380608D01*
X55959417Y-76335981D01*
X55839838Y-76286812D01*
X55726603Y-76233003D01*
X55619673Y-76174436D01*
X55518882Y-76110919D01*
X55423920Y-76042114D01*
X55334414Y-75967549D01*
X55249945Y-75886556D01*
X55157057Y-75783827D01*
X55055751Y-75668383D01*
X54969706Y-75565019D01*
X54815994Y-75365293D01*
X54694464Y-75190200D01*
X54595162Y-75033346D01*
X54430019Y-74753053D01*
X54423656Y-74745925D01*
X54420259Y-74736996D01*
X54350272Y-74625329D01*
X54329403Y-74603205D01*
X54316139Y-74575837D01*
X54248268Y-74486122D01*
X54218544Y-74459693D01*
X54197202Y-74426129D01*
X54162157Y-74389457D01*
X54132610Y-74368731D01*
X54110182Y-74340462D01*
X54073379Y-74309226D01*
X54036352Y-74288641D01*
X54006159Y-74258924D01*
X53966838Y-74233100D01*
X53924006Y-74215756D01*
X53887042Y-74188029D01*
X53844440Y-74167595D01*
X53799220Y-74156007D01*
X53758443Y-74133289D01*
X53711798Y-74118247D01*
X53668407Y-74113209D01*
X53627870Y-74096933D01*
X53576421Y-74087281D01*
X53538437Y-74087695D01*
X53501844Y-74077491D01*
X53444829Y-74073173D01*
X53412720Y-74077069D01*
X53380892Y-74071326D01*
X53317549Y-74072455D01*
X53293247Y-74077741D01*
X53268517Y-74075089D01*
X53198084Y-74081411D01*
X53178784Y-74087084D01*
X53158690Y-74086100D01*
X53080405Y-74097727D01*
X53059919Y-74105061D01*
X53038162Y-74105361D01*
X52854989Y-74144426D01*
X52838363Y-74151583D01*
X52820300Y-74152774D01*
X52596576Y-74212820D01*
X52587684Y-74217210D01*
X52577811Y-74218144D01*
X52318379Y-74295757D01*
X52178033Y-74333483D01*
X52013169Y-74368111D01*
X51811487Y-74402155D01*
X51578020Y-74434390D01*
X51316549Y-74464255D01*
X51030199Y-74491459D01*
X50721960Y-74515838D01*
X50395923Y-74537231D01*
X49689382Y-74571665D01*
X48934984Y-74594457D01*
X48148481Y-74605906D01*
X47346803Y-74606184D01*
X46547395Y-74595889D01*
X45767360Y-74575231D01*
X45024139Y-74544638D01*
X44335208Y-74504565D01*
X43716238Y-74455422D01*
X43443476Y-74428145D01*
X43194413Y-74398894D01*
X42974486Y-74368253D01*
X42787594Y-74336874D01*
X42639356Y-74306143D01*
X42516668Y-74273549D01*
X42391293Y-74237464D01*
X42379102Y-74236439D01*
X42368043Y-74231213D01*
X42237835Y-74198645D01*
X42225629Y-74198050D01*
X42214407Y-74193221D01*
X42086089Y-74165873D01*
X42073979Y-74165708D01*
X42062694Y-74161311D01*
X41936254Y-74138931D01*
X41924318Y-74139184D01*
X41913048Y-74135232D01*
X41788472Y-74117565D01*
X41776691Y-74118219D01*
X41765435Y-74114696D01*
X41642712Y-74101516D01*
X41625646Y-74103045D01*
X41609061Y-74098739D01*
X41369123Y-74084882D01*
X41347621Y-74087883D01*
X41326305Y-74083750D01*
X41093621Y-74084879D01*
X41073796Y-74088923D01*
X41053744Y-74086235D01*
X40828215Y-74100487D01*
X40810540Y-74105179D01*
X40792312Y-74103706D01*
X40573833Y-74129106D01*
X40558473Y-74134062D01*
X40542343Y-74133510D01*
X40330812Y-74168116D01*
X40317908Y-74172951D01*
X40304124Y-74173026D01*
X40099438Y-74214897D01*
X40089082Y-74219253D01*
X40077856Y-74219676D01*
X39879914Y-74266869D01*
X39869716Y-74271551D01*
X39858523Y-74272335D01*
X39482455Y-74374911D01*
X39478318Y-74376974D01*
X39473713Y-74377358D01*
X39128750Y-74476380D01*
X38977489Y-74517140D01*
X38841120Y-74549894D01*
X38721776Y-74573257D01*
X38621325Y-74586771D01*
X38541238Y-74591119D01*
X38470508Y-74587806D01*
X38457864Y-74586065D01*
X38439650Y-74582299D01*
X38424671Y-74578072D01*
X38411848Y-74573390D01*
X38399990Y-74567990D01*
X38387896Y-74561289D01*
X38374397Y-74552360D01*
X38358635Y-74540101D01*
X38340073Y-74523323D01*
X38318481Y-74500859D01*
X38293859Y-74471612D01*
X38266455Y-74434698D01*
X38236651Y-74389436D01*
X38204830Y-74335224D01*
X38171421Y-74271655D01*
X38139474Y-74204020D01*
X38065544Y-74021441D01*
X37993359Y-73804708D01*
X37921921Y-73546295D01*
X37852684Y-73246712D01*
X37790888Y-72921141D01*
X37773696Y-72808270D01*
X54545510Y-72808270D01*
X54545510Y-73648319D01*
X54642183Y-73881708D01*
X54820811Y-74060337D01*
X55054200Y-74157010D01*
X55894250Y-74157010D01*
X56053000Y-73998260D01*
X56053000Y-72649520D01*
X56307000Y-72649520D01*
X56307000Y-73998260D01*
X56465750Y-74157010D01*
X57305800Y-74157010D01*
X57539189Y-74060337D01*
X57717817Y-73881708D01*
X57814490Y-73648319D01*
X57814490Y-72838270D01*
X58865510Y-72838270D01*
X58865510Y-73678319D01*
X58962183Y-73911708D01*
X59140811Y-74090337D01*
X59374200Y-74187010D01*
X60214250Y-74187010D01*
X60373000Y-74028260D01*
X60373000Y-72679520D01*
X60627000Y-72679520D01*
X60627000Y-74028260D01*
X60785750Y-74187010D01*
X61625800Y-74187010D01*
X61859189Y-74090337D01*
X62037817Y-73911708D01*
X62134490Y-73678319D01*
X62134490Y-72838270D01*
X61975740Y-72679520D01*
X60627000Y-72679520D01*
X60373000Y-72679520D01*
X59024260Y-72679520D01*
X58865510Y-72838270D01*
X57814490Y-72838270D01*
X57814490Y-72808270D01*
X57655740Y-72649520D01*
X56307000Y-72649520D01*
X56053000Y-72649520D01*
X54704260Y-72649520D01*
X54545510Y-72808270D01*
X37773696Y-72808270D01*
X37736359Y-72563142D01*
X37689411Y-72176279D01*
X37672524Y-71998308D01*
X45761297Y-71998308D01*
X45871091Y-72274598D01*
X46513758Y-72516307D01*
X47200003Y-72493679D01*
X47728909Y-72274598D01*
X47838703Y-71998308D01*
X46800000Y-70959605D01*
X45761297Y-71998308D01*
X37672524Y-71998308D01*
X37650420Y-71765363D01*
X37619630Y-71335150D01*
X37597178Y-70890022D01*
X37584990Y-70493758D01*
X45063693Y-70493758D01*
X45086321Y-71180003D01*
X45305402Y-71708909D01*
X45581692Y-71818703D01*
X46620395Y-70780000D01*
X46979605Y-70780000D01*
X48018308Y-71818703D01*
X48294598Y-71708909D01*
X48412012Y-71396721D01*
X54545510Y-71396721D01*
X54545510Y-72236770D01*
X54704260Y-72395520D01*
X56053000Y-72395520D01*
X56053000Y-71046780D01*
X56307000Y-71046780D01*
X56307000Y-72395520D01*
X57655740Y-72395520D01*
X57814490Y-72236770D01*
X57814490Y-71426721D01*
X58865510Y-71426721D01*
X58865510Y-72266770D01*
X59024260Y-72425520D01*
X60373000Y-72425520D01*
X60373000Y-71076780D01*
X60627000Y-71076780D01*
X60627000Y-72425520D01*
X61975740Y-72425520D01*
X62058187Y-72343073D01*
X63454327Y-72343073D01*
X63693571Y-72922087D01*
X64136183Y-73365472D01*
X64714779Y-73605726D01*
X65341273Y-73606273D01*
X65920287Y-73367029D01*
X66363672Y-72924417D01*
X66603926Y-72345821D01*
X66604473Y-71719327D01*
X66365229Y-71140313D01*
X65922617Y-70696928D01*
X65344021Y-70456674D01*
X64717527Y-70456127D01*
X64138513Y-70695371D01*
X63695128Y-71137983D01*
X63454874Y-71716579D01*
X63454327Y-72343073D01*
X62058187Y-72343073D01*
X62134490Y-72266770D01*
X62134490Y-71426721D01*
X62037817Y-71193332D01*
X61859189Y-71014703D01*
X61625800Y-70918030D01*
X60785750Y-70918030D01*
X60627000Y-71076780D01*
X60373000Y-71076780D01*
X60214250Y-70918030D01*
X59374200Y-70918030D01*
X59140811Y-71014703D01*
X58962183Y-71193332D01*
X58865510Y-71426721D01*
X57814490Y-71426721D01*
X57814490Y-71396721D01*
X57717817Y-71163332D01*
X57539189Y-70984703D01*
X57305800Y-70888030D01*
X56465750Y-70888030D01*
X56307000Y-71046780D01*
X56053000Y-71046780D01*
X55894250Y-70888030D01*
X55054200Y-70888030D01*
X54820811Y-70984703D01*
X54642183Y-71163332D01*
X54545510Y-71396721D01*
X48412012Y-71396721D01*
X48536307Y-71066242D01*
X48513679Y-70379997D01*
X48294598Y-69851091D01*
X48018308Y-69741297D01*
X46979605Y-70780000D01*
X46620395Y-70780000D01*
X45581692Y-69741297D01*
X45305402Y-69851091D01*
X45063693Y-70493758D01*
X37584990Y-70493758D01*
X37583162Y-70434352D01*
X37577636Y-69972426D01*
X37580287Y-69561692D01*
X45761297Y-69561692D01*
X46800000Y-70600395D01*
X47838703Y-69561692D01*
X47728909Y-69285402D01*
X47086242Y-69043693D01*
X46399997Y-69066321D01*
X45871091Y-69285402D01*
X45761297Y-69561692D01*
X37580287Y-69561692D01*
X37580631Y-69508461D01*
X37592150Y-69046759D01*
X37612178Y-68591535D01*
X37640664Y-68147115D01*
X37677526Y-67717800D01*
X37722610Y-67308153D01*
X37775679Y-66922759D01*
X37838115Y-66556019D01*
X37914898Y-66123083D01*
X39975991Y-66123083D01*
X40238195Y-66757664D01*
X40723283Y-67243599D01*
X41357405Y-67506910D01*
X42044023Y-67507509D01*
X42678604Y-67245305D01*
X43001567Y-66922904D01*
X43321703Y-67243599D01*
X43955825Y-67506910D01*
X44642443Y-67507509D01*
X45277024Y-67245305D01*
X45762959Y-66760217D01*
X46026270Y-66126095D01*
X46026272Y-66123083D01*
X47573131Y-66123083D01*
X47835335Y-66757664D01*
X48320423Y-67243599D01*
X48954545Y-67506910D01*
X49641163Y-67507509D01*
X50275744Y-67245305D01*
X50598707Y-66922904D01*
X50918843Y-67243599D01*
X51552965Y-67506910D01*
X52239583Y-67507509D01*
X52874164Y-67245305D01*
X53360099Y-66760217D01*
X53623410Y-66126095D01*
X53624009Y-65439477D01*
X53361805Y-64804896D01*
X52876717Y-64318961D01*
X52242595Y-64055650D01*
X51555977Y-64055051D01*
X50921396Y-64317255D01*
X50598433Y-64639656D01*
X50278297Y-64318961D01*
X49644175Y-64055650D01*
X48957557Y-64055051D01*
X48322976Y-64317255D01*
X47837041Y-64802343D01*
X47573730Y-65436465D01*
X47573131Y-66123083D01*
X46026272Y-66123083D01*
X46026869Y-65439477D01*
X45764665Y-64804896D01*
X45279577Y-64318961D01*
X44645455Y-64055650D01*
X43958837Y-64055051D01*
X43324256Y-64317255D01*
X43001293Y-64639656D01*
X42681157Y-64318961D01*
X42537220Y-64259193D01*
X42537220Y-63023648D01*
X42665868Y-62895000D01*
X43600000Y-62895000D01*
X43919541Y-62831439D01*
X44190434Y-62650434D01*
X44820434Y-62020434D01*
X45001440Y-61749540D01*
X45065000Y-61430000D01*
X45065000Y-60084083D01*
X45445824Y-59703923D01*
X45664750Y-59176691D01*
X45664752Y-59174187D01*
X47794752Y-59174187D01*
X48012757Y-59701800D01*
X48416077Y-60105824D01*
X48943309Y-60324750D01*
X49514187Y-60325248D01*
X50041800Y-60107243D01*
X50219928Y-59929426D01*
X51230936Y-60940434D01*
X51501829Y-61121439D01*
X51821370Y-61185000D01*
X54641214Y-61185000D01*
X54584079Y-61268620D01*
X54533070Y-61520510D01*
X54533070Y-63519490D01*
X54577348Y-63754807D01*
X54716420Y-63970931D01*
X54928620Y-64115921D01*
X55180510Y-64166930D01*
X57179490Y-64166930D01*
X57414807Y-64122652D01*
X57630931Y-63983580D01*
X57775921Y-63771380D01*
X57826930Y-63519490D01*
X57826930Y-61520510D01*
X57782652Y-61285193D01*
X57718180Y-61185000D01*
X58940000Y-61185000D01*
X58988273Y-61175398D01*
X58904079Y-61298620D01*
X58853070Y-61550510D01*
X58853070Y-63549490D01*
X58897348Y-63784807D01*
X59036420Y-64000931D01*
X59248620Y-64145921D01*
X59500510Y-64196930D01*
X61499490Y-64196930D01*
X61685000Y-64162024D01*
X61685000Y-67458230D01*
X61748561Y-67777771D01*
X61870751Y-67960641D01*
X61929566Y-68048664D01*
X62761336Y-68880434D01*
X63032229Y-69061439D01*
X63351770Y-69125000D01*
X67283477Y-69125000D01*
X67283477Y-70599077D01*
X67347038Y-70918618D01*
X67510551Y-71163332D01*
X67528043Y-71189511D01*
X67999264Y-71660732D01*
X67976074Y-71716579D01*
X67975527Y-72343073D01*
X68214771Y-72922087D01*
X68657383Y-73365472D01*
X69235979Y-73605726D01*
X69862473Y-73606273D01*
X70441487Y-73367029D01*
X70734176Y-73074850D01*
X73984424Y-73074850D01*
X74156911Y-73492301D01*
X74476019Y-73811967D01*
X74893168Y-73985182D01*
X75344850Y-73985576D01*
X75762301Y-73813089D01*
X76081967Y-73493981D01*
X76248422Y-73093110D01*
X78184424Y-73093110D01*
X78356911Y-73510561D01*
X78676019Y-73830227D01*
X79093168Y-74003442D01*
X79544850Y-74003836D01*
X79962301Y-73831349D01*
X80281967Y-73512241D01*
X80455182Y-73095092D01*
X80455576Y-72643410D01*
X80283089Y-72225959D01*
X79963981Y-71906293D01*
X79546832Y-71733078D01*
X79095150Y-71732684D01*
X78677699Y-71905171D01*
X78358033Y-72224279D01*
X78184818Y-72641428D01*
X78184424Y-73093110D01*
X76248422Y-73093110D01*
X76255182Y-73076832D01*
X76255576Y-72625150D01*
X76083089Y-72207699D01*
X75763981Y-71888033D01*
X75346832Y-71714818D01*
X74895150Y-71714424D01*
X74477699Y-71886911D01*
X74158033Y-72206019D01*
X73984818Y-72623168D01*
X73984424Y-73074850D01*
X70734176Y-73074850D01*
X70884872Y-72924417D01*
X71125126Y-72345821D01*
X71125673Y-71719327D01*
X70886429Y-71140313D01*
X70443817Y-70696928D01*
X69865221Y-70456674D01*
X69238727Y-70456127D01*
X69180467Y-70480199D01*
X68953477Y-70253209D01*
X68953477Y-68635868D01*
X70141034Y-67448311D01*
X70322040Y-67177417D01*
X70379132Y-66890394D01*
X70441487Y-66864629D01*
X70884872Y-66422017D01*
X71125126Y-65843421D01*
X71125673Y-65216927D01*
X70886429Y-64637913D01*
X70443817Y-64194528D01*
X69865221Y-63954274D01*
X69238727Y-63953727D01*
X68659713Y-64192971D01*
X68216328Y-64635583D01*
X67976074Y-65214179D01*
X67975527Y-65840673D01*
X68214771Y-66419687D01*
X68511088Y-66716521D01*
X67772609Y-67455000D01*
X63697638Y-67455000D01*
X63355000Y-67112362D01*
X63355000Y-65035268D01*
X63478064Y-65158332D01*
X63454874Y-65214179D01*
X63454327Y-65840673D01*
X63693571Y-66419687D01*
X64136183Y-66863072D01*
X64714779Y-67103326D01*
X65341273Y-67103873D01*
X65920287Y-66864629D01*
X66363672Y-66422017D01*
X66603926Y-65843421D01*
X66604473Y-65216927D01*
X66365229Y-64637913D01*
X65922617Y-64194528D01*
X65344021Y-63954274D01*
X64717527Y-63953727D01*
X64659267Y-63977799D01*
X64085000Y-63403532D01*
X64085000Y-63072330D01*
X73984424Y-63072330D01*
X74156911Y-63489781D01*
X74476019Y-63809447D01*
X74893168Y-63982662D01*
X75344850Y-63983056D01*
X75762301Y-63810569D01*
X76081967Y-63491461D01*
X76255182Y-63074312D01*
X76255576Y-62622630D01*
X76083089Y-62205179D01*
X75763981Y-61885513D01*
X75346832Y-61712298D01*
X74895150Y-61711904D01*
X74477699Y-61884391D01*
X74158033Y-62203499D01*
X73984818Y-62620648D01*
X73984424Y-63072330D01*
X64085000Y-63072330D01*
X64085000Y-58415868D01*
X65220434Y-57280434D01*
X65401440Y-57009540D01*
X65465000Y-56690000D01*
X65465000Y-55822882D01*
X65644698Y-55702811D01*
X65900000Y-55320725D01*
X66155302Y-55702811D01*
X66620849Y-56013880D01*
X67170000Y-56123113D01*
X67719151Y-56013880D01*
X68184698Y-55702811D01*
X68454986Y-55298297D01*
X68557611Y-55515134D01*
X68972577Y-55891041D01*
X69360961Y-56051904D01*
X69583000Y-55929915D01*
X69583000Y-54787000D01*
X69563000Y-54787000D01*
X69563000Y-54533000D01*
X69583000Y-54533000D01*
X69583000Y-53390085D01*
X69360961Y-53268096D01*
X68972577Y-53428959D01*
X68557611Y-53804866D01*
X68454986Y-54021703D01*
X68184698Y-53617189D01*
X67719151Y-53306120D01*
X67170000Y-53196887D01*
X66620849Y-53306120D01*
X66155302Y-53617189D01*
X65900000Y-53999275D01*
X65644698Y-53617189D01*
X65179151Y-53306120D01*
X64630000Y-53196887D01*
X64080849Y-53306120D01*
X63615302Y-53617189D01*
X63518899Y-53761465D01*
X63493162Y-53624683D01*
X63354090Y-53408559D01*
X63141890Y-53263569D01*
X62890000Y-53212560D01*
X61290000Y-53212560D01*
X61054683Y-53256838D01*
X60838559Y-53395910D01*
X60693569Y-53608110D01*
X60642560Y-53860000D01*
X60642560Y-55460000D01*
X60686838Y-55695317D01*
X60825910Y-55911441D01*
X61038110Y-56056431D01*
X61290000Y-56107440D01*
X62890000Y-56107440D01*
X63125317Y-56063162D01*
X63341441Y-55924090D01*
X63486431Y-55711890D01*
X63517815Y-55556911D01*
X63615302Y-55702811D01*
X63795000Y-55822882D01*
X63795000Y-56344132D01*
X62904132Y-57235000D01*
X60701098Y-57235000D01*
X60159924Y-56693826D01*
X60112639Y-56662231D01*
X59889031Y-56512821D01*
X59816930Y-56498479D01*
X59816930Y-56284770D01*
X59772652Y-56049453D01*
X59633580Y-55833329D01*
X59421380Y-55688339D01*
X59169490Y-55637330D01*
X57170510Y-55637330D01*
X56935193Y-55681608D01*
X56719069Y-55820680D01*
X56574079Y-56032880D01*
X56523070Y-56284770D01*
X56523070Y-58283750D01*
X56567348Y-58519067D01*
X56706420Y-58735191D01*
X56918620Y-58880181D01*
X57170510Y-58931190D01*
X59169490Y-58931190D01*
X59179901Y-58929231D01*
X58594132Y-59515000D01*
X52167238Y-59515000D01*
X50951804Y-58299566D01*
X50928134Y-58283750D01*
X50680911Y-58118561D01*
X50439622Y-58070565D01*
X50043923Y-57674176D01*
X49516691Y-57455250D01*
X48945813Y-57454752D01*
X48418200Y-57672757D01*
X48014176Y-58076077D01*
X47795250Y-58603309D01*
X47794752Y-59174187D01*
X45664752Y-59174187D01*
X45665248Y-58605813D01*
X45447243Y-58078200D01*
X45043923Y-57674176D01*
X44516691Y-57455250D01*
X43945813Y-57454752D01*
X43418200Y-57672757D01*
X43014176Y-58076077D01*
X42795250Y-58603309D01*
X42794752Y-59174187D01*
X43012757Y-59701800D01*
X43395000Y-60084710D01*
X43395000Y-61084132D01*
X43254132Y-61225000D01*
X42320000Y-61225000D01*
X42000459Y-61288561D01*
X41792714Y-61427372D01*
X41729566Y-61469566D01*
X41111786Y-62087346D01*
X40930781Y-62358239D01*
X40867220Y-62677780D01*
X40867220Y-64258836D01*
X40725836Y-64317255D01*
X40239901Y-64802343D01*
X39976590Y-65436465D01*
X39975991Y-66123083D01*
X37914898Y-66123083D01*
X37935852Y-66004942D01*
X37935699Y-65997605D01*
X37938221Y-65990714D01*
X38029350Y-65405486D01*
X38029068Y-65398748D01*
X38031263Y-65392370D01*
X38115519Y-64772631D01*
X38115143Y-64766490D01*
X38117042Y-64760638D01*
X38194584Y-64103619D01*
X38194145Y-64098059D01*
X38195780Y-64092731D01*
X38266765Y-63395679D01*
X38266289Y-63390678D01*
X38267695Y-63385852D01*
X38332282Y-62646001D01*
X38331791Y-62641521D01*
X38332995Y-62637178D01*
X38391343Y-61851770D01*
X38390852Y-61847771D01*
X38391883Y-61843879D01*
X38444149Y-61010156D01*
X38443671Y-61006602D01*
X38444553Y-61003128D01*
X38490897Y-60118327D01*
X38490440Y-60115177D01*
X38491196Y-60112083D01*
X38531775Y-59173446D01*
X38531345Y-59170658D01*
X38531991Y-59167916D01*
X38566964Y-58172683D01*
X38566565Y-58170227D01*
X38567119Y-58167797D01*
X38596645Y-57113203D01*
X38596277Y-57111039D01*
X38596752Y-57108896D01*
X38620989Y-55992185D01*
X38620653Y-55990282D01*
X38621060Y-55988396D01*
X38625598Y-55707745D01*
X49881861Y-55707745D01*
X49955995Y-55953864D01*
X50493223Y-56146965D01*
X51063454Y-56119778D01*
X51464005Y-55953864D01*
X51538139Y-55707745D01*
X50710000Y-54879605D01*
X49881861Y-55707745D01*
X38625598Y-55707745D01*
X38640167Y-54806809D01*
X38639863Y-54805142D01*
X38640213Y-54803482D01*
X38653989Y-53585750D01*
X41040000Y-53585750D01*
X41040000Y-54181309D01*
X41136673Y-54414698D01*
X41315301Y-54593327D01*
X41548690Y-54690000D01*
X42894250Y-54690000D01*
X43053000Y-54531250D01*
X43053000Y-53427000D01*
X43307000Y-53427000D01*
X43307000Y-54531250D01*
X43465750Y-54690000D01*
X44811310Y-54690000D01*
X45044699Y-54593327D01*
X45154802Y-54483223D01*
X49263035Y-54483223D01*
X49290222Y-55053454D01*
X49456136Y-55454005D01*
X49702255Y-55528139D01*
X50530395Y-54700000D01*
X50889605Y-54700000D01*
X51717745Y-55528139D01*
X51963864Y-55454005D01*
X52156965Y-54916777D01*
X52129778Y-54346546D01*
X51963864Y-53945995D01*
X51717745Y-53871861D01*
X50889605Y-54700000D01*
X50530395Y-54700000D01*
X49702255Y-53871861D01*
X49456136Y-53945995D01*
X49263035Y-54483223D01*
X45154802Y-54483223D01*
X45223327Y-54414698D01*
X45320000Y-54181309D01*
X45320000Y-53692255D01*
X49881861Y-53692255D01*
X50710000Y-54520395D01*
X51538139Y-53692255D01*
X51464005Y-53446136D01*
X50926777Y-53253035D01*
X50356546Y-53280222D01*
X49955995Y-53446136D01*
X49881861Y-53692255D01*
X45320000Y-53692255D01*
X45320000Y-53585750D01*
X45161250Y-53427000D01*
X43307000Y-53427000D01*
X43053000Y-53427000D01*
X41198750Y-53427000D01*
X41040000Y-53585750D01*
X38653989Y-53585750D01*
X38654346Y-53554257D01*
X38654073Y-53552799D01*
X38654373Y-53551345D01*
X38663692Y-52231719D01*
X38663655Y-52231525D01*
X38663695Y-52231329D01*
X38677055Y-50173297D01*
X38695198Y-48509963D01*
X38720229Y-47191108D01*
X38735890Y-46648599D01*
X38753997Y-46174439D01*
X38774704Y-45763961D01*
X38798133Y-45411784D01*
X38824321Y-45112482D01*
X38853163Y-44860853D01*
X38884434Y-44651204D01*
X38917798Y-44477523D01*
X38953111Y-44332454D01*
X38994093Y-44196396D01*
X39093810Y-43888332D01*
X39095342Y-43875262D01*
X39101321Y-43863538D01*
X39172467Y-43611594D01*
X39174102Y-43590908D01*
X39182408Y-43571892D01*
X39206104Y-43463623D01*
X39206503Y-43442730D01*
X39213700Y-43423115D01*
X39229290Y-43323530D01*
X39228198Y-43296959D01*
X39235419Y-43271362D01*
X39242762Y-43178119D01*
X39239088Y-43147065D01*
X39244829Y-43116328D01*
X39243785Y-43027084D01*
X39236840Y-42994187D01*
X39239779Y-42960693D01*
X39230209Y-42873108D01*
X39220332Y-42841753D01*
X39220087Y-42808881D01*
X39201847Y-42720619D01*
X39190471Y-42693724D01*
X39187797Y-42664645D01*
X39160748Y-42573357D01*
X39149686Y-42552335D01*
X39145896Y-42528879D01*
X39109899Y-42432232D01*
X39100536Y-42417059D01*
X39096793Y-42399625D01*
X39051706Y-42295273D01*
X39044696Y-42285119D01*
X39041681Y-42273157D01*
X38987365Y-42158761D01*
X38981441Y-42150798D01*
X38978740Y-42141242D01*
X38844188Y-41877534D01*
X38769002Y-41724534D01*
X38706622Y-41580522D01*
X38652003Y-41435486D01*
X38605028Y-41289416D01*
X38565578Y-41142214D01*
X38533565Y-40993806D01*
X38508924Y-40844090D01*
X38499295Y-40760000D01*
X39562560Y-40760000D01*
X39562560Y-42960000D01*
X39606838Y-43195317D01*
X39745910Y-43411441D01*
X39958110Y-43556431D01*
X40210000Y-43607440D01*
X42276572Y-43607440D01*
X42345000Y-43675868D01*
X42345000Y-49378568D01*
X41856145Y-49475807D01*
X41405197Y-49777122D01*
X41103882Y-50228070D01*
X40998075Y-50760000D01*
X41103882Y-51291930D01*
X41405197Y-51742878D01*
X41655312Y-51910000D01*
X41548690Y-51910000D01*
X41315301Y-52006673D01*
X41136673Y-52185302D01*
X41040000Y-52418691D01*
X41040000Y-53014250D01*
X41198750Y-53173000D01*
X43053000Y-53173000D01*
X43053000Y-53153000D01*
X43307000Y-53153000D01*
X43307000Y-53173000D01*
X45161250Y-53173000D01*
X45320000Y-53014250D01*
X45320000Y-52418691D01*
X45223327Y-52185302D01*
X45044699Y-52006673D01*
X44811310Y-51910000D01*
X44704688Y-51910000D01*
X44954803Y-51742878D01*
X45053612Y-51595000D01*
X46654132Y-51595000D01*
X47359566Y-52300434D01*
X47630459Y-52481439D01*
X47950000Y-52545000D01*
X70615000Y-52545000D01*
X70615000Y-53580763D01*
X70447423Y-53428959D01*
X70059039Y-53268096D01*
X69837000Y-53390085D01*
X69837000Y-54533000D01*
X69857000Y-54533000D01*
X69857000Y-54787000D01*
X69837000Y-54787000D01*
X69837000Y-55929915D01*
X70059039Y-56051904D01*
X70447423Y-55891041D01*
X70862389Y-55515134D01*
X70972215Y-55283083D01*
X77618815Y-61929683D01*
X77889709Y-62110689D01*
X78209249Y-62174249D01*
X78405626Y-62174249D01*
X78358033Y-62221759D01*
X78184818Y-62638908D01*
X78184424Y-63090590D01*
X78356911Y-63508041D01*
X78676019Y-63827707D01*
X79093168Y-64000922D01*
X79544850Y-64001316D01*
X79962301Y-63828829D01*
X80281967Y-63509721D01*
X80455182Y-63092572D01*
X80455576Y-62640890D01*
X80283089Y-62223439D01*
X80233985Y-62174249D01*
X82588579Y-62174249D01*
X82568033Y-62194759D01*
X82394818Y-62611908D01*
X82394424Y-63063590D01*
X82566911Y-63481041D01*
X82886019Y-63800707D01*
X83303168Y-63973922D01*
X83754850Y-63974316D01*
X84172301Y-63801829D01*
X84491967Y-63482721D01*
X84665182Y-63065572D01*
X84665576Y-62613890D01*
X84493089Y-62196439D01*
X84470938Y-62174249D01*
X85503381Y-62174249D01*
X86857368Y-63528236D01*
X86855258Y-63533319D01*
X86854743Y-64124089D01*
X87080344Y-64670086D01*
X87497717Y-65088188D01*
X87505000Y-65091212D01*
X87505000Y-69084881D01*
X84583622Y-72006260D01*
X84300726Y-72006260D01*
X84173981Y-71879293D01*
X83756832Y-71706078D01*
X83305150Y-71705684D01*
X82887699Y-71878171D01*
X82568033Y-72197279D01*
X82394818Y-72614428D01*
X82394424Y-73066110D01*
X82566911Y-73483561D01*
X82886019Y-73803227D01*
X83303168Y-73976442D01*
X83754850Y-73976836D01*
X84141683Y-73817000D01*
X88755000Y-73817000D01*
X88755000Y-74092000D01*
X88889998Y-74516678D01*
X89177237Y-74857368D01*
X89588126Y-75059119D01*
X89763000Y-74932954D01*
X89763000Y-73817000D01*
X90017000Y-73817000D01*
X90017000Y-74932954D01*
X90191874Y-75059119D01*
X90602763Y-74857368D01*
X90890002Y-74516678D01*
X91025000Y-74092000D01*
X91025000Y-73817000D01*
X95755000Y-73817000D01*
X95755000Y-74092000D01*
X95889998Y-74516678D01*
X96177237Y-74857368D01*
X96588126Y-75059119D01*
X96763000Y-74932954D01*
X96763000Y-73817000D01*
X97017000Y-73817000D01*
X97017000Y-74932954D01*
X97191874Y-75059119D01*
X97602763Y-74857368D01*
X97890002Y-74516678D01*
X98025000Y-74092000D01*
X98025000Y-73817000D01*
X97017000Y-73817000D01*
X96763000Y-73817000D01*
X95755000Y-73817000D01*
X91025000Y-73817000D01*
X90017000Y-73817000D01*
X89763000Y-73817000D01*
X88755000Y-73817000D01*
X84141683Y-73817000D01*
X84172301Y-73804349D01*
X84300614Y-73676260D01*
X84929490Y-73676260D01*
X85249031Y-73612699D01*
X85519924Y-73431694D01*
X85663618Y-73288000D01*
X88755000Y-73288000D01*
X88755000Y-73563000D01*
X89763000Y-73563000D01*
X89763000Y-72447046D01*
X90017000Y-72447046D01*
X90017000Y-73563000D01*
X91025000Y-73563000D01*
X91025000Y-73288000D01*
X95755000Y-73288000D01*
X95755000Y-73563000D01*
X96763000Y-73563000D01*
X96763000Y-72447046D01*
X97017000Y-72447046D01*
X97017000Y-73563000D01*
X98025000Y-73563000D01*
X98025000Y-73288000D01*
X97890002Y-72863322D01*
X97602763Y-72522632D01*
X97191874Y-72320881D01*
X97017000Y-72447046D01*
X96763000Y-72447046D01*
X96588126Y-72320881D01*
X96177237Y-72522632D01*
X95889998Y-72863322D01*
X95755000Y-73288000D01*
X91025000Y-73288000D01*
X90890002Y-72863322D01*
X90602763Y-72522632D01*
X90191874Y-72320881D01*
X90017000Y-72447046D01*
X89763000Y-72447046D01*
X89588126Y-72320881D01*
X89177237Y-72522632D01*
X88889998Y-72863322D01*
X88755000Y-73288000D01*
X85663618Y-73288000D01*
X87663680Y-71287938D01*
X89670732Y-71287938D01*
X89854448Y-71661821D01*
X90178951Y-71949568D01*
X90588869Y-72091229D01*
X90763000Y-71942563D01*
X90763000Y-71117000D01*
X89797266Y-71117000D01*
X89670732Y-71287938D01*
X87663680Y-71287938D01*
X88259556Y-70692062D01*
X89670732Y-70692062D01*
X89797266Y-70863000D01*
X90763000Y-70863000D01*
X90763000Y-70037437D01*
X90588869Y-69888771D01*
X90178951Y-70030432D01*
X89854448Y-70318179D01*
X89670732Y-70692062D01*
X88259556Y-70692062D01*
X88930434Y-70021185D01*
X89035756Y-69863559D01*
X89111439Y-69750291D01*
X89175000Y-69430750D01*
X89175000Y-67047949D01*
X91204999Y-69077948D01*
X91204999Y-69893564D01*
X91191131Y-69888771D01*
X91017000Y-70037437D01*
X91017000Y-70863000D01*
X91037000Y-70863000D01*
X91037000Y-71117000D01*
X91017000Y-71117000D01*
X91017000Y-71942563D01*
X91191131Y-72091229D01*
X91369926Y-72029440D01*
X91425910Y-72116441D01*
X91638110Y-72261431D01*
X91890000Y-72312440D01*
X92290000Y-72312440D01*
X92419589Y-72288056D01*
X92540000Y-72312440D01*
X92940000Y-72312440D01*
X93069589Y-72288056D01*
X93190000Y-72312440D01*
X93590000Y-72312440D01*
X93719589Y-72288056D01*
X93840000Y-72312440D01*
X94240000Y-72312440D01*
X94345705Y-72292550D01*
X94363690Y-72300000D01*
X94431250Y-72300000D01*
X94460254Y-72270996D01*
X94475317Y-72268162D01*
X94691441Y-72129090D01*
X94790000Y-71984844D01*
X94790000Y-72141250D01*
X94948750Y-72300000D01*
X95016310Y-72300000D01*
X95249699Y-72203327D01*
X95420115Y-72032910D01*
X95588869Y-72091229D01*
X95763000Y-71942563D01*
X95763000Y-71117000D01*
X96017000Y-71117000D01*
X96017000Y-71942563D01*
X96191131Y-72091229D01*
X96601049Y-71949568D01*
X96925552Y-71661821D01*
X97109268Y-71287938D01*
X96982734Y-71117000D01*
X96017000Y-71117000D01*
X95763000Y-71117000D01*
X95743000Y-71117000D01*
X95743000Y-70863000D01*
X95763000Y-70863000D01*
X95763000Y-70037437D01*
X96017000Y-70037437D01*
X96017000Y-70863000D01*
X96982734Y-70863000D01*
X97109268Y-70692062D01*
X96925552Y-70318179D01*
X96601049Y-70030432D01*
X96191131Y-69888771D01*
X96017000Y-70037437D01*
X95763000Y-70037437D01*
X95588869Y-69888771D01*
X95420115Y-69947090D01*
X95249699Y-69776673D01*
X95016310Y-69680000D01*
X94948750Y-69680000D01*
X94790000Y-69838750D01*
X94790000Y-69997067D01*
X94704090Y-69863559D01*
X94491890Y-69718569D01*
X94464215Y-69712965D01*
X94431250Y-69680000D01*
X94363690Y-69680000D01*
X94343247Y-69688468D01*
X94255000Y-69670598D01*
X94255000Y-65052841D01*
X94470054Y-64909147D01*
X94690000Y-64579974D01*
X94909946Y-64909147D01*
X95391715Y-65231054D01*
X95960000Y-65344093D01*
X96528285Y-65231054D01*
X97010054Y-64909147D01*
X97237702Y-64568447D01*
X97304817Y-64711358D01*
X97733076Y-65101645D01*
X98143110Y-65271476D01*
X98373000Y-65150155D01*
X98373000Y-63957000D01*
X98353000Y-63957000D01*
X98353000Y-63703000D01*
X98373000Y-63703000D01*
X98373000Y-62509845D01*
X98143110Y-62388524D01*
X97733076Y-62558355D01*
X97304817Y-62948642D01*
X97237702Y-63091553D01*
X97010054Y-62750853D01*
X96528285Y-62428946D01*
X95960000Y-62315907D01*
X95391715Y-62428946D01*
X94909946Y-62750853D01*
X94690000Y-63080026D01*
X94470054Y-62750853D01*
X93988285Y-62428946D01*
X93420000Y-62315907D01*
X92851715Y-62428946D01*
X92369946Y-62750853D01*
X92150000Y-63080026D01*
X91930054Y-62750853D01*
X91448285Y-62428946D01*
X90880000Y-62315907D01*
X90311715Y-62428946D01*
X89829946Y-62750853D01*
X89626615Y-63055160D01*
X89599656Y-62989914D01*
X89182283Y-62571812D01*
X88636681Y-62345258D01*
X88045911Y-62344743D01*
X88038623Y-62347755D01*
X86439683Y-60748815D01*
X86355505Y-60692569D01*
X86168790Y-60567810D01*
X85849249Y-60504249D01*
X78555117Y-60504249D01*
X77305336Y-59254468D01*
X81715346Y-59254468D01*
X81902883Y-59708341D01*
X82249833Y-60055897D01*
X82703377Y-60244225D01*
X83194468Y-60244654D01*
X83648341Y-60057117D01*
X83995897Y-59710167D01*
X84184225Y-59256623D01*
X84184226Y-59254468D01*
X91715346Y-59254468D01*
X91902883Y-59708341D01*
X92249833Y-60055897D01*
X92703377Y-60244225D01*
X93194468Y-60244654D01*
X93648341Y-60057117D01*
X93995897Y-59710167D01*
X94184225Y-59256623D01*
X94184654Y-58765532D01*
X93997117Y-58311659D01*
X93650167Y-57964103D01*
X93196623Y-57775775D01*
X92705532Y-57775346D01*
X92251659Y-57962883D01*
X91904103Y-58309833D01*
X91715775Y-58763377D01*
X91715346Y-59254468D01*
X84184226Y-59254468D01*
X84184654Y-58765532D01*
X83997117Y-58311659D01*
X83650167Y-57964103D01*
X83196623Y-57775775D01*
X82705532Y-57775346D01*
X82251659Y-57962883D01*
X81904103Y-58309833D01*
X81715775Y-58763377D01*
X81715346Y-59254468D01*
X77305336Y-59254468D01*
X74447878Y-56397010D01*
X75605510Y-56397010D01*
X75605510Y-57237059D01*
X75702183Y-57470448D01*
X75880811Y-57649077D01*
X76114200Y-57745750D01*
X76954250Y-57745750D01*
X77113000Y-57587000D01*
X77113000Y-56238260D01*
X77367000Y-56238260D01*
X77367000Y-57587000D01*
X77525750Y-57745750D01*
X78365800Y-57745750D01*
X78599189Y-57649077D01*
X78777817Y-57470448D01*
X78874490Y-57237059D01*
X78874490Y-56397010D01*
X78715740Y-56238260D01*
X77367000Y-56238260D01*
X77113000Y-56238260D01*
X75764260Y-56238260D01*
X75605510Y-56397010D01*
X74447878Y-56397010D01*
X73036329Y-54985461D01*
X75605510Y-54985461D01*
X75605510Y-55825510D01*
X75764260Y-55984260D01*
X77113000Y-55984260D01*
X77113000Y-54635520D01*
X77367000Y-54635520D01*
X77367000Y-55984260D01*
X78715740Y-55984260D01*
X78874490Y-55825510D01*
X78874490Y-55134468D01*
X81715346Y-55134468D01*
X81902883Y-55588341D01*
X82249833Y-55935897D01*
X82703377Y-56124225D01*
X83194468Y-56124654D01*
X83648341Y-55937117D01*
X83995897Y-55590167D01*
X84184225Y-55136623D01*
X84184226Y-55134468D01*
X91715346Y-55134468D01*
X91902883Y-55588341D01*
X92249833Y-55935897D01*
X92703377Y-56124225D01*
X93194468Y-56124654D01*
X93648341Y-55937117D01*
X93995897Y-55590167D01*
X94184225Y-55136623D01*
X94184654Y-54645532D01*
X93997117Y-54191659D01*
X93650167Y-53844103D01*
X93196623Y-53655775D01*
X92705532Y-53655346D01*
X92251659Y-53842883D01*
X91904103Y-54189833D01*
X91715775Y-54643377D01*
X91715346Y-55134468D01*
X84184226Y-55134468D01*
X84184654Y-54645532D01*
X83997117Y-54191659D01*
X83650167Y-53844103D01*
X83196623Y-53655775D01*
X82705532Y-53655346D01*
X82251659Y-53842883D01*
X81904103Y-54189833D01*
X81715775Y-54643377D01*
X81715346Y-55134468D01*
X78874490Y-55134468D01*
X78874490Y-54985461D01*
X78777817Y-54752072D01*
X78599189Y-54573443D01*
X78365800Y-54476770D01*
X77525750Y-54476770D01*
X77367000Y-54635520D01*
X77113000Y-54635520D01*
X76954250Y-54476770D01*
X76114200Y-54476770D01*
X75880811Y-54573443D01*
X75702183Y-54752072D01*
X75605510Y-54985461D01*
X73036329Y-54985461D01*
X72285000Y-54234132D01*
X72285000Y-51710000D01*
X72221439Y-51390459D01*
X72040434Y-51119566D01*
X71769541Y-50938561D01*
X71450000Y-50875000D01*
X51564117Y-50875000D01*
X51925824Y-50513923D01*
X52144750Y-49986691D01*
X52145222Y-49445646D01*
X53400128Y-48190740D01*
X56260000Y-48190740D01*
X56523070Y-48138412D01*
X56523070Y-48281230D01*
X56567348Y-48516547D01*
X56706420Y-48732671D01*
X56918620Y-48877661D01*
X57170510Y-48928670D01*
X59169490Y-48928670D01*
X59404807Y-48884392D01*
X59620931Y-48745320D01*
X59765921Y-48533120D01*
X59816930Y-48281230D01*
X59816930Y-48116740D01*
X61126080Y-48116740D01*
X61218995Y-48178824D01*
X61175000Y-48400000D01*
X61238561Y-48719540D01*
X61419566Y-48990434D01*
X62389566Y-49960434D01*
X62660459Y-50141439D01*
X62980000Y-50205000D01*
X80394132Y-50205000D01*
X82909566Y-52720434D01*
X83180459Y-52901439D01*
X83500000Y-52965000D01*
X94684132Y-52965000D01*
X94885000Y-53165868D01*
X94885000Y-59640002D01*
X94948561Y-59959543D01*
X95079457Y-60155442D01*
X95129566Y-60230436D01*
X96809564Y-61910434D01*
X97080457Y-62091439D01*
X97399998Y-62155000D01*
X98514132Y-62155000D01*
X98785389Y-62426257D01*
X98627000Y-62509845D01*
X98627000Y-63703000D01*
X98647000Y-63703000D01*
X98647000Y-63957000D01*
X98627000Y-63957000D01*
X98627000Y-65150155D01*
X98856890Y-65271476D01*
X99266924Y-65101645D01*
X99695183Y-64711358D01*
X99785000Y-64520106D01*
X99785000Y-66470000D01*
X99848561Y-66789541D01*
X99999971Y-67016142D01*
X100029566Y-67060434D01*
X102052424Y-69083292D01*
X101545632Y-70303782D01*
X101544370Y-71749874D01*
X102096600Y-73086372D01*
X103118249Y-74109806D01*
X104453782Y-74664368D01*
X105899874Y-74665630D01*
X107236372Y-74113400D01*
X108259806Y-73091751D01*
X108814368Y-71756218D01*
X108815630Y-70310126D01*
X108805922Y-70286630D01*
X110322975Y-70286630D01*
X110665566Y-70761277D01*
X111998800Y-71321342D01*
X113444875Y-71328568D01*
X114783639Y-70781854D01*
X114814434Y-70761277D01*
X115157025Y-70286630D01*
X112740000Y-67869605D01*
X110322975Y-70286630D01*
X108805922Y-70286630D01*
X108263400Y-68973628D01*
X107685657Y-68394875D01*
X109101432Y-68394875D01*
X109648146Y-69733639D01*
X109668723Y-69764434D01*
X110143370Y-70107025D01*
X112560395Y-67690000D01*
X112919605Y-67690000D01*
X115336630Y-70107025D01*
X115811277Y-69764434D01*
X116371342Y-68431200D01*
X116378568Y-66985125D01*
X115831854Y-65646361D01*
X115811277Y-65615566D01*
X115336630Y-65272975D01*
X112919605Y-67690000D01*
X112560395Y-67690000D01*
X110143370Y-65272975D01*
X109668723Y-65615566D01*
X109108658Y-66948800D01*
X109101432Y-68394875D01*
X107685657Y-68394875D01*
X107241751Y-67950194D01*
X105906218Y-67395632D01*
X104460126Y-67394370D01*
X103232488Y-67901620D01*
X101455000Y-66124132D01*
X101455000Y-65093370D01*
X110322975Y-65093370D01*
X112740000Y-67510395D01*
X115157025Y-65093370D01*
X114814434Y-64618723D01*
X113481200Y-64058658D01*
X112035125Y-64051432D01*
X110696361Y-64598146D01*
X110665566Y-64618723D01*
X110322975Y-65093370D01*
X101455000Y-65093370D01*
X101455000Y-63080000D01*
X101391439Y-62760459D01*
X101210434Y-62489566D01*
X99840742Y-61119874D01*
X112514370Y-61119874D01*
X113066600Y-62456372D01*
X114088249Y-63479806D01*
X115423782Y-64034368D01*
X116869874Y-64035630D01*
X118206372Y-63483400D01*
X119229806Y-62461751D01*
X119784368Y-61126218D01*
X119785630Y-59680126D01*
X119233400Y-58343628D01*
X118211751Y-57320194D01*
X116876218Y-56765632D01*
X115430126Y-56764370D01*
X114093628Y-57316600D01*
X113070194Y-58338249D01*
X112515632Y-59673782D01*
X112514370Y-61119874D01*
X99840742Y-61119874D01*
X99450434Y-60729566D01*
X99395064Y-60692569D01*
X99179541Y-60548561D01*
X98860000Y-60485000D01*
X97745866Y-60485000D01*
X96555000Y-59294134D01*
X96555000Y-52820000D01*
X96491439Y-52500459D01*
X96310434Y-52229566D01*
X95620434Y-51539566D01*
X95542871Y-51487740D01*
X95349541Y-51358561D01*
X95030000Y-51295000D01*
X83845868Y-51295000D01*
X82963957Y-50413089D01*
X86536517Y-50413089D01*
X86665725Y-50705859D01*
X87365883Y-50974071D01*
X88115384Y-50953928D01*
X88714275Y-50705859D01*
X88743396Y-50639874D01*
X113104370Y-50639874D01*
X113656600Y-51976372D01*
X114678249Y-52999806D01*
X116013782Y-53554368D01*
X117459874Y-53555630D01*
X118796372Y-53003400D01*
X119819806Y-51981751D01*
X120374368Y-50646218D01*
X120375630Y-49200126D01*
X119823400Y-47863628D01*
X118801751Y-46840194D01*
X117466218Y-46285632D01*
X116020126Y-46284370D01*
X114683628Y-46836600D01*
X113660194Y-47858249D01*
X113105632Y-49193782D01*
X113104370Y-50639874D01*
X88743396Y-50639874D01*
X88843483Y-50413089D01*
X87690000Y-49259605D01*
X86536517Y-50413089D01*
X82963957Y-50413089D01*
X82430868Y-49880000D01*
X83554985Y-48755883D01*
X85795929Y-48755883D01*
X85816072Y-49505384D01*
X86064141Y-50104275D01*
X86356911Y-50233483D01*
X87510395Y-49080000D01*
X87869605Y-49080000D01*
X89023089Y-50233483D01*
X89315859Y-50104275D01*
X89584071Y-49404117D01*
X89563928Y-48654616D01*
X89315859Y-48055725D01*
X89023089Y-47926517D01*
X87869605Y-49080000D01*
X87510395Y-49080000D01*
X86356911Y-47926517D01*
X86064141Y-48055725D01*
X85795929Y-48755883D01*
X83554985Y-48755883D01*
X84563957Y-47746911D01*
X86536517Y-47746911D01*
X87690000Y-48900395D01*
X88843483Y-47746911D01*
X88714275Y-47454141D01*
X88014117Y-47185929D01*
X87264616Y-47206072D01*
X86665725Y-47454141D01*
X86536517Y-47746911D01*
X84563957Y-47746911D01*
X86085868Y-46225000D01*
X90450000Y-46225000D01*
X90769541Y-46161439D01*
X91040434Y-45980434D01*
X91624238Y-45396630D01*
X110022975Y-45396630D01*
X110365566Y-45871277D01*
X111698800Y-46431342D01*
X113144875Y-46438568D01*
X114483639Y-45891854D01*
X114514434Y-45871277D01*
X114857025Y-45396630D01*
X112440000Y-42979605D01*
X110022975Y-45396630D01*
X91624238Y-45396630D01*
X93515993Y-43504875D01*
X108801432Y-43504875D01*
X109348146Y-44843639D01*
X109368723Y-44874434D01*
X109843370Y-45217025D01*
X112260395Y-42800000D01*
X112619605Y-42800000D01*
X115036630Y-45217025D01*
X115511277Y-44874434D01*
X116071342Y-43541200D01*
X116078568Y-42095125D01*
X115531854Y-40756361D01*
X115511277Y-40725566D01*
X115036630Y-40382975D01*
X112619605Y-42800000D01*
X112260395Y-42800000D01*
X109843370Y-40382975D01*
X109368723Y-40725566D01*
X108808658Y-42058800D01*
X108801432Y-43504875D01*
X93515993Y-43504875D01*
X96505868Y-40515000D01*
X101441939Y-40515000D01*
X101946600Y-41736372D01*
X102968249Y-42759806D01*
X104303782Y-43314368D01*
X105749874Y-43315630D01*
X107086372Y-42763400D01*
X108109806Y-41741751D01*
X108664368Y-40406218D01*
X108664545Y-40203370D01*
X110022975Y-40203370D01*
X112440000Y-42620395D01*
X114857025Y-40203370D01*
X114514434Y-39728723D01*
X113181200Y-39168658D01*
X111735125Y-39161432D01*
X110396361Y-39708146D01*
X110365566Y-39728723D01*
X110022975Y-40203370D01*
X108664545Y-40203370D01*
X108665630Y-38960126D01*
X108113400Y-37623628D01*
X107091751Y-36600194D01*
X105756218Y-36045632D01*
X104310126Y-36044370D01*
X102973628Y-36596600D01*
X101950194Y-37618249D01*
X101440802Y-38845000D01*
X96160000Y-38845000D01*
X95840459Y-38908561D01*
X95638850Y-39043272D01*
X95569566Y-39089566D01*
X90104132Y-44555000D01*
X85740000Y-44555000D01*
X85420459Y-44618561D01*
X85296205Y-44701585D01*
X85149566Y-44799566D01*
X81414132Y-48535000D01*
X63325868Y-48535000D01*
X62966212Y-48175344D01*
X63104698Y-48082811D01*
X63360000Y-47700725D01*
X63615302Y-48082811D01*
X64080849Y-48393880D01*
X64630000Y-48503113D01*
X65179151Y-48393880D01*
X65644698Y-48082811D01*
X65900000Y-47700725D01*
X66155302Y-48082811D01*
X66620849Y-48393880D01*
X67170000Y-48503113D01*
X67719151Y-48393880D01*
X68184698Y-48082811D01*
X68440000Y-47700725D01*
X68695302Y-48082811D01*
X69160849Y-48393880D01*
X69710000Y-48503113D01*
X70259151Y-48393880D01*
X70724698Y-48082811D01*
X71035767Y-47617264D01*
X71145000Y-47068113D01*
X71145000Y-47011887D01*
X71035767Y-46462736D01*
X70724698Y-45997189D01*
X70259151Y-45686120D01*
X69710000Y-45576887D01*
X69160849Y-45686120D01*
X68695302Y-45997189D01*
X68440000Y-46379275D01*
X68184698Y-45997189D01*
X68005000Y-45877118D01*
X68005000Y-45175000D01*
X72100000Y-45175000D01*
X72419541Y-45111439D01*
X72690434Y-44930434D01*
X74860434Y-42760434D01*
X74880358Y-42730615D01*
X75041439Y-42489541D01*
X75084158Y-42274781D01*
X75106838Y-42395317D01*
X75245910Y-42611441D01*
X75458110Y-42756431D01*
X75710000Y-42807440D01*
X75775000Y-42807440D01*
X75775000Y-42940000D01*
X75838561Y-43259541D01*
X75973350Y-43461267D01*
X76019566Y-43530434D01*
X76405000Y-43915868D01*
X76405000Y-44461810D01*
X76240510Y-44461810D01*
X76005193Y-44506088D01*
X75789069Y-44645160D01*
X75644079Y-44857360D01*
X75593070Y-45109250D01*
X75593070Y-47108230D01*
X75637348Y-47343547D01*
X75776420Y-47559671D01*
X75988620Y-47704661D01*
X76240510Y-47755670D01*
X78239490Y-47755670D01*
X78474807Y-47711392D01*
X78690931Y-47572320D01*
X78835921Y-47360120D01*
X78886930Y-47108230D01*
X78886930Y-45109250D01*
X78842652Y-44873933D01*
X78703580Y-44657809D01*
X78491380Y-44512819D01*
X78239490Y-44461810D01*
X78075000Y-44461810D01*
X78075000Y-43570000D01*
X78061104Y-43500139D01*
X78011440Y-43250460D01*
X77830434Y-42979566D01*
X77634821Y-42783953D01*
X77745317Y-42763162D01*
X77961441Y-42624090D01*
X78106431Y-42411890D01*
X78157440Y-42160000D01*
X78157440Y-40360000D01*
X78113162Y-40124683D01*
X77974090Y-39908559D01*
X77761890Y-39763569D01*
X77741466Y-39759433D01*
X77910551Y-39590643D01*
X77925351Y-39555000D01*
X85913150Y-39555000D01*
X86091314Y-39986191D01*
X86621021Y-40516822D01*
X87313469Y-40804352D01*
X88063241Y-40805006D01*
X88756191Y-40518686D01*
X89286822Y-39988979D01*
X89574352Y-39296531D01*
X89575006Y-38546759D01*
X89288686Y-37853809D01*
X88758979Y-37323178D01*
X88066531Y-37035648D01*
X87316759Y-37034994D01*
X86623809Y-37321314D01*
X86093178Y-37851021D01*
X86079069Y-37885000D01*
X77925857Y-37885000D01*
X77912068Y-37851629D01*
X77480643Y-37419449D01*
X76916670Y-37185267D01*
X76306009Y-37184735D01*
X75741629Y-37417932D01*
X75309449Y-37849357D01*
X75294649Y-37885000D01*
X74540000Y-37885000D01*
X74220460Y-37948560D01*
X73949566Y-38129566D01*
X73679566Y-38399566D01*
X73498561Y-38670459D01*
X73435000Y-38990000D01*
X73435000Y-39189188D01*
X72953400Y-38023628D01*
X71931751Y-37000194D01*
X70596218Y-36445632D01*
X69150126Y-36444370D01*
X67813628Y-36996600D01*
X66790194Y-38018249D01*
X66235632Y-39353782D01*
X66234370Y-40799874D01*
X66741620Y-42027512D01*
X66579566Y-42189566D01*
X66398561Y-42460459D01*
X66335000Y-42780000D01*
X66335000Y-45877118D01*
X66155302Y-45997189D01*
X65900000Y-46379275D01*
X65644698Y-45997189D01*
X65179151Y-45686120D01*
X64630000Y-45576887D01*
X64080849Y-45686120D01*
X63615302Y-45997189D01*
X63360000Y-46379275D01*
X63104698Y-45997189D01*
X62639151Y-45686120D01*
X62090000Y-45576887D01*
X61540849Y-45686120D01*
X61075302Y-45997189D01*
X60936447Y-46205000D01*
X59802394Y-46205000D01*
X59772652Y-46046933D01*
X59633580Y-45830809D01*
X59421380Y-45685819D01*
X59169490Y-45634810D01*
X57170510Y-45634810D01*
X56935193Y-45679088D01*
X56719069Y-45818160D01*
X56574079Y-46030360D01*
X56537159Y-46212674D01*
X56256200Y-46268560D01*
X55985306Y-46449566D01*
X55914132Y-46520740D01*
X55245000Y-46520740D01*
X55245000Y-43607440D01*
X55910000Y-43607440D01*
X56145317Y-43563162D01*
X56361441Y-43424090D01*
X56506431Y-43211890D01*
X56557440Y-42960000D01*
X56557440Y-42766630D01*
X60092975Y-42766630D01*
X60435566Y-43241277D01*
X61768800Y-43801342D01*
X63214875Y-43808568D01*
X64553639Y-43261854D01*
X64584434Y-43241277D01*
X64927025Y-42766630D01*
X62510000Y-40349605D01*
X60092975Y-42766630D01*
X56557440Y-42766630D01*
X56557440Y-40874875D01*
X58871432Y-40874875D01*
X59418146Y-42213639D01*
X59438723Y-42244434D01*
X59913370Y-42587025D01*
X62330395Y-40170000D01*
X62689605Y-40170000D01*
X65106630Y-42587025D01*
X65581277Y-42244434D01*
X66141342Y-40911200D01*
X66148568Y-39465125D01*
X65601854Y-38126361D01*
X65581277Y-38095566D01*
X65106630Y-37752975D01*
X62689605Y-40170000D01*
X62330395Y-40170000D01*
X59913370Y-37752975D01*
X59438723Y-38095566D01*
X58878658Y-39428800D01*
X58871432Y-40874875D01*
X56557440Y-40874875D01*
X56557440Y-40760000D01*
X56513162Y-40524683D01*
X56374090Y-40308559D01*
X56161890Y-40163569D01*
X55910000Y-40112560D01*
X52910000Y-40112560D01*
X52674683Y-40156838D01*
X52458559Y-40295910D01*
X52313569Y-40508110D01*
X52262560Y-40760000D01*
X52262560Y-42960000D01*
X52306838Y-43195317D01*
X52445910Y-43411441D01*
X52658110Y-43556431D01*
X52910000Y-43607440D01*
X53575000Y-43607440D01*
X53575000Y-46520740D01*
X53054260Y-46520740D01*
X52734719Y-46584301D01*
X52530944Y-46720459D01*
X52463826Y-46765306D01*
X50963911Y-48265221D01*
X50425813Y-48264752D01*
X49898200Y-48482757D01*
X49494176Y-48886077D01*
X49275250Y-49413309D01*
X49274752Y-49984187D01*
X49492757Y-50511800D01*
X49855324Y-50875000D01*
X48295868Y-50875000D01*
X47590434Y-50169566D01*
X47458062Y-50081118D01*
X47319541Y-49988561D01*
X47000000Y-49925000D01*
X45053612Y-49925000D01*
X44954803Y-49777122D01*
X44503855Y-49475807D01*
X44015000Y-49378568D01*
X44015000Y-43330000D01*
X43951439Y-43010459D01*
X43857440Y-42869780D01*
X43857440Y-40760000D01*
X43813162Y-40524683D01*
X43674090Y-40308559D01*
X43461890Y-40163569D01*
X43210000Y-40112560D01*
X40210000Y-40112560D01*
X39974683Y-40156838D01*
X39758559Y-40295910D01*
X39613569Y-40508110D01*
X39562560Y-40760000D01*
X38499295Y-40760000D01*
X38491619Y-40692968D01*
X38481641Y-40540376D01*
X38479000Y-40386220D01*
X38483732Y-40230431D01*
X38495893Y-40072949D01*
X38515548Y-39913781D01*
X38542776Y-39752887D01*
X38577661Y-39590303D01*
X38620292Y-39426050D01*
X38670763Y-39260172D01*
X38729143Y-39092789D01*
X38795528Y-38923938D01*
X38869990Y-38753729D01*
X38952568Y-38582334D01*
X39043373Y-38409768D01*
X39142411Y-38236250D01*
X39249737Y-38061886D01*
X39365391Y-37886809D01*
X39489395Y-37711167D01*
X39621747Y-37535132D01*
X39762494Y-37358804D01*
X39911619Y-37182357D01*
X40069148Y-37005906D01*
X40235057Y-36829617D01*
X40409393Y-36653579D01*
X40593778Y-36476291D01*
X40779949Y-36305929D01*
X40967969Y-36142479D01*
X41157951Y-35985873D01*
X41350122Y-35835953D01*
X41544648Y-35692615D01*
X41741773Y-35555706D01*
X41941609Y-35425173D01*
X42144491Y-35300821D01*
X42350557Y-35182593D01*
X42560070Y-35070366D01*
X42773245Y-34964051D01*
X42990386Y-34863525D01*
X43211657Y-34768746D01*
X43437325Y-34679628D01*
X43667641Y-34596102D01*
X43902845Y-34518116D01*
X44143172Y-34445619D01*
X44388813Y-34378585D01*
X44640011Y-34316971D01*
X44897012Y-34260743D01*
X45159948Y-34209892D01*
X45429053Y-34164389D01*
X45704530Y-34124213D01*
X45986514Y-34089351D01*
X46275294Y-34059772D01*
X46570833Y-34035478D01*
X46873560Y-34016427D01*
X47183376Y-34002615D01*
X47500602Y-33994010D01*
X47825338Y-33990591D01*
X48157167Y-33992311D01*
X48488448Y-33999595D01*
X48817497Y-34012867D01*
X49144574Y-34032049D01*
X49469419Y-34057054D01*
X49791601Y-34087780D01*
X50110969Y-34124146D01*
X50427169Y-34166050D01*
X50739903Y-34213396D01*
X51048853Y-34266078D01*
X51353806Y-34324011D01*
X51654365Y-34387071D01*
X51950376Y-34455183D01*
X52241399Y-34528208D01*
X52527140Y-34606028D01*
X52807401Y-34688559D01*
X53081825Y-34775664D01*
X53350088Y-34867213D01*
X53611950Y-34963097D01*
X53867039Y-35063157D01*
X54115123Y-35167280D01*
X54355832Y-35275292D01*
X54588903Y-35387052D01*
X54814077Y-35502420D01*
X55030942Y-35621166D01*
X55239282Y-35743144D01*
X55438830Y-35868178D01*
X55629267Y-35996040D01*
X55810313Y-36126505D01*
X55981739Y-36259363D01*
X56143276Y-36394352D01*
X56294713Y-36531229D01*
X56441254Y-36675028D01*
X57185939Y-37437654D01*
X57222246Y-37462543D01*
X57250757Y-37496077D01*
X57331532Y-37537462D01*
X57406387Y-37588777D01*
X57449451Y-37597877D01*
X57488627Y-37617949D01*
X57579091Y-37625272D01*
X57667885Y-37644036D01*
X57711155Y-37635963D01*
X57755029Y-37639515D01*
X57841410Y-37611662D01*
X57930625Y-37595017D01*
X57963872Y-37573370D01*
X60092975Y-37573370D01*
X62510000Y-39990395D01*
X64927025Y-37573370D01*
X64584434Y-37098723D01*
X63251200Y-36538658D01*
X61805125Y-36531432D01*
X60466361Y-37078146D01*
X60435566Y-37098723D01*
X60092975Y-37573370D01*
X57963872Y-37573370D01*
X57967511Y-37571001D01*
X58009406Y-37557492D01*
X58843147Y-37093021D01*
X58996622Y-37011171D01*
X59159091Y-36931374D01*
X59336132Y-36850832D01*
X59527206Y-36769919D01*
X59731830Y-36688925D01*
X59949732Y-36608007D01*
X60180309Y-36527422D01*
X60421007Y-36448032D01*
X60945940Y-36288565D01*
X61514028Y-36132852D01*
X62125632Y-35980628D01*
X62778655Y-35832313D01*
X63470918Y-35688294D01*
X64200373Y-35548895D01*
X64965088Y-35414396D01*
X65763043Y-35285076D01*
X66592369Y-35161174D01*
X67451137Y-35042936D01*
X68337401Y-34930596D01*
X69249583Y-34824344D01*
X70185519Y-34724434D01*
X71143429Y-34631071D01*
X72121631Y-34544450D01*
X73118196Y-34464789D01*
X74131302Y-34392295D01*
X75159079Y-34327175D01*
X76199832Y-34269626D01*
X77251596Y-34219857D01*
X78312695Y-34178063D01*
X79381200Y-34144449D01*
X80455450Y-34119210D01*
X81533399Y-34102550D01*
X82613498Y-34094663D01*
X83693818Y-34095758D01*
X84772432Y-34106009D01*
X85846220Y-34125595D01*
X86175212Y-34135950D01*
X86491764Y-34151606D01*
X86797461Y-34172384D01*
X87092734Y-34198079D01*
X87377685Y-34228461D01*
X87652773Y-34263333D01*
X87918128Y-34302465D01*
X88174142Y-34345659D01*
X88421013Y-34392692D01*
X88658995Y-34443346D01*
X88888564Y-34497458D01*
X89109853Y-34554790D01*
X89323252Y-34615165D01*
X89529018Y-34678383D01*
X89727545Y-34744283D01*
X89919003Y-34812639D01*
X90103847Y-34883326D01*
X90282285Y-34956136D01*
X90454743Y-35030954D01*
X90618273Y-35106128D01*
X90939118Y-35265953D01*
X91237535Y-35429721D01*
X91519226Y-35597974D01*
X91786673Y-35769723D01*
X92042221Y-35943930D01*
X92287181Y-36118826D01*
X92763198Y-36472443D01*
X92763631Y-36472648D01*
X92763952Y-36473002D01*
X93216918Y-36808534D01*
X93224542Y-36812135D01*
X93230356Y-36818238D01*
X93451364Y-36973810D01*
X93460839Y-36978007D01*
X93468209Y-36985297D01*
X93688293Y-37130619D01*
X93701374Y-37135954D01*
X93711817Y-37145476D01*
X93933017Y-37278963D01*
X93949886Y-37285056D01*
X93963741Y-37296438D01*
X94188099Y-37416500D01*
X94203209Y-37421091D01*
X94215856Y-37430553D01*
X94329860Y-37485053D01*
X94341190Y-37487941D01*
X94350783Y-37494627D01*
X94466343Y-37545175D01*
X94478542Y-37547852D01*
X94489040Y-37554622D01*
X94606414Y-37601020D01*
X94619401Y-37603385D01*
X94630758Y-37610113D01*
X94750194Y-37652162D01*
X94763878Y-37654121D01*
X94776042Y-37660689D01*
X94897803Y-37698191D01*
X94912058Y-37699656D01*
X94924935Y-37705939D01*
X95049274Y-37738694D01*
X95063956Y-37739594D01*
X95077438Y-37745480D01*
X95204612Y-37773290D01*
X95219560Y-37773573D01*
X95233507Y-37778961D01*
X95363768Y-37801629D01*
X95378834Y-37801266D01*
X95393114Y-37806083D01*
X95526720Y-37823409D01*
X95541737Y-37822395D01*
X95556192Y-37826584D01*
X95693398Y-37838369D01*
X95708205Y-37836724D01*
X95722677Y-37840253D01*
X95863740Y-37846301D01*
X95878206Y-37844063D01*
X95892563Y-37846930D01*
X96037732Y-37847040D01*
X96051734Y-37844266D01*
X96065832Y-37846484D01*
X96215370Y-37840459D01*
X96228811Y-37837218D01*
X96242539Y-37838822D01*
X96396698Y-37826461D01*
X96409498Y-37822831D01*
X96422765Y-37823869D01*
X96581800Y-37804974D01*
X96593906Y-37801035D01*
X96606626Y-37801563D01*
X96770794Y-37775938D01*
X96776560Y-37773825D01*
X96782700Y-37773972D01*
X99836717Y-37241998D01*
X99869288Y-37229409D01*
X99904099Y-37226723D01*
X99993008Y-37181592D01*
X100086019Y-37145644D01*
X100111292Y-37121551D01*
X100142426Y-37105747D01*
X100207299Y-37030025D01*
X100279471Y-36961222D01*
X100293599Y-36929293D01*
X100316317Y-36902776D01*
X100745827Y-36138564D01*
X100831472Y-35999214D01*
X100937728Y-35847802D01*
X101065865Y-35682319D01*
X101209085Y-35511902D01*
X101360897Y-35344406D01*
X101514670Y-35187254D01*
X101663079Y-35047993D01*
X101802221Y-34930424D01*
X101948254Y-34819190D01*
X102100767Y-34711934D01*
X102256234Y-34611256D01*
X102414666Y-34517080D01*
X102576109Y-34429318D01*
X102740612Y-34347897D01*
X102908198Y-34272771D01*
X103078878Y-34203906D01*
X103252711Y-34141262D01*
X103429734Y-34084816D01*
X103609982Y-34034552D01*
X103793456Y-33990479D01*
X103980192Y-33952595D01*
X104170182Y-33920917D01*
X104363447Y-33895461D01*
X104560031Y-33876246D01*
X104759802Y-33863305D01*
X104962870Y-33856663D01*
X105169106Y-33856356D01*
X105378588Y-33862402D01*
M02*
