M48
;DRILL file {KiCad 4.0.7-e0-6372~58~ubuntu16.04.1} date Tue Jul 24 02:48:11 2018
;FORMAT={-:-/ absolute / metric / decimal}
FMAT,2
METRIC,TZ
T1C0.500
T2C0.550
T3C0.800
T4C0.900
T5C1.000
T6C1.001
T7C1.016
T8C1.199
T9C1.298
T10C4.000
%
G90
G05
M71
T3
X44.23Y-58.89
X49.23Y-58.89
X50.71Y-49.7
X50.71Y-54.7
X62.09Y-47.04
X62.09Y-54.66
X64.63Y-47.04
X64.63Y-54.66
X67.17Y-47.04
X67.17Y-54.66
X69.71Y-47.04
X69.71Y-54.66
T4
X76.61Y-38.72
X76.61Y-41.26
T5
X43.18Y-50.76
X43.18Y-53.3
X88.34Y-63.83
X90.88Y-63.83
X93.42Y-63.83
X95.96Y-63.83
X98.5Y-63.83
T6
X56.18Y-62.52
X56.18Y-72.523
X58.17Y-47.282
X58.17Y-57.284
X60.5Y-62.55
X60.5Y-72.553
X75.12Y-62.847
X75.12Y-72.85
X77.24Y-46.109
X77.24Y-56.111
X79.32Y-62.866
X79.32Y-72.868
X83.53Y-62.839
X83.53Y-72.841
X87.69Y-38.92
X87.69Y-49.08
T7
X41.71Y-41.86
X54.41Y-41.86
X65.029Y-65.529
X65.029Y-72.031
X69.551Y-65.529
X69.551Y-72.031
T8
X82.95Y-54.89
X82.95Y-59.01
X92.95Y-54.89
X92.95Y-59.01
T9
X41.702Y-65.781
X44.301Y-65.781
X46.8Y-70.78
X49.299Y-65.781
X51.898Y-65.781
T10
X62.51Y-40.17
X69.87Y-40.08
X105.03Y-39.68
X105.18Y-71.03
X112.44Y-42.8
X112.74Y-67.69
X116.15Y-60.4
X116.74Y-49.92
T1
X89.89Y-74.015G85X89.89Y-73.365
G05
X96.89Y-74.015G85X96.89Y-73.365
G05
T2
X90.74Y-70.99G85X91.04Y-70.99
G05
X95.74Y-70.99G85X96.04Y-70.99
G05
T0
M30
